<svg xmlns="http://www.w3.org/2000/svg" viewBox="-5 -10 110 135" fill="#A8BBDC" aria-hidden="true">
  <path d="m82.078 85.199c-0.15234-0.089844-0.17188-0.13281-0.57422-1.2539-1.0703-2.9883-1.8398-5.5781-3.3711-11.363-1.0586-4.0117-1.6367-6.1211-2.1094-7.7148-0.37109-1.2578-0.54688-1.8047-0.59375-1.8398-0.027344-0.023438-0.12109-0.039063-0.20313-0.039063-0.65234 0-3.293-0.75391-5.4648-1.5664-0.87891-0.32812-1.1758-0.45703-1.7148-0.75391-1.8242-0.99609-3.5547-2.3125-5.2305-3.9766-0.35156-0.35156-0.74219-0.75781-0.86328-0.91016-0.87109-1.0664-2.3945-3.2109-3.5859-5.0508-2.1055-3.25-3.1875-5.4062-3.1094-6.1875 0.03125-0.29688 0.1875-0.46875 0.375-0.41016 0.039063 0.011719 0.48047 0.42578 0.98438 0.92188 2.0039 1.9766 3.4375 3.1094 7.875 6.2344 2.7617 1.9453 4.3789 3.1289 5.1953 3.8047 1.3438 1.1094 2.8672 2.6719 4.3164 4.4258 0.24219 0.29297 0.44531 0.53516 0.45312 0.53516 0.007813 0-0.03125-0.11719-0.085937-0.26172-0.054688-0.14453-0.1875-0.50781-0.29688-0.80469-0.23828-0.64453-0.82812-2.0977-1.1328-2.7891-2.1523-4.8906-5.2773-9.7812-9.0508-14.152-1.0156-1.1758-2.5508-2.8086-3.4844-3.7031l-0.55469-0.53125-0.52344 0.058594c-2.4141 0.27734-4.2852 0.37891-6.8203 0.37891-3.0039 0-4.9375-0.25391-6.9648-0.91406-1.8047-0.58594-3.5781-1.5859-6.4258-3.6211-1.6914-1.207-1.7461-1.2539-1.6562-1.4219 0.054687-0.097657 0.20703-0.125 0.44922-0.078125 2.2812 0.46484 3.8828 0.65625 9.1641 1.0938 2.9297 0.24219 4.1602 0.40234 5.5469 0.71875 1.5859 0.36328 3.25 0.98438 4.7891 1.7891 0.28516 0.14844 0.51953 0.26562 0.51953 0.25781 0-0.023438-1.1758-0.99609-1.7227-1.4297-4.8047-3.8125-9.9414-6.5195-15.047-7.918-0.35938-0.097656-0.83594-0.22266-1.0586-0.27344l-0.40625-0.09375-0.15625 0.12109c-0.34766 0.27734-0.88281 0.54297-1.9023 0.95312-1.6484 0.66406-3.4922 1.082-5.418 1.2188-0.58203 0.039062-2.0469 0.039062-2.668 0-2.6055-0.17578-5.1992-0.78125-7.6641-1.793-1.25-0.51562-2.25-1.0234-4.0508-2.0547-1.6875-0.97266-2.4062-1.5156-2.4062-1.8164 0-0.15625 0.046874-0.22266 0.17969-0.26562 0.14062-0.046875 0.47266-0.015625 1.543 0.14453 0.91016 0.13672 1.168 0.16406 2.0078 0.22266 0.96094 0.066406 3.3008 0.09375 4.2891 0.050781 1.418-0.066406 1.8945-0.125 4.3203-0.53125 1.6797-0.28125 2.2773-0.36719 3.0938-0.46094 2.543-0.28125 4.3477-0.10938 5.7344 0.55859 0.67188 0.32031 1.0703 0.59766 1.5547 1.082 0.4375 0.4375 0.63672 0.70703 1.0898 1.4766 0.011718 0.023437 0.35937 0.11719 0.77344 0.21094 2.0859 0.47656 4.5742 1.3047 6.4727 2.1523 0.20312 0.089844 0.35156 0.15234 0.33594 0.13281-0.015625-0.015625-0.38281-0.26172-0.8125-0.54688-1.9414-1.2812-3.3906-2.3633-4.6016-3.4336-0.42969-0.37891-1.4062-1.3516-1.7969-1.7891-1.3789-1.5352-2.2656-3.0469-2.7734-4.7188-0.14453-0.46484-0.45703-1.832-0.48438-2.1055-0.023438-0.25 0.03125-0.39844 0.16797-0.43359 0.097656-0.023437 0.17578 0.011719 0.75 0.38672 0.94922 0.61328 2.5234 1.5039 4.9648 2.8086 3.3711 1.7969 4.5234 2.5078 6.0078 3.707 0.52734 0.42578 1.5391 1.4375 1.9336 1.9336 0.85547 1.0742 1.4453 2.1602 1.8867 3.4688 0.36719 1.0977 0.78125 3.2461 0.73047 3.8164l-0.015625 0.17969 0.67188 0.44922c4.0078 2.6875 7.8516 6.1328 11.223 10.059 0.25 0.29297 0.46484 0.53125 0.47266 0.53125 0.011718 0-0.070313-0.15625-0.35547-0.66797-0.73438-1.3086-1.5-3.1445-1.9531-4.6758-0.97266-3.2734-1.2891-6.4961-1.1875-11.996 0.035156-1.957 0.066406-2.5586 0.13281-2.8086 0.042969-0.16016 0.15234-0.23438 0.30469-0.20703s0.25781 0.17578 0.53125 0.74219c0.96484 2.0039 2.0078 3.543 4.7812 7.0547 1.7812 2.2539 2.6289 3.9539 3.0859 6.1836 0.21875 1.0586 0.30078 2 0.30078 3.3633 0 1.957-0.14844 3.2461-0.80859 7.1328-0.17578 1.0312-0.31641 1.9023-0.31641 1.9375 0 0.039063 0.042969 0.12891 0.09375 0.19922 0.23828 0.33984 1.0898 1.7578 1.582 2.6211 2.7539 4.8438 4.4922 9.4297 6.6953 17.648 0.19141 0.71484 0.35156 1.293 0.35938 1.2852 0.003907-0.003907-0.058593-0.33203-0.13672-0.72266-0.78906-3.7852-1.0742-5.9648-1.1211-8.6484-0.03125-1.8125 0.09375-3.3945 0.38281-4.8164 0.41406-2.0234 1.2148-3.8203 2.5625-5.7344 0.53125-0.75781 2.8008-3.6367 3.1758-4.0273 0.14844-0.15234 0.26172-0.17578 0.35938-0.070312 0.058593 0.0625 0.0625 0.13281 0.0625 1.2812 0.003906 1.4961 0.082031 2.5977 0.33203 4.6602 0.43359 3.5859 0.53125 4.75 0.5625 6.7578 0.019531 1.2383-0.007813 2.0039-0.10547 2.9805-0.37891 3.8359-1.6523 7.1328-4.4648 11.555-0.23438 0.36719-0.42578 0.6875-0.42578 0.70703 0 0.023437 0.050781 0.35547 0.10938 0.73438 0.089844 0.57422 0.16797 0.89453 0.42969 1.8438 0.83203 2.9766 1.5 5.1094 2.2812 7.2891 0.23047 0.64062 0.36328 1.0547 0.36328 1.1367 0 0.23438-0.22656 0.45703-0.46094 0.45312-0.050781 0-0.14844-0.035156-0.21484-0.070313z"/>
</svg>
