<svg width="223.55" height="236.29" viewBox="85.92 101.00 223.55 236.29" fill="none" xmlns="http://www.w3.org/2000/svg">
  <path d="M106.432 141.624C104.16 141.624 102.024 141.176 100.024 140.28C98.024 139.368 96.264 138.112 94.744 136.512C93.24 134.912 92.056 133.064 91.192 130.968C90.344 128.856 89.92 126.6 89.92 124.2C89.92 121.784 90.344 119.528 91.192 117.432C92.056 115.32 93.24 113.472 94.744 111.888C96.264 110.288 98.024 109.04 100.024 108.144C102.024 107.232 104.16 106.776 106.432 106.776C109.152 106.776 111.656 107.408 113.944 108.672C116.232 109.92 118.128 111.592 119.632 113.688L113.728 116.88C112.832 115.824 111.752 114.984 110.488 114.36C109.224 113.72 107.872 113.4 106.432 113.4C105.072 113.4 103.792 113.68 102.592 114.24C101.392 114.8 100.336 115.576 99.424 116.568C98.528 117.56 97.824 118.704 97.312 120C96.8 121.296 96.544 122.696 96.544 124.2C96.544 125.688 96.8 127.088 97.312 128.4C97.824 129.696 98.528 130.84 99.424 131.832C100.336 132.808 101.392 133.584 102.592 134.16C103.792 134.72 105.072 135 106.432 135C107.888 135 109.24 134.68 110.488 134.04C111.752 133.4 112.832 132.552 113.728 131.496L119.632 134.712C118.128 136.792 116.232 138.464 113.944 139.728C111.656 140.992 109.152 141.624 106.432 141.624ZM144.877 125.736V141H138.253V127.56C138.253 126.712 138.045 125.952 137.629 125.28C137.229 124.592 136.685 124.048 135.997 123.648C135.325 123.248 134.573 123.048 133.741 123.048C132.909 123.048 132.149 123.248 131.461 123.648C130.773 124.048 130.229 124.592 129.829 125.28C129.429 125.952 129.229 126.712 129.229 127.56V141H122.605L122.581 105H129.205L129.229 118.776C130.029 118.008 130.965 117.408 132.037 116.976C133.125 116.544 134.269 116.328 135.469 116.328C137.213 116.328 138.789 116.752 140.197 117.6C141.621 118.448 142.757 119.584 143.605 121.008C144.453 122.416 144.877 123.992 144.877 125.736ZM165.382 117H172.006V141H165.358L165.046 138.504C164.422 139.432 163.622 140.184 162.646 140.76C161.67 141.336 160.526 141.624 159.214 141.624C157.422 141.624 155.75 141.288 154.198 140.616C152.646 139.944 151.278 139.016 150.094 137.832C148.91 136.648 147.982 135.28 147.31 133.728C146.654 132.16 146.326 130.48 146.326 128.688C146.326 126.976 146.638 125.376 147.262 123.888C147.886 122.4 148.766 121.088 149.902 119.952C151.038 118.816 152.342 117.928 153.814 117.288C155.302 116.648 156.902 116.328 158.614 116.328C160.086 116.328 161.406 116.64 162.574 117.264C163.758 117.888 164.79 118.68 165.67 119.64L165.382 117ZM159.046 135.264C160.134 135.264 161.118 134.984 161.998 134.424C162.878 133.864 163.574 133.112 164.086 132.168C164.598 131.208 164.854 130.152 164.854 129C164.854 127.832 164.598 126.776 164.086 125.832C163.574 124.888 162.878 124.136 161.998 123.576C161.118 123.016 160.134 122.736 159.046 122.736C157.942 122.736 156.942 123.016 156.046 123.576C155.15 124.136 154.438 124.896 153.91 125.856C153.382 126.8 153.118 127.848 153.118 129C153.118 130.152 153.382 131.208 153.91 132.168C154.454 133.112 155.174 133.864 156.07 134.424C156.966 134.984 157.958 135.264 159.046 135.264ZM197.684 125.736V141H191.06V127.56C191.06 126.712 190.852 125.952 190.436 125.28C190.036 124.592 189.492 124.048 188.804 123.648C188.132 123.248 187.38 123.048 186.548 123.048C185.716 123.048 184.956 123.248 184.268 123.648C183.58 124.048 183.036 124.592 182.636 125.28C182.236 125.952 182.036 126.712 182.036 127.56V141H175.412L175.388 117H182.012L182.036 118.776C182.836 118.008 183.772 117.408 184.844 116.976C185.932 116.544 187.076 116.328 188.276 116.328C190.02 116.328 191.596 116.752 193.004 117.6C194.428 118.448 195.564 119.584 196.412 121.008C197.26 122.416 197.684 123.992 197.684 125.736ZM217.997 117H224.621V141.336C224.621 143.112 224.261 144.712 223.541 146.136C222.821 147.576 221.837 148.808 220.589 149.832C219.357 150.856 217.933 151.64 216.317 152.184C214.717 152.728 213.021 153 211.229 153C209.533 153 207.909 152.664 206.357 151.992C204.805 151.336 203.429 150.424 202.229 149.256C201.029 148.088 200.093 146.744 199.421 145.224L205.469 142.464C205.805 143.264 206.261 143.952 206.837 144.528C207.429 145.104 208.101 145.544 208.853 145.848C209.621 146.168 210.413 146.328 211.229 146.328C212.109 146.328 212.949 146.224 213.749 146.016C214.565 145.808 215.293 145.496 215.933 145.08C216.573 144.664 217.077 144.144 217.445 143.52C217.813 142.896 217.997 142.168 217.997 141.336V138.552C217.261 139.464 216.365 140.208 215.309 140.784C214.269 141.344 213.061 141.624 211.685 141.624C209.957 141.624 208.333 141.296 206.813 140.64C205.309 139.984 203.981 139.08 202.829 137.928C201.677 136.76 200.773 135.416 200.117 133.896C199.461 132.376 199.133 130.744 199.133 129C199.133 127.256 199.461 125.624 200.117 124.104C200.773 122.584 201.677 121.248 202.829 120.096C203.981 118.928 205.309 118.016 206.813 117.36C208.333 116.704 209.957 116.376 211.685 116.376C213.061 116.376 214.269 116.664 215.309 117.24C216.365 117.8 217.261 118.536 217.997 119.448V117ZM211.781 135.264C212.869 135.264 213.853 134.984 214.733 134.424C215.613 133.848 216.301 133.088 216.797 132.144C217.309 131.2 217.565 130.152 217.565 129C217.565 127.848 217.309 126.8 216.797 125.856C216.301 124.896 215.613 124.136 214.733 123.576C213.853 123.016 212.869 122.736 211.781 122.736C210.709 122.736 209.725 123.016 208.829 123.576C207.949 124.136 207.245 124.896 206.717 125.856C206.189 126.8 205.925 127.848 205.925 129C205.925 130.152 206.189 131.208 206.717 132.168C207.245 133.112 207.949 133.864 208.829 134.424C209.725 134.984 210.709 135.264 211.781 135.264ZM238.849 141.624C236.641 141.624 234.625 141.056 232.801 139.92C230.993 138.784 229.545 137.256 228.457 135.336C227.385 133.416 226.849 131.296 226.849 128.976C226.849 127.232 227.161 125.6 227.785 124.08C228.409 122.544 229.265 121.2 230.353 120.048C231.457 118.88 232.737 117.968 234.193 117.312C235.649 116.656 237.201 116.328 238.849 116.328C240.753 116.328 242.489 116.736 244.057 117.552C245.641 118.368 246.977 119.48 248.065 120.888C249.169 122.296 249.953 123.888 250.417 125.664C250.897 127.44 250.977 129.288 250.657 131.208H234.001C234.209 131.912 234.529 132.552 234.961 133.128C235.409 133.688 235.953 134.136 236.593 134.472C237.249 134.808 238.001 134.984 238.849 135C239.681 135.016 240.449 134.824 241.153 134.424C241.857 134.024 242.457 133.488 242.953 132.816L249.721 134.376C248.745 136.504 247.289 138.248 245.353 139.608C243.417 140.952 241.249 141.624 238.849 141.624ZM233.761 126.312H243.961C243.753 125.512 243.401 124.792 242.905 124.152C242.409 123.512 241.809 123.008 241.105 122.64C240.417 122.272 239.665 122.088 238.849 122.088C238.049 122.088 237.297 122.272 236.593 122.64C235.905 123.008 235.313 123.512 234.817 124.152C234.337 124.776 233.985 125.496 233.761 126.312ZM252.631 141V105H259.255V141H252.631ZM273.657 141.624C271.449 141.624 269.433 141.056 267.609 139.92C265.801 138.784 264.353 137.264 263.265 135.36C262.193 133.44 261.657 131.32 261.657 129C261.657 127.24 261.969 125.6 262.593 124.08C263.217 122.544 264.073 121.2 265.161 120.048C266.265 118.88 267.545 117.968 269.001 117.312C270.457 116.656 272.009 116.328 273.657 116.328C275.865 116.328 277.873 116.896 279.681 118.032C281.505 119.168 282.953 120.696 284.025 122.616C285.113 124.536 285.657 126.664 285.657 129C285.657 130.744 285.345 132.376 284.721 133.896C284.097 135.416 283.233 136.76 282.129 137.928C281.041 139.08 279.769 139.984 278.313 140.64C276.873 141.296 275.321 141.624 273.657 141.624ZM273.657 135C274.681 135 275.601 134.728 276.417 134.184C277.233 133.624 277.873 132.888 278.337 131.976C278.801 131.064 279.033 130.072 279.033 129C279.033 127.896 278.785 126.888 278.289 125.976C277.809 125.048 277.161 124.312 276.345 123.768C275.529 123.224 274.633 122.952 273.657 122.952C272.649 122.952 271.737 123.232 270.921 123.792C270.105 124.352 269.457 125.088 268.977 126C268.513 126.912 268.281 127.912 268.281 129C268.281 130.136 268.521 131.16 269.001 132.072C269.497 132.968 270.153 133.68 270.969 134.208C271.785 134.736 272.681 135 273.657 135ZM305.471 117H312.095V141.336C312.095 143.112 311.735 144.712 311.015 146.136C310.295 147.576 309.311 148.808 308.063 149.832C306.831 150.856 305.407 151.64 303.791 152.184C302.191 152.728 300.495 153 298.703 153C297.007 153 295.383 152.664 293.831 151.992C292.279 151.336 290.903 150.424 289.703 149.256C288.503 148.088 287.567 146.744 286.895 145.224L292.943 142.464C293.279 143.264 293.735 143.952 294.311 144.528C294.903 145.104 295.575 145.544 296.327 145.848C297.095 146.168 297.887 146.328 298.703 146.328C299.583 146.328 300.423 146.224 301.223 146.016C302.039 145.808 302.767 145.496 303.407 145.08C304.047 144.664 304.551 144.144 304.919 143.52C305.287 142.896 305.471 142.168 305.471 141.336V138.552C304.735 139.464 303.839 140.208 302.783 140.784C301.743 141.344 300.535 141.624 299.159 141.624C297.431 141.624 295.807 141.296 294.287 140.64C292.783 139.984 291.455 139.08 290.303 137.928C289.151 136.76 288.247 135.416 287.591 133.896C286.935 132.376 286.607 130.744 286.607 129C286.607 127.256 286.935 125.624 287.591 124.104C288.247 122.584 289.151 121.248 290.303 120.096C291.455 118.928 292.783 118.016 294.287 117.36C295.807 116.704 297.431 116.376 299.159 116.376C300.535 116.376 301.743 116.664 302.783 117.24C303.839 117.8 304.735 118.536 305.471 119.448V117ZM299.255 135.264C300.343 135.264 301.327 134.984 302.207 134.424C303.087 133.848 303.775 133.088 304.271 132.144C304.783 131.2 305.039 130.152 305.039 129C305.039 127.848 304.783 126.8 304.271 125.856C303.775 124.896 303.087 124.136 302.207 123.576C301.327 123.016 300.343 122.736 299.255 122.736C298.183 122.736 297.199 123.016 296.303 123.576C295.423 124.136 294.719 124.896 294.191 125.856C293.663 126.8 293.399 127.848 293.399 129C293.399 130.152 293.663 131.208 294.191 132.168C294.719 133.112 295.423 133.864 296.303 134.424C297.199 134.984 298.183 135.264 299.255 135.264ZM323.404 141.432C322.172 141.336 320.988 141.08 319.852 140.664C318.716 140.232 317.7 139.656 316.804 138.936C315.924 138.2 315.236 137.32 314.74 136.296L320.308 133.896C320.484 134.152 320.748 134.432 321.1 134.736C321.452 135.024 321.876 135.28 322.372 135.504C322.884 135.728 323.476 135.84 324.148 135.84C324.644 135.84 325.124 135.784 325.588 135.672C326.052 135.544 326.428 135.344 326.716 135.072C327.004 134.784 327.148 134.408 327.148 133.944C327.148 133.432 326.964 133.04 326.596 132.768C326.228 132.496 325.78 132.296 325.252 132.168C324.74 132.024 324.244 131.904 323.764 131.808C322.292 131.552 320.9 131.096 319.588 130.44C318.292 129.768 317.236 128.904 316.42 127.848C315.604 126.792 315.196 125.528 315.196 124.056C315.196 122.44 315.62 121.048 316.468 119.88C317.316 118.696 318.42 117.784 319.78 117.144C321.14 116.504 322.612 116.184 324.196 116.184C326.068 116.184 327.804 116.576 329.404 117.36C331.004 118.144 332.292 119.248 333.268 120.672L328.036 123.768C327.828 123.464 327.556 123.176 327.22 122.904C326.9 122.616 326.524 122.376 326.092 122.184C325.676 121.976 325.228 121.856 324.748 121.824C324.124 121.776 323.556 121.816 323.044 121.944C322.532 122.056 322.124 122.272 321.82 122.592C321.532 122.912 321.388 123.344 321.388 123.888C321.388 124.416 321.62 124.808 322.084 125.064C322.548 125.304 323.084 125.488 323.692 125.616C324.3 125.728 324.836 125.864 325.3 126.024C326.692 126.472 327.996 127.048 329.212 127.752C330.444 128.44 331.436 129.288 332.188 130.296C332.94 131.304 333.292 132.488 333.244 133.848C333.244 135.432 332.772 136.824 331.828 138.024C330.884 139.208 329.66 140.112 328.156 140.736C326.668 141.344 325.084 141.576 323.404 141.432Z" fill="#4B3425" />

</svg>