<svg width="140.00" height="72.00" viewBox="412.00 512.00 140.00 72.00" fill="none" xmlns="http://www.w3.org/2000/svg">
  <path d="M426 558C423.348 558 420.804 556.946 418.929 555.071C417.054 553.196 416 550.652 416 548C416 545.348 417.054 542.804 418.929 540.929C420.804 539.054 423.348 538 426 538V548V558Z" fill="#4B3425" />

  <path d="M426 538C427.313 538 428.614 538.259 429.827 538.761C431.04 539.264 432.142 540 433.071 540.929C434 541.858 434.736 542.96 435.239 544.173C435.741 545.386 436 546.687 436 548C436 549.313 435.741 550.614 435.239 551.827C434.736 553.04 434 554.143 433.071 555.071C432.142 556 431.04 556.736 429.827 557.239C428.614 557.741 427.313 558 426 558L426 548V538Z" fill="#926247" />

  <rect x="470" y="516" width="64" height="64" rx="32" fill="#F7F4F2" />

  <circle cx="502" cy="548" r="10" fill="#4B3425" />

</svg>