<svg width="72.00" height="72.00" viewBox="238.00 704.00 72.00 72.00" fill="none" xmlns="http://www.w3.org/2000/svg">
  <rect x="242" y="708" width="64" height="64" rx="32" fill="#F7F4F2" />

  <path d="M274 730C272.947 730 271.912 730.277 271 730.804C270.088 731.331 269.33 732.088 268.804 733C268.581 733.386 268.64 733.873 268.949 734.193L273.279 738.693C273.468 738.889 273.728 739 274 739C274.272 739 274.532 738.889 274.721 738.693L279.051 734.193C279.36 733.873 279.419 733.386 279.196 733C278.67 732.088 277.912 731.331 277 730.804C276.088 730.277 275.053 730 274 730Z" fill="#4B3425" />

  <path d="M274 750C272.947 750 271.912 749.723 271 749.196C270.088 748.67 269.33 747.912 268.804 747C268.581 746.614 268.64 746.128 268.949 745.807L273.279 741.307C273.468 741.111 273.728 741 274 741C274.272 741 274.532 741.111 274.721 741.307L279.051 745.807C279.36 746.128 279.419 746.614 279.196 747C278.67 747.912 277.912 748.67 277 749.196C276.088 749.723 275.053 750 274 750Z" fill="#4B3425" />

  <path d="M279.807 734.949C280.128 734.641 280.614 734.581 281 734.804C281.912 735.331 282.67 736.088 283.196 737C283.723 737.912 284 738.947 284 740C284 741.053 283.723 742.088 283.196 743C282.67 743.912 281.912 744.67 281 745.196C280.614 745.419 280.128 745.36 279.807 745.051L275.307 740.721C275.111 740.532 275 740.272 275 740C275 739.728 275.111 739.468 275.307 739.28L279.807 734.949Z" fill="#4B3425" />

  <path d="M267 734.804C267.386 734.581 267.872 734.641 268.193 734.949L272.693 739.28C272.889 739.468 273 739.728 273 740C273 740.272 272.889 740.532 272.693 740.721L268.193 745.051C267.872 745.36 267.386 745.419 267 745.196C266.088 744.67 265.33 743.912 264.804 743C264.277 742.088 264 741.053 264 740C264 738.947 264.277 737.912 264.804 737C265.33 736.088 266.088 735.331 267 734.804Z" fill="#4B3425" />

</svg>