<svg width="72.00" height="72.00" viewBox="162.00 704.00 72.00 72.00" fill="none" xmlns="http://www.w3.org/2000/svg">
  <rect x="166" y="708" width="64" height="64" rx="32" fill="#F7F4F2" />

  <path d="M193 740C193 737.239 195.239 735 198 735C200.761 735 203 737.239 203 740C203 742.762 200.761 745 198 745C195.239 745 193 742.762 193 740Z" fill="#4B3425" />

  <path fill-rule="evenodd" clip-rule="evenodd" d="M198 750C203.523 750 208 745.523 208 740C208 734.477 203.523 730 198 730C192.477 730 188 734.477 188 740C188 745.523 192.477 750 198 750ZM198 733C194.134 733 191 736.134 191 740C191 743.866 194.134 747 198 747C201.866 747 205 743.866 205 740C205 736.134 201.866 733 198 733Z" fill="#4B3425" />

</svg>