<svg width="72.00" height="72.00" viewBox="238.00 320.00 72.00 72.00" fill="none" xmlns="http://www.w3.org/2000/svg">
  <rect x="242" y="324" width="64" height="64" rx="32" fill="#F7F4F2" />

  <path d="M276.5 364.33C277.26 363.891 277.891 363.26 278.33 362.5L274 358L269.67 362.5C270.109 363.26 270.74 363.891 271.5 364.33C272.26 364.769 273.122 365 274 365C274.878 365 275.74 364.769 276.5 364.33Z" stroke="#4B3425" stroke-width="2" stroke-linejoin="round" />

  <path d="M276.5 347.67C277.26 348.109 277.891 348.74 278.33 349.5L274 354L269.67 349.5C270.109 348.74 270.74 348.109 271.5 347.67C272.26 347.231 273.122 347 274 347C274.878 347 275.74 347.231 276.5 347.67Z" stroke="#4B3425" stroke-width="2" stroke-linejoin="round" />

  <path d="M282.33 358.5C281.891 359.26 281.26 359.891 280.5 360.33L276 356L280.5 351.67C281.26 352.109 281.891 352.74 282.33 353.5C282.769 354.26 283 355.122 283 356C283 356.878 282.769 357.74 282.33 358.5Z" stroke="#4B3425" stroke-width="2" stroke-linejoin="round" />

  <path d="M265.67 358.5C266.109 359.26 266.74 359.891 267.5 360.33L272 356L267.5 351.67C266.74 352.109 266.109 352.74 265.67 353.5C265.231 354.26 265 355.122 265 356C265 356.878 265.231 357.74 265.67 358.5Z" stroke="#4B3425" stroke-width="2" stroke-linejoin="round" />

</svg>