<svg width="72.00" height="72.00" viewBox="238.00 512.00 72.00 72.00" fill="none" xmlns="http://www.w3.org/2000/svg">
  <rect x="242" y="516" width="64" height="64" rx="32" fill="#F7F4F2" />

  <path d="M276.5 556.33C277.26 555.891 277.891 555.26 278.33 554.5L274 550L269.67 554.5C270.109 555.26 270.74 555.891 271.5 556.33C272.26 556.769 273.122 557 274 557C274.878 557 275.74 556.769 276.5 556.33Z" stroke="#9BB068" stroke-width="2" stroke-linejoin="round" />

  <path d="M276.5 539.67C277.26 540.109 277.891 540.74 278.33 541.5L274 546L269.67 541.5C270.109 540.74 270.74 540.109 271.5 539.67C272.26 539.231 273.122 539 274 539C274.878 539 275.74 539.231 276.5 539.67Z" stroke="#9BB068" stroke-width="2" stroke-linejoin="round" />

  <path d="M282.33 550.5C281.891 551.26 281.26 551.891 280.5 552.33L276 548L280.5 543.67C281.26 544.109 281.891 544.74 282.33 545.5C282.769 546.26 283 547.122 283 548C283 548.878 282.769 549.74 282.33 550.5Z" stroke="#4B3425" stroke-width="2" stroke-linejoin="round" />

  <path d="M265.67 550.5C266.109 551.26 266.74 551.891 267.5 552.33L272 548L267.5 543.67C266.74 544.109 266.109 544.74 265.67 545.5C265.231 546.26 265 547.122 265 548C265 548.878 265.231 549.74 265.67 550.5Z" stroke="#4B3425" stroke-width="2" stroke-linejoin="round" />

</svg>