<svg width="72.00" height="72.00" viewBox="162.00 1044.00 72.00 72.00" fill="none" xmlns="http://www.w3.org/2000/svg">
  <rect x="166" y="1048" width="64" height="64" rx="32" fill="#F7F4F2" />

  <path d="M207 1082C207 1081.34 206.871 1080.69 206.619 1080.09C206.368 1079.48 206 1078.93 205.536 1078.46C205.071 1078 204.52 1077.63 203.913 1077.38C203.307 1077.13 202.657 1077 202 1077" stroke="#9BB068" stroke-width="2" stroke-linejoin="round" />

  <rect x="200" y="1073" width="4" height="4" rx="2" stroke="#9BB068" stroke-width="2" stroke-linejoin="round" />

  <path d="M189 1082C189 1081.34 189.129 1080.69 189.381 1080.09C189.632 1079.48 190 1078.93 190.464 1078.46C190.929 1078 191.48 1077.63 192.087 1077.38C192.693 1077.13 193.343 1077 194 1077" stroke="#9BB068" stroke-width="2" stroke-linejoin="round" />

  <path d="M193 1089C193 1088.34 193.129 1087.69 193.381 1087.09C193.632 1086.48 194 1085.93 194.464 1085.46C194.929 1085 195.48 1084.63 196.087 1084.38C196.693 1084.13 197.343 1084 198 1084C198.657 1084 199.307 1084.13 199.913 1084.38C200.52 1084.63 201.071 1085 201.536 1085.46C202 1085.93 202.368 1086.48 202.619 1087.09C202.871 1087.69 203 1088.34 203 1089" stroke="#4B3425" stroke-width="2" stroke-linejoin="round" />

  <rect x="196" y="1079" width="4" height="4" rx="2" stroke="#4B3425" stroke-width="2" stroke-linejoin="round" />

</svg>