<svg width="739.00" height="72.00" viewBox="343.00 1044.00 739.00 72.00" fill="none" xmlns="http://www.w3.org/2000/svg">
  <path d="M347 1075V1078" stroke="#4B3425" stroke-width="2" stroke-linejoin="round" />

  <path d="M353 1075V1078" stroke="#4B3425" stroke-width="2" stroke-linejoin="round" />

  <rect x="698" y="1048" width="64" height="64" rx="32" fill="#F7F4F2" />

  <path d="M728.184 1070.94C728.899 1069.39 731.101 1069.39 731.816 1070.94L733.199 1073.93C733.49 1074.57 734.089 1075 734.78 1075.08L738.058 1075.47C739.753 1075.67 740.433 1077.77 739.18 1078.93L736.757 1081.17C736.246 1081.64 736.017 1082.34 736.153 1083.03L736.796 1086.26C737.129 1087.94 735.347 1089.23 733.858 1088.4L730.977 1086.79C730.37 1086.45 729.63 1086.45 729.023 1086.79L726.143 1088.4C724.653 1089.23 722.871 1087.94 723.204 1086.26L723.847 1083.03C723.983 1082.34 723.754 1081.64 723.244 1081.17L720.82 1078.93C719.567 1077.77 720.247 1075.67 721.942 1075.47L725.221 1075.08C725.911 1075 726.51 1074.57 726.801 1073.93L728.184 1070.94Z" stroke="#4B3425" stroke-width="2" stroke-linejoin="round" />

</svg>