<svg width="303.00" height="72.00" viewBox="355.00 320.00 303.00 72.00" fill="none" xmlns="http://www.w3.org/2000/svg">
  <rect x="470" y="324" width="64" height="64" rx="32" fill="#F7F4F2" />

  <rect x="493" y="347" width="18" height="18" rx="9" stroke="#4B3425" stroke-width="2" stroke-linejoin="round" />

  <path d="M506 352L498 360" stroke="#4B3425" stroke-width="2" stroke-linejoin="round" />

  <path d="M498 352L506 360" stroke="#4B3425" stroke-width="2" stroke-linejoin="round" />

  <path d="M575 354C575 353.407 575.176 352.827 575.506 352.333C575.835 351.84 576.304 351.455 576.852 351.228C577.4 351.001 578.003 350.942 578.585 351.058C579.167 351.173 579.702 351.459 580.121 351.879C580.541 352.298 580.827 352.833 580.942 353.415C581.058 353.997 580.999 354.6 580.772 355.148C580.545 355.696 580.16 356.165 579.667 356.494C578.855 357.037 578 357.791 578 358.767V359" stroke="#4B3425" stroke-width="2" stroke-linejoin="round" />

  <path d="M654 351V361" stroke="#4B3425" stroke-width="2" stroke-linejoin="round" />

</svg>