<svg width="72.00" height="72.00" viewBox="770.00 1196.00 72.00 72.00" fill="none" xmlns="http://www.w3.org/2000/svg">
  <rect x="774" y="1200" width="64" height="64" rx="32" fill="#F7F4F2" />

  <path d="M812 1226C812 1226.79 811.845 1227.57 811.543 1228.3C811.242 1229.02 810.8 1229.69 810.243 1230.24C809.685 1230.8 809.024 1231.24 808.296 1231.54C807.568 1231.84 806.788 1232 806 1232C805.212 1232 804.432 1231.84 803.704 1231.54C802.976 1231.24 802.315 1230.8 801.757 1230.24C801.2 1229.69 800.758 1229.02 800.457 1228.3C800.155 1227.57 800 1226.79 800 1226" stroke="#9BB068" stroke-width="2" stroke-linejoin="round" />

  <rect x="797" y="1225" width="18" height="14" rx="7" stroke="#4B3425" stroke-width="2" stroke-linejoin="round" />

</svg>