<svg width="72.00" height="72.00" viewBox="390.00 1692.00 72.00 72.00" fill="none" xmlns="http://www.w3.org/2000/svg">
  <rect x="394" y="1696" width="64" height="64" rx="32" fill="#F7F4F2" />

  <path d="M432.921 1721.56C432.802 1721.4 432.673 1721.26 432.536 1721.12L430.879 1719.46C430.741 1719.33 430.596 1719.2 430.445 1719.08C430.121 1719.17 429.825 1719.35 429.586 1719.59C429.338 1719.83 429.159 1720.14 429.068 1720.48C428.977 1720.82 428.977 1721.18 429.068 1721.52C429.159 1721.86 429.338 1722.17 429.586 1722.41C429.834 1722.66 430.143 1722.84 430.482 1722.93C430.821 1723.02 431.179 1723.02 431.518 1722.93C431.857 1722.84 432.166 1722.66 432.414 1722.41C432.653 1722.18 432.828 1721.88 432.921 1721.56Z" fill="#4B3425" />

</svg>