<svg width="72.00" height="72.00" viewBox="314.00 1196.00 72.00 72.00" fill="none" xmlns="http://www.w3.org/2000/svg">
  <rect x="318" y="1200" width="64" height="64" rx="32" fill="#F7F4F2" />

  <path d="M359 1232C359 1234.39 358.052 1236.68 356.364 1238.36C354.676 1240.05 352.387 1241 350 1241C347.613 1241 345.324 1240.05 343.636 1238.36C341.948 1236.68 341 1234.39 341 1232" stroke="#9BB068" stroke-width="2" stroke-linejoin="round" />

  <path d="M350 1223L350 1236" stroke="#4B3425" stroke-width="2" stroke-linejoin="round" />

  <path d="M354 1232C354 1232.53 353.897 1233.05 353.696 1233.53C353.494 1234.02 353.2 1234.46 352.828 1234.83C352.457 1235.2 352.016 1235.49 351.531 1235.7C351.045 1235.9 350.525 1236 350 1236C349.475 1236 348.955 1235.9 348.469 1235.7C347.984 1235.49 347.543 1235.2 347.172 1234.83C346.8 1234.46 346.506 1234.02 346.304 1233.53C346.103 1233.05 346 1232.53 346 1232" stroke="#4B3425" stroke-width="2" stroke-linejoin="round" />

</svg>