<svg width="72.00" height="72.00" viewBox="846.00 1920.00 72.00 72.00" fill="none" xmlns="http://www.w3.org/2000/svg">
  <rect x="850" y="1924" width="64" height="64" rx="32" fill="#F7F4F2" />

  <path d="M892 1956C892 1957.64 891.606 1959.18 890.909 1960.55C890.004 1959.3 888.843 1958.25 887.5 1957.47C886.51 1956.9 885.441 1956.49 884.332 1956.25C885.342 1955.52 886 1954.34 886 1953C886 1950.79 884.209 1949 882 1949C879.791 1949 878 1950.79 878 1953C878 1954.34 878.658 1955.52 879.668 1956.25C878.559 1956.49 877.49 1956.9 876.5 1957.47C875.157 1958.25 873.996 1959.3 873.091 1960.55C872.394 1959.18 872 1957.64 872 1956C872 1950.48 876.477 1946 882 1946C887.523 1946 892 1950.48 892 1956Z" fill="#4B3425" />

  <path d="M886.5 1959.21C887.823 1959.97 888.928 1961.06 889.714 1962.36C887.88 1964.58 885.105 1966 882 1966C878.895 1966 876.12 1964.58 874.286 1962.36C875.072 1961.06 876.177 1959.97 877.5 1959.21C878.868 1958.42 880.42 1958 882 1958C883.58 1958 885.132 1958.42 886.5 1959.21Z" fill="#4B3425" />

  <path d="M880 1953C880 1951.9 880.895 1951 882 1951C883.105 1951 884 1951.9 884 1953C884 1954.1 883.105 1955 882 1955C880.895 1955 880 1954.1 880 1953Z" fill="#4B3425" />

</svg>