<svg width="72.00" height="72.00" viewBox="390.00 1196.00 72.00 72.00" fill="none" xmlns="http://www.w3.org/2000/svg">
  <rect x="394" y="1200" width="64" height="64" rx="32" fill="#F7F4F2" />

  <path d="M435 1232C435 1234.39 434.052 1236.68 432.364 1238.36C430.676 1240.05 428.387 1241 426 1241C423.613 1241 421.324 1240.05 419.636 1238.36C417.948 1236.68 417 1234.39 417 1232" stroke="#9BB068" stroke-width="2" stroke-linejoin="round" />

  <path d="M426 1236L426 1223" stroke="#4B3425" stroke-width="2" stroke-linejoin="round" />

  <path d="M430 1227C430 1226.47 429.897 1225.95 429.696 1225.47C429.494 1224.98 429.2 1224.54 428.828 1224.17C428.457 1223.8 428.016 1223.51 427.531 1223.3C427.045 1223.1 426.525 1223 426 1223C425.475 1223 424.955 1223.1 424.469 1223.3C423.984 1223.51 423.543 1223.8 423.172 1224.17C422.8 1224.54 422.506 1224.98 422.304 1225.47C422.103 1225.95 422 1226.47 422 1227" stroke="#4B3425" stroke-width="2" stroke-linejoin="round" />

</svg>