<svg width="72.00" height="72.00" viewBox="238.00 1348.00 72.00 72.00" fill="none" xmlns="http://www.w3.org/2000/svg">
  <rect x="242" y="1352" width="64" height="64" rx="32" fill="#F7F4F2" />

  <path d="M273 1388H275" stroke="#4B3425" stroke-width="2" stroke-linejoin="round" />

  <path d="M278 1384C278.396 1384 278.782 1384.12 279.111 1384.34C279.44 1384.56 279.696 1384.87 279.848 1385.23C279.999 1385.6 280.039 1386 279.962 1386.39C279.884 1386.78 279.694 1387.13 279.414 1387.41" stroke="#9BB068" stroke-width="2" stroke-linejoin="round" />

  <path d="M275 1388C275.307 1388 275.609 1388.07 275.885 1388.21C276.16 1388.34 276.4 1388.54 276.587 1388.78C276.773 1389.03 276.902 1389.31 276.962 1389.61C277.021 1389.91 277.011 1390.22 276.932 1390.52" stroke="#4B3425" stroke-width="2" stroke-linejoin="round" />

  <path d="M273 1388C272.693 1388 272.391 1388.07 272.115 1388.21C271.84 1388.34 271.6 1388.54 271.413 1388.78C271.227 1389.03 271.098 1389.31 271.038 1389.61C270.979 1389.91 270.989 1390.22 271.068 1390.52" stroke="#4B3425" stroke-width="2" stroke-linejoin="round" />

  <path d="M279 1379C279.527 1379 280.044 1379.14 280.5 1379.4C280.956 1379.67 281.335 1380.04 281.598 1380.5C281.861 1380.96 282 1381.47 282 1382C282 1382.53 281.861 1383.04 281.598 1383.5" stroke="#4B3425" stroke-width="2" stroke-linejoin="round" />

  <path d="M269 1379C268.473 1379 267.956 1379.14 267.5 1379.4C267.044 1379.67 266.665 1380.04 266.402 1380.5C266.139 1380.96 266 1381.47 266 1382C266 1382.53 266.139 1383.04 266.402 1383.5" stroke="#4B3425" stroke-width="2" stroke-linejoin="round" />

  <path d="M270 1384C269.604 1384 269.218 1384.12 268.889 1384.34C268.56 1384.56 268.304 1384.87 268.152 1385.23C268.001 1385.6 267.961 1386 268.038 1386.39C268.116 1386.78 268.306 1387.13 268.586 1387.41" stroke="#9BB068" stroke-width="2" stroke-linejoin="round" />

  <path d="M270 1384H278" stroke="#9BB068" stroke-width="2" stroke-linejoin="round" />

  <path d="M269 1379H279" stroke="#4B3425" stroke-width="2" stroke-linejoin="round" />

</svg>