<svg width="72.00" height="72.00" viewBox="390.00 548.00 72.00 72.00" fill="none" xmlns="http://www.w3.org/2000/svg">
  <rect x="394" y="552" width="64" height="64" rx="32" fill="#F7F4F2" />

  <path d="M435 584C435 586.387 434.052 588.676 432.364 590.364C430.676 592.052 428.387 593 426 593C423.613 593 421.324 592.052 419.636 590.364C417.948 588.676 417 586.387 417 584" stroke="#4B3425" stroke-width="2" stroke-linejoin="round" />

  <path d="M426 588L426 575" stroke="#4B3425" stroke-width="2" stroke-linejoin="round" />

  <path d="M430 579C430 578.475 429.897 577.955 429.696 577.469C429.494 576.984 429.2 576.543 428.828 576.172C428.457 575.8 428.016 575.506 427.531 575.304C427.045 575.103 426.525 575 426 575C425.475 575 424.955 575.103 424.469 575.304C423.984 575.506 423.543 575.8 423.172 576.172C422.8 576.543 422.506 576.984 422.304 577.469C422.103 577.955 422 578.475 422 579" stroke="#4B3425" stroke-width="2" stroke-linejoin="round" />

</svg>