<svg width="72.00" height="72.00" viewBox="162.00 396.00 72.00 72.00" fill="none" xmlns="http://www.w3.org/2000/svg">
  <rect x="166" y="400" width="64" height="64" rx="32" fill="#F7F4F2" />

  <path d="M207 434C207 433.343 206.871 432.693 206.619 432.087C206.368 431.48 206 430.929 205.536 430.464C205.071 430 204.52 429.632 203.913 429.381C203.307 429.129 202.657 429 202 429" stroke="#4B3425" stroke-width="2" stroke-linejoin="round" />

  <rect x="200" y="425" width="4" height="4" rx="2" stroke="#4B3425" stroke-width="2" stroke-linejoin="round" />

  <path d="M189 434C189 433.343 189.129 432.693 189.381 432.087C189.632 431.48 190 430.929 190.464 430.464C190.929 430 191.48 429.632 192.087 429.381C192.693 429.129 193.343 429 194 429" stroke="#4B3425" stroke-width="2" stroke-linejoin="round" />

  <path d="M193 441C193 440.343 193.129 439.693 193.381 439.087C193.632 438.48 194 437.929 194.464 437.464C194.929 437 195.48 436.632 196.087 436.381C196.693 436.129 197.343 436 198 436C198.657 436 199.307 436.129 199.913 436.381C200.52 436.632 201.071 437 201.536 437.464C202 437.929 202.368 438.48 202.619 439.087C202.871 439.693 203 440.343 203 441" stroke="#4B3425" stroke-width="2" stroke-linejoin="round" />

  <rect x="196" y="431" width="4" height="4" rx="2" stroke="#4B3425" stroke-width="2" stroke-linejoin="round" />

</svg>