<svg width="475.00" height="72.00" viewBox="261.00 700.00 475.00 72.00" fill="none" xmlns="http://www.w3.org/2000/svg">
  <path d="M269 732C268.649 732 268.304 732.092 268 732.268C267.696 732.443 267.443 732.696 267.268 733C267.092 733.304 267 733.649 267 734C267 734.351 267.092 734.696 267.268 735L265.536 736C265.185 735.392 265 734.702 265 734C265 733.298 265.185 732.608 265.536 732C265.887 731.392 266.392 730.887 267 730.536C267.608 730.185 268.298 730 269 730V732Z" fill="#4B3425" />

  <rect x="470" y="704" width="64" height="64" rx="32" fill="#F7F4F2" />

</svg>