<svg width="72.00" height="72.00" viewBox="314.00 1920.00 72.00 72.00" fill="none" xmlns="http://www.w3.org/2000/svg">
  <rect x="318" y="1924" width="64" height="64" rx="32" fill="#F7F4F2" />

  <path d="M349 1955C349 1954.45 349.448 1954 350 1954C350.552 1954 351 1954.45 351 1955C351 1955.55 350.552 1956 350 1956C349.448 1956 349 1955.55 349 1955Z" fill="#4B3425" />

  <path fill-rule="evenodd" clip-rule="evenodd" d="M350.707 1965.71L355.636 1960.78C357.152 1959.26 358 1957.19 358 1955.05C358 1950.64 354.428 1947 350 1947C345.572 1947 342 1950.64 342 1955.05C342 1957.19 342.848 1959.26 344.364 1960.78L349.293 1965.71C349.683 1966.1 350.317 1966.1 350.707 1965.71ZM350 1952C348.343 1952 347 1953.34 347 1955C347 1956.66 348.343 1958 350 1958C351.657 1958 353 1956.66 353 1955C353 1953.34 351.657 1952 350 1952Z" fill="#4B3425" />

</svg>