<svg width="72.00" height="72.00" viewBox="466.00 1920.00 72.00 72.00" fill="none" xmlns="http://www.w3.org/2000/svg">
  <rect x="470" y="1924" width="64" height="64" rx="32" fill="#F7F4F2" />

  <path d="M493 1950C493 1947.79 494.791 1946 497 1946C499.209 1946 501 1947.79 501 1950C501 1952.21 499.209 1954 497 1954C496.487 1954 495.997 1953.9 495.546 1953.73C495.672 1954.15 495.82 1954.57 495.99 1954.98C496.643 1956.55 497.6 1957.99 498.808 1959.19C500.015 1960.4 501.448 1961.36 503.025 1962.01C503.434 1962.18 503.85 1962.33 504.273 1962.45C504.097 1962 504 1961.51 504 1961C504 1958.79 505.791 1957 508 1957C510.209 1957 512 1958.79 512 1961C512 1963.21 510.209 1965 508 1965C506.03 1965 504.08 1964.61 502.26 1963.86C500.44 1963.1 498.786 1962 497.393 1960.61C496.001 1959.21 494.896 1957.56 494.142 1955.74C493.388 1953.92 493 1951.97 493 1950Z" fill="#4B3425" />

</svg>