<svg width="72.00" height="72.00" viewBox="390.00 1272.00 72.00 72.00" fill="none" xmlns="http://www.w3.org/2000/svg">
  <rect x="394" y="1276" width="64" height="64" rx="32" fill="#F7F4F2" />

  <path d="M418 1305C418 1303.67 418.527 1302.4 419.464 1301.46C420.402 1300.53 421.674 1300 423 1300" stroke="#9BB068" stroke-width="2" stroke-linejoin="round" />

  <path d="M434 1305C434 1303.67 433.473 1302.4 432.536 1301.46C431.598 1300.53 430.326 1300 429 1300" stroke="#4B3425" stroke-width="2" stroke-linejoin="round" />

  <path d="M418 1311C418 1312.33 418.527 1313.6 419.464 1314.54C420.402 1315.47 421.674 1316 423 1316" stroke="#4B3425" stroke-width="2" stroke-linejoin="round" />

  <path d="M434 1311C434 1312.33 433.473 1313.6 432.536 1314.54C431.598 1315.47 430.326 1316 429 1316" stroke="#9BB068" stroke-width="2" stroke-linejoin="round" />

</svg>