<svg width="72.00" height="72.00" viewBox="770.00 548.00 72.00 72.00" fill="none" xmlns="http://www.w3.org/2000/svg">
  <rect x="774" y="552" width="64" height="64" rx="32" fill="#F7F4F2" />

  <rect x="797" y="577" width="18" height="14" rx="7" stroke="#4B3425" stroke-width="2" stroke-linejoin="round" />

  <path d="M812 578C812 578.788 811.845 579.568 811.543 580.296C811.242 581.024 810.8 581.685 810.243 582.243C809.685 582.8 809.024 583.242 808.296 583.543C807.568 583.845 806.788 584 806 584C805.212 584 804.432 583.845 803.704 583.543C802.976 583.242 802.315 582.8 801.757 582.243C801.2 581.685 800.758 581.024 800.457 580.296C800.155 579.568 800 578.788 800 578" stroke="#4B3425" stroke-width="2" stroke-linejoin="round" />

</svg>