<svg width="72.00" height="72.00" viewBox="162.00 472.00 72.00 72.00" fill="none" xmlns="http://www.w3.org/2000/svg">
  <rect x="166" y="476" width="64" height="64" rx="32" fill="#F7F4F2" />

  <rect x="192" y="499" width="12" height="18" rx="4" stroke="#4B3425" stroke-width="2" stroke-linejoin="round" />

  <path d="M201 499C201 499.394 200.922 499.784 200.772 500.148C200.621 500.512 200.4 500.843 200.121 501.121C199.843 501.4 199.512 501.621 199.148 501.772C198.784 501.922 198.394 502 198 502C197.606 502 197.216 501.922 196.852 501.772C196.488 501.621 196.157 501.4 195.879 501.121C195.6 500.843 195.379 500.512 195.228 500.148C195.078 499.784 195 499.394 195 499" stroke="#4B3425" stroke-width="2" stroke-linejoin="round" />

  <circle cx="198" cy="513" r="1" fill="#4B3425" />

</svg>