<svg width="72.00" height="72.00" viewBox="466.00 1996.00 72.00 72.00" fill="none" xmlns="http://www.w3.org/2000/svg">
  <rect x="470" y="2000" width="64" height="64" rx="32" fill="#F7F4F2" />

  <path d="M502 2022C496.477 2022 492 2026.48 492 2032C492 2037.52 496.477 2042 502 2042C504.559 2042 506.895 2041.04 508.664 2039.46L507.712 2037.75C507.171 2037.91 506.596 2038 506 2038C502.686 2038 500 2035.31 500 2032C500 2028.69 502.686 2026 506 2026C506.596 2026 507.171 2026.09 507.712 2026.25L508.664 2024.54C506.895 2022.96 504.559 2022 502 2022Z" fill="#4B3425" />

</svg>