<svg width="72.00" height="72.00" viewBox="466.00 548.00 72.00 72.00" fill="none" xmlns="http://www.w3.org/2000/svg">
  <rect x="470" y="552" width="64" height="64" rx="32" fill="#F7F4F2" />

  <rect x="500" y="582" width="4" height="4" rx="2" stroke="#4B3425" stroke-width="2" stroke-linejoin="round" />

  <path d="M509 586C509 586.919 508.819 587.83 508.467 588.679C508.115 589.528 507.6 590.3 506.95 590.95C506.3 591.6 505.528 592.115 504.679 592.467C503.83 592.819 502.919 593 502 593C501.081 593 500.17 592.819 499.321 592.467C498.472 592.115 497.7 591.6 497.05 590.95C496.4 590.3 495.885 589.528 495.533 588.679C495.181 587.83 495 586.919 495 586" stroke="#4B3425" stroke-width="2" stroke-linejoin="round" />

</svg>