<svg width="72.00" height="72.00" viewBox="466.00 624.00 72.00 72.00" fill="none" xmlns="http://www.w3.org/2000/svg">
  <rect x="470" y="628" width="64" height="64" rx="32" fill="#F7F4F2" />

  <path d="M494 654C494 655.839 494.362 657.659 495.066 659.358C495.769 661.056 496.8 662.599 498.101 663.9C499.401 665.2 500.944 666.231 502.642 666.934C504.341 667.638 506.162 668 508 668" stroke="#4B3425" stroke-width="2" stroke-linejoin="round" />

  <path d="M494 654C494 652.343 495.343 651 497 651C498.657 651 500 652.343 500 654C500 655.657 498.657 657 497 657C495.343 657 494 655.657 494 654Z" stroke="#4B3425" stroke-width="2" stroke-linejoin="round" />

  <path d="M505 665C505 663.343 506.343 662 508 662C509.657 662 511 663.343 511 665C511 666.657 509.657 668 508 668C506.343 668 505 666.657 505 665Z" stroke="#4B3425" stroke-width="2" stroke-linejoin="round" />

</svg>