<svg width="72.00" height="72.00" viewBox="922.00 1844.00 72.00 72.00" fill="none" xmlns="http://www.w3.org/2000/svg">
  <rect x="926" y="1848" width="64" height="64" rx="32" fill="#F7F4F2" />

  <path d="M967 1874C967 1876.21 965.209 1878 963 1878C961.873 1878 960.854 1877.53 960.127 1876.78L956.863 1878.96C956.952 1879.29 957 1879.64 957 1880C957 1880.46 956.924 1880.9 956.783 1881.3L960.071 1883.28C960.801 1882.49 961.843 1882 963 1882C965.209 1882 967 1883.79 967 1886C967 1888.21 965.209 1890 963 1890C960.791 1890 959 1888.21 959 1886C959 1885.67 959.041 1885.35 959.117 1885.04L955.677 1882.97C954.968 1883.61 954.029 1884 953 1884C950.791 1884 949 1882.21 949 1880C949 1877.79 950.791 1876 953 1876C954.127 1876 955.146 1876.47 955.873 1877.22L959.137 1875.04C959.048 1874.71 959 1874.36 959 1874C959 1871.79 960.791 1870 963 1870C965.209 1870 967 1871.79 967 1874Z" fill="#4B3425" />

</svg>