<svg width="72.00" height="72.00" viewBox="238.00 1844.00 72.00 72.00" fill="none" xmlns="http://www.w3.org/2000/svg">
  <rect x="242" y="1848" width="64" height="64" rx="32" fill="#F7F4F2" />

  <path fill-rule="evenodd" clip-rule="evenodd" d="M264 1880C264 1874.48 268.477 1870 274 1870C279.523 1870 284 1874.48 284 1880C284 1885.52 279.523 1890 274 1890C268.477 1890 264 1885.52 264 1880ZM272.307 1873.67C271.689 1875.98 272.012 1878.43 273.206 1880.5C274.399 1882.57 276.365 1884.08 278.671 1884.69L279.188 1882.76C277.395 1882.28 275.866 1881.11 274.938 1879.5C274.01 1877.89 273.758 1875.98 274.239 1874.19L272.307 1873.67Z" fill="#4B3425" />

</svg>