<svg width="72.00" height="72.00" viewBox="162.00 1120.00 72.00 72.00" fill="none" xmlns="http://www.w3.org/2000/svg">
  <rect x="166" y="1124" width="64" height="64" rx="32" fill="#F7F4F2" />

  <path d="M201 1147C201 1147.39 200.922 1147.78 200.772 1148.15C200.621 1148.51 200.4 1148.84 200.121 1149.12C199.843 1149.4 199.512 1149.62 199.148 1149.77C198.784 1149.92 198.394 1150 198 1150C197.606 1150 197.216 1149.92 196.852 1149.77C196.488 1149.62 196.157 1149.4 195.879 1149.12C195.6 1148.84 195.379 1148.51 195.228 1148.15C195.078 1147.78 195 1147.39 195 1147" stroke="#9BB068" stroke-width="2" stroke-linejoin="round" />

  <rect x="192" y="1147" width="12" height="18" rx="4" stroke="#4B3425" stroke-width="2" stroke-linejoin="round" />

  <circle cx="198" cy="1161" r="1" fill="#4B3425" />

</svg>