<svg width="72.00" height="72.00" viewBox="314.00 548.00 72.00 72.00" fill="none" xmlns="http://www.w3.org/2000/svg">
  <rect x="318" y="552" width="64" height="64" rx="32" fill="#F7F4F2" />

  <path d="M359 584C359 586.387 358.052 588.676 356.364 590.364C354.676 592.052 352.387 593 350 593C347.613 593 345.324 592.052 343.636 590.364C341.948 588.676 341 586.387 341 584" stroke="#4B3425" stroke-width="2" stroke-linejoin="round" />

  <path d="M350 575L350 588" stroke="#4B3425" stroke-width="2" stroke-linejoin="round" />

  <path d="M354 584C354 584.525 353.897 585.045 353.696 585.531C353.494 586.016 353.2 586.457 352.828 586.828C352.457 587.2 352.016 587.494 351.531 587.696C351.045 587.897 350.525 588 350 588C349.475 588 348.955 587.897 348.469 587.696C347.984 587.494 347.543 587.2 347.172 586.828C346.8 586.457 346.506 586.016 346.304 585.531C346.103 585.045 346 584.525 346 584" stroke="#4B3425" stroke-width="2" stroke-linejoin="round" />

</svg>