<svg width="72.00" height="72.00" viewBox="162.00 1348.00 72.00 72.00" fill="none" xmlns="http://www.w3.org/2000/svg">
  <rect x="166" y="1352" width="64" height="64" rx="32" fill="#F7F4F2" />

  <path d="M207 1384C207 1385.78 206.472 1387.52 205.483 1389C204.494 1390.48 203.089 1391.63 201.444 1392.31C199.8 1393 197.99 1393.17 196.244 1392.83C194.498 1392.48 192.895 1391.62 191.636 1390.36C190.377 1389.11 189.52 1387.5 189.173 1385.76C188.826 1384.01 189.004 1382.2 189.685 1380.56C190.366 1378.91 191.52 1377.51 193 1376.52C194.48 1375.53 196.22 1375 198 1375" stroke="#9BB068" stroke-width="2" stroke-linejoin="round" />

  <path d="M201 1381C202.105 1382.1 203.895 1382.1 205 1381C206.105 1379.9 206.105 1378.1 205 1377C203.895 1375.9 202.105 1375.9 201 1377C199.895 1378.1 199.895 1379.9 201 1381Z" stroke="#4B3425" stroke-width="2" stroke-linejoin="round" />

</svg>