<svg width="72.00" height="72.00" viewBox="770.00 1692.00 72.00 72.00" fill="none" xmlns="http://www.w3.org/2000/svg">
  <rect x="774" y="1696" width="64" height="64" rx="32" fill="#F7F4F2" />

  <path d="M806 1726C808.209 1726 810 1724.21 810 1722C810 1719.79 808.209 1718 806 1718C803.791 1718 802 1719.79 802 1722C802 1724.21 803.791 1726 806 1726Z" fill="#4B3425" />

  <path d="M806 1738C808.209 1738 810 1736.21 810 1734C810 1731.79 808.209 1730 806 1730C803.791 1730 802 1731.79 802 1734C802 1736.21 803.791 1738 806 1738Z" fill="#4B3425" />

  <path d="M812 1732C809.791 1732 808 1730.21 808 1728C808 1725.79 809.791 1724 812 1724C814.209 1724 816 1725.79 816 1728C816 1730.21 814.209 1732 812 1732Z" fill="#4B3425" />

  <path d="M796 1728C796 1730.21 797.791 1732 800 1732C802.209 1732 804 1730.21 804 1728C804 1725.79 802.209 1724 800 1724C797.791 1724 796 1725.79 796 1728Z" fill="#4B3425" />

</svg>