<svg width="72.00" height="72.00" viewBox="694.00 396.00 72.00 72.00" fill="none" xmlns="http://www.w3.org/2000/svg">
  <rect x="698" y="400" width="64" height="64" rx="32" fill="#F7F4F2" />

  <path d="M728.184 422.937C728.899 421.388 731.101 421.388 731.816 422.937L733.199 425.935C733.49 426.567 734.089 427.002 734.78 427.084L738.058 427.472C739.753 427.673 740.433 429.768 739.18 430.927L736.757 433.168C736.246 433.64 736.017 434.344 736.153 435.026L736.796 438.264C737.129 439.938 735.347 441.233 733.858 440.399L730.977 438.787C730.37 438.447 729.63 438.447 729.023 438.787L726.143 440.399C724.653 441.233 722.871 439.938 723.204 438.264L723.847 435.026C723.983 434.344 723.754 433.64 723.244 433.168L720.82 430.927C719.567 429.768 720.247 427.673 721.942 427.472L725.221 427.084C725.911 427.002 726.51 426.567 726.801 425.935L728.184 422.937Z" stroke="#4B3425" stroke-width="2" stroke-linejoin="round" />

</svg>