<svg width="72.00" height="72.00" viewBox="846.00 1768.00 72.00 72.00" fill="none" xmlns="http://www.w3.org/2000/svg">
  <rect x="850" y="1772" width="64" height="64" rx="32" fill="#F7F4F2" />

  <path d="M879 1804C879 1802.52 880.591 1801.58 881.885 1802.3L884.941 1804L881.885 1805.7C880.591 1806.42 879 1805.48 879 1804Z" fill="#4B3425" />

  <path fill-rule="evenodd" clip-rule="evenodd" d="M872 1804C872 1798.48 876.477 1794 882 1794C887.523 1794 892 1798.48 892 1804C892 1809.52 887.523 1814 882 1814C876.477 1814 872 1809.52 872 1804ZM882.856 1800.55C880.229 1799.09 877 1800.99 877 1804C877 1807.01 880.229 1808.91 882.856 1807.45L885.912 1805.75C887.284 1804.99 887.284 1803.01 885.912 1802.25L882.856 1800.55Z" fill="#4B3425" />

</svg>