<svg width="1288.00" height="1284.66" viewBox="109.00 112.34 1288.00 1284.66" fill="none" xmlns="http://www.w3.org/2000/svg">
  <path d="M962.73 506.239L958.896 504.175C956.231 502.74 953 504.67 953 507.697V508.303C953 511.33 956.231 513.26 958.896 511.825L962.73 509.761C964.132 509.006 964.132 506.994 962.73 506.239Z" stroke="#4B3425" stroke-width="2" stroke-linejoin="round" />

  <path d="M809 658C809 656.895 808.105 656 807 656H805C803.895 656 803 656.895 803 658C803 659.105 803.895 660 805 660H807C808.105 660 809 660.895 809 662C809 663.105 808.105 664 807 664H805C803.895 664 803 663.105 803 662" stroke="#4B3425" stroke-width="2" stroke-linejoin="round" />

  <rect x="698" y="704" width="64" height="64" rx="32" fill="#F7F4F2" />

  <rect x="732" y="741" width="4" height="4" rx="2" transform="rotate(90 732 741)" stroke="#4B3425" stroke-width="2" />

  <rect x="732" y="734" width="4" height="4" rx="2" transform="rotate(90 732 734)" stroke="#4B3425" stroke-width="2" />

  <rect x="732" y="727" width="4" height="4" rx="2" transform="rotate(90 732 727)" stroke="#4B3425" stroke-width="2" />

  <path d="M423 1089H429C431.209 1089 433 1087.21 433 1085V1082V1076.66C433 1075.6 432.579 1074.58 431.828 1073.83L430.172 1072.17C429.421 1071.42 428.404 1071 427.343 1071H423C420.791 1071 419 1072.79 419 1075V1085C419 1087.21 420.791 1089 423 1089Z" stroke="#4B3425" stroke-width="2" stroke-linejoin="round" />

  <path d="M269 1155C269 1152.24 271.239 1150 274 1150C276.761 1150 279 1152.24 279 1155V1162H269V1155Z" stroke="#4B3425" stroke-width="2" stroke-linejoin="round" />

  <path d="M341 1148C343.209 1148 345 1149.79 345 1152V1156C345 1159.31 347.686 1162 351 1162H353.5C356.538 1162 359 1159.54 359 1156.5C359 1153.46 356.538 1151 353.5 1151H349" stroke="#4B3425" stroke-width="2" stroke-linejoin="round" />

  <path d="M117.105 1307.13L116.73 1308.44C116.364 1309.72 117.326 1311 118.658 1311H124.37C126.179 1311 127.477 1309.26 126.957 1307.52L126.492 1305.97C125.956 1304.19 123.512 1303.98 122.678 1305.64L122.151 1306.7C121.653 1307.7 120.249 1307.75 119.676 1306.79C119.04 1305.73 117.445 1305.94 117.105 1307.13Z" stroke="#9BB068" stroke-width="2" stroke-linejoin="round" />

  <path d="M119.172 1391.83L129.5 1381.5C130.881 1380.12 130.881 1377.88 129.5 1376.5C128.119 1375.12 125.881 1375.12 124.5 1376.5L114.172 1386.83C113.421 1387.58 113 1388.6 113 1389.66V1393H116.343C117.404 1393 118.421 1392.58 119.172 1391.83Z" stroke="#4B3425" stroke-width="2" stroke-linejoin="round" />

</svg>