<svg width="72.00" height="72.00" viewBox="618.00 1996.00 72.00 72.00" fill="none" xmlns="http://www.w3.org/2000/svg">
  <rect x="622" y="2000" width="64" height="64" rx="32" fill="#F7F4F2" />

  <path d="M647 2030C645.895 2030 645 2030.9 645 2032C645 2033.1 645.895 2034 647 2034C648.105 2034 649 2033.1 649 2032C649 2030.9 648.105 2030 647 2030Z" fill="#4B3425" />

  <path d="M652 2032C652 2030.9 652.895 2030 654 2030C655.105 2030 656 2030.9 656 2032C656 2033.1 655.105 2034 654 2034C652.895 2034 652 2033.1 652 2032Z" fill="#4B3425" />

  <path d="M659 2032C659 2030.9 659.895 2030 661 2030C662.105 2030 663 2030.9 663 2032C663 2033.1 662.105 2034 661 2034C659.895 2034 659 2033.1 659 2032Z" fill="#4B3425" />

</svg>