<svg width="72.00" height="72.00" viewBox="922.00 1616.00 72.00 72.00" fill="none" xmlns="http://www.w3.org/2000/svg">
  <rect x="926" y="1620" width="64" height="64" rx="32" fill="#F7F4F2" />

  <path d="M956 1652C956 1650.9 956.895 1650 958 1650C959.105 1650 960 1650.9 960 1652C960 1653.1 959.105 1654 958 1654C956.895 1654 956 1653.1 956 1652Z" fill="#4B3425" />

  <path fill-rule="evenodd" clip-rule="evenodd" d="M958 1643C956.896 1643 956 1643.9 956 1645C956 1645.8 955.031 1646.2 954.464 1645.64C953.683 1644.86 952.417 1644.86 951.636 1645.64C950.855 1646.42 950.855 1647.68 951.636 1648.46C952.203 1649.03 951.801 1650 951 1650C949.895 1650 949 1650.9 949 1652C949 1653.1 949.895 1654 951 1654C951.801 1654 952.203 1654.97 951.636 1655.54C950.855 1656.32 950.855 1657.58 951.636 1658.36C952.417 1659.15 953.683 1659.15 954.464 1658.36C955.031 1657.8 956 1658.2 956 1659C956 1660.1 956.896 1661 958 1661C959.105 1661 960 1660.1 960 1659C960 1658.2 960.969 1657.8 961.536 1658.36C962.317 1659.15 963.583 1659.15 964.364 1658.36C965.145 1657.58 965.145 1656.32 964.364 1655.54C963.797 1654.97 964.199 1654 965 1654C966.105 1654 967 1653.1 967 1652C967 1650.9 966.105 1650 965 1650C964.199 1650 963.797 1649.03 964.364 1648.46C965.145 1647.68 965.145 1646.42 964.364 1645.64C963.583 1644.86 962.317 1644.86 961.536 1645.64C960.969 1646.2 960 1645.8 960 1645C960 1643.9 959.105 1643 958 1643ZM958 1648C955.791 1648 954 1649.79 954 1652C954 1654.21 955.791 1656 958 1656C960.209 1656 962 1654.21 962 1652C962 1649.79 960.209 1648 958 1648Z" fill="#4B3425" />

</svg>