<svg width="72.00" height="72.00" viewBox="86.00 1044.00 72.00 72.00" fill="none" xmlns="http://www.w3.org/2000/svg">
  <rect x="90" y="1048" width="64" height="64" rx="32" fill="#F7F4F2" />

  <path d="M115 1088C115 1087.08 115.181 1086.17 115.533 1085.32C115.885 1084.47 116.4 1083.7 117.05 1083.05C117.7 1082.4 118.472 1081.88 119.321 1081.53C120.17 1081.18 121.081 1081 122 1081C122.919 1081 123.83 1081.18 124.679 1081.53C125.528 1081.88 126.3 1082.4 126.95 1083.05C127.6 1083.7 128.115 1084.47 128.467 1085.32C128.819 1086.17 129 1087.08 129 1088" stroke="#9BB068" stroke-width="2" stroke-linejoin="round" />

  <rect x="118" y="1073" width="8" height="8" rx="4" stroke="#4B3425" stroke-width="2" stroke-linejoin="round" />

</svg>