<svg width="72.00" height="72.00" viewBox="694.00 1692.00 72.00 72.00" fill="none" xmlns="http://www.w3.org/2000/svg">
  <rect x="698" y="1696" width="64" height="64" rx="32" fill="#F7F4F2" />

  <path d="M728.184 1717.94C728.899 1716.39 731.101 1716.39 731.816 1717.94L733.481 1721.55C733.772 1722.18 734.371 1722.61 735.062 1722.69L739.009 1723.16C740.704 1723.36 741.384 1725.46 740.131 1726.62L737.213 1729.32C736.702 1729.79 736.474 1730.49 736.609 1731.17L737.384 1735.07C737.717 1736.75 735.935 1738.04 734.445 1737.21L730.977 1735.27C730.37 1734.93 729.63 1734.93 729.023 1735.27L725.555 1737.21C724.065 1738.04 722.283 1736.75 722.616 1735.07L723.391 1731.17C723.526 1730.49 723.298 1729.79 722.787 1729.32L719.869 1726.62C718.616 1725.46 719.296 1723.36 720.991 1723.16L724.938 1722.69C725.629 1722.61 726.228 1722.18 726.519 1721.55L728.184 1717.94Z" fill="#4B3425" />

</svg>