<svg width="635.00" height="627.00" viewBox="185.00 198.00 635.00 627.00" fill="none" xmlns="http://www.w3.org/2000/svg">
  <path d="M511 438V431C511 429.895 510.105 429 509 429C507.895 429 507 429.895 507 431V438C507 439.105 507.895 440 509 440C510.105 440 511 439.105 511 438Z" stroke="#4B3425" stroke-width="2" stroke-linejoin="round" />

  <path d="M587 430C587 426.134 583.866 423 580 423H576C572.134 423 569 426.134 569 430V436.172C569 437.953 571.154 438.846 572.414 437.586L572.868 437.132C572.953 437.047 573.067 437 573.186 437H580C583.866 437 587 433.866 587 430Z" stroke="#4B3425" stroke-width="2" stroke-linejoin="round" />

  <rect x="470" y="476" width="64" height="64" rx="32" fill="#F7F4F2" />

  <path d="M510 508H494" stroke="#4B3425" stroke-width="2" stroke-linejoin="round" />

  <rect x="493" y="504" width="18" height="12" rx="6" stroke="#4B3425" stroke-width="2" stroke-linejoin="round" />

  <path d="M499 504V503C499 501.343 500.343 500 502 500C503.657 500 505 501.343 505 503V504" stroke="#4B3425" stroke-width="2" stroke-linejoin="round" />

  <path d="M500 508V509C500 510.105 500.895 511 502 511C503.105 511 504 510.105 504 509V508" stroke="#4B3425" stroke-width="2" stroke-linejoin="round" />

  <path d="M280 732.268C279.696 732.092 279.351 732 279 732V730C279.702 730 280.392 730.185 281 730.536C281.608 730.887 282.113 731.392 282.464 732C282.815 732.608 283 733.298 283 734C283 734.702 282.815 735.392 282.464 736L280.732 735C280.908 734.696 281 734.351 281 734C281 733.649 280.908 733.304 280.732 733C280.557 732.696 280.304 732.443 280 732.268Z" fill="#4B3425" />

  <path d="M278 737C278.198 737 278.391 737.059 278.556 737.169C278.72 737.278 278.848 737.435 278.924 737.617C279 737.8 279.019 738.001 278.981 738.195C278.942 738.389 278.847 738.567 278.707 738.707L280.121 740.121C280.541 739.702 280.827 739.167 280.942 738.585C281.058 738.003 280.999 737.4 280.772 736.852C280.545 736.304 280.16 735.835 279.667 735.506C279.173 735.176 278.593 735 278 735H270C269.407 735 268.827 735.176 268.333 735.506C267.84 735.835 267.455 736.304 267.228 736.852C267.001 737.4 266.942 738.003 267.058 738.585C267.173 739.167 267.459 739.702 267.879 740.121L269.293 738.707C269.153 738.567 269.058 738.389 269.019 738.195C268.981 738.001 269 737.8 269.076 737.617C269.152 737.435 269.28 737.278 269.444 737.169C269.609 737.059 269.802 737 270 737H278Z" fill="#4B3425" />

  <path d="M273 741H275C275.153 741 275.305 741.035 275.442 741.103C275.58 741.171 275.7 741.27 275.793 741.391C275.887 741.513 275.951 741.654 275.981 741.805C276.011 741.955 276.006 742.111 275.966 742.259L277.898 742.776C278.017 742.332 278.032 741.866 277.942 741.415C277.853 740.963 277.66 740.539 277.38 740.174C277.1 739.809 276.74 739.513 276.327 739.309C275.914 739.106 275.46 739 275 739H273C272.54 739 272.086 739.106 271.673 739.309C271.26 739.513 270.9 739.809 270.62 740.174C270.34 740.539 270.147 740.963 270.058 741.415C269.968 741.866 269.983 742.332 270.102 742.776L272.034 742.259C271.994 742.111 271.989 741.955 272.019 741.805C272.049 741.654 272.113 741.513 272.207 741.391C272.3 741.27 272.42 741.171 272.558 741.103C272.695 741.035 272.847 741 273 741Z" fill="#4B3425" />

  <path d="M202 812V813.5C202 814.881 203.119 816 204.5 816C205.881 816 207 814.881 207 813.5V812C207 807.029 202.971 803 198 803C193.029 803 189 807.029 189 812C189 816.971 193.029 821 198 821H203" stroke="#4B3425" stroke-width="2" />

</svg>