<svg width="72.00" height="72.00" viewBox="694.00 1996.00 72.00 72.00" fill="none" xmlns="http://www.w3.org/2000/svg">
  <rect x="698" y="2000" width="64" height="64" rx="32" fill="#F7F4F2" />

  <path d="M732 2025C732 2023.9 731.105 2023 730 2023C728.895 2023 728 2023.9 728 2025C728 2026.1 728.895 2027 730 2027C731.105 2027 732 2026.1 732 2025Z" fill="#4B3425" />

  <path d="M730 2030C731.105 2030 732 2030.9 732 2032C732 2033.1 731.105 2034 730 2034C728.895 2034 728 2033.1 728 2032C728 2030.9 728.895 2030 730 2030Z" fill="#4B3425" />

  <path d="M730 2037C731.105 2037 732 2037.9 732 2039C732 2040.1 731.105 2041 730 2041C728.895 2041 728 2040.1 728 2039C728 2037.9 728.895 2037 730 2037Z" fill="#4B3425" />

</svg>