<svg width="72.00" height="72.00" viewBox="542.00 1996.00 72.00 72.00" fill="none" xmlns="http://www.w3.org/2000/svg">
  <rect x="546" y="2000" width="64" height="64" rx="32" fill="#F7F4F2" />

  <path d="M579 2023C579 2023.55 578.552 2024 578 2024C577.448 2024 577 2023.55 577 2023C577 2022.45 577.448 2022 578 2022C578.552 2022 579 2022.45 579 2023Z" fill="#4B3425" />

  <path d="M578 2025C574.134 2025 571 2028.13 571 2032C571 2035.87 574.134 2039 578 2039C581.866 2039 585 2035.87 585 2032C585 2028.13 581.866 2025 578 2025Z" fill="#4B3425" />

  <path d="M578 2042C578.552 2042 579 2041.55 579 2041C579 2040.45 578.552 2040 578 2040C577.448 2040 577 2040.45 577 2041C577 2041.55 577.448 2042 578 2042Z" fill="#4B3425" />

  <path d="M587 2033C586.448 2033 586 2032.55 586 2032C586 2031.45 586.448 2031 587 2031C587.552 2031 588 2031.45 588 2032C588 2032.55 587.552 2033 587 2033Z" fill="#4B3425" />

  <path d="M568 2032C568 2032.55 568.448 2033 569 2033C569.552 2033 570 2032.55 570 2032C570 2031.45 569.552 2031 569 2031C568.448 2031 568 2031.45 568 2032Z" fill="#4B3425" />

  <path d="M585.071 2026.34C584.681 2026.73 584.047 2026.73 583.657 2026.34C583.266 2025.95 583.266 2025.32 583.657 2024.93C584.047 2024.54 584.681 2024.54 585.071 2024.93C585.462 2025.32 585.462 2025.95 585.071 2026.34Z" fill="#4B3425" />

  <path d="M570.929 2039.07C571.319 2039.46 571.953 2039.46 572.343 2039.07C572.734 2038.68 572.734 2038.05 572.343 2037.66C571.953 2037.27 571.319 2037.27 570.929 2037.66C570.538 2038.05 570.538 2038.68 570.929 2039.07Z" fill="#4B3425" />

  <path d="M570.929 2026.34C571.319 2026.73 571.953 2026.73 572.343 2026.34C572.734 2025.95 572.734 2025.32 572.343 2024.93C571.953 2024.54 571.319 2024.54 570.929 2024.93C570.538 2025.32 570.538 2025.95 570.929 2026.34Z" fill="#4B3425" />

  <path d="M585.071 2039.07C584.681 2039.46 584.047 2039.46 583.657 2039.07C583.266 2038.68 583.266 2038.05 583.657 2037.66C584.047 2037.27 584.681 2037.27 585.071 2037.66C585.462 2038.05 585.462 2038.68 585.071 2039.07Z" fill="#4B3425" />

</svg>