<svg width="72.00" height="72.00" viewBox="86.00 396.00 72.00 72.00" fill="none" xmlns="http://www.w3.org/2000/svg">
  <rect x="90" y="400" width="64" height="64" rx="32" fill="#F7F4F2" />

  <path d="M115 440C115 439.081 115.181 438.17 115.533 437.321C115.885 436.472 116.4 435.7 117.05 435.05C117.7 434.4 118.472 433.885 119.321 433.533C120.17 433.181 121.081 433 122 433C122.919 433 123.83 433.181 124.679 433.533C125.528 433.885 126.3 434.4 126.95 435.05C127.6 435.7 128.115 436.472 128.467 437.321C128.819 438.17 129 439.081 129 440" stroke="#4B3425" stroke-width="2" stroke-linejoin="round" />

  <rect x="118" y="425" width="8" height="8" rx="4" stroke="#4B3425" stroke-width="2" stroke-linejoin="round" />

</svg>