<svg width="72.00" height="72.00" viewBox="390.00 624.00 72.00 72.00" fill="none" xmlns="http://www.w3.org/2000/svg">
  <rect x="394" y="628" width="64" height="64" rx="32" fill="#F7F4F2" />

  <path d="M418 657C418 655.674 418.527 654.402 419.464 653.464C420.402 652.527 421.674 652 423 652" stroke="#4B3425" stroke-width="2" stroke-linejoin="round" />

  <path d="M434 657C434 655.674 433.473 654.402 432.536 653.464C431.598 652.527 430.326 652 429 652" stroke="#4B3425" stroke-width="2" stroke-linejoin="round" />

  <path d="M418 663C418 664.326 418.527 665.598 419.464 666.536C420.402 667.473 421.674 668 423 668" stroke="#4B3425" stroke-width="2" stroke-linejoin="round" />

  <path d="M434 663C434 664.326 433.473 665.598 432.536 666.536C431.598 667.473 430.326 668 429 668" stroke="#4B3425" stroke-width="2" stroke-linejoin="round" />

</svg>