<svg width="159.00" height="112.00" viewBox="575.00 548.00 159.00 112.00" fill="none" xmlns="http://www.w3.org/2000/svg">
  <rect x="622" y="552" width="64" height="64" rx="32" fill="#F7F4F2" />

  <path d="M650 578L650 576" stroke="#4B3425" stroke-width="2" stroke-linejoin="round" />

  <path d="M658 578L658 576" stroke="#4B3425" stroke-width="2" stroke-linejoin="round" />

  <path d="M662 582H646" stroke="#4B3425" stroke-width="2" stroke-linejoin="round" />

  <rect x="645" y="578" width="18" height="14" rx="4" stroke="#4B3425" stroke-width="2" stroke-linejoin="round" />

  <rect x="653" y="585" width="2" height="2" rx="1" fill="#4B3425" />

  <rect x="657" y="585" width="2" height="2" rx="1" fill="#4B3425" />

  <rect x="649" y="585" width="2" height="2" rx="1" fill="#4B3425" />

  <path d="M730 574V581" stroke="#4B3425" stroke-width="2" stroke-linejoin="round" />

  <path d="M730 587V594" stroke="#4B3425" stroke-width="2" stroke-linejoin="round" />

  <path d="M579 656H583C585.209 656 587 657.791 587 660C587 662.209 585.209 664 583 664H579" stroke="#4B3425" stroke-width="2" stroke-linejoin="round" />

</svg>