<svg width="442.00" height="72.00" viewBox="571.00 968.00 442.00 72.00" fill="none" xmlns="http://www.w3.org/2000/svg">
  <path d="M575 1002C575 1001.41 575.176 1000.83 575.506 1000.33C575.835 999.84 576.304 999.455 576.852 999.228C577.4 999.001 578.003 998.942 578.585 999.058C579.167 999.173 579.702 999.459 580.121 999.879C580.541 1000.3 580.827 1000.83 580.942 1001.41C581.058 1002 580.999 1002.6 580.772 1003.15C580.545 1003.7 580.16 1004.16 579.667 1004.49C578.855 1005.04 578 1005.79 578 1006.77V1007" stroke="#9BB068" stroke-width="2" stroke-linejoin="round" />

  <path d="M654 999V1009" stroke="#9BB068" stroke-width="2" stroke-linejoin="round" />

  <rect x="774" y="972" width="64" height="64" rx="32" fill="#F7F4F2" />

  <rect x="804" y="1004" width="4" height="4" rx="2" stroke="#9BB068" stroke-width="2" stroke-linejoin="round" />

  <path d="M797 1002L803.172 995.828C804.734 994.266 807.266 994.266 808.828 995.828L815 1002" stroke="#4B3425" stroke-width="2" stroke-linejoin="round" />

</svg>