<svg width="412.00" height="412.00" viewBox="338.00 336.00 412.00 412.00" fill="none" xmlns="http://www.w3.org/2000/svg">
  <rect x="546" y="476" width="64" height="64" rx="32" fill="#F7F4F2" />

  <path d="M585 504L585 516" stroke="#4B3425" stroke-width="2" stroke-linejoin="round" />

  <path d="M587 502C587 501.737 586.948 501.477 586.848 501.235C586.747 500.992 586.6 500.772 586.414 500.586C586.228 500.4 586.008 500.253 585.765 500.152C585.523 500.052 585.263 500 585 500C584.737 500 584.477 500.052 584.235 500.152C583.992 500.253 583.772 500.4 583.586 500.586C583.4 500.772 583.253 500.992 583.152 501.235C583.052 501.477 583 501.737 583 502C583 502.263 583.052 502.523 583.152 502.765C583.253 503.008 583.4 503.228 583.586 503.414C583.772 503.6 583.992 503.747 584.235 503.848C584.477 503.948 584.737 504 585 504C585.263 504 585.523 503.948 585.765 503.848C586.008 503.747 586.228 503.6 586.414 503.414C586.6 503.228 586.747 503.008 586.848 502.765C586.948 502.523 587 502.263 587 502V502Z" stroke="#4B3425" stroke-width="2" stroke-linejoin="round" />

  <path d="M578 499L578 506" stroke="#4B3425" stroke-width="2" stroke-linejoin="round" />

  <path d="M578 509L578 516" stroke="#4B3425" stroke-width="2" stroke-linejoin="round" />

  <path d="M580 508C580 507.737 579.948 507.477 579.848 507.235C579.747 506.992 579.6 506.772 579.414 506.586C579.228 506.4 579.008 506.253 578.765 506.152C578.523 506.052 578.263 506 578 506C577.737 506 577.477 506.052 577.235 506.152C576.992 506.253 576.772 506.4 576.586 506.586C576.4 506.772 576.253 506.992 576.152 507.235C576.052 507.477 576 507.737 576 508C576 508.263 576.052 508.523 576.152 508.765C576.253 509.008 576.4 509.228 576.586 509.414C576.772 509.6 576.992 509.747 577.235 509.848C577.477 509.948 577.737 510 578 510C578.263 510 578.523 509.948 578.765 509.848C579.008 509.747 579.228 509.6 579.414 509.414C579.6 509.228 579.747 509.008 579.848 508.765C579.948 508.523 580 508.263 580 508V508Z" stroke="#4B3425" stroke-width="2" stroke-linejoin="round" />

  <path d="M571 499L571 512" stroke="#4B3425" stroke-width="2" stroke-linejoin="round" />

  <path d="M509 586V580.321C509 578.886 508.231 577.56 506.985 576.848L503.985 575.134C502.755 574.431 501.245 574.431 500.015 575.134L497.015 576.848C495.769 577.56 495 578.886 495 580.321V586" stroke="#4B3425" stroke-width="2" stroke-linejoin="round" />

  <path d="M350 728C347.878 728 345.843 728.843 344.343 730.343C342.843 731.843 342 733.878 342 736C342 738.122 342.843 740.157 344.343 741.657C345.843 743.157 347.878 744 350 744V746C347.348 746 344.804 744.946 342.929 743.071C341.054 741.196 340 738.652 340 736C340 733.348 341.054 730.804 342.929 728.929C344.804 727.054 347.348 726 350 726V728Z" fill="#4B3425" />

</svg>