<svg width="72.00" height="72.00" viewBox="846.00 1196.00 72.00 72.00" fill="none" xmlns="http://www.w3.org/2000/svg">
  <rect x="850" y="1200" width="64" height="64" rx="32" fill="#F7F4F2" />

  <path d="M889 1225C889 1225.92 888.819 1226.83 888.467 1227.68C888.115 1228.53 887.6 1229.3 886.95 1229.95C886.3 1230.6 885.528 1231.12 884.679 1231.47C883.83 1231.82 882.919 1232 882 1232C881.081 1232 880.17 1231.82 879.321 1231.47C878.472 1231.12 877.7 1230.6 877.05 1229.95C876.4 1229.3 875.885 1228.53 875.533 1227.68C875.181 1226.83 875 1225.92 875 1225" stroke="#9BB068" stroke-width="2" stroke-linejoin="round" />

  <rect x="873" y="1225" width="18" height="14" rx="4" stroke="#4B3425" stroke-width="2" stroke-linejoin="round" />

</svg>