<svg width="72.00" height="72.00" viewBox="86.00 2072.00 72.00 72.00" fill="none" xmlns="http://www.w3.org/2000/svg">
  <rect x="90" y="2076" width="64" height="64" rx="32" fill="#F7F4F2" />

  <path d="M120 2106C120 2104.9 120.895 2104 122 2104C123.105 2104 124 2104.9 124 2106C124 2107.1 123.105 2108 122 2108C120.895 2108 120 2107.1 120 2106Z" fill="#4B3425" />

  <path d="M127 2110C127 2108.9 127.895 2108 129 2108C130.105 2108 131 2108.9 131 2110C131 2111.1 130.105 2112 129 2112C127.895 2112 127 2111.1 127 2110Z" fill="#4B3425" />

  <path d="M115 2108C113.895 2108 113 2108.9 113 2110C113 2111.1 113.895 2112 115 2112C116.105 2112 117 2111.1 117 2110C117 2108.9 116.105 2108 115 2108Z" fill="#4B3425" />

</svg>