<svg width="72.00" height="72.00" viewBox="466.00 1272.00 72.00 72.00" fill="none" xmlns="http://www.w3.org/2000/svg">
  <rect x="470" y="1276" width="64" height="64" rx="32" fill="#F7F4F2" />

  <path d="M494 1302C494 1303.84 494.362 1305.66 495.066 1307.36C495.769 1309.06 496.8 1310.6 498.101 1311.9C499.401 1313.2 500.944 1314.23 502.642 1314.93C504.341 1315.64 506.162 1316 508 1316" stroke="#9BB068" stroke-width="2" stroke-linejoin="round" />

  <path d="M494 1302C494 1300.34 495.343 1299 497 1299C498.657 1299 500 1300.34 500 1302C500 1303.66 498.657 1305 497 1305C495.343 1305 494 1303.66 494 1302Z" stroke="#4B3425" stroke-width="2" stroke-linejoin="round" />

  <path d="M505 1313C505 1311.34 506.343 1310 508 1310C509.657 1310 511 1311.34 511 1313C511 1314.66 509.657 1316 508 1316C506.343 1316 505 1314.66 505 1313Z" stroke="#4B3425" stroke-width="2" stroke-linejoin="round" />

</svg>