<svg width="72.00" height="72.00" viewBox="162.00 700.00 72.00 72.00" fill="none" xmlns="http://www.w3.org/2000/svg">
  <rect x="166" y="704" width="64" height="64" rx="32" fill="#F7F4F2" />

  <path d="M207 736C207 737.78 206.472 739.52 205.483 741C204.494 742.48 203.089 743.634 201.444 744.315C199.8 744.996 197.99 745.174 196.244 744.827C194.498 744.48 192.895 743.623 191.636 742.364C190.377 741.105 189.52 739.502 189.173 737.756C188.826 736.01 189.004 734.2 189.685 732.556C190.366 730.911 191.52 729.506 193 728.517C194.48 727.528 196.22 727 198 727" stroke="#4B3425" stroke-width="2" stroke-linejoin="round" />

  <path d="M201 733C202.105 734.105 203.895 734.105 205 733C206.105 731.895 206.105 730.105 205 729C203.895 727.895 202.105 727.895 201 729C199.895 730.105 199.895 731.895 201 733Z" stroke="#4B3425" stroke-width="2" stroke-linejoin="round" />

</svg>