<svg width="668.50" height="677.00" viewBox="644.50 641.00 668.50 677.00" fill="none" xmlns="http://www.w3.org/2000/svg">
  <rect x="926" y="972" width="64" height="64" rx="32" fill="#F7F4F2" />

  <path d="M964.364 997.636L963.657 998.343V998.343L964.364 997.636ZM965 1005C964.448 1005 964 1005.45 964 1006C964 1006.55 964.448 1007 965 1007V1005ZM964.364 1010.36L965.071 1011.07V1011.07L964.364 1010.36ZM951.636 1010.36L950.929 1011.07H950.929L951.636 1010.36ZM951.636 997.636L952.343 998.343L951.636 997.636ZM954.464 997.636L953.757 998.343V998.343L954.464 997.636ZM951.636 1000.46L950.929 1001.17L950.929 1001.17L951.636 1000.46ZM954.464 1010.36L953.757 1009.66V1009.66L954.464 1010.36ZM964.364 1007.54L963.657 1008.24V1008.24L964.364 1007.54ZM961.536 997.636L960.828 996.929V996.929L961.536 997.636ZM958 994C956.344 994 955 995.343 955 997H957C957 996.448 957.448 996 958 996V994ZM961 997C961 995.343 959.657 994 958 994V996C958.553 996 959 996.448 959 997H961ZM965.071 996.929C963.9 995.757 962 995.757 960.828 996.929L962.243 998.343C962.633 997.953 963.266 997.953 963.657 998.343L965.071 996.929ZM965.071 1001.17C966.243 1000 966.243 998.101 965.071 996.929L963.657 998.343C964.047 998.734 964.047 999.367 963.657 999.757L965.071 1001.17ZM968 1004C968 1002.34 966.657 1001 965 1001V1003C965.552 1003 966 1003.45 966 1004H968ZM965 1007C966.657 1007 968 1005.66 968 1004H966C966 1004.55 965.552 1005 965 1005V1007ZM963.657 1008.24C964.047 1008.63 964.047 1009.27 963.657 1009.66L965.071 1011.07C966.243 1009.9 966.243 1008 965.071 1006.83L963.657 1008.24ZM963.657 1009.66C963.266 1010.05 962.633 1010.05 962.243 1009.66L960.828 1011.07C962 1012.24 963.899 1012.24 965.071 1011.07L963.657 1009.66ZM958 1014C959.657 1014 961 1012.66 961 1011H959C959 1011.55 958.553 1012 958 1012V1014ZM955 1011C955 1012.66 956.344 1014 958 1014V1012C957.448 1012 957 1011.55 957 1011H955ZM950.929 1011.07C952.101 1012.24 954 1012.24 955.172 1011.07L953.757 1009.66C953.367 1010.05 952.734 1010.05 952.343 1009.66L950.929 1011.07ZM950.929 1006.83C949.757 1008 949.757 1009.9 950.929 1011.07L952.343 1009.66C951.953 1009.27 951.953 1008.63 952.343 1008.24L950.929 1006.83ZM948 1004C948 1005.66 949.343 1007 951 1007V1005C950.448 1005 950 1004.55 950 1004H948ZM951 1001C949.343 1001 948 1002.34 948 1004H950C950 1003.45 950.448 1003 951 1003L951 1001ZM952.343 999.757C951.953 999.367 951.953 998.734 952.343 998.343L950.929 996.929C949.757 998.101 949.757 1000 950.929 1001.17L952.343 999.757ZM952.343 998.343C952.734 997.953 953.367 997.953 953.757 998.343L955.172 996.929C954 995.757 952.1 995.757 950.929 996.929L952.343 998.343ZM953.757 998.343C954.954 999.54 957 998.693 957 997H955C955 996.992 955.005 996.966 955.023 996.941C955.037 996.921 955.053 996.911 955.062 996.907C955.072 996.903 955.09 996.899 955.114 996.903C955.145 996.908 955.166 996.923 955.172 996.929L953.757 998.343ZM951 1003C952.692 1003 953.54 1000.95 952.343 999.757L950.929 1001.17C950.923 1001.17 950.908 1001.14 950.903 1001.11C950.899 1001.09 950.903 1001.07 950.907 1001.06C950.911 1001.05 950.92 1001.04 950.941 1001.02C950.966 1001 950.992 1001 951 1001V1003ZM952.343 1008.24C953.54 1007.05 952.692 1005 951 1005V1007C950.992 1007 950.966 1007 950.941 1006.98C950.921 1006.96 950.911 1006.95 950.907 1006.94C950.903 1006.93 950.899 1006.91 950.903 1006.89C950.908 1006.86 950.923 1006.83 950.929 1006.83L952.343 1008.24ZM957 1011C957 1009.31 954.954 1008.46 953.757 1009.66L955.172 1011.07C955.166 1011.08 955.145 1011.09 955.114 1011.1C955.09 1011.1 955.072 1011.1 955.062 1011.09C955.052 1011.09 955.037 1011.08 955.023 1011.06C955.005 1011.03 955 1011.01 955 1011H957ZM962.243 1009.66C961.046 1008.46 959 1009.31 959 1011H961C961 1011.01 960.996 1011.03 960.978 1011.06C960.964 1011.08 960.948 1011.09 960.938 1011.09C960.928 1011.1 960.911 1011.1 960.886 1011.1C960.856 1011.09 960.834 1011.08 960.828 1011.07L962.243 1009.66ZM965 1005C963.308 1005 962.46 1007.05 963.657 1008.24L965.071 1006.83C965.077 1006.83 965.092 1006.86 965.097 1006.89C965.101 1006.91 965.097 1006.93 965.093 1006.94C965.089 1006.95 965.079 1006.96 965.059 1006.98C965.034 1007 965.008 1007 965 1007V1005ZM963.657 999.757C962.46 1000.95 963.308 1003 965 1003V1001C965.008 1001 965.034 1001 965.059 1001.02C965.08 1001.04 965.089 1001.05 965.093 1001.06C965.097 1001.07 965.101 1001.09 965.097 1001.11C965.092 1001.14 965.077 1001.17 965.071 1001.17L963.657 999.757ZM959 997C959 998.692 961.046 999.54 962.243 998.343L960.828 996.929C960.834 996.923 960.856 996.908 960.886 996.903C960.911 996.899 960.928 996.903 960.938 996.907C960.948 996.911 960.964 996.92 960.978 996.941C960.996 996.966 961 996.992 961 997H959Z" fill="#4B3425" />

  <circle cx="958" cy="1004" r="3" stroke="#9BB068" stroke-width="2" />

  <path d="M659 1309H658.5C656.567 1309 655 1307.43 655 1305.5C655 1303.57 656.567 1302 658.5 1302C660.433 1302 662 1303.57 662 1305.5V1312.5C662 1313.33 661.328 1314 660.5 1314C659.672 1314 659 1313.33 659 1312.5V1309Z" stroke="#9BB068" stroke-width="2" stroke-linejoin="round" />

  <path d="M649 1309H648.5C646.567 1309 645 1307.43 645 1305.5C645 1303.57 646.567 1302 648.5 1302C650.433 1302 652 1303.57 652 1305.5V1312.5C652 1313.33 651.328 1314 650.5 1314C649.672 1314 649 1313.33 649 1312.5V1309Z" stroke="#4B3425" stroke-width="2" stroke-linejoin="round" />

</svg>