<svg width="640.00" height="636.66" viewBox="109.00 112.34 640.00 636.66" fill="none" xmlns="http://www.w3.org/2000/svg">
  <rect x="394" y="400" width="64" height="64" rx="32" fill="#F7F4F2" />

  <path d="M423 441H429C431.209 441 433 439.209 433 437V434V428.657C433 427.596 432.579 426.579 431.828 425.828L430.172 424.172C429.421 423.421 428.404 423 427.343 423H423C420.791 423 419 424.791 419 427V437C419 439.209 420.791 441 423 441Z" stroke="#4B3425" stroke-width="2" stroke-linejoin="round" />

  <path d="M423 431L429 431" stroke="#4B3425" stroke-width="2" stroke-linejoin="round" />

  <path d="M423 435L427 435" stroke="#4B3425" stroke-width="2" stroke-linejoin="round" />

  <path d="M432.5 427.598C431.928 427.928 431.263 428.061 430.608 427.974C429.954 427.888 429.346 427.588 428.879 427.121C428.412 426.654 428.112 426.046 428.026 425.392C427.939 424.737 428.072 424.072 428.402 423.5" stroke="#4B3425" stroke-width="2" stroke-linejoin="round" />

  <path d="M341 500C343.209 500 345 501.791 345 504V508C345 511.314 347.686 514 351 514H353.5C356.538 514 359 511.538 359 508.5C359 505.462 356.538 503 353.5 503H349" stroke="#4B3425" stroke-width="2" stroke-linejoin="round" />

  <path d="M119.172 743.828L129.5 733.5C130.881 732.119 130.881 729.881 129.5 728.5C128.119 727.119 125.881 727.119 124.5 728.5L114.172 738.828C113.421 739.579 113 740.596 113 741.657V745H116.343C117.404 745 118.421 744.579 119.172 743.828Z" stroke="#4B3425" stroke-width="2" stroke-linejoin="round" />

</svg>