<svg width="471.50" height="478.00" viewBox="114.00 114.00 471.50 478.00" fill="none" xmlns="http://www.w3.org/2000/svg">
  <rect x="318" y="324" width="64" height="64" rx="32" fill="#F7F4F2" />

  <path d="M350 348V364" stroke="#4B3425" stroke-width="2" stroke-linejoin="round" />

  <path d="M358 356L342 356" stroke="#4B3425" stroke-width="2" stroke-linejoin="round" />

  <path d="M121 586.5V581.5C121 580.672 120.328 580 119.5 580C118.672 580 118 580.672 118 581.5V586.5C118 587.328 118.672 588 119.5 588C120.328 588 121 587.328 121 586.5Z" stroke="#4B3425" stroke-width="2" stroke-linejoin="round" />

  <path d="M126 586.5V581.5C126 580.672 125.328 580 124.5 580C123.672 580 123 580.672 123 581.5V586.5C123 587.328 123.672 588 124.5 588C125.328 588 126 587.328 126 586.5Z" stroke="#4B3425" stroke-width="2" stroke-linejoin="round" />

</svg>