<svg width="72.00" height="72.00" viewBox="846.00 1692.00 72.00 72.00" fill="none" xmlns="http://www.w3.org/2000/svg">
  <rect x="850" y="1696" width="64" height="64" rx="32" fill="#F7F4F2" />

  <path fill-rule="evenodd" clip-rule="evenodd" d="M877.5 1728C875.015 1728 873 1730.01 873 1732.5C873 1734.99 875.015 1737 877.5 1737C879.985 1737 882 1734.99 882 1732.5C882 1734.99 884.015 1737 886.5 1737C888.985 1737 891 1734.99 891 1732.5C891 1730.01 888.985 1728 886.5 1728C888.985 1728 891 1725.99 891 1723.5C891 1721.01 888.985 1719 886.5 1719C884.015 1719 882 1721.01 882 1723.5C882 1721.01 879.985 1719 877.5 1719C875.015 1719 873 1721.01 873 1723.5C873 1725.99 875.015 1728 877.5 1728ZM877.5 1728C879.985 1728 882 1725.99 882 1723.5C882 1725.99 884.015 1728 886.5 1728C884.015 1728 882 1730.01 882 1732.5C882 1730.01 879.985 1728 877.5 1728Z" fill="#4B3425" />

</svg>