<svg width="1121.50" height="1128.00" viewBox="112.00 112.00 1121.50 1128.00" fill="none" xmlns="http://www.w3.org/2000/svg">
  <path d="M954.464 349.636L953.757 350.343V350.343L954.464 349.636ZM951.636 349.636L952.343 350.343L951.636 349.636ZM951.636 352.464L950.929 353.172V353.172L951.636 352.464ZM951 354L951 355H951V354ZM951.636 359.536L952.343 360.243H952.343L951.636 359.536ZM951.636 362.364L950.929 363.071H950.929L951.636 362.364ZM964.364 362.364L965.071 363.071V363.071L964.364 362.364ZM964.364 359.536L963.657 360.243V360.243L964.364 359.536ZM964.364 349.636L963.657 350.343V350.343L964.364 349.636ZM961.536 349.636L960.828 348.929V348.929L961.536 349.636ZM957 349C957 348.448 957.448 348 958 348V346C956.344 346 955 347.343 955 349H957ZM953.757 350.343C954.954 351.54 957 350.693 957 349H955C955 348.992 955.005 348.966 955.023 348.941C955.037 348.92 955.053 348.911 955.062 348.907C955.072 348.903 955.09 348.899 955.114 348.903C955.145 348.908 955.166 348.923 955.172 348.929L953.757 350.343ZM952.343 350.343C952.734 349.953 953.367 349.953 953.757 350.343L955.172 348.929C954 347.757 952.1 347.757 950.929 348.929L952.343 350.343ZM952.343 351.757C951.953 351.367 951.953 350.734 952.343 350.343L950.929 348.929C949.757 350.1 949.757 352 950.929 353.172L952.343 351.757ZM951 355C952.692 355 953.54 352.954 952.343 351.757L950.929 353.172C950.923 353.166 950.908 353.144 950.903 353.114C950.899 353.089 950.903 353.072 950.907 353.062C950.911 353.052 950.92 353.037 950.941 353.022C950.966 353.005 950.992 353 951 353V355ZM950 356C950 355.448 950.448 355 951 355L951 353C949.343 353 948 354.343 948 356H950ZM951 357C950.448 357 950 356.552 950 356H948C948 357.657 949.343 359 951 359V357ZM952.343 360.243C953.54 359.046 952.692 357 951 357V359C950.992 359 950.966 358.995 950.941 358.978C950.921 358.963 950.911 358.948 950.907 358.938C950.903 358.928 950.899 358.911 950.903 358.886C950.908 358.856 950.923 358.834 950.929 358.828L952.343 360.243ZM952.343 361.657C951.953 361.266 951.953 360.633 952.343 360.243L950.929 358.828C949.757 360 949.757 361.899 950.929 363.071L952.343 361.657ZM953.757 361.657C953.367 362.047 952.734 362.047 952.343 361.657L950.929 363.071C952.101 364.243 954 364.243 955.172 363.071L953.757 361.657ZM957 363C957 361.307 954.954 360.46 953.757 361.657L955.172 363.071C955.166 363.077 955.145 363.092 955.114 363.097C955.09 363.101 955.072 363.097 955.062 363.093C955.052 363.089 955.037 363.079 955.023 363.059C955.005 363.034 955 363.008 955 363H957ZM958 364C957.448 364 957 363.552 957 363H955C955 364.657 956.344 366 958 366V364ZM959 363C959 363.552 958.553 364 958 364V366C959.657 366 961 364.657 961 363H959ZM962.243 361.657C961.046 360.46 959 361.308 959 363H961C961 363.008 960.996 363.034 960.978 363.059C960.964 363.08 960.948 363.089 960.938 363.093C960.928 363.097 960.911 363.101 960.886 363.097C960.856 363.092 960.834 363.077 960.828 363.071L962.243 361.657ZM963.657 361.657C963.266 362.047 962.633 362.047 962.243 361.657L960.828 363.071C962 364.243 963.899 364.243 965.071 363.071L963.657 361.657ZM963.657 360.243C964.047 360.633 964.047 361.266 963.657 361.657L965.071 363.071C966.243 361.899 966.243 360 965.071 358.828L963.657 360.243ZM965 357C963.308 357 962.46 359.046 963.657 360.243L965.071 358.828C965.077 358.834 965.092 358.856 965.097 358.886C965.101 358.911 965.097 358.928 965.093 358.938C965.089 358.948 965.079 358.963 965.059 358.978C965.034 358.995 965.008 359 965 359V357ZM966 356C966 356.552 965.552 357 965 357V359C966.657 359 968 357.657 968 356H966ZM965 355C965.552 355 966 355.448 966 356H968C968 354.343 966.657 353 965 353V355ZM963.657 351.757C962.46 352.954 963.308 355 965 355V353C965.008 353 965.034 353.005 965.059 353.022C965.08 353.037 965.089 353.052 965.093 353.062C965.097 353.072 965.101 353.089 965.097 353.114C965.092 353.144 965.077 353.166 965.071 353.172L963.657 351.757ZM963.657 350.343C964.047 350.734 964.047 351.367 963.657 351.757L965.071 353.172C966.243 352 966.243 350.1 965.071 348.929L963.657 350.343ZM962.243 350.343C962.633 349.953 963.266 349.953 963.657 350.343L965.071 348.929C963.9 347.757 962 347.757 960.828 348.929L962.243 350.343ZM959 349C959 350.692 961.046 351.54 962.243 350.343L960.828 348.929C960.834 348.923 960.856 348.908 960.886 348.903C960.911 348.899 960.928 348.903 960.938 348.907C960.948 348.911 960.964 348.92 960.978 348.941C960.996 348.966 961 348.992 961 349H959ZM958 348C958.553 348 959 348.448 959 349H961C961 347.343 959.657 346 958 346V348ZM960 356C960 357.105 959.105 358 958 358V360C960.209 360 962 358.209 962 356H960ZM958 354C959.105 354 960 354.895 960 356H962C962 353.791 960.209 352 958 352V354ZM956 356C956 354.895 956.895 354 958 354V352C955.791 352 954 353.791 954 356H956ZM958 358C956.895 358 956 357.105 956 356H954C954 358.209 955.791 360 958 360V358Z" fill="#4B3425" />

  <rect x="622" y="628" width="64" height="64" rx="32" fill="#F7F4F2" />

  <path d="M659 661H658.5C656.567 661 655 659.433 655 657.5C655 655.567 656.567 654 658.5 654C660.433 654 662 655.567 662 657.5V664.5C662 665.328 661.328 666 660.5 666C659.672 666 659 665.328 659 664.5V661Z" stroke="#4B3425" stroke-width="2" stroke-linejoin="round" />

  <path d="M649 661H648.5C646.567 661 645 659.433 645 657.5C645 655.567 646.567 654 648.5 654C650.433 654 652 655.567 652 657.5V664.5C652 665.328 651.328 666 650.5 666C649.672 666 649 665.328 649 664.5V661Z" stroke="#4B3425" stroke-width="2" stroke-linejoin="round" />

  <path d="M116 1150V1159C116 1162.31 118.686 1165 122 1165C125.314 1165 128 1162.31 128 1159V1150" stroke="#4B3425" stroke-width="2" stroke-linejoin="round" />

  <path d="M121 1234.5V1229.5C121 1228.67 120.328 1228 119.5 1228C118.672 1228 118 1228.67 118 1229.5V1234.5C118 1235.33 118.672 1236 119.5 1236C120.328 1236 121 1235.33 121 1234.5Z" stroke="#9BB068" stroke-width="2" stroke-linejoin="round" />

  <path d="M126 1234.5V1229.5C126 1228.67 125.328 1228 124.5 1228C123.672 1228 123 1228.67 123 1229.5V1234.5C123 1235.33 123.672 1236 124.5 1236C125.328 1236 126 1235.33 126 1234.5Z" stroke="#9BB068" stroke-width="2" stroke-linejoin="round" />

</svg>