<svg width="72.00" height="72.00" viewBox="922.00 1996.00 72.00 72.00" fill="none" xmlns="http://www.w3.org/2000/svg">
  <rect x="926" y="2000" width="64" height="64" rx="32" fill="#F7F4F2" />

  <path d="M958 2036C960.209 2036 962 2034.21 962 2032C962 2029.79 960.209 2028 958 2028C955.791 2028 954 2029.79 954 2032C954 2034.21 955.791 2036 958 2036Z" fill="#4B3425" />

  <path fill-rule="evenodd" clip-rule="evenodd" d="M958 2023C953.029 2023 949 2027.03 949 2032C949 2036.97 953.029 2041 958 2041C962.971 2041 967 2036.97 967 2032C967 2027.03 962.971 2023 958 2023ZM951 2032C951 2028.13 954.134 2025 958 2025C961.866 2025 965 2028.13 965 2032C965 2035.87 961.866 2039 958 2039C954.134 2039 951 2035.87 951 2032Z" fill="#4B3425" />

</svg>