<svg width="72.00" height="72.00" viewBox="314.00 1348.00 72.00 72.00" fill="none" xmlns="http://www.w3.org/2000/svg">
  <rect x="318" y="1352" width="64" height="64" rx="32" fill="#F7F4F2" />

  <path d="M350 1393C347.613 1393 345.324 1392.05 343.636 1390.36C341.948 1388.68 341 1386.39 341 1384C341 1381.61 341.948 1379.32 343.636 1377.64C345.324 1375.95 347.613 1375 350 1375" stroke="#4B3425" stroke-width="2" stroke-linejoin="round" />

  <path d="M346 1384L359 1384" stroke="#9BB068" stroke-width="2" stroke-linejoin="round" />

  <path d="M356.035 1387.86C356.886 1387.64 357.637 1387.13 358.173 1386.44C358.709 1385.74 359 1384.88 359 1384C359 1383.12 358.709 1382.26 358.173 1381.57C357.637 1380.87 356.886 1380.36 356.035 1380.14" stroke="#9BB068" stroke-width="2" stroke-linejoin="round" />

</svg>