<svg width="72.00" height="72.00" viewBox="846.00 548.00 72.00 72.00" fill="none" xmlns="http://www.w3.org/2000/svg">
  <rect x="850" y="552" width="64" height="64" rx="32" fill="#F7F4F2" />

  <rect x="873" y="577" width="18" height="14" rx="4" stroke="#4B3425" stroke-width="2" stroke-linejoin="round" />

  <path d="M889 577C889 577.919 888.819 578.83 888.467 579.679C888.115 580.528 887.6 581.3 886.95 581.95C886.3 582.6 885.528 583.115 884.679 583.467C883.83 583.819 882.919 584 882 584C881.081 584 880.17 583.819 879.321 583.467C878.472 583.115 877.7 582.6 877.05 581.95C876.4 581.3 875.885 580.528 875.533 579.679C875.181 578.83 875 577.919 875 577" stroke="#4B3425" stroke-width="2" stroke-linejoin="round" />

</svg>