<svg width="72.00" height="72.00" viewBox="466.00 1196.00 72.00 72.00" fill="none" xmlns="http://www.w3.org/2000/svg">
  <rect x="470" y="1200" width="64" height="64" rx="32" fill="#F7F4F2" />

  <rect x="500" y="1230" width="4" height="4" rx="2" stroke="#9BB068" stroke-width="2" stroke-linejoin="round" />

  <path d="M509 1234C509 1234.92 508.819 1235.83 508.467 1236.68C508.115 1237.53 507.6 1238.3 506.95 1238.95C506.3 1239.6 505.528 1240.12 504.679 1240.47C503.83 1240.82 502.919 1241 502 1241C501.081 1241 500.17 1240.82 499.321 1240.47C498.472 1240.12 497.7 1239.6 497.05 1238.95C496.4 1238.3 495.885 1237.53 495.533 1236.68C495.181 1235.83 495 1234.92 495 1234" stroke="#4B3425" stroke-width="2" stroke-linejoin="round" />

</svg>