<svg width="72.00" height="72.00" viewBox="770.00 1768.00 72.00 72.00" fill="none" xmlns="http://www.w3.org/2000/svg">
  <rect x="774" y="1772" width="64" height="64" rx="32" fill="#F7F4F2" />

  <path d="M813 1802C813 1803.18 812.767 1804.35 812.315 1805.44C811.863 1806.54 811.2 1807.53 810.364 1808.36C809.528 1809.2 808.536 1809.86 807.444 1810.32C806.352 1810.77 805.182 1811 804 1811L804 1813C805.445 1813 806.875 1812.72 808.21 1812.16C809.544 1811.61 810.757 1810.8 811.778 1809.78C812.8 1808.76 813.61 1807.54 814.163 1806.21C814.715 1804.88 815 1803.44 815 1802H813Z" fill="#4B3425" />

</svg>