<svg width="28.00" height="28.00" viewBox="1050.00 2673.00 28.00 28.00" fill="none" xmlns="http://www.w3.org/2000/svg">
  <path d="M1059 2687C1059 2684.24 1061.24 2682 1064 2682C1066.76 2682 1069 2684.24 1069 2687C1069 2689.76 1066.76 2692 1064 2692C1061.24 2692 1059 2689.76 1059 2687Z" fill="#4B3425" />

  <path fill-rule="evenodd" clip-rule="evenodd" d="M1064 2697C1069.52 2697 1074 2692.52 1074 2687C1074 2681.48 1069.52 2677 1064 2677C1058.48 2677 1054 2681.48 1054 2687C1054 2692.52 1058.48 2697 1064 2697ZM1064 2680C1060.13 2680 1057 2683.13 1057 2687C1057 2690.87 1060.13 2694 1064 2694C1067.87 2694 1071 2690.87 1071 2687C1071 2683.13 1067.87 2680 1064 2680Z" fill="#4B3425" />

</svg>