<svg width="23.93" height="27.32" viewBox="818.07 2833.34 23.93 27.32" fill="none" xmlns="http://www.w3.org/2000/svg">
  <path d="M822.071 2839.27C823.772 2839.73 825.275 2840.73 826.347 2842.13C827.419 2843.53 828 2845.24 828 2847C828 2848.76 827.419 2850.47 826.347 2851.87C825.275 2853.27 823.772 2854.27 822.071 2854.73L822.588 2856.66C824.715 2856.09 826.593 2854.83 827.934 2853.09C829.274 2851.34 830 2849.2 830 2847C830 2844.8 829.274 2842.66 827.934 2840.91C826.593 2839.17 824.715 2837.91 822.588 2837.34L822.071 2839.27Z" fill="#4B3425" />

  <path d="M830.071 2839.27C831.772 2839.73 833.275 2840.73 834.347 2842.13C835.419 2843.53 836 2845.24 836 2847C836 2848.76 835.419 2850.47 834.347 2851.87C833.275 2853.27 831.772 2854.27 830.071 2854.73L830.588 2856.66C832.715 2856.09 834.593 2854.83 835.934 2853.09C837.274 2851.34 838 2849.2 838 2847C838 2844.8 837.274 2842.66 835.934 2840.91C834.593 2839.17 832.715 2837.91 830.588 2837.34L830.071 2839.27Z" fill="#4B3425" />

</svg>