<svg width="26.17" height="26.17" viewBox="472.83 1972.00 26.17 26.17" fill="none" xmlns="http://www.w3.org/2000/svg">
  <path d="M495 1985C495 1986.78 494.472 1988.52 493.483 1990C492.494 1991.48 491.089 1992.63 489.444 1993.32C487.8 1994 485.99 1994.17 484.244 1993.83C482.498 1993.48 480.895 1992.62 479.636 1991.36C478.377 1990.11 477.52 1988.5 477.173 1986.76C476.826 1985.01 477.004 1983.2 477.685 1981.56C478.366 1979.91 479.52 1978.51 481 1977.52C482.48 1976.53 484.22 1976 486 1976" stroke="#9BB068" stroke-width="2" stroke-linejoin="round" />

  <path d="M489 1982C490.105 1983.1 491.895 1983.1 493 1982C494.105 1980.9 494.105 1979.1 493 1978C491.895 1976.9 490.105 1976.9 489 1978C487.895 1979.1 487.895 1980.9 489 1982Z" stroke="#4B3425" stroke-width="2" stroke-linejoin="round" />

</svg>