<svg width="26.12" height="26.12" viewBox="273.93 629.93 26.12 26.12" fill="none" xmlns="http://www.w3.org/2000/svg">
  <path d="M289.196 637C288.736 636.203 288.099 635.522 287.333 635.011C286.568 634.5 285.696 634.171 284.783 634.051C283.871 633.931 282.943 634.023 282.071 634.318C281.2 634.614 280.408 635.107 279.757 635.757C279.107 636.408 278.614 637.2 278.318 638.071C278.023 638.943 277.931 639.871 278.051 640.783C278.171 641.696 278.5 642.568 279.011 643.333C279.522 644.099 280.203 644.736 281 645.196" stroke="#4B3425" stroke-width="2" stroke-linejoin="round" />

  <path d="M295.196 643C295.59 643.682 295.846 644.436 295.949 645.217C296.052 645.998 295.999 646.792 295.796 647.553C295.592 648.314 295.24 649.027 294.76 649.653C294.28 650.278 293.682 650.802 293 651.196C292.318 651.59 291.564 651.846 290.783 651.949C290.002 652.052 289.208 651.999 288.447 651.796C287.686 651.592 286.973 651.24 286.347 650.76C285.722 650.28 285.198 649.682 284.804 649C284.41 648.318 284.154 647.564 284.051 646.783C283.948 646.002 284.001 645.208 284.204 644.447C284.408 643.686 284.76 642.973 285.24 642.347C285.72 641.722 286.318 641.198 287 640.804C287.682 640.41 288.436 640.154 289.217 640.051C289.998 639.948 290.792 640.001 291.553 640.204C292.314 640.408 293.027 640.76 293.653 641.24C294.278 641.72 294.802 642.318 295.196 643L295.196 643Z" stroke="#4B3425" stroke-width="2" stroke-linejoin="round" />

  <path d="M286 650L294 642" stroke="#4B3425" stroke-width="2" stroke-linejoin="round" />

</svg>