<svg width="28.00" height="28.00" viewBox="568.00 2865.00 28.00 28.00" fill="none" xmlns="http://www.w3.org/2000/svg">
  <path d="M579 2879C579 2877.52 580.591 2876.58 581.885 2877.3L584.941 2879L581.885 2880.7C580.591 2881.42 579 2880.48 579 2879Z" fill="#4B3425" />

  <path fill-rule="evenodd" clip-rule="evenodd" d="M572 2879C572 2873.48 576.477 2869 582 2869C587.523 2869 592 2873.48 592 2879C592 2884.52 587.523 2889 582 2889C576.477 2889 572 2884.52 572 2879ZM582.856 2875.55C580.229 2874.09 577 2875.99 577 2879C577 2882.01 580.229 2883.91 582.856 2882.45L585.912 2880.75C587.284 2879.99 587.284 2878.01 585.912 2877.25L582.856 2875.55Z" fill="#4B3425" />

</svg>