<svg width="20.00" height="10.00" viewBox="245.00 2868.00 20.00 10.00" fill="none" xmlns="http://www.w3.org/2000/svg">
  <path d="M251 2873C251 2873.55 250.552 2874 250 2874C249.448 2874 249 2873.55 249 2873C249 2872.45 249.448 2872 250 2872C250.552 2872 251 2872.45 251 2873Z" fill="#4B3425" />

  <path d="M253 2874C253.552 2874 254 2873.55 254 2873C254 2872.45 253.552 2872 253 2872C252.448 2872 252 2872.45 252 2873C252 2873.55 252.448 2874 253 2874Z" fill="#4B3425" />

  <path d="M261 2873C261 2873.55 260.552 2874 260 2874C259.448 2874 259 2873.55 259 2873C259 2872.45 259.448 2872 260 2872C260.552 2872 261 2872.45 261 2873Z" fill="#4B3425" />

</svg>