<svg width="11.94" height="11.94" viewBox="285.98 3058.08 11.94 11.94" fill="none" xmlns="http://www.w3.org/2000/svg">
  <path d="M293.921 3064.56C293.802 3064.4 293.673 3064.26 293.536 3064.12L291.879 3062.46C291.741 3062.33 291.596 3062.2 291.445 3062.08C291.121 3062.17 290.825 3062.35 290.586 3062.59C290.338 3062.83 290.159 3063.14 290.068 3063.48C289.977 3063.82 289.977 3064.18 290.068 3064.52C290.159 3064.86 290.338 3065.17 290.586 3065.41C290.834 3065.66 291.143 3065.84 291.482 3065.93C291.821 3066.02 292.179 3066.02 292.518 3065.93C292.857 3065.84 293.166 3065.66 293.414 3065.41C293.653 3065.18 293.828 3064.88 293.921 3064.56Z" fill="#4B3425" />

</svg>