<svg width="26.25" height="26.38" viewBox="720.83 789.81 26.25 26.38" fill="none" xmlns="http://www.w3.org/2000/svg">
  <path d="M740.364 809.364C739.034 810.694 737.321 811.573 735.466 811.88C733.611 812.186 731.706 811.904 730.019 811.072C728.333 810.24 726.949 808.901 726.063 807.243C725.176 805.584 724.832 803.69 725.077 801.825C725.322 799.961 726.146 798.22 727.431 796.848C728.717 795.475 730.4 794.54 732.244 794.173C734.089 793.806 736.001 794.026 737.714 794.802C739.427 795.578 740.854 796.871 741.794 798.5" stroke="#4B3425" stroke-width="2" stroke-linejoin="round" />

  <path d="M742.464 794C742.904 794.763 743.081 795.649 742.966 796.522C742.851 797.395 742.451 798.206 741.828 798.828C741.206 799.451 740.395 799.851 739.522 799.966C738.649 800.081 737.763 799.904 737 799.464" stroke="#4B3425" stroke-width="2" stroke-linejoin="round" />

</svg>