<svg width="13.12" height="13.12" viewBox="177.81 2911.07 13.12 13.12" fill="none" xmlns="http://www.w3.org/2000/svg">
  <path d="M185.077 2915.3C185.441 2915.45 185.772 2915.67 186.05 2915.95C186.329 2916.23 186.55 2916.56 186.701 2916.92C186.851 2917.29 186.929 2917.68 186.929 2918.07C186.929 2918.47 186.851 2918.86 186.701 2919.22C186.55 2919.58 186.329 2919.91 186.05 2920.19L184.636 2918.78C184.729 2918.69 184.803 2918.58 184.853 2918.45C184.903 2918.33 184.929 2918.2 184.929 2918.07C184.929 2917.94 184.903 2917.81 184.853 2917.69C184.803 2917.57 184.729 2917.46 184.636 2917.36C184.543 2917.27 184.433 2917.2 184.312 2917.15C184.19 2917.1 184.06 2917.07 183.929 2917.07C183.798 2917.07 183.668 2917.1 183.546 2917.15C183.425 2917.2 183.315 2917.27 183.222 2917.36L181.808 2915.95C182.086 2915.67 182.417 2915.45 182.781 2915.3C183.145 2915.15 183.535 2915.07 183.929 2915.07C184.323 2915.07 184.713 2915.15 185.077 2915.3Z" fill="#4B3425" />

</svg>