<svg width="19.71" height="21.52" viewBox="820.29 2804.24 19.71 21.52" fill="none" xmlns="http://www.w3.org/2000/svg">
  <path d="M824.812 2808.24C826.3 2808.64 827.616 2809.52 828.554 2810.74C829.492 2811.96 830 2813.46 830 2815C830 2816.54 829.492 2818.04 828.554 2819.26C827.616 2820.48 826.3 2821.36 824.812 2821.76L824.294 2819.83C825.357 2819.55 826.297 2818.92 826.967 2818.04C827.637 2817.17 828 2816.1 828 2815C828 2813.9 827.637 2812.83 826.967 2811.96C826.297 2811.08 825.357 2810.46 824.294 2810.17L824.812 2808.24Z" fill="#4B3425" />

  <path d="M830.812 2808.24C832.3 2808.64 833.616 2809.52 834.554 2810.74C835.492 2811.96 836 2813.46 836 2815C836 2816.54 835.492 2818.04 834.554 2819.26C833.616 2820.48 832.3 2821.36 830.812 2821.76L830.294 2819.83C831.357 2819.55 832.297 2818.92 832.967 2818.04C833.637 2817.17 834 2816.1 834 2815C834 2813.9 833.637 2812.83 832.967 2811.96C832.297 2811.08 831.357 2810.46 830.294 2810.17L830.812 2808.24Z" fill="#4B3425" />

</svg>