<svg width="26.00" height="25.00" viewBox="146.00 887.00 26.00 25.00" fill="none" xmlns="http://www.w3.org/2000/svg">
  <path d="M150 908C150 906.818 150.233 905.648 150.685 904.556C151.137 903.464 151.8 902.472 152.636 901.636C153.472 900.8 154.464 900.137 155.556 899.685C156.648 899.233 157.818 899 159 899C160.182 899 161.352 899.233 162.444 899.685C163.536 900.137 164.528 900.8 165.364 901.636C166.2 902.472 166.863 903.464 167.315 904.556C167.767 905.648 168 906.818 168 908" stroke="#4B3425" stroke-width="2" stroke-linejoin="round" />

  <rect x="155" y="891" width="8" height="8" rx="4" stroke="#4B3425" stroke-width="2" stroke-linejoin="round" />

  <path d="M159 904L159 908" stroke="#4B3425" stroke-width="2" stroke-linejoin="round" />

  <path d="M163 900C163 901.061 162.579 902.078 161.828 902.828C161.078 903.579 160.061 904 159 904C157.939 904 156.922 903.579 156.172 902.828C155.421 902.078 155 901.061 155 900" stroke="#4B3425" stroke-width="2" stroke-linejoin="round" />

  <path d="M155 894H163" stroke="#4B3425" stroke-width="2" stroke-linejoin="round" />

</svg>