<svg width="26.00" height="26.00" viewBox="441.00 758.00 26.00 26.00" fill="none" xmlns="http://www.w3.org/2000/svg">
  <path d="M463 771C463 773.387 462.052 775.676 460.364 777.364C458.676 779.052 456.387 780 454 780C451.613 780 449.324 779.052 447.636 777.364C445.948 775.676 445 773.387 445 771" stroke="#4B3425" stroke-width="2" stroke-linejoin="round" />

  <path d="M454 775L454 762" stroke="#4B3425" stroke-width="2" stroke-linejoin="round" />

  <path d="M458 766C458 765.475 457.897 764.955 457.696 764.469C457.494 763.984 457.2 763.543 456.828 763.172C456.457 762.8 456.016 762.506 455.531 762.304C455.045 762.103 454.525 762 454 762C453.475 762 452.955 762.103 452.469 762.304C451.984 762.506 451.543 762.8 451.172 763.172C450.8 763.543 450.506 763.984 450.304 764.469C450.103 764.955 450 765.475 450 766" stroke="#4B3425" stroke-width="2" stroke-linejoin="round" />

</svg>