<svg width="24.85" height="24.85" viewBox="721.86 2994.86 24.85 24.85" fill="none" xmlns="http://www.w3.org/2000/svg">
  <path d="M732.347 3001.04C733.439 3000.9 734.547 3001.12 735.5 3001.67L736.5 2999.94C735.166 2999.17 733.614 2998.86 732.086 2999.06C730.559 2999.26 729.14 2999.96 728.05 3001.05C726.961 3002.14 726.261 3003.56 726.06 3005.09C725.859 3006.61 726.167 3008.17 726.938 3009.5L728.67 3008.5C728.12 3007.55 727.899 3006.44 728.043 3005.35C728.142 3004.59 728.413 3003.87 728.829 3003.24L741.293 3015.71L742.707 3014.29L730.243 3001.83C730.872 3001.41 731.591 3001.14 732.347 3001.04Z" fill="#4B3425" />

</svg>