<svg width="19.71" height="21.52" viewBox="788.00 2804.24 19.71 21.52" fill="none" xmlns="http://www.w3.org/2000/svg">
  <path d="M797.188 2808.24C795.7 2808.64 794.385 2809.52 793.447 2810.74C792.508 2811.96 792 2813.46 792 2815C792 2816.54 792.508 2818.04 793.447 2819.26C794.385 2820.48 795.7 2821.36 797.188 2821.76L797.706 2819.83C796.643 2819.55 795.703 2818.92 795.033 2818.04C794.363 2817.17 794 2816.1 794 2815C794 2813.9 794.363 2812.83 795.033 2811.96C795.703 2811.08 796.643 2810.46 797.706 2810.17L797.188 2808.24Z" fill="#4B3425" />

  <path d="M803.188 2808.24C801.7 2808.64 800.385 2809.52 799.447 2810.74C798.508 2811.96 798 2813.46 798 2815C798 2816.54 798.508 2818.04 799.447 2819.26C800.385 2820.48 801.7 2821.36 803.188 2821.76L803.706 2819.83C802.643 2819.55 801.703 2818.92 801.033 2818.04C800.363 2817.17 800 2816.1 800 2815C800 2813.9 800.363 2812.83 801.033 2811.96C801.703 2811.08 802.643 2810.46 803.706 2810.17L803.188 2808.24Z" fill="#4B3425" />

</svg>