<svg width="21.00" height="20.06" viewBox="216.00 726.00 21.00 20.06" fill="none" xmlns="http://www.w3.org/2000/svg">
  <path d="M226 730C226 730.394 225.922 730.784 225.772 731.148C225.621 731.512 225.4 731.843 225.121 732.121C224.843 732.4 224.512 732.621 224.148 732.772C223.784 732.922 223.394 733 223 733C222.606 733 222.216 732.922 221.852 732.772C221.488 732.621 221.157 732.4 220.879 732.121C220.6 731.843 220.379 731.512 220.228 731.148C220.078 730.784 220 730.394 220 730" stroke="#4B3425" stroke-width="2" stroke-linejoin="round" />

  <path d="M222 739C222 739.593 222.176 740.173 222.506 740.667C222.835 741.16 223.304 741.545 223.852 741.772C224.4 741.999 225.003 742.058 225.585 741.942C226.167 741.827 226.702 741.541 227.121 741.121L233 735" stroke="#4B3425" stroke-width="2" stroke-linejoin="round" />

</svg>