<svg width="28.00" height="28.00" viewBox="784.00 2929.00 28.00 28.00" fill="none" xmlns="http://www.w3.org/2000/svg">
  <path fill-rule="evenodd" clip-rule="evenodd" d="M798 2953C803.523 2953 808 2948.52 808 2943C808 2937.48 803.523 2933 798 2933C792.477 2933 788 2937.48 788 2943C788 2948.52 792.477 2953 798 2953ZM799.447 2937.2C798.171 2937.55 797.044 2938.3 796.24 2939.35C795.436 2940.4 795 2941.68 795 2943C795 2944.32 795.436 2945.61 796.24 2946.65C797.044 2947.7 798.171 2948.45 799.447 2948.8L799.965 2946.86C799.114 2946.64 798.363 2946.13 797.827 2945.44C797.291 2944.74 797 2943.88 797 2943C797 2942.12 797.291 2941.26 797.827 2940.57C798.363 2939.87 799.114 2939.36 799.965 2939.14L799.447 2937.2Z" fill="#4B3425" />

</svg>