<svg width="27.00" height="27.00" viewBox="537.00 2993.00 27.00 27.00" fill="none" xmlns="http://www.w3.org/2000/svg">
  <path d="M541 3001C541 2998.79 542.791 2997 545 2997C547.209 2997 549 2998.79 549 3001C549 3003.21 547.209 3005 545 3005C544.487 3005 543.997 3004.9 543.546 3004.73C543.672 3005.15 543.82 3005.57 543.99 3005.98C544.643 3007.55 545.6 3008.99 546.808 3010.19C548.015 3011.4 549.448 3012.36 551.025 3013.01C551.434 3013.18 551.85 3013.33 552.273 3013.45C552.097 3013 552 3012.51 552 3012C552 3009.79 553.791 3008 556 3008C558.209 3008 560 3009.79 560 3012C560 3014.21 558.209 3016 556 3016C554.03 3016 552.08 3015.61 550.26 3014.86C548.44 3014.1 546.786 3013 545.393 3011.61C544.001 3010.21 542.896 3008.56 542.142 3006.74C541.388 3004.92 541 3002.97 541 3001Z" fill="#4B3425" />

</svg>