<svg width="28.29" height="15.60" viewBox="783.81 2967.50 28.29 15.60" fill="none" xmlns="http://www.w3.org/2000/svg">
  <path d="M805.598 2972.5C805.928 2973.07 806.061 2973.74 805.974 2974.39C805.931 2974.72 805.834 2975.04 805.689 2975.33C804.594 2974.35 803.338 2973.55 801.975 2972.99C800.398 2972.34 798.707 2972 797 2972C795.293 2972 793.602 2972.34 792.025 2972.99C790.448 2973.64 789.015 2974.6 787.808 2975.81L789.222 2977.22C790.243 2976.2 791.456 2975.39 792.79 2974.84C794.125 2974.29 795.555 2974 797 2974C798.445 2974 799.875 2974.29 801.21 2974.84C802.321 2975.3 803.348 2975.94 804.25 2976.73C803.98 2976.85 803.69 2976.94 803.392 2976.97C802.737 2977.06 802.072 2976.93 801.5 2976.6L800.5 2978.33C801.453 2978.88 802.561 2979.1 803.653 2978.96C804.744 2978.81 805.757 2978.31 806.536 2977.54C807.314 2976.76 807.814 2975.74 807.957 2974.65C808.101 2973.56 807.88 2972.45 807.33 2971.5L805.598 2972.5Z" fill="#4B3425" />

</svg>