<svg width="28.00" height="28.00" viewBox="472.00 2801.00 28.00 28.00" fill="none" xmlns="http://www.w3.org/2000/svg">
  <path d="M486 2813C488.209 2813 490 2811.21 490 2809C490 2806.79 488.209 2805 486 2805C483.791 2805 482 2806.79 482 2809C482 2811.21 483.791 2813 486 2813Z" fill="#4B3425" />

  <path d="M486 2825C488.209 2825 490 2823.21 490 2821C490 2818.79 488.209 2817 486 2817C483.791 2817 482 2818.79 482 2821C482 2823.21 483.791 2825 486 2825Z" fill="#4B3425" />

  <path d="M492 2819C489.791 2819 488 2817.21 488 2815C488 2812.79 489.791 2811 492 2811C494.209 2811 496 2812.79 496 2815C496 2817.21 494.209 2819 492 2819Z" fill="#4B3425" />

  <path d="M476 2815C476 2817.21 477.791 2819 480 2819C482.209 2819 484 2817.21 484 2815C484 2812.79 482.209 2811 480 2811C477.791 2811 476 2812.79 476 2815Z" fill="#4B3425" />

</svg>