<svg width="28.00" height="28.00" viewBox="241.00 3281.00 28.00 28.00" fill="none" xmlns="http://www.w3.org/2000/svg">
  <path fill-rule="evenodd" clip-rule="evenodd" d="M245 3295C245 3289.48 249.477 3285 255 3285C260.523 3285 265 3289.48 265 3295C265 3300.52 260.523 3305 255 3305C249.477 3305 245 3300.52 245 3295ZM251.5 3294C252.328 3294 253 3293.33 253 3292.5C253 3291.67 252.328 3291 251.5 3291C250.672 3291 250 3291.67 250 3292.5C250 3293.33 250.672 3294 251.5 3294ZM260 3292.5C260 3293.33 259.328 3294 258.5 3294C257.672 3294 257 3293.33 257 3292.5C257 3291.67 257.672 3291 258.5 3291C259.328 3291 260 3291.67 260 3292.5ZM255 3296C253.947 3296 252.912 3296.28 252 3296.8C251.088 3297.33 250.33 3298.09 249.804 3299L251.536 3300C251.887 3299.39 252.392 3298.89 253 3298.54C253.608 3298.19 254.298 3298 255 3298C255.702 3298 256.392 3298.19 257 3298.54C257.608 3298.89 258.113 3299.39 258.464 3300L260.196 3299C259.67 3298.09 258.912 3297.33 258 3296.8C257.088 3296.28 256.053 3296 255 3296Z" fill="#4B3425" />

</svg>