<svg width="28.29" height="15.60" viewBox="815.90 2967.50 28.29 15.60" fill="none" xmlns="http://www.w3.org/2000/svg">
  <path d="M822.402 2972.5C822.072 2973.07 821.939 2973.74 822.026 2974.39C822.069 2974.72 822.166 2975.04 822.311 2975.33C823.406 2974.35 824.662 2973.55 826.025 2972.99C827.602 2972.34 829.293 2972 831 2972C832.707 2972 834.398 2972.34 835.975 2972.99C837.552 2973.64 838.985 2974.6 840.192 2975.81L838.778 2977.22C837.757 2976.2 836.544 2975.39 835.21 2974.84C833.875 2974.29 832.445 2974 831 2974C829.555 2974 828.125 2974.29 826.79 2974.84C825.679 2975.3 824.652 2975.94 823.75 2976.73C824.02 2976.85 824.31 2976.94 824.608 2976.97C825.263 2977.06 825.928 2976.93 826.5 2976.6L827.5 2978.33C826.547 2978.88 825.439 2979.1 824.347 2978.96C823.256 2978.81 822.243 2978.31 821.464 2977.54C820.686 2976.76 820.186 2975.74 820.043 2974.65C819.899 2973.56 820.12 2972.45 820.67 2971.5L822.402 2972.5Z" fill="#4B3425" />

</svg>