<svg width="11.94" height="11.94" viewBox="484.98 2770.08 11.94 11.94" fill="none" xmlns="http://www.w3.org/2000/svg">
  <path d="M492.921 2776.56C492.802 2776.4 492.673 2776.26 492.536 2776.12L490.879 2774.46C490.741 2774.33 490.596 2774.2 490.445 2774.08C490.121 2774.17 489.825 2774.35 489.586 2774.59C489.338 2774.83 489.159 2775.14 489.068 2775.48C488.977 2775.82 488.977 2776.18 489.068 2776.52C489.159 2776.86 489.338 2777.17 489.586 2777.41C489.834 2777.66 490.143 2777.84 490.482 2777.93C490.821 2778.02 491.179 2778.02 491.518 2777.93C491.857 2777.84 492.166 2777.66 492.414 2777.41C492.653 2777.18 492.828 2776.88 492.921 2776.56Z" fill="#4B3425" />

</svg>