<svg width="21.00" height="15.00" viewBox="245.00 2739.00 21.00 15.00" fill="none" xmlns="http://www.w3.org/2000/svg">
  <path d="M253 2746C253 2745.74 252.895 2745.48 252.707 2745.29C252.52 2745.11 252.265 2745 252 2745C251.735 2745 251.48 2745.11 251.293 2745.29C251.105 2745.48 251 2745.74 251 2746L249 2746C249 2745.2 249.316 2744.44 249.879 2743.88C250.441 2743.32 251.204 2743 252 2743C252.796 2743 253.559 2743.32 254.121 2743.88C254.684 2744.44 255 2745.2 255 2746H253Z" fill="#4B3425" />

  <path d="M260 2750C260 2749.74 259.895 2749.48 259.707 2749.29C259.52 2749.11 259.265 2749 259 2749C258.735 2749 258.48 2749.11 258.293 2749.29C258.105 2749.48 258 2749.74 258 2750L256 2750C256 2749.2 256.316 2748.44 256.879 2747.88C257.441 2747.32 258.204 2747 259 2747C259.796 2747 260.559 2747.32 261.121 2747.88C261.684 2748.44 262 2749.2 262 2750H260Z" fill="#4B3425" />

</svg>