<svg width="26.00" height="26.00" viewBox="146.00 2196.00 26.00 26.00" fill="none" xmlns="http://www.w3.org/2000/svg">
  <circle cx="159" cy="2209" r="9" stroke="#4B3425" stroke-width="2" />

  <path d="M163.83 2210.29C163.545 2211.36 162.917 2212.3 162.044 2212.97C161.171 2213.64 160.101 2214 159 2214C157.899 2214 156.829 2213.64 155.956 2212.97C155.083 2212.3 154.455 2211.36 154.17 2210.29" stroke="#9BB068" stroke-width="2" />

  <path d="M157 2207.5C157 2207.3 156.961 2207.11 156.886 2206.93C156.81 2206.74 156.7 2206.58 156.561 2206.44C156.421 2206.3 156.256 2206.19 156.074 2206.11C155.892 2206.04 155.697 2206 155.5 2206C155.303 2206 155.108 2206.04 154.926 2206.11C154.744 2206.19 154.579 2206.3 154.439 2206.44C154.3 2206.58 154.19 2206.74 154.114 2206.93C154.039 2207.11 154 2207.3 154 2207.5" stroke="#4B3425" stroke-width="2" />

  <path d="M164 2207.5C164 2207.3 163.961 2207.11 163.886 2206.93C163.81 2206.74 163.7 2206.58 163.561 2206.44C163.421 2206.3 163.256 2206.19 163.074 2206.11C162.892 2206.04 162.697 2206 162.5 2206C162.303 2206 162.108 2206.04 161.926 2206.11C161.744 2206.19 161.579 2206.3 161.439 2206.44C161.3 2206.58 161.19 2206.74 161.114 2206.93C161.039 2207.11 161 2207.3 161 2207.5" stroke="#4B3425" stroke-width="2" />

</svg>