<svg width="24.85" height="24.85" viewBox="818.29 2995.29 24.85 24.85" fill="none" xmlns="http://www.w3.org/2000/svg">
  <path d="M836.171 3011.76L823.707 2999.29L822.293 3000.71L834.757 3013.17C834.128 3013.59 833.409 3013.86 832.653 3013.96C831.561 3014.1 830.453 3013.88 829.5 3013.33L828.5 3015.06C829.835 3015.83 831.386 3016.14 832.914 3015.94C834.442 3015.74 835.86 3015.04 836.95 3013.95C838.039 3012.86 838.739 3011.44 838.94 3009.91C839.141 3008.39 838.833 3006.83 838.062 3005.5L836.33 3006.5C836.881 3007.45 837.101 3008.56 836.957 3009.65C836.858 3010.41 836.587 3011.13 836.171 3011.76Z" fill="#4B3425" />

</svg>