<svg width="36.00" height="36.00" viewBox="301.00 3799.00 36.00 36.00" fill="none" xmlns="http://www.w3.org/2000/svg">
  <path fill-rule="evenodd" clip-rule="evenodd" d="M305 3816L333 3816L333 3818L305 3818L305 3816Z" fill="#4B3425" />

  <path fill-rule="evenodd" clip-rule="evenodd" d="M305 3820L333 3820L333 3822L305 3822L305 3820Z" fill="#4B3425" />

  <path fill-rule="evenodd" clip-rule="evenodd" d="M305 3812L333 3812L333 3814L305 3814L305 3812Z" fill="#4B3425" />

  <path fill-rule="evenodd" clip-rule="evenodd" d="M320 3803L320 3831L318 3831L318 3803L320 3803Z" fill="#4B3425" />

  <path fill-rule="evenodd" clip-rule="evenodd" d="M316 3803L316 3831L314 3831L314 3803L316 3803Z" fill="#4B3425" />

  <path fill-rule="evenodd" clip-rule="evenodd" d="M324 3803L324 3831L322 3831L322 3803L324 3803Z" fill="#4B3425" />

  <rect x="317" y="3819" width="4" height="4" rx="2" transform="rotate(-90 317 3819)" fill="#4B3425" />

</svg>