<svg width="28.87" height="27.84" viewBox="439.57 1714.39 28.87 27.84" fill="none" xmlns="http://www.w3.org/2000/svg">
  <path d="M452.184 1719.94C452.899 1718.39 455.101 1718.39 455.816 1719.94L457.199 1722.94C457.49 1723.57 458.089 1724 458.78 1724.08L462.058 1724.47C463.753 1724.67 464.433 1726.77 463.18 1727.93L460.757 1730.17C460.246 1730.64 460.017 1731.34 460.153 1732.03L460.796 1735.26C461.129 1736.94 459.347 1738.23 457.858 1737.4L454.977 1735.79C454.37 1735.45 453.63 1735.45 453.023 1735.79L450.142 1737.4C448.653 1738.23 446.871 1736.94 447.204 1735.26L447.847 1732.03C447.983 1731.34 447.754 1730.64 447.244 1730.17L444.82 1727.93C443.567 1726.77 444.247 1724.67 445.942 1724.47L449.221 1724.08C449.911 1724 450.51 1723.57 450.801 1722.94L452.184 1719.94Z" stroke="#4B3425" stroke-width="2" stroke-linejoin="round" />

</svg>