<svg width="28.00" height="28.00" viewBox="816.00 2929.00 28.00 28.00" fill="none" xmlns="http://www.w3.org/2000/svg">
  <path fill-rule="evenodd" clip-rule="evenodd" d="M830 2953C835.523 2953 840 2948.52 840 2943C840 2937.48 835.523 2933 830 2933C824.477 2933 820 2937.48 820 2943C820 2948.52 824.477 2953 830 2953ZM828.553 2937.2C829.829 2937.55 830.956 2938.3 831.76 2939.35C832.564 2940.4 833 2941.68 833 2943C833 2944.32 832.564 2945.61 831.76 2946.65C830.956 2947.7 829.829 2948.45 828.553 2948.8L828.035 2946.86C828.886 2946.64 829.637 2946.13 830.173 2945.44C830.709 2944.74 831 2943.88 831 2943C831 2942.12 830.709 2941.26 830.173 2940.57C829.637 2939.87 828.886 2939.36 828.035 2939.14L828.553 2937.2Z" fill="#4B3425" />

</svg>