<svg width="32.00" height="32.43" viewBox="399.00 3833.00 32.00 32.43" fill="none" xmlns="http://www.w3.org/2000/svg">
  <rect x="403" y="3837" width="24" height="24" rx="12" fill="#E5EAD7" />

  <path d="M415 3837L420.5 3842.5C423.538 3845.54 423.538 3850.46 420.5 3853.5C417.462 3856.54 412.538 3856.54 409.5 3853.5C406.462 3850.46 406.462 3845.54 409.5 3842.5L415 3837Z" fill="#4B3425" />

  <path d="M415 3849L418.5 3852.5C420.433 3854.43 420.433 3857.57 418.5 3859.5C416.567 3861.43 413.433 3861.43 411.5 3859.5C409.567 3857.57 409.567 3854.43 411.5 3852.5L415 3849Z" fill="#9BB068" />

  <rect x="403" y="3837" width="24" height="24" rx="12" fill="white" />

</svg>