<svg width="28.08" height="28.08" viewBox="272.92 2800.92 28.08 28.08" fill="none" xmlns="http://www.w3.org/2000/svg">
  <path fill-rule="evenodd" clip-rule="evenodd" d="M284.914 2805.06C283.849 2804.92 282.767 2805.03 281.75 2805.37C280.733 2805.72 279.809 2806.29 279.05 2807.05C278.291 2807.81 277.717 2808.73 277.371 2809.75C277.026 2810.77 276.92 2811.85 277.06 2812.91C277.2 2813.98 277.583 2815 278.18 2815.89C278.776 2816.78 279.57 2817.53 280.5 2818.06L281.5 2816.33C280.836 2815.95 280.269 2815.42 279.843 2814.78C279.417 2814.14 279.143 2813.41 279.043 2812.65C278.943 2811.89 279.019 2811.12 279.265 2810.39C279.512 2809.67 279.922 2809.01 280.464 2808.46C281.007 2807.92 281.667 2807.51 282.393 2807.27C283.119 2807.02 283.892 2806.94 284.653 2807.04C285.413 2807.14 286.14 2807.42 286.778 2807.84C287.416 2808.27 287.947 2808.84 288.33 2809.5L290.062 2808.5C289.525 2807.57 288.782 2806.78 287.889 2806.18C286.996 2805.58 285.978 2805.2 284.914 2805.06ZM290 2811C286.134 2811 283 2814.13 283 2818C283 2819.57 283.518 2821.02 284.394 2822.19L294.192 2812.39C293.024 2811.52 291.572 2811 290 2811ZM290 2825C288.428 2825 286.976 2824.48 285.808 2823.61L295.606 2813.81C296.482 2814.98 297 2816.43 297 2818C297 2821.87 293.866 2825 290 2825Z" fill="#4B3425" />

</svg>