<svg width="23.00" height="19.00" viewBox="274.00 1654.00 23.00 19.00" fill="none" xmlns="http://www.w3.org/2000/svg">
  <path d="M278 1669H286" stroke="#9BB068" stroke-width="2" stroke-linejoin="round" />

  <path d="M286 1665C286.53 1665 287.039 1665.21 287.414 1665.59C287.789 1665.96 288 1666.47 288 1667C288 1667.53 287.789 1668.04 287.414 1668.41C287.039 1668.79 286.53 1669 286 1669" stroke="#9BB068" stroke-width="2" stroke-linejoin="round" />

  <path d="M278 1662H291" stroke="#9BB068" stroke-width="2" stroke-linejoin="round" />

  <path d="M291 1658C291.53 1658 292.039 1658.21 292.414 1658.59C292.789 1658.96 293 1659.47 293 1660C293 1660.53 292.789 1661.04 292.414 1661.41C292.039 1661.79 291.53 1662 291 1662" stroke="#9BB068" stroke-width="2" stroke-linejoin="round" />

</svg>