<svg width="26.00" height="12.00" viewBox="505.00 3097.00 26.00 12.00" fill="none" xmlns="http://www.w3.org/2000/svg">
  <path d="M511 3101C509.895 3101 509 3101.9 509 3103C509 3104.11 509.895 3105 511 3105C512.105 3105 513 3104.11 513 3103C513 3101.9 512.105 3101 511 3101Z" fill="#4B3425" />

  <path d="M516 3103C516 3101.9 516.895 3101 518 3101C519.105 3101 520 3101.9 520 3103C520 3104.11 519.105 3105 518 3105C516.895 3105 516 3104.11 516 3103Z" fill="#4B3425" />

  <path d="M523 3103C523 3101.9 523.895 3101 525 3101C526.105 3101 527 3101.9 527 3103C527 3104.11 526.105 3105 525 3105C523.895 3105 523 3104.11 523 3103Z" fill="#4B3425" />

</svg>