<svg width="16.71" height="18.86" viewBox="153.00 3090.14 16.71 18.86" fill="none" xmlns="http://www.w3.org/2000/svg">
  <path d="M158.5 3102C157.672 3102 157 3102.67 157 3103.5C157 3104.33 157.672 3105 158.5 3105C159.328 3105 160 3104.33 160 3103.5C160 3102.67 159.328 3102 158.5 3102Z" fill="#4B3425" />

  <path d="M165.71 3097.04L163.982 3094.88C163.765 3094.61 163.522 3094.36 163.259 3094.14C163.17 3094.18 163.083 3094.22 163 3094.27C162.696 3094.44 162.443 3094.7 162.268 3095C162.092 3095.3 162 3095.65 162 3096C162 3096.35 162.092 3096.7 162.268 3097C162.443 3097.3 162.696 3097.56 163 3097.73C163.304 3097.91 163.649 3098 164 3098C164.351 3098 164.696 3097.91 165 3097.73C165.292 3097.56 165.536 3097.32 165.71 3097.04Z" fill="#4B3425" />

</svg>