<svg width="13.12" height="13.12" viewBox="191.07 2911.07 13.12 13.12" fill="none" xmlns="http://www.w3.org/2000/svg">
  <path d="M195.95 2915.95C196.228 2915.67 196.559 2915.45 196.923 2915.3C197.287 2915.15 197.677 2915.07 198.071 2915.07C198.465 2915.07 198.855 2915.15 199.219 2915.3C199.583 2915.45 199.914 2915.67 200.192 2915.95L198.778 2917.36C198.685 2917.27 198.575 2917.2 198.454 2917.15C198.332 2917.1 198.202 2917.07 198.071 2917.07C197.94 2917.07 197.81 2917.1 197.688 2917.15C197.567 2917.2 197.457 2917.27 197.364 2917.36C197.271 2917.46 197.197 2917.57 197.147 2917.69C197.097 2917.81 197.071 2917.94 197.071 2918.07C197.071 2918.2 197.097 2918.33 197.147 2918.45C197.197 2918.58 197.271 2918.69 197.364 2918.78L195.95 2920.19C195.671 2919.91 195.45 2919.58 195.299 2919.22C195.149 2918.86 195.071 2918.47 195.071 2918.07C195.071 2917.68 195.149 2917.29 195.299 2916.92C195.45 2916.56 195.671 2916.23 195.95 2915.95Z" fill="#4B3425" />

</svg>