<svg width="26.00" height="26.00" viewBox="274.00 1908.00 26.00 26.00" fill="none" xmlns="http://www.w3.org/2000/svg">
  <path d="M285.5 1919.5L287.121 1917.88C287.684 1917.32 288 1916.55 288 1915.76L288 1914.5C288 1913.12 289.119 1912 290.5 1912C291.881 1912 293 1913.12 293 1914.5L293 1915L293.5 1915C294.881 1915 296 1916.12 296 1917.5C296 1918.88 294.881 1920 293.5 1920L292.243 1920C291.447 1920 290.684 1920.32 290.121 1920.88L288.5 1922.5" stroke="#4B3425" stroke-width="2" stroke-linejoin="round" />

  <path d="M285.5 1919.5L283.879 1921.12C283.316 1921.68 282.553 1922 281.757 1922L280.5 1922C279.119 1922 278 1923.12 278 1924.5C278 1925.88 279.119 1927 280.5 1927L281 1927L281 1927.5C281 1928.88 282.119 1930 283.5 1930C284.881 1930 286 1928.88 286 1927.5L286 1926.24C286 1925.45 286.316 1924.68 286.879 1924.12L288.5 1922.5" stroke="#9BB068" stroke-width="2" stroke-linejoin="round" />

</svg>