<svg width="26.21" height="26.10" viewBox="177.79 1651.90 26.21 26.10" fill="none" xmlns="http://www.w3.org/2000/svg">
  <path d="M186.5 1657.21C184.784 1658.2 183.443 1659.73 182.685 1661.56C181.927 1663.39 181.794 1665.42 182.307 1667.33C182.819 1669.24 183.949 1670.93 185.521 1672.14C187.093 1673.35 189.019 1674 191 1674" stroke="#4B3425" stroke-width="2" stroke-linejoin="round" />

  <path d="M188.671 1656.31C190.004 1655.95 191.402 1655.9 192.756 1656.17C194.11 1656.44 195.384 1657.02 196.479 1657.86C197.574 1658.7 198.461 1659.78 199.072 1661.02C199.682 1662.26 200 1663.62 200 1665" stroke="#9BB068" stroke-width="2" stroke-linejoin="round" />

  <path d="M199.693 1667.33C199.284 1668.86 198.481 1670.25 197.364 1671.36C196.247 1672.48 194.855 1673.28 193.329 1673.69" stroke="#4B3425" stroke-width="2" stroke-linejoin="round" />

</svg>