<svg width="26.07" height="26.07" viewBox="178.00 3089.93 26.07 26.07" fill="none" xmlns="http://www.w3.org/2000/svg">
  <path d="M195.035 3096.14C194.357 3095.96 193.643 3095.96 192.965 3096.14L192.447 3094.2C193.464 3093.93 194.536 3093.93 195.553 3094.2C196.57 3094.48 197.498 3095.01 198.243 3095.76C198.987 3096.5 199.523 3097.43 199.796 3098.45C200.068 3099.46 200.068 3100.54 199.796 3101.55L197.864 3101.04C198.045 3100.36 198.045 3099.64 197.864 3098.97C197.77 3098.61 197.629 3098.28 197.446 3097.97L192.891 3102.52C193.589 3103.5 194 3104.7 194 3106C194 3109.31 191.314 3112 188 3112C184.686 3112 182 3109.31 182 3106C182 3102.69 184.686 3100 188 3100C189.296 3100 190.496 3100.41 191.477 3101.11L196.032 3096.55C195.721 3096.37 195.386 3096.23 195.035 3096.14Z" fill="#4B3425" />

</svg>