<svg width="26.12" height="26.12" viewBox="273.93 1715.93 26.12 26.12" fill="none" xmlns="http://www.w3.org/2000/svg">
  <path d="M289.196 1723C288.736 1722.2 288.099 1721.52 287.333 1721.01C286.568 1720.5 285.696 1720.17 284.783 1720.05C283.871 1719.93 282.943 1720.02 282.071 1720.32C281.2 1720.61 280.408 1721.11 279.757 1721.76C279.107 1722.41 278.614 1723.2 278.318 1724.07C278.023 1724.94 277.931 1725.87 278.051 1726.78C278.171 1727.7 278.5 1728.57 279.011 1729.33C279.522 1730.1 280.203 1730.74 281 1731.2" stroke="#9BB068" stroke-width="2" stroke-linejoin="round" />

  <path d="M295.196 1729C295.59 1729.68 295.846 1730.44 295.949 1731.22C296.052 1732 295.999 1732.79 295.796 1733.55C295.592 1734.31 295.24 1735.03 294.76 1735.65C294.28 1736.28 293.682 1736.8 293 1737.2C292.318 1737.59 291.564 1737.85 290.783 1737.95C290.002 1738.05 289.208 1738 288.447 1737.8C287.686 1737.59 286.973 1737.24 286.347 1736.76C285.722 1736.28 285.198 1735.68 284.804 1735C284.41 1734.32 284.154 1733.56 284.051 1732.78C283.948 1732 284.001 1731.21 284.204 1730.45C284.408 1729.69 284.76 1728.97 285.24 1728.35C285.72 1727.72 286.318 1727.2 287 1726.8C287.682 1726.41 288.436 1726.15 289.217 1726.05C289.998 1725.95 290.792 1726 291.553 1726.2C292.314 1726.41 293.027 1726.76 293.653 1727.24C294.278 1727.72 294.802 1728.32 295.196 1729L295.196 1729Z" stroke="#4B3425" stroke-width="2" stroke-linejoin="round" />

  <path d="M286 1736L294 1728" stroke="#4B3425" stroke-width="2" stroke-linejoin="round" />

</svg>