<svg width="28.39" height="25.07" viewBox="144.81 3185.00 28.39 25.07" fill="none" xmlns="http://www.w3.org/2000/svg">
  <path d="M159 3191C157.418 3191 155.871 3191.47 154.555 3192.35C153.24 3193.23 152.214 3194.48 151.609 3195.94C151.003 3197.4 150.845 3199.01 151.154 3200.56C151.462 3202.11 152.224 3203.54 153.343 3204.66L151.929 3206.07C150.53 3204.67 149.578 3202.89 149.192 3200.95C148.806 3199.01 149.004 3197 149.761 3195.17C150.518 3193.35 151.8 3191.78 153.444 3190.69C155.089 3189.59 157.022 3189 159 3189C160.978 3189 162.911 3189.59 164.556 3190.69C166.2 3191.78 167.482 3193.35 168.239 3195.17C168.996 3197 169.194 3199.01 168.808 3200.95C168.422 3202.89 167.47 3204.67 166.071 3206.07L164.657 3204.66C165.776 3203.54 166.538 3202.11 166.846 3200.56C167.155 3199.01 166.997 3197.4 166.391 3195.94C165.786 3194.48 164.76 3193.23 163.445 3192.35C162.129 3191.47 160.582 3191 159 3191Z" fill="#4B3425" />

  <path d="M160.293 3197.29L163.293 3194.29L164.707 3195.71L161.708 3198.71C161.895 3199.1 162 3199.54 162 3200C162 3201.66 160.657 3203 159 3203C157.343 3203 156 3201.66 156 3200C156 3198.34 157.343 3197 159 3197C159.463 3197 159.902 3197.11 160.293 3197.29Z" fill="#4B3425" />

</svg>