<svg width="28.00" height="28.00" viewBox="1082.00 2673.00 28.00 28.00" fill="none" xmlns="http://www.w3.org/2000/svg">
  <path d="M1096 2677C1094.95 2677 1093.91 2677.28 1093 2677.8C1092.09 2678.33 1091.33 2679.09 1090.8 2680C1090.58 2680.39 1090.64 2680.87 1090.95 2681.19L1095.28 2685.69C1095.47 2685.89 1095.73 2686 1096 2686C1096.27 2686 1096.53 2685.89 1096.72 2685.69L1101.05 2681.19C1101.36 2680.87 1101.42 2680.39 1101.2 2680C1100.67 2679.09 1099.91 2678.33 1099 2677.8C1098.09 2677.28 1097.05 2677 1096 2677Z" fill="#4B3425" />

  <path d="M1096 2697C1094.95 2697 1093.91 2696.72 1093 2696.2C1092.09 2695.67 1091.33 2694.91 1090.8 2694C1090.58 2693.61 1090.64 2693.13 1090.95 2692.81L1095.28 2688.31C1095.47 2688.11 1095.73 2688 1096 2688C1096.27 2688 1096.53 2688.11 1096.72 2688.31L1101.05 2692.81C1101.36 2693.13 1101.42 2693.61 1101.2 2694C1100.67 2694.91 1099.91 2695.67 1099 2696.2C1098.09 2696.72 1097.05 2697 1096 2697Z" fill="#4B3425" />

  <path d="M1101.81 2681.95C1102.13 2681.64 1102.61 2681.58 1103 2681.8C1103.91 2682.33 1104.67 2683.09 1105.2 2684C1105.72 2684.91 1106 2685.95 1106 2687C1106 2688.05 1105.72 2689.09 1105.2 2690C1104.67 2690.91 1103.91 2691.67 1103 2692.2C1102.61 2692.42 1102.13 2692.36 1101.81 2692.05L1097.31 2687.72C1097.11 2687.53 1097 2687.27 1097 2687C1097 2686.73 1097.11 2686.47 1097.31 2686.28L1101.81 2681.95Z" fill="#4B3425" />

  <path d="M1089 2681.8C1089.39 2681.58 1089.87 2681.64 1090.19 2681.95L1094.69 2686.28C1094.89 2686.47 1095 2686.73 1095 2687C1095 2687.27 1094.89 2687.53 1094.69 2687.72L1090.19 2692.05C1089.87 2692.36 1089.39 2692.42 1089 2692.2C1088.09 2691.67 1087.33 2690.91 1086.8 2690C1086.28 2689.09 1086 2688.05 1086 2687C1086 2685.95 1086.28 2684.91 1086.8 2684C1087.33 2683.09 1088.09 2682.33 1089 2681.8Z" fill="#4B3425" />

</svg>