<svg width="22.00" height="27.00" viewBox="180.00 1620.00 22.00 27.00" fill="none" xmlns="http://www.w3.org/2000/svg">
  <path d="M187 1635C187 1634.47 187.103 1633.95 187.304 1633.47C187.506 1632.98 187.8 1632.54 188.172 1632.17C188.543 1631.8 188.984 1631.51 189.469 1631.3C189.955 1631.1 190.475 1631 191 1631C191.525 1631 192.045 1631.1 192.531 1631.3C193.016 1631.51 193.457 1631.8 193.828 1632.17C194.2 1632.54 194.495 1632.98 194.696 1633.47C194.897 1633.95 195 1634.47 195 1635" stroke="#9BB068" stroke-width="2" stroke-linejoin="round" />

  <path d="M191 1643L191 1639" stroke="#4B3425" stroke-width="2" stroke-linejoin="round" />

  <path d="M187 1628L187 1635C187 1637.21 188.791 1639 191 1639C193.209 1639 195 1637.21 195 1635L195 1628C195 1628 194.998 1628 194.996 1628L187.004 1628C187.002 1628 187 1628 187 1628Z" stroke="#4B3425" stroke-width="2" stroke-linejoin="round" />

  <path d="M198 1628H184" stroke="#4B3425" stroke-width="2" stroke-linejoin="round" />

  <path d="M191 1627C191 1626.2 191.316 1625.44 191.879 1624.88C192.441 1624.32 193.204 1624 194 1624" stroke="#4B3425" stroke-width="2" stroke-linejoin="round" />

  <path d="M191 1627C191 1626.2 190.684 1625.44 190.121 1624.88C189.559 1624.32 188.796 1624 188 1624" stroke="#4B3425" stroke-width="2" stroke-linejoin="round" />

</svg>