<svg width="35.09" height="32.05" viewBox="623.00 3800.95 35.09 32.05" fill="none" xmlns="http://www.w3.org/2000/svg">
  <rect x="627" y="3805" width="24" height="24" rx="12" fill="#E5EAD7" />

  <path d="M635.986 3809.76C635.176 3811.16 634.75 3812.73 634.75 3814.33L632 3820H635V3824H639V3829H650V3824.11C650 3822.79 650.701 3821.59 651.575 3820.6C652.171 3819.93 652.664 3819.16 653.064 3818.35C653.775 3816.9 654.09 3815.3 653.978 3813.7C653.866 3812.1 653.331 3810.56 652.426 3809.22C651.52 3807.88 650.273 3806.79 648.806 3806.05C647.339 3805.31 645.701 3804.95 644.049 3805.01C642.397 3805.06 640.788 3805.53 639.376 3806.36C637.963 3807.19 636.796 3808.36 635.986 3809.76Z" fill="#9BB068" />

  <rect x="638" y="3814" width="2" height="2" rx="1" fill="#4B3425" />

  <rect x="639" y="3824" width="11" height="5" fill="#4B3425" />

  <rect x="627" y="3805" width="24" height="24" rx="12" fill="white" />

</svg>