<svg width="28.00" height="28.00" viewBox="177.00 725.00 28.00 28.00" fill="none" xmlns="http://www.w3.org/2000/svg">
  <path d="M193 739C193 738.737 192.948 738.477 192.848 738.235C192.747 737.992 192.6 737.772 192.414 737.586C192.228 737.4 192.008 737.253 191.765 737.152C191.523 737.052 191.263 737 191 737C190.737 737 190.477 737.052 190.235 737.152C189.992 737.253 189.772 737.4 189.586 737.586C189.4 737.772 189.253 737.992 189.152 738.235C189.052 738.477 189 738.737 189 739C189 739.263 189.052 739.523 189.152 739.765C189.253 740.008 189.4 740.228 189.586 740.414C189.772 740.6 189.992 740.747 190.235 740.848C190.477 740.948 190.737 741 191 741C191.263 741 191.523 740.948 191.765 740.848C192.008 740.747 192.228 740.6 192.414 740.414C192.6 740.228 192.747 740.008 192.848 739.765C192.948 739.523 193 739.263 193 739L193 739Z" stroke="#4B3425" stroke-width="2" stroke-linejoin="round" />

  <path d="M193 729C193 729.263 192.948 729.523 192.848 729.765C192.747 730.008 192.6 730.228 192.414 730.414C192.228 730.6 192.008 730.747 191.765 730.848C191.523 730.948 191.263 731 191 731C190.737 731 190.477 730.948 190.235 730.848C189.992 730.747 189.772 730.6 189.586 730.414C189.4 730.228 189.253 730.008 189.152 729.765C189.052 729.523 189 729.263 189 729" stroke="#4B3425" stroke-width="2" stroke-linejoin="round" />

  <path d="M193 749C193 748.737 192.948 748.477 192.848 748.235C192.747 747.992 192.6 747.772 192.414 747.586C192.228 747.4 192.008 747.253 191.765 747.152C191.523 747.052 191.263 747 191 747C190.737 747 190.477 747.052 190.235 747.152C189.992 747.253 189.772 747.4 189.586 747.586C189.4 747.772 189.253 747.992 189.152 748.235C189.052 748.477 189 748.737 189 749" stroke="#4B3425" stroke-width="2" stroke-linejoin="round" />

  <path d="M199.485 733.343C199.3 733.529 199.079 733.676 198.836 733.777C198.594 733.877 198.334 733.929 198.071 733.929C197.808 733.929 197.548 733.877 197.306 733.777C197.063 733.676 196.843 733.529 196.657 733.343C196.471 733.157 196.324 732.937 196.223 732.694C196.123 732.452 196.071 732.192 196.071 731.929C196.071 731.666 196.123 731.406 196.223 731.164C196.324 730.921 196.471 730.7 196.657 730.515" stroke="#4B3425" stroke-width="2" stroke-linejoin="round" />

  <path d="M185.343 747.485C185.529 747.3 185.676 747.079 185.777 746.836C185.877 746.594 185.929 746.334 185.929 746.071C185.929 745.808 185.877 745.548 185.777 745.306C185.676 745.063 185.529 744.843 185.343 744.657C185.157 744.471 184.937 744.324 184.694 744.223C184.452 744.123 184.192 744.071 183.929 744.071C183.666 744.071 183.406 744.123 183.164 744.223C182.921 744.324 182.7 744.471 182.515 744.657" stroke="#4B3425" stroke-width="2" stroke-linejoin="round" />

  <path d="M201 741C200.737 741 200.477 740.948 200.235 740.848C199.992 740.747 199.772 740.6 199.586 740.414C199.4 740.228 199.253 740.008 199.152 739.765C199.052 739.523 199 739.263 199 739C199 738.737 199.052 738.477 199.152 738.235C199.253 737.992 199.4 737.772 199.586 737.586C199.772 737.4 199.992 737.253 200.235 737.152C200.477 737.052 200.737 737 201 737" stroke="#4B3425" stroke-width="2" stroke-linejoin="round" />

  <path d="M181 741C181.263 741 181.523 740.948 181.765 740.848C182.008 740.747 182.228 740.6 182.414 740.414C182.6 740.228 182.747 740.008 182.848 739.765C182.948 739.523 183 739.263 183 739C183 738.737 182.948 738.477 182.848 738.235C182.747 737.992 182.6 737.772 182.414 737.586C182.228 737.4 182.008 737.253 181.765 737.152C181.523 737.052 181.263 737 181 737" stroke="#4B3425" stroke-width="2" stroke-linejoin="round" />

  <path d="M196.657 747.485C196.471 747.3 196.324 747.079 196.223 746.836C196.123 746.594 196.071 746.334 196.071 746.071C196.071 745.808 196.123 745.548 196.223 745.306C196.324 745.063 196.471 744.843 196.657 744.657C196.843 744.471 197.063 744.324 197.306 744.223C197.548 744.123 197.808 744.071 198.071 744.071C198.334 744.071 198.594 744.123 198.836 744.223C199.079 744.324 199.3 744.471 199.485 744.657" stroke="#4B3425" stroke-width="2" stroke-linejoin="round" />

  <path d="M182.515 733.343C182.7 733.529 182.921 733.676 183.164 733.777C183.406 733.877 183.666 733.929 183.929 733.929C184.192 733.929 184.452 733.877 184.694 733.777C184.937 733.676 185.157 733.529 185.343 733.343C185.529 733.157 185.676 732.937 185.777 732.694C185.877 732.452 185.929 732.192 185.929 731.929C185.929 731.666 185.877 731.406 185.777 731.164C185.676 730.921 185.529 730.7 185.343 730.515" stroke="#4B3425" stroke-width="2" stroke-linejoin="round" />

  <path d="M197 739C197 738.212 196.845 737.432 196.543 736.704C196.242 735.976 195.8 735.315 195.243 734.757C194.685 734.2 194.024 733.758 193.296 733.457C192.568 733.155 191.788 733 191 733C190.212 733 189.432 733.155 188.704 733.457C187.976 733.758 187.315 734.2 186.757 734.757C186.2 735.315 185.758 735.976 185.457 736.704C185.155 737.432 185 738.212 185 739C185 739.788 185.155 740.568 185.457 741.296C185.758 742.024 186.2 742.685 186.757 743.243C187.315 743.8 187.976 744.242 188.704 744.543C189.432 744.845 190.212 745 191 745C191.788 745 192.568 744.845 193.296 744.543C194.024 744.242 194.685 743.8 195.243 743.243C195.8 742.685 196.242 742.024 196.543 741.296C196.845 740.568 197 739.788 197 739L197 739Z" stroke="#4B3425" stroke-width="2" stroke-linejoin="round" />

</svg>