<svg width="24.85" height="24.85" viewBox="785.86 2995.29 24.85 24.85" fill="none" xmlns="http://www.w3.org/2000/svg">
  <path d="M792.829 3011.76L805.293 2999.29L806.707 3000.71L794.243 3013.17C794.872 3013.59 795.591 3013.86 796.347 3013.96C797.439 3014.1 798.547 3013.88 799.5 3013.33L800.5 3015.06C799.166 3015.83 797.614 3016.14 796.086 3015.94C794.559 3015.74 793.14 3015.04 792.05 3013.95C790.961 3012.86 790.261 3011.44 790.06 3009.91C789.859 3008.39 790.167 3006.83 790.938 3005.5L792.67 3006.5C792.12 3007.45 791.899 3008.56 792.043 3009.65C792.142 3010.41 792.413 3011.13 792.829 3011.76Z" fill="#4B3425" />

</svg>