<svg width="13.12" height="13.12" viewBox="177.81 2897.81 13.12 13.12" fill="none" xmlns="http://www.w3.org/2000/svg">
  <path d="M186.701 2905.08C186.55 2905.44 186.329 2905.77 186.05 2906.05C185.772 2906.33 185.441 2906.55 185.077 2906.7C184.713 2906.85 184.323 2906.93 183.929 2906.93C183.535 2906.93 183.145 2906.85 182.781 2906.7C182.417 2906.55 182.086 2906.33 181.808 2906.05L183.222 2904.64C183.315 2904.73 183.425 2904.8 183.546 2904.85C183.668 2904.9 183.798 2904.93 183.929 2904.93C184.06 2904.93 184.19 2904.9 184.312 2904.85C184.433 2904.8 184.543 2904.73 184.636 2904.64C184.729 2904.54 184.803 2904.43 184.853 2904.31C184.903 2904.19 184.929 2904.06 184.929 2903.93C184.929 2903.8 184.903 2903.67 184.853 2903.55C184.803 2903.43 184.729 2903.32 184.636 2903.22L186.05 2901.81C186.329 2902.09 186.55 2902.42 186.701 2902.78C186.851 2903.15 186.929 2903.54 186.929 2903.93C186.929 2904.32 186.851 2904.71 186.701 2905.08Z" fill="#4B3425" />

</svg>