<svg width="28.00" height="28.00" viewBox="177.00 3281.00 28.00 28.00" fill="none" xmlns="http://www.w3.org/2000/svg">
  <path fill-rule="evenodd" clip-rule="evenodd" d="M181 3295C181 3289.48 185.477 3285 191 3285C196.523 3285 201 3289.48 201 3295C201 3300.52 196.523 3305 191 3305C185.477 3305 181 3300.52 181 3295ZM187.5 3294C188.328 3294 189 3293.33 189 3292.5C189 3291.67 188.328 3291 187.5 3291C186.672 3291 186 3291.67 186 3292.5C186 3293.33 186.672 3294 187.5 3294ZM194.5 3294C195.328 3294 196 3293.33 196 3292.5C196 3291.67 195.328 3291 194.5 3291C193.672 3291 193 3291.67 193 3292.5C193 3293.33 193.672 3294 194.5 3294ZM188 3300.2C188.912 3300.72 189.947 3301 191 3301C192.053 3301 193.088 3300.72 194 3300.2C194.912 3299.67 195.67 3298.91 196.196 3298L194.464 3297C194.113 3297.61 193.608 3298.11 193 3298.46C192.392 3298.82 191.702 3299 191 3299C190.298 3299 189.608 3298.82 189 3298.46C188.392 3298.11 187.887 3297.61 187.536 3297L185.804 3298C186.33 3298.91 187.088 3299.67 188 3300.2Z" fill="#4B3425" />

</svg>