<svg width="25.00" height="25.00" viewBox="538.00 1908.00 25.00 25.00" fill="none" xmlns="http://www.w3.org/2000/svg">
  <path d="M542 1915C542 1916.84 542.362 1918.66 543.066 1920.36C543.769 1922.06 544.8 1923.6 546.101 1924.9C547.401 1926.2 548.944 1927.23 550.642 1927.93C552.341 1928.64 554.162 1929 556 1929" stroke="#9BB068" stroke-width="2" stroke-linejoin="round" />

  <path d="M542 1915C542 1913.34 543.343 1912 545 1912C546.657 1912 548 1913.34 548 1915C548 1916.66 546.657 1918 545 1918C543.343 1918 542 1916.66 542 1915Z" stroke="#4B3425" stroke-width="2" stroke-linejoin="round" />

  <path d="M553 1926C553 1924.34 554.343 1923 556 1923C557.657 1923 559 1924.34 559 1926C559 1927.66 557.657 1929 556 1929C554.343 1929 553 1927.66 553 1926Z" stroke="#4B3425" stroke-width="2" stroke-linejoin="round" />

</svg>