<svg width="24.00" height="21.52" viewBox="754.00 2868.24 24.00 21.52" fill="none" xmlns="http://www.w3.org/2000/svg">
  <path d="M763.188 2872.24C761.7 2872.64 760.385 2873.52 759.447 2874.74C758.508 2875.96 758 2877.46 758 2879C758 2880.54 758.508 2882.04 759.447 2883.26C760.385 2884.48 761.7 2885.36 763.188 2885.76L763.706 2883.83C762.643 2883.55 761.703 2882.92 761.033 2882.04C760.363 2881.17 760 2880.1 760 2879C760 2877.9 760.363 2876.83 761.033 2875.96C761.703 2875.08 762.643 2874.46 763.706 2874.17L763.188 2872.24Z" fill="#4B3425" />

  <path d="M768.812 2872.24C770.3 2872.64 771.615 2873.52 772.553 2874.74C773.492 2875.96 774 2877.46 774 2879C774 2880.54 773.492 2882.04 772.553 2883.26C771.615 2884.48 770.3 2885.36 768.812 2885.76L768.294 2883.83C769.357 2883.55 770.297 2882.92 770.967 2882.04C771.637 2881.17 772 2880.1 772 2879C772 2877.9 771.637 2876.83 770.967 2875.96C770.297 2875.08 769.357 2874.46 768.294 2874.17L768.812 2872.24Z" fill="#4B3425" />

</svg>