<svg width="22.00" height="27.00" viewBox="180.00 534.00 22.00 27.00" fill="none" xmlns="http://www.w3.org/2000/svg">
  <path d="M191 557L191 553" stroke="#4B3425" stroke-width="2" stroke-linejoin="round" />

  <path d="M187 542.004L187 549C187 551.209 188.791 553 191 553C193.209 553 195 551.209 195 549L195 542.004C195 542.002 194.998 542 194.996 542L187.004 542C187.002 542 187 542.002 187 542.004Z" stroke="#4B3425" stroke-width="2" stroke-linejoin="round" />

  <path d="M198 542H184" stroke="#4B3425" stroke-width="2" stroke-linejoin="round" />

  <path d="M191 541C191 540.204 191.316 539.441 191.879 538.879C192.441 538.316 193.204 538 194 538" stroke="#4B3425" stroke-width="2" stroke-linejoin="round" />

  <path d="M191 541C191 540.204 190.684 539.441 190.121 538.879C189.559 538.316 188.796 538 188 538" stroke="#4B3425" stroke-width="2" stroke-linejoin="round" />

  <path d="M187 549C187 548.475 187.103 547.955 187.304 547.469C187.506 546.984 187.8 546.543 188.172 546.172C188.543 545.8 188.984 545.506 189.469 545.304C189.955 545.103 190.475 545 191 545C191.525 545 192.045 545.103 192.531 545.304C193.016 545.506 193.457 545.8 193.828 546.172C194.2 546.543 194.495 546.984 194.696 547.469C194.897 547.955 195 548.475 195 549" stroke="#4B3425" stroke-width="2" stroke-linejoin="round" />

</svg>