<svg width="24.85" height="24.85" viewBox="754.29 2994.86 24.85 24.85" fill="none" xmlns="http://www.w3.org/2000/svg">
  <path d="M768.653 3001.04C767.561 3000.9 766.453 3001.12 765.5 3001.67L764.5 2999.94C765.835 2999.17 767.386 2998.86 768.914 2999.06C770.442 2999.26 771.86 2999.96 772.95 3001.05C774.039 3002.14 774.739 3003.56 774.94 3005.09C775.141 3006.61 774.833 3008.17 774.062 3009.5L772.33 3008.5C772.881 3007.55 773.101 3006.44 772.957 3005.35C772.858 3004.59 772.587 3003.87 772.171 3003.24L759.707 3015.71L758.293 3014.29L770.757 3001.83C770.128 3001.41 769.409 3001.14 768.653 3001.04Z" fill="#4B3425" />

</svg>