<svg width="28.00" height="28.00" viewBox="720.00 2929.00 28.00 28.00" fill="none" xmlns="http://www.w3.org/2000/svg">
  <path fill-rule="evenodd" clip-rule="evenodd" d="M734 2953C739.523 2953 744 2948.52 744 2943C744 2937.48 739.523 2933 734 2933C728.477 2933 724 2937.48 724 2943C724 2948.52 728.477 2953 734 2953ZM739.796 2944.45C739.454 2943.17 738.7 2942.04 737.653 2941.24C736.605 2940.44 735.321 2940 734 2940C732.679 2940 731.395 2940.44 730.347 2941.24C729.3 2942.04 728.546 2943.17 728.204 2944.45L730.136 2944.97C730.364 2944.11 730.866 2943.36 731.565 2942.83C732.264 2942.29 733.119 2942 734 2942C734.881 2942 735.736 2942.29 736.435 2942.83C737.134 2943.36 737.636 2944.11 737.864 2944.97L739.796 2944.45Z" fill="#4B3425" />

</svg>