<svg width="26.00" height="26.00" viewBox="505.00 2802.00 26.00 26.00" fill="none" xmlns="http://www.w3.org/2000/svg">
  <path fill-rule="evenodd" clip-rule="evenodd" d="M513.5 2815C511.015 2815 509 2817.02 509 2819.5C509 2821.99 511.015 2824 513.5 2824C515.985 2824 518 2821.99 518 2819.5C518 2821.99 520.015 2824 522.5 2824C524.985 2824 527 2821.99 527 2819.5C527 2817.02 524.985 2815 522.5 2815C524.985 2815 527 2812.99 527 2810.5C527 2808.02 524.985 2806 522.5 2806C520.015 2806 518 2808.02 518 2810.5C518 2808.02 515.985 2806 513.5 2806C511.015 2806 509 2808.02 509 2810.5C509 2812.99 511.015 2815 513.5 2815ZM513.5 2815C515.985 2815 518 2812.99 518 2810.5C518 2812.99 520.015 2815 522.5 2815C520.015 2815 518 2817.02 518 2819.5C518 2817.02 515.985 2815 513.5 2815Z" fill="#4B3425" />

</svg>