<svg width="28.00" height="28.00" viewBox="273.00 3281.00 28.00 28.00" fill="none" xmlns="http://www.w3.org/2000/svg">
  <path fill-rule="evenodd" clip-rule="evenodd" d="M277 3295C277 3289.48 281.477 3285 287 3285C292.523 3285 297 3289.48 297 3295C297 3300.52 292.523 3305 287 3305C281.477 3305 277 3300.52 277 3295ZM284.293 3290.29L283.5 3291.09L282.707 3290.29L281.293 3291.71L282.086 3292.5L281.293 3293.29L282.707 3294.71L283.5 3293.91L284.293 3294.71L285.707 3293.29L284.914 3292.5L285.707 3291.71L284.293 3290.29ZM287 3296C285.947 3296 284.912 3296.28 284 3296.8C283.088 3297.33 282.33 3298.09 281.804 3299L283.536 3300C283.887 3299.39 284.392 3298.89 285 3298.54C285.608 3298.19 286.298 3298 287 3298C287.702 3298 288.392 3298.19 289 3298.54C289.608 3298.89 290.113 3299.39 290.464 3300L292.196 3299C291.67 3298.09 290.912 3297.33 290 3296.8C289.088 3296.28 288.053 3296 287 3296ZM288.293 3291.71L289.086 3292.5L288.293 3293.29L289.707 3294.71L290.5 3293.91L291.293 3294.71L292.707 3293.29L291.914 3292.5L292.707 3291.71L291.293 3290.29L290.5 3291.09L289.707 3290.29L288.293 3291.71Z" fill="#4B3425" />

</svg>