<svg width="28.29" height="28.42" viewBox="719.81 2960.79 28.29 28.42" fill="none" xmlns="http://www.w3.org/2000/svg">
  <path d="M732.439 2967.15C734.079 2966.83 735.779 2967.02 737.302 2967.71C738.652 2968.33 739.802 2969.3 740.628 2970.52C740.257 2970.76 739.835 2970.92 739.392 2970.97C738.737 2971.06 738.072 2970.93 737.5 2970.6L736.5 2972.33C737.453 2972.88 738.561 2973.1 739.653 2972.96C740.744 2972.81 741.757 2972.31 742.536 2971.54C743.314 2970.76 743.814 2969.74 743.957 2968.65C744.101 2967.56 743.88 2966.45 743.33 2965.5L741.598 2966.5C741.928 2967.07 742.061 2967.74 741.974 2968.39C741.954 2968.55 741.922 2968.7 741.879 2968.84C740.889 2967.58 739.604 2966.56 738.127 2965.89C736.224 2965.03 734.098 2964.79 732.049 2965.19C730 2965.6 728.13 2966.64 726.701 2968.16C725.273 2969.69 724.358 2971.62 724.086 2973.7C723.813 2975.77 724.196 2977.87 725.181 2979.71C726.166 2981.56 727.703 2983.05 729.577 2983.97C731.451 2984.89 733.567 2985.21 735.629 2984.87C737.69 2984.53 739.594 2983.55 741.071 2982.07L739.657 2980.66C738.475 2981.84 736.952 2982.62 735.303 2982.89C733.654 2983.17 731.961 2982.91 730.462 2982.18C728.963 2981.44 727.733 2980.25 726.945 2978.77C726.157 2977.3 725.85 2975.61 726.068 2973.96C726.287 2972.3 727.018 2970.75 728.161 2969.53C729.304 2968.31 730.8 2967.48 732.439 2967.15Z" fill="#4B3425" />

</svg>