<svg width="26.00" height="26.00" viewBox="1083.00 1588.00 26.00 26.00" fill="none" xmlns="http://www.w3.org/2000/svg">
  <path d="M1098.5 1609.33C1099.26 1608.89 1099.89 1608.26 1100.33 1607.5L1096 1603L1091.67 1607.5C1092.11 1608.26 1092.74 1608.89 1093.5 1609.33C1094.26 1609.77 1095.12 1610 1096 1610C1096.88 1610 1097.74 1609.77 1098.5 1609.33Z" stroke="#9BB068" stroke-width="2" stroke-linejoin="round" />

  <path d="M1098.5 1592.67C1099.26 1593.11 1099.89 1593.74 1100.33 1594.5L1096 1599L1091.67 1594.5C1092.11 1593.74 1092.74 1593.11 1093.5 1592.67C1094.26 1592.23 1095.12 1592 1096 1592C1096.88 1592 1097.74 1592.23 1098.5 1592.67Z" stroke="#9BB068" stroke-width="2" stroke-linejoin="round" />

  <path d="M1104.33 1603.5C1103.89 1604.26 1103.26 1604.89 1102.5 1605.33L1098 1601L1102.5 1596.67C1103.26 1597.11 1103.89 1597.74 1104.33 1598.5C1104.77 1599.26 1105 1600.12 1105 1601C1105 1601.88 1104.77 1602.74 1104.33 1603.5Z" stroke="#4B3425" stroke-width="2" stroke-linejoin="round" />

  <path d="M1087.67 1603.5C1088.11 1604.26 1088.74 1604.89 1089.5 1605.33L1094 1601L1089.5 1596.67C1088.74 1597.11 1088.11 1597.74 1087.67 1598.5C1087.23 1599.26 1087 1600.12 1087 1601C1087 1601.88 1087.23 1602.74 1087.67 1603.5Z" stroke="#4B3425" stroke-width="2" stroke-linejoin="round" />

</svg>