<svg width="21.52" height="24.00" viewBox="723.24 2867.00 21.52 24.00" fill="none" xmlns="http://www.w3.org/2000/svg">
  <path d="M740.761 2876.19C740.363 2874.7 739.484 2873.39 738.261 2872.45C737.039 2871.51 735.541 2871 734 2871C732.459 2871 730.961 2871.51 729.739 2872.45C728.516 2873.39 727.637 2874.7 727.239 2876.19L729.17 2876.71C729.455 2875.64 730.083 2874.7 730.956 2874.03C731.829 2873.36 732.899 2873 734 2873C735.101 2873 736.171 2873.36 737.044 2874.03C737.917 2874.7 738.545 2875.64 738.83 2876.71L740.761 2876.19Z" fill="#4B3425" />

  <path d="M740.761 2881.81C740.363 2883.3 739.484 2884.62 738.261 2885.55C737.039 2886.49 735.541 2887 734 2887C732.459 2887 730.961 2886.49 729.739 2885.55C728.516 2884.62 727.637 2883.3 727.239 2881.81L729.17 2881.29C729.455 2882.36 730.083 2883.3 730.956 2883.97C731.829 2884.64 732.899 2885 734 2885C735.101 2885 736.171 2884.64 737.044 2883.97C737.917 2883.3 738.545 2882.36 738.83 2881.29L740.761 2881.81Z" fill="#4B3425" />

</svg>