<svg width="26.08" height="24.04" viewBox="177.96 2227.96 26.08 24.04" fill="none" xmlns="http://www.w3.org/2000/svg">
  <path d="M186.406 2232.12C185.812 2231.96 185.188 2231.96 184.594 2232.12C184.001 2232.28 183.46 2232.59 183.025 2233.03C182.591 2233.46 182.278 2234 182.119 2234.59C181.96 2235.19 181.96 2235.81 182.119 2236.41" stroke="#4B3425" stroke-width="2" stroke-linejoin="round" />

  <path d="M188 2234L184 2238" stroke="#4B3425" stroke-width="2" stroke-linejoin="round" />

  <path d="M188 2238L183 2233" stroke="#4B3425" stroke-width="2" stroke-linejoin="round" />

  <path d="M188 2248H194" stroke="#4B3425" stroke-width="2" stroke-linejoin="round" />

  <path d="M194 2238L199 2233" stroke="#4B3425" stroke-width="2" stroke-linejoin="round" />

  <path d="M195.594 2232.12C196.188 2231.96 196.812 2231.96 197.406 2232.12C197.999 2232.28 198.54 2232.59 198.975 2233.03C199.409 2233.46 199.722 2234 199.881 2234.59C200.04 2235.19 200.04 2235.81 199.881 2236.41" stroke="#4B3425" stroke-width="2" stroke-linejoin="round" />

  <circle cx="191" cy="2240" r="4" stroke="#9BB068" stroke-width="2" stroke-linejoin="round" />

</svg>