<svg width="19.00" height="21.00" viewBox="246.00 568.00 19.00 21.00" fill="none" xmlns="http://www.w3.org/2000/svg">
  <path d="M254 581C254 580.47 253.789 579.961 253.414 579.586C253.039 579.211 252.53 579 252 579C251.47 579 250.961 579.211 250.586 579.586C250.211 579.961 250 580.47 250 581" stroke="#4B3425" stroke-width="2" stroke-linejoin="round" />

  <path d="M254 574C254 573.47 253.789 572.961 253.414 572.586C253.039 572.211 252.53 572 252 572C251.47 572 250.961 572.211 250.586 572.586C250.211 572.961 250 573.47 250 574" stroke="#4B3425" stroke-width="2" stroke-linejoin="round" />

  <path d="M261 585C261 584.47 260.789 583.961 260.414 583.586C260.039 583.211 259.53 583 259 583C258.47 583 257.961 583.211 257.586 583.586C257.211 583.961 257 584.47 257 585" stroke="#4B3425" stroke-width="2" stroke-linejoin="round" />

  <path d="M261 578C261 577.47 260.789 576.961 260.414 576.586C260.039 576.211 259.53 576 259 576C258.47 576 257.961 576.211 257.586 576.586C257.211 576.961 257 577.47 257 578" stroke="#4B3425" stroke-width="2" stroke-linejoin="round" />

</svg>