<svg width="26.08" height="24.04" viewBox="177.96 1141.96 26.08 24.04" fill="none" xmlns="http://www.w3.org/2000/svg">
  <path d="M188 1162H194" stroke="#4B3425" stroke-width="2" stroke-linejoin="round" />

  <circle cx="191" cy="1154" r="4" stroke="#4B3425" stroke-width="2" stroke-linejoin="round" />

  <path d="M195.594 1146.12C196.188 1145.96 196.812 1145.96 197.406 1146.12C197.999 1146.28 198.54 1146.59 198.975 1147.03C199.409 1147.46 199.722 1148 199.881 1148.59C200.04 1149.19 200.04 1149.81 199.881 1150.41" stroke="#4B3425" stroke-width="2" stroke-linejoin="round" />

  <path d="M186.406 1146.12C185.812 1145.96 185.188 1145.96 184.594 1146.12C184.001 1146.28 183.46 1146.59 183.025 1147.03C182.591 1147.46 182.278 1148 182.119 1148.59C181.96 1149.19 181.96 1149.81 182.119 1150.41" stroke="#4B3425" stroke-width="2" stroke-linejoin="round" />

  <path d="M188 1148L184 1152" stroke="#4B3425" stroke-width="2" stroke-linejoin="round" />

  <path d="M194 1152L199 1147" stroke="#4B3425" stroke-width="2" stroke-linejoin="round" />

  <path d="M188 1152L183 1147" stroke="#4B3425" stroke-width="2" stroke-linejoin="round" />

</svg>