<svg width="26.00" height="26.00" viewBox="473.00 3122.00 26.00 26.00" fill="none" xmlns="http://www.w3.org/2000/svg">
  <path d="M486 3139C488.209 3139 490 3137.21 490 3135C490 3132.79 488.209 3131 486 3131C483.791 3131 482 3132.79 482 3135C482 3137.21 483.791 3139 486 3139Z" fill="#4B3425" />

  <path fill-rule="evenodd" clip-rule="evenodd" d="M486 3126C481.029 3126 477 3130.03 477 3135C477 3139.97 481.029 3144 486 3144C490.971 3144 495 3139.97 495 3135C495 3130.03 490.971 3126 486 3126ZM479 3135C479 3131.13 482.134 3128 486 3128C489.866 3128 493 3131.13 493 3135C493 3138.87 489.866 3142 486 3142C482.134 3142 479 3138.87 479 3135Z" fill="#4B3425" />

</svg>