<svg width="16.00" height="14.00" viewBox="279.00 2840.00 16.00 14.00" fill="none" xmlns="http://www.w3.org/2000/svg">
  <path d="M283.617 2845.92C283.739 2845.97 283.869 2846 284 2846C284.131 2846 284.261 2845.97 284.383 2845.92C284.504 2845.87 284.614 2845.8 284.707 2845.71C284.8 2845.61 284.874 2845.5 284.924 2845.38C284.974 2845.26 285 2845.13 285 2845C285 2844.87 284.974 2844.74 284.924 2844.62C284.874 2844.5 284.8 2844.39 284.707 2844.29C284.614 2844.2 284.504 2844.13 284.383 2844.08C284.261 2844.03 284.131 2844 284 2844C283.869 2844 283.739 2844.03 283.617 2844.08C283.496 2844.13 283.386 2844.2 283.293 2844.29C283.2 2844.39 283.126 2844.5 283.076 2844.62C283.026 2844.74 283 2844.87 283 2845C283 2845.13 283.026 2845.26 283.076 2845.38C283.126 2845.5 283.2 2845.61 283.293 2845.71C283.386 2845.8 283.496 2845.87 283.617 2845.92Z" fill="#4B3425" />

  <path d="M290 2850C289.869 2850 289.739 2849.97 289.617 2849.92C289.496 2849.87 289.386 2849.8 289.293 2849.71C289.2 2849.61 289.126 2849.5 289.076 2849.38C289.026 2849.26 289 2849.13 289 2849C289 2848.87 289.026 2848.74 289.076 2848.62C289.126 2848.5 289.2 2848.39 289.293 2848.29C289.386 2848.2 289.496 2848.13 289.617 2848.08C289.739 2848.03 289.869 2848 290 2848C290.131 2848 290.261 2848.03 290.383 2848.08C290.504 2848.13 290.614 2848.2 290.707 2848.29C290.8 2848.39 290.874 2848.5 290.924 2848.62C290.974 2848.74 291 2848.87 291 2849C291 2849.13 290.974 2849.26 290.924 2849.38C290.874 2849.5 290.8 2849.61 290.707 2849.71C290.614 2849.8 290.504 2849.87 290.383 2849.92C290.261 2849.97 290.131 2850 290 2850Z" fill="#4B3425" />

</svg>