<svg width="26.00" height="23.00" viewBox="274.00 1082.00 26.00 23.00" fill="none" xmlns="http://www.w3.org/2000/svg">
  <path d="M278 1089C280.209 1089 282 1090.79 282 1093" stroke="#4B3425" stroke-width="2" stroke-linejoin="round" />

  <path d="M278 1093H296" stroke="#4B3425" stroke-width="2" stroke-linejoin="round" />

  <path d="M293 1086L285 1086" stroke="#4B3425" stroke-width="2" stroke-linejoin="round" />

  <path d="M278 1101C278 1100.2 278.316 1099.44 278.879 1098.88C279.441 1098.32 280.204 1098 281 1098C281.796 1098 282.559 1098.32 283.121 1098.88C283.684 1099.44 284 1100.2 284 1101" stroke="#4B3425" stroke-width="2" stroke-linejoin="round" />

  <path d="M290 1101C290 1100.2 290.316 1099.44 290.879 1098.88C291.441 1098.32 292.204 1098 293 1098C293.796 1098 294.559 1098.32 295.121 1098.88C295.684 1099.44 296 1100.2 296 1101" stroke="#4B3425" stroke-width="2" stroke-linejoin="round" />

</svg>