<svg width="26.00" height="26.00" viewBox="569.00 1812.00 26.00 26.00" fill="none" xmlns="http://www.w3.org/2000/svg">
  <path d="M591 1825C591 1827.39 590.052 1829.68 588.364 1831.36C586.676 1833.05 584.387 1834 582 1834C579.613 1834 577.324 1833.05 575.636 1831.36C573.948 1829.68 573 1827.39 573 1825" stroke="#9BB068" stroke-width="2" stroke-linejoin="round" />

  <path d="M582 1816L582 1829" stroke="#4B3425" stroke-width="2" stroke-linejoin="round" />

  <path d="M586 1825C586 1825.53 585.897 1826.05 585.696 1826.53C585.494 1827.02 585.2 1827.46 584.828 1827.83C584.457 1828.2 584.016 1828.49 583.531 1828.7C583.045 1828.9 582.525 1829 582 1829C581.475 1829 580.955 1828.9 580.469 1828.7C579.984 1828.49 579.543 1828.2 579.172 1827.83C578.8 1827.46 578.506 1827.02 578.304 1826.53C578.103 1826.05 578 1825.53 578 1825" stroke="#4B3425" stroke-width="2" stroke-linejoin="round" />

</svg>