<svg width="28.29" height="28.42" viewBox="751.90 2960.79 28.29 28.42" fill="none" xmlns="http://www.w3.org/2000/svg">
  <path d="M767.561 2967.15C765.921 2966.83 764.221 2967.02 762.698 2967.71C761.348 2968.33 760.198 2969.3 759.372 2970.52C759.743 2970.76 760.165 2970.92 760.608 2970.97C761.263 2971.06 761.928 2970.93 762.5 2970.6L763.5 2972.33C762.547 2972.88 761.439 2973.1 760.347 2972.96C759.256 2972.81 758.243 2972.31 757.464 2971.54C756.686 2970.76 756.186 2969.74 756.043 2968.65C755.899 2967.56 756.12 2966.45 756.67 2965.5L758.402 2966.5C758.072 2967.07 757.939 2967.74 758.026 2968.39C758.046 2968.55 758.078 2968.7 758.121 2968.84C759.111 2967.58 760.396 2966.56 761.873 2965.89C763.776 2965.03 765.902 2964.79 767.951 2965.19C770 2965.6 771.87 2966.64 773.299 2968.16C774.727 2969.69 775.642 2971.62 775.914 2973.7C776.187 2975.77 775.804 2977.87 774.819 2979.71C773.834 2981.56 772.297 2983.05 770.423 2983.97C768.549 2984.89 766.433 2985.21 764.371 2984.87C762.31 2984.53 760.406 2983.55 758.929 2982.07L760.343 2980.66C761.525 2981.84 763.048 2982.62 764.697 2982.89C766.346 2983.17 768.039 2982.91 769.538 2982.18C771.037 2981.44 772.267 2980.25 773.055 2978.77C773.843 2977.3 774.15 2975.61 773.932 2973.96C773.713 2972.3 772.982 2970.75 771.839 2969.53C770.696 2968.31 769.2 2967.48 767.561 2967.15Z" fill="#4B3425" />

</svg>