<svg width="26.00" height="24.00" viewBox="537.00 1654.00 26.00 24.00" fill="none" xmlns="http://www.w3.org/2000/svg">
  <path d="M559 1667C559 1666.34 558.871 1665.69 558.619 1665.09C558.368 1664.48 558 1663.93 557.536 1663.46C557.071 1663 556.52 1662.63 555.913 1662.38C555.307 1662.13 554.657 1662 554 1662" stroke="#9BB068" stroke-width="2" stroke-linejoin="round" />

  <rect x="552" y="1658" width="4" height="4" rx="2" stroke="#9BB068" stroke-width="2" stroke-linejoin="round" />

  <path d="M541 1667C541 1666.34 541.129 1665.69 541.381 1665.09C541.632 1664.48 542 1663.93 542.464 1663.46C542.929 1663 543.48 1662.63 544.087 1662.38C544.693 1662.13 545.343 1662 546 1662" stroke="#9BB068" stroke-width="2" stroke-linejoin="round" />

  <path d="M545 1674C545 1673.34 545.129 1672.69 545.381 1672.09C545.632 1671.48 546 1670.93 546.464 1670.46C546.929 1670 547.48 1669.63 548.087 1669.38C548.693 1669.13 549.343 1669 550 1669C550.657 1669 551.307 1669.13 551.913 1669.38C552.52 1669.63 553.071 1670 553.536 1670.46C554 1670.93 554.368 1671.48 554.619 1672.09C554.871 1672.69 555 1673.34 555 1674" stroke="#4B3425" stroke-width="2" stroke-linejoin="round" />

  <rect x="548" y="1664" width="4" height="4" rx="2" stroke="#4B3425" stroke-width="2" stroke-linejoin="round" />

</svg>