<svg width="26.00" height="26.00" viewBox="274.00 1748.00 26.00 26.00" fill="none" xmlns="http://www.w3.org/2000/svg">
  <path d="M284 1761L284 1766" stroke="#9BB068" stroke-width="2" stroke-linejoin="round" />

  <path d="M290 1756L290 1761" stroke="#9BB068" stroke-width="2" stroke-linejoin="round" />

  <circle cx="287" cy="1761" r="9" stroke="#4B3425" stroke-width="2" stroke-linejoin="round" />

  <path d="M292 1763C292 1762.74 291.948 1762.48 291.848 1762.23C291.747 1761.99 291.6 1761.77 291.414 1761.59C291.228 1761.4 291.008 1761.25 290.765 1761.15C290.523 1761.05 290.263 1761 290 1761C289.737 1761 289.477 1761.05 289.235 1761.15C288.992 1761.25 288.772 1761.4 288.586 1761.59C288.4 1761.77 288.253 1761.99 288.152 1762.23C288.052 1762.48 288 1762.74 288 1763C288 1763.26 288.052 1763.52 288.152 1763.77C288.253 1764.01 288.4 1764.23 288.586 1764.41C288.772 1764.6 288.992 1764.75 289.235 1764.85C289.477 1764.95 289.737 1765 290 1765C290.263 1765 290.523 1764.95 290.765 1764.85C291.008 1764.75 291.228 1764.6 291.414 1764.41C291.6 1764.23 291.747 1764.01 291.848 1763.77C291.948 1763.52 292 1763.26 292 1763L292 1763Z" stroke="#9BB068" stroke-width="2" stroke-linejoin="round" />

  <path d="M286 1759C286 1758.74 285.948 1758.48 285.848 1758.23C285.747 1757.99 285.6 1757.77 285.414 1757.59C285.228 1757.4 285.008 1757.25 284.765 1757.15C284.523 1757.05 284.263 1757 284 1757C283.737 1757 283.477 1757.05 283.235 1757.15C282.992 1757.25 282.772 1757.4 282.586 1757.59C282.4 1757.77 282.253 1757.99 282.152 1758.23C282.052 1758.48 282 1758.74 282 1759C282 1759.26 282.052 1759.52 282.152 1759.77C282.253 1760.01 282.4 1760.23 282.586 1760.41C282.772 1760.6 282.992 1760.75 283.235 1760.85C283.477 1760.95 283.737 1761 284 1761C284.263 1761 284.523 1760.95 284.765 1760.85C285.008 1760.75 285.228 1760.6 285.414 1760.41C285.6 1760.23 285.747 1760.01 285.848 1759.77C285.948 1759.52 286 1759.26 286 1759L286 1759Z" stroke="#9BB068" stroke-width="2" stroke-linejoin="round" />

</svg>