<svg width="26.00" height="26.00" viewBox="473.00 2738.00 26.00 26.00" fill="none" xmlns="http://www.w3.org/2000/svg">
  <path d="M484 2751C484 2749.9 484.895 2749 486 2749C487.105 2749 488 2749.9 488 2751C488 2752.11 487.105 2753 486 2753C484.895 2753 484 2752.11 484 2751Z" fill="#4B3425" />

  <path fill-rule="evenodd" clip-rule="evenodd" d="M486 2742C484.896 2742 484 2742.9 484 2744C484 2744.8 483.031 2745.2 482.464 2744.64C481.683 2743.86 480.417 2743.86 479.636 2744.64C478.855 2745.42 478.855 2746.68 479.636 2747.46C480.203 2748.03 479.801 2749 479 2749C477.895 2749 477 2749.9 477 2751C477 2752.11 477.895 2753 479 2753C479.801 2753 480.203 2753.97 479.636 2754.54C478.855 2755.32 478.855 2756.58 479.636 2757.36C480.417 2758.15 481.683 2758.15 482.464 2757.36C483.031 2756.8 484 2757.2 484 2758C484 2759.11 484.896 2760 486 2760C487.105 2760 488 2759.11 488 2758C488 2757.2 488.969 2756.8 489.536 2757.36C490.317 2758.15 491.583 2758.15 492.364 2757.36C493.145 2756.58 493.145 2755.32 492.364 2754.54C491.797 2753.97 492.199 2753 493 2753C494.105 2753 495 2752.11 495 2751C495 2749.9 494.105 2749 493 2749C492.199 2749 491.797 2748.03 492.364 2747.46C493.145 2746.68 493.145 2745.42 492.364 2744.64C491.583 2743.86 490.317 2743.86 489.536 2744.64C488.969 2745.2 488 2744.8 488 2744C488 2742.9 487.105 2742 486 2742ZM486 2747C483.791 2747 482 2748.79 482 2751C482 2753.21 483.791 2755 486 2755C488.209 2755 490 2753.21 490 2751C490 2748.79 488.209 2747 486 2747Z" fill="#4B3425" />

</svg>