<svg width="23.93" height="27.32" viewBox="786.00 2833.34 23.93 27.32" fill="none" xmlns="http://www.w3.org/2000/svg">
  <path d="M797.929 2839.27C796.228 2839.73 794.725 2840.73 793.653 2842.13C792.581 2843.53 792 2845.24 792 2847C792 2848.76 792.581 2850.47 793.653 2851.87C794.725 2853.27 796.228 2854.27 797.929 2854.73L797.412 2856.66C795.285 2856.09 793.407 2854.83 792.066 2853.09C790.726 2851.34 790 2849.2 790 2847C790 2844.8 790.726 2842.66 792.066 2840.91C793.407 2839.17 795.285 2837.91 797.412 2837.34L797.929 2839.27Z" fill="#4B3425" />

  <path d="M805.929 2839.27C804.228 2839.73 802.725 2840.73 801.653 2842.13C800.581 2843.53 800 2845.24 800 2847C800 2848.76 800.581 2850.47 801.653 2851.87C802.725 2853.27 804.228 2854.27 805.929 2854.73L805.412 2856.66C803.285 2856.09 801.407 2854.83 800.066 2853.09C798.726 2851.34 798 2849.2 798 2847C798 2844.8 798.726 2842.66 800.066 2840.91C801.407 2839.17 803.285 2837.91 805.412 2837.34L805.929 2839.27Z" fill="#4B3425" />

</svg>