<svg width="24.00" height="19.52" viewBox="506.00 890.00 24.00 19.52" fill="none" xmlns="http://www.w3.org/2000/svg">
  <path d="M517 903H519" stroke="#4B3425" stroke-width="2" stroke-linejoin="round" />

  <path d="M522 899C522.396 899 522.782 899.117 523.111 899.337C523.44 899.557 523.696 899.869 523.848 900.235C523.999 900.6 524.039 901.002 523.962 901.39C523.884 901.778 523.694 902.135 523.414 902.414" stroke="#4B3425" stroke-width="2" stroke-linejoin="round" />

  <path d="M519 903C519.307 903 519.609 903.071 519.885 903.206C520.16 903.342 520.4 903.539 520.587 903.782C520.773 904.026 520.902 904.309 520.962 904.61C521.021 904.911 521.011 905.221 520.932 905.518" stroke="#4B3425" stroke-width="2" stroke-linejoin="round" />

  <path d="M517 903C516.693 903 516.391 903.071 516.115 903.206C515.84 903.342 515.6 903.539 515.413 903.782C515.227 904.026 515.098 904.309 515.038 904.61C514.979 904.911 514.989 905.221 515.068 905.518" stroke="#4B3425" stroke-width="2" stroke-linejoin="round" />

  <path d="M523 894C523.527 894 524.044 894.139 524.5 894.402C524.956 894.665 525.335 895.044 525.598 895.5C525.861 895.956 526 896.473 526 897C526 897.527 525.861 898.044 525.598 898.5" stroke="#4B3425" stroke-width="2" stroke-linejoin="round" />

  <path d="M513 894C512.473 894 511.956 894.139 511.5 894.402C511.044 894.665 510.665 895.044 510.402 895.5C510.139 895.956 510 896.473 510 897C510 897.527 510.139 898.044 510.402 898.5" stroke="#4B3425" stroke-width="2" stroke-linejoin="round" />

  <path d="M514 899C513.604 899 513.218 899.117 512.889 899.337C512.56 899.557 512.304 899.869 512.152 900.235C512.001 900.6 511.961 901.002 512.038 901.39C512.116 901.778 512.306 902.135 512.586 902.414" stroke="#4B3425" stroke-width="2" stroke-linejoin="round" />

  <path d="M514 899H522" stroke="#4B3425" stroke-width="2" stroke-linejoin="round" />

  <path d="M513 894H523" stroke="#4B3425" stroke-width="2" stroke-linejoin="round" />

</svg>