<svg width="26.21" height="26.10" viewBox="177.79 565.90 26.21 26.10" fill="none" xmlns="http://www.w3.org/2000/svg">
  <path d="M186.5 571.206C184.784 572.196 183.443 573.725 182.685 575.556C181.927 577.386 181.794 579.416 182.307 581.329C182.819 583.243 183.949 584.934 185.521 586.14C187.093 587.346 189.019 588 191 588" stroke="#4B3425" stroke-width="2" stroke-linejoin="round" />

  <path d="M188.671 570.307C190.004 569.949 191.402 569.904 192.756 570.173C194.11 570.442 195.384 571.019 196.479 571.86C197.574 572.7 198.461 573.781 199.072 575.019C199.682 576.258 200 577.62 200 579" stroke="#4B3425" stroke-width="2" stroke-linejoin="round" />

  <path d="M199.693 581.329C199.284 582.855 198.481 584.247 197.364 585.364C196.247 586.481 194.855 587.284 193.329 587.693" stroke="#4B3425" stroke-width="2" stroke-linejoin="round" />

</svg>