<svg width="30.77" height="29.65" viewBox="438.62 2799.39 30.77 29.65" fill="none" xmlns="http://www.w3.org/2000/svg">
  <path d="M452.184 2804.94C452.899 2803.39 455.101 2803.39 455.816 2804.94L457.481 2808.55C457.772 2809.18 458.371 2809.61 459.062 2809.7L463.009 2810.16C464.704 2810.36 465.384 2812.46 464.131 2813.62L461.213 2816.32C460.702 2816.79 460.474 2817.49 460.609 2818.17L461.384 2822.07C461.717 2823.75 459.935 2825.04 458.445 2824.21L454.977 2822.27C454.37 2821.93 453.63 2821.93 453.023 2822.27L449.555 2824.21C448.065 2825.04 446.283 2823.75 446.616 2822.07L447.391 2818.17C447.526 2817.49 447.298 2816.79 446.787 2816.32L443.869 2813.62C442.616 2812.46 443.296 2810.36 444.991 2810.16L448.938 2809.7C449.629 2809.61 450.228 2809.18 450.519 2808.55L452.184 2804.94Z" fill="#4B3425" />

</svg>