<svg width="26.00" height="26.00" viewBox="1083.00 502.00 26.00 26.00" fill="none" xmlns="http://www.w3.org/2000/svg">
  <path d="M1098.5 523.33C1099.26 522.891 1099.89 522.26 1100.33 521.5L1096 517L1091.67 521.5C1092.11 522.26 1092.74 522.891 1093.5 523.33C1094.26 523.769 1095.12 524 1096 524C1096.88 524 1097.74 523.769 1098.5 523.33Z" stroke="#4B3425" stroke-width="2" stroke-linejoin="round" />

  <path d="M1098.5 506.67C1099.26 507.109 1099.89 507.74 1100.33 508.5L1096 513L1091.67 508.5C1092.11 507.74 1092.74 507.109 1093.5 506.67C1094.26 506.231 1095.12 506 1096 506C1096.88 506 1097.74 506.231 1098.5 506.67Z" stroke="#4B3425" stroke-width="2" stroke-linejoin="round" />

  <path d="M1104.33 517.5C1103.89 518.26 1103.26 518.891 1102.5 519.33L1098 515L1102.5 510.67C1103.26 511.109 1103.89 511.74 1104.33 512.5C1104.77 513.26 1105 514.122 1105 515C1105 515.878 1104.77 516.74 1104.33 517.5Z" stroke="#4B3425" stroke-width="2" stroke-linejoin="round" />

  <path d="M1087.67 517.5C1088.11 518.26 1088.74 518.891 1089.5 519.33L1094 515L1089.5 510.67C1088.74 511.109 1088.11 511.74 1087.67 512.5C1087.23 513.26 1087 514.122 1087 515C1087 515.878 1087.23 516.74 1087.67 517.5Z" stroke="#4B3425" stroke-width="2" stroke-linejoin="round" />

</svg>