<svg width="20.00" height="22.00" viewBox="149.00 2771.00 20.00 22.00" fill="none" xmlns="http://www.w3.org/2000/svg">
  <path fill-rule="evenodd" clip-rule="evenodd" d="M162 2775C160.343 2775 159 2776.34 159 2778C159 2779.66 160.343 2781 162 2781C163.657 2781 165 2779.66 165 2778C165 2776.34 163.657 2775 162 2775ZM161 2778C161 2777.45 161.448 2777 162 2777C162.552 2777 163 2777.45 163 2778C163 2778.55 162.552 2779 162 2779C161.448 2779 161 2778.55 161 2778Z" fill="#4B3425" />

  <path fill-rule="evenodd" clip-rule="evenodd" d="M153 2782C153 2780.34 154.343 2779 156 2779C157.657 2779 159 2780.34 159 2782C159 2783.66 157.657 2785 156 2785C154.343 2785 153 2783.66 153 2782ZM156 2781C155.448 2781 155 2781.45 155 2782C155 2782.55 155.448 2783 156 2783C156.552 2783 157 2782.55 157 2782C157 2781.45 156.552 2781 156 2781Z" fill="#4B3425" />

  <path fill-rule="evenodd" clip-rule="evenodd" d="M162 2783C160.343 2783 159 2784.34 159 2786C159 2787.66 160.343 2789 162 2789C163.657 2789 165 2787.66 165 2786C165 2784.34 163.657 2783 162 2783ZM161 2786C161 2785.45 161.448 2785 162 2785C162.552 2785 163 2785.45 163 2786C163 2786.55 162.552 2787 162 2787C161.448 2787 161 2786.55 161 2786Z" fill="#4B3425" />

</svg>