<svg width="12.00" height="12.00" viewBox="147.00 731.00 12.00 12.00" fill="none" xmlns="http://www.w3.org/2000/svg">
  <path d="M155 737C155 736.737 154.948 736.477 154.848 736.235C154.747 735.992 154.6 735.772 154.414 735.586C154.228 735.4 154.008 735.253 153.765 735.152C153.523 735.052 153.263 735 153 735C152.737 735 152.477 735.052 152.235 735.152C151.992 735.253 151.772 735.4 151.586 735.586C151.4 735.772 151.253 735.992 151.152 736.235C151.052 736.477 151 736.737 151 737C151 737.263 151.052 737.523 151.152 737.765C151.253 738.008 151.4 738.228 151.586 738.414C151.772 738.6 151.992 738.747 152.235 738.848C152.477 738.948 152.737 739 153 739C153.263 739 153.523 738.948 153.765 738.848C154.008 738.747 154.228 738.6 154.414 738.414C154.6 738.228 154.747 738.008 154.848 737.765C154.948 737.523 155 737.263 155 737L155 737Z" stroke="#4B3425" stroke-width="2" stroke-linejoin="round" />

</svg>