<svg width="27.32" height="23.93" viewBox="752.34 2835.07 27.32 23.93" fill="none" xmlns="http://www.w3.org/2000/svg">
  <path d="M773.727 2839.07C773.272 2840.77 772.267 2842.28 770.87 2843.35C769.473 2844.42 767.761 2845 766 2845C764.239 2845 762.527 2844.42 761.13 2843.35C759.733 2842.28 758.728 2840.77 758.273 2839.07L756.341 2839.59C756.911 2841.72 758.166 2843.59 759.912 2844.93C761.659 2846.27 763.799 2847 766 2847C768.201 2847 770.341 2846.27 772.088 2844.93C773.834 2843.59 775.09 2841.72 775.659 2839.59L773.727 2839.07Z" fill="#4B3425" />

  <path d="M773.727 2847.07C773.272 2848.77 772.267 2850.28 770.87 2851.35C769.473 2852.42 767.761 2853 766 2853C764.239 2853 762.527 2852.42 761.13 2851.35C759.733 2850.28 758.728 2848.77 758.273 2847.07L756.341 2847.59C756.911 2849.72 758.166 2851.59 759.912 2852.93C761.659 2854.27 763.799 2855 766 2855C768.201 2855 770.341 2854.27 772.088 2852.93C773.834 2851.59 775.09 2849.72 775.659 2847.59L773.727 2847.07Z" fill="#4B3425" />

</svg>