<svg width="24.00" height="19.52" viewBox="506.00 1976.00 24.00 19.52" fill="none" xmlns="http://www.w3.org/2000/svg">
  <path d="M517 1989H519" stroke="#4B3425" stroke-width="2" stroke-linejoin="round" />

  <path d="M522 1985C522.396 1985 522.782 1985.12 523.111 1985.34C523.44 1985.56 523.696 1985.87 523.848 1986.23C523.999 1986.6 524.039 1987 523.962 1987.39C523.884 1987.78 523.694 1988.13 523.414 1988.41" stroke="#9BB068" stroke-width="2" stroke-linejoin="round" />

  <path d="M519 1989C519.307 1989 519.609 1989.07 519.885 1989.21C520.16 1989.34 520.4 1989.54 520.587 1989.78C520.773 1990.03 520.902 1990.31 520.962 1990.61C521.021 1990.91 521.011 1991.22 520.932 1991.52" stroke="#4B3425" stroke-width="2" stroke-linejoin="round" />

  <path d="M517 1989C516.693 1989 516.391 1989.07 516.115 1989.21C515.84 1989.34 515.6 1989.54 515.413 1989.78C515.227 1990.03 515.098 1990.31 515.038 1990.61C514.979 1990.91 514.989 1991.22 515.068 1991.52" stroke="#4B3425" stroke-width="2" stroke-linejoin="round" />

  <path d="M523 1980C523.527 1980 524.044 1980.14 524.5 1980.4C524.956 1980.67 525.335 1981.04 525.598 1981.5C525.861 1981.96 526 1982.47 526 1983C526 1983.53 525.861 1984.04 525.598 1984.5" stroke="#4B3425" stroke-width="2" stroke-linejoin="round" />

  <path d="M513 1980C512.473 1980 511.956 1980.14 511.5 1980.4C511.044 1980.67 510.665 1981.04 510.402 1981.5C510.139 1981.96 510 1982.47 510 1983C510 1983.53 510.139 1984.04 510.402 1984.5" stroke="#4B3425" stroke-width="2" stroke-linejoin="round" />

  <path d="M514 1985C513.604 1985 513.218 1985.12 512.889 1985.34C512.56 1985.56 512.304 1985.87 512.152 1986.23C512.001 1986.6 511.961 1987 512.038 1987.39C512.116 1987.78 512.306 1988.13 512.586 1988.41" stroke="#9BB068" stroke-width="2" stroke-linejoin="round" />

  <path d="M514 1985H522" stroke="#9BB068" stroke-width="2" stroke-linejoin="round" />

  <path d="M513 1980H523" stroke="#4B3425" stroke-width="2" stroke-linejoin="round" />

</svg>