<svg width="32.00" height="32.00" viewBox="463.00 3833.00 32.00 32.00" fill="none" xmlns="http://www.w3.org/2000/svg">
  <rect x="467" y="3837" width="24" height="24" rx="12" fill="#E5EAD7" />

  <circle cx="479.188" cy="3849" r="10.5" stroke="#E5EAD7" stroke-width="3" />

  <path fill-rule="evenodd" clip-rule="evenodd" d="M479 3841C477.596 3841 476.216 3841.37 475 3842.07C473.784 3842.77 472.774 3843.78 472.072 3845C471.37 3846.22 471 3847.6 471 3849C471 3850.41 471.37 3851.78 472.072 3853L468.608 3855C467.554 3853.18 467 3851.11 467 3849C467 3846.89 467.554 3844.82 468.608 3843C469.661 3841.18 471.176 3839.66 473 3838.61C474.824 3837.56 476.894 3837 479 3837C481.106 3837 483.176 3837.56 485 3838.61C486.824 3839.66 488.339 3841.18 489.392 3843C490.446 3844.82 491 3846.89 491 3849C491 3851.11 490.446 3853.18 489.392 3855L485.928 3853C486.63 3851.78 487 3850.41 487 3849C487 3847.6 486.63 3846.22 485.928 3845C485.226 3843.78 484.216 3842.77 483 3842.07C481.784 3841.37 480.404 3841 479 3841Z" fill="#9BB068" />

  <rect x="467" y="3837" width="24" height="24" rx="12" fill="white" />

</svg>