<svg width="26.00" height="24.00" viewBox="146.00 2132.00 26.00 24.00" fill="none" xmlns="http://www.w3.org/2000/svg">
  <path d="M156 2142H162" stroke="#9BB068" stroke-width="2" stroke-linejoin="round" />

  <path d="M159 2139L159 2145" stroke="#9BB068" stroke-width="2" stroke-linejoin="round" />

  <path d="M165 2142C165 2141.21 164.845 2140.43 164.543 2139.7C164.242 2138.98 163.8 2138.31 163.243 2137.76C162.685 2137.2 162.024 2136.76 161.296 2136.46C160.568 2136.16 159.788 2136 159 2136C158.212 2136 157.432 2136.16 156.704 2136.46C155.976 2136.76 155.315 2137.2 154.757 2137.76C154.2 2138.31 153.758 2138.98 153.457 2139.7C153.155 2140.43 153 2141.21 153 2142" stroke="#4B3425" stroke-width="2" stroke-linejoin="round" />

  <path d="M150 2152H168" stroke="#4B3425" stroke-width="2" stroke-linejoin="round" />

</svg>