<svg width="28.00" height="15.00" viewBox="273.00 2678.00 28.00 15.00" fill="none" xmlns="http://www.w3.org/2000/svg">
  <path d="M290 2682C290 2682.8 289.684 2683.56 289.121 2684.12C288.559 2684.68 287.796 2685 287 2685C286.204 2685 285.441 2684.68 284.879 2684.12C284.316 2683.56 284 2682.8 284 2682L287 2682L290 2682Z" fill="#4B3425" />

  <path d="M295 2688H297" stroke="#4B3425" stroke-width="2" stroke-linejoin="round" />

  <path d="M277 2688L279 2688" stroke="#4B3425" stroke-width="2" stroke-linejoin="round" />

  <circle cx="284" cy="2688" r="1" fill="#4B3425" />

  <circle cx="290" cy="2688" r="1" fill="#4B3425" />

  <path d="M290 2682C290 2682.8 289.684 2683.56 289.121 2684.12C288.559 2684.68 287.796 2685 287 2685C286.204 2685 285.441 2684.68 284.879 2684.12C284.316 2683.56 284 2682.8 284 2682" stroke="#4B3425" stroke-width="2" stroke-linejoin="round" />

</svg>