<svg width="28.00" height="28.00" viewBox="472.00 3089.00 28.00 28.00" fill="none" xmlns="http://www.w3.org/2000/svg">
  <path d="M487 3094C487 3094.55 486.552 3095 486 3095C485.448 3095 485 3094.55 485 3094C485 3093.45 485.448 3093 486 3093C486.552 3093 487 3093.45 487 3094Z" fill="#4B3425" />

  <path d="M486 3096C482.134 3096 479 3099.13 479 3103C479 3106.87 482.134 3110 486 3110C489.866 3110 493 3106.87 493 3103C493 3099.13 489.866 3096 486 3096Z" fill="#4B3425" />

  <path d="M486 3113C486.552 3113 487 3112.55 487 3112C487 3111.45 486.552 3111 486 3111C485.448 3111 485 3111.45 485 3112C485 3112.55 485.448 3113 486 3113Z" fill="#4B3425" />

  <path d="M495 3104C494.448 3104 494 3103.55 494 3103C494 3102.45 494.448 3102 495 3102C495.552 3102 496 3102.45 496 3103C496 3103.55 495.552 3104 495 3104Z" fill="#4B3425" />

  <path d="M476 3103C476 3103.55 476.448 3104 477 3104C477.552 3104 478 3103.55 478 3103C478 3102.45 477.552 3102 477 3102C476.448 3102 476 3102.45 476 3103Z" fill="#4B3425" />

  <path d="M493.071 3097.34C492.681 3097.73 492.047 3097.73 491.657 3097.34C491.266 3096.95 491.266 3096.32 491.657 3095.93C492.047 3095.54 492.681 3095.54 493.071 3095.93C493.462 3096.32 493.462 3096.95 493.071 3097.34Z" fill="#4B3425" />

  <path d="M478.929 3110.07C479.319 3110.46 479.953 3110.46 480.343 3110.07C480.734 3109.68 480.734 3109.05 480.343 3108.66C479.953 3108.27 479.319 3108.27 478.929 3108.66C478.538 3109.05 478.538 3109.68 478.929 3110.07Z" fill="#4B3425" />

  <path d="M478.929 3097.34C479.319 3097.73 479.953 3097.73 480.343 3097.34C480.734 3096.95 480.734 3096.32 480.343 3095.93C479.953 3095.54 479.319 3095.54 478.929 3095.93C478.538 3096.32 478.538 3096.95 478.929 3097.34Z" fill="#4B3425" />

  <path d="M493.071 3110.07C492.681 3110.46 492.047 3110.46 491.657 3110.07C491.266 3109.68 491.266 3109.05 491.657 3108.66C492.047 3108.27 492.681 3108.27 493.071 3108.66C493.462 3109.05 493.462 3109.68 493.071 3110.07Z" fill="#4B3425" />

</svg>