<svg width="28.00" height="28.00" viewBox="536.00 3025.00 28.00 28.00" fill="none" xmlns="http://www.w3.org/2000/svg">
  <path d="M560 3039C560 3040.64 559.606 3042.18 558.909 3043.55C558.004 3042.3 556.843 3041.25 555.5 3040.47C554.51 3039.9 553.441 3039.49 552.332 3039.25C553.342 3038.52 554 3037.34 554 3036C554 3033.79 552.209 3032 550 3032C547.791 3032 546 3033.79 546 3036C546 3037.34 546.658 3038.52 547.668 3039.25C546.559 3039.49 545.49 3039.9 544.5 3040.47C543.157 3041.25 541.996 3042.3 541.091 3043.55C540.394 3042.18 540 3040.64 540 3039C540 3033.48 544.477 3029 550 3029C555.523 3029 560 3033.48 560 3039Z" fill="#4B3425" />

  <path d="M554.5 3042.21C555.823 3042.97 556.928 3044.06 557.714 3045.36C555.88 3047.59 553.105 3049 550 3049C546.895 3049 544.12 3047.59 542.286 3045.36C543.072 3044.06 544.177 3042.97 545.5 3042.21C546.868 3041.42 548.42 3041 550 3041C551.58 3041 553.132 3041.42 554.5 3042.21Z" fill="#4B3425" />

  <path d="M548 3036C548 3034.9 548.895 3034 550 3034C551.105 3034 552 3034.9 552 3036C552 3037.11 551.105 3038 550 3038C548.895 3038 548 3037.11 548 3036Z" fill="#4B3425" />

</svg>