<svg width="26.00" height="26.00" viewBox="146.00 1110.00 26.00 26.00" fill="none" xmlns="http://www.w3.org/2000/svg">
  <circle cx="159" cy="1123" r="9" stroke="#4B3425" stroke-width="2" />

  <path d="M163.83 1124.29C163.545 1125.36 162.917 1126.3 162.044 1126.97C161.171 1127.64 160.101 1128 159 1128C157.899 1128 156.829 1127.64 155.956 1126.97C155.083 1126.3 154.455 1125.36 154.17 1124.29" stroke="#4B3425" stroke-width="2" />

  <path d="M157 1121.5C157 1121.3 156.961 1121.11 156.886 1120.93C156.81 1120.74 156.7 1120.58 156.561 1120.44C156.421 1120.3 156.256 1120.19 156.074 1120.11C155.892 1120.04 155.697 1120 155.5 1120C155.303 1120 155.108 1120.04 154.926 1120.11C154.744 1120.19 154.579 1120.3 154.439 1120.44C154.3 1120.58 154.19 1120.74 154.114 1120.93C154.039 1121.11 154 1121.3 154 1121.5" stroke="#4B3425" stroke-width="2" />

  <path d="M164 1121.5C164 1121.3 163.961 1121.11 163.886 1120.93C163.81 1120.74 163.7 1120.58 163.561 1120.44C163.421 1120.3 163.256 1120.19 163.074 1120.11C162.892 1120.04 162.697 1120 162.5 1120C162.303 1120 162.108 1120.04 161.926 1120.11C161.744 1120.19 161.579 1120.3 161.439 1120.44C161.3 1120.58 161.19 1120.74 161.114 1120.93C161.039 1121.11 161 1121.3 161 1121.5" stroke="#4B3425" stroke-width="2" />

</svg>