<svg width="28.23" height="28.11" viewBox="176.77 2736.89 28.23 28.11" fill="none" xmlns="http://www.w3.org/2000/svg">
  <path d="M192.561 2743.15C191.357 2742.91 190.115 2742.96 188.929 2743.27L188.412 2741.34C189.893 2740.94 191.447 2740.89 192.951 2741.19C194.455 2741.49 195.871 2742.13 197.088 2743.07C198.305 2744 199.29 2745.2 199.969 2746.58C200.647 2747.95 201 2749.47 201 2751L199 2751C199 2749.77 198.718 2748.56 198.175 2747.46C197.632 2746.36 196.844 2745.4 195.87 2744.65C194.897 2743.91 193.764 2743.39 192.561 2743.15Z" fill="#4B3425" />

  <path d="M181.761 2747.17C182.604 2745.14 184.094 2743.44 186 2742.34L187 2744.07C185.475 2744.95 184.283 2746.31 183.609 2747.94C182.935 2749.57 182.817 2751.37 183.273 2753.07C183.728 2754.77 184.733 2756.28 186.13 2757.35C187.527 2758.42 189.239 2759 191 2759L191 2761C188.799 2761 186.659 2760.27 184.912 2758.93C183.166 2757.59 181.91 2755.72 181.341 2753.59C180.771 2751.46 180.919 2749.21 181.761 2747.17Z" fill="#4B3425" />

  <path d="M198.727 2753.07C198.364 2754.43 197.65 2755.66 196.657 2756.66C195.664 2757.65 194.427 2758.36 193.071 2758.73L193.588 2760.66C195.284 2760.21 196.83 2759.31 198.071 2758.07C199.312 2756.83 200.205 2755.28 200.659 2753.59L198.727 2753.07Z" fill="#4B3425" />

</svg>