<svg width="25.19" height="22.85" viewBox="178.41 888.89 25.19 22.85" fill="none" xmlns="http://www.w3.org/2000/svg">
  <path d="M198.106 895.106L197 894C195.895 892.895 194.105 892.895 193 894C191.895 895.105 190.105 895.105 189 894C187.895 892.895 186.105 892.895 185 894L183.894 895.106C182.748 896.252 182.407 897.977 183.03 899.473L185.697 905.873C186.318 907.363 188.254 907.746 189.396 906.604C190.282 905.718 191.718 905.718 192.604 906.604C193.746 907.746 195.682 907.363 196.303 905.873L198.97 899.473C199.593 897.977 199.252 896.252 198.106 895.106Z" stroke="#4B3425" stroke-width="2" stroke-linejoin="round" />

  <circle cx="193" cy="900" r="1" fill="#4B3425" />

  <circle cx="189" cy="900" r="1" fill="#4B3425" />

</svg>