<svg width="21.52" height="19.71" viewBox="723.24 2805.00 21.52 19.71" fill="none" xmlns="http://www.w3.org/2000/svg">
  <path d="M740.761 2814.19C740.363 2812.7 739.484 2811.39 738.261 2810.45C737.039 2809.51 735.541 2809 734 2809C732.459 2809 730.961 2809.51 729.739 2810.45C728.516 2811.39 727.637 2812.7 727.239 2814.19L729.17 2814.71C729.455 2813.64 730.083 2812.7 730.956 2812.03C731.829 2811.36 732.899 2811 734 2811C735.101 2811 736.171 2811.36 737.044 2812.03C737.917 2812.7 738.545 2813.64 738.83 2814.71L740.761 2814.19Z" fill="#4B3425" />

  <path d="M740.761 2820.19C740.363 2818.7 739.484 2817.39 738.261 2816.45C737.039 2815.51 735.541 2815 734 2815C732.459 2815 730.961 2815.51 729.739 2816.45C728.516 2817.39 727.637 2818.7 727.239 2820.19L729.17 2820.71C729.455 2819.64 730.083 2818.7 730.956 2818.03C731.829 2817.36 732.899 2817 734 2817C735.101 2817 736.171 2817.36 737.044 2818.03C737.917 2818.7 738.545 2819.64 738.83 2820.71L740.761 2820.19Z" fill="#4B3425" />

</svg>