<svg width="26.00" height="24.00" viewBox="146.00 1046.00 26.00 24.00" fill="none" xmlns="http://www.w3.org/2000/svg">
  <path d="M156 1056H162" stroke="#4B3425" stroke-width="2" stroke-linejoin="round" />

  <path d="M159 1053L159 1059" stroke="#4B3425" stroke-width="2" stroke-linejoin="round" />

  <path d="M165 1056C165 1055.21 164.845 1054.43 164.543 1053.7C164.242 1052.98 163.8 1052.31 163.243 1051.76C162.685 1051.2 162.024 1050.76 161.296 1050.46C160.568 1050.16 159.788 1050 159 1050C158.212 1050 157.432 1050.16 156.704 1050.46C155.976 1050.76 155.315 1051.2 154.757 1051.76C154.2 1052.31 153.758 1052.98 153.457 1053.7C153.155 1054.43 153 1055.21 153 1056" stroke="#4B3425" stroke-width="2" stroke-linejoin="round" />

  <path d="M150 1066H168" stroke="#4B3425" stroke-width="2" stroke-linejoin="round" />

</svg>