<svg width="25.00" height="25.00" viewBox="538.00 822.00 25.00 25.00" fill="none" xmlns="http://www.w3.org/2000/svg">
  <path d="M542 829C542 830.839 542.362 832.659 543.066 834.358C543.769 836.056 544.8 837.599 546.101 838.9C547.401 840.2 548.944 841.231 550.642 841.934C552.341 842.638 554.162 843 556 843" stroke="#4B3425" stroke-width="2" stroke-linejoin="round" />

  <path d="M542 829C542 827.343 543.343 826 545 826C546.657 826 548 827.343 548 829C548 830.657 546.657 832 545 832C543.343 832 542 830.657 542 829Z" stroke="#4B3425" stroke-width="2" stroke-linejoin="round" />

  <path d="M553 840C553 838.343 554.343 837 556 837C557.657 837 559 838.343 559 840C559 841.657 557.657 843 556 843C554.343 843 553 841.657 553 840Z" stroke="#4B3425" stroke-width="2" stroke-linejoin="round" />

</svg>