<svg width="26.00" height="23.00" viewBox="274.00 2168.00 26.00 23.00" fill="none" xmlns="http://www.w3.org/2000/svg">
  <path d="M278 2175C280.209 2175 282 2176.79 282 2179" stroke="#4B3425" stroke-width="2" stroke-linejoin="round" />

  <path d="M278 2179H296" stroke="#4B3425" stroke-width="2" stroke-linejoin="round" />

  <path d="M293 2172L285 2172" stroke="#9BB068" stroke-width="2" stroke-linejoin="round" />

  <path d="M278 2187C278 2186.2 278.316 2185.44 278.879 2184.88C279.441 2184.32 280.204 2184 281 2184C281.796 2184 282.559 2184.32 283.121 2184.88C283.684 2185.44 284 2186.2 284 2187" stroke="#4B3425" stroke-width="2" stroke-linejoin="round" />

  <path d="M290 2187C290 2186.2 290.316 2185.44 290.879 2184.88C291.441 2184.32 292.204 2184 293 2184C293.796 2184 294.559 2184.32 295.121 2184.88C295.684 2185.44 296 2186.2 296 2187" stroke="#4B3425" stroke-width="2" stroke-linejoin="round" />

</svg>