<svg width="13.12" height="13.12" viewBox="191.07 2897.81 13.12 13.12" fill="none" xmlns="http://www.w3.org/2000/svg">
  <path d="M195.95 2906.05C195.671 2905.77 195.45 2905.44 195.299 2905.08C195.149 2904.71 195.071 2904.32 195.071 2903.93C195.071 2903.54 195.149 2903.15 195.299 2902.78C195.45 2902.42 195.671 2902.09 195.95 2901.81L197.364 2903.22C197.271 2903.32 197.197 2903.43 197.147 2903.55C197.097 2903.67 197.071 2903.8 197.071 2903.93C197.071 2904.06 197.097 2904.19 197.147 2904.31C197.197 2904.43 197.271 2904.54 197.364 2904.64C197.457 2904.73 197.567 2904.8 197.688 2904.85C197.81 2904.9 197.94 2904.93 198.071 2904.93C198.202 2904.93 198.332 2904.9 198.454 2904.85C198.575 2904.8 198.685 2904.73 198.778 2904.64L200.192 2906.05C199.914 2906.33 199.583 2906.55 199.219 2906.7C198.855 2906.85 198.465 2906.93 198.071 2906.93C197.677 2906.93 197.287 2906.85 196.923 2906.7C196.559 2906.55 196.228 2906.33 195.95 2906.05Z" fill="#4B3425" />

</svg>