<svg width="26.17" height="26.17" viewBox="472.83 886.00 26.17 26.17" fill="none" xmlns="http://www.w3.org/2000/svg">
  <path d="M495 899C495 900.78 494.472 902.52 493.483 904C492.494 905.48 491.089 906.634 489.444 907.315C487.8 907.996 485.99 908.174 484.244 907.827C482.498 907.48 480.895 906.623 479.636 905.364C478.377 904.105 477.52 902.502 477.173 900.756C476.826 899.01 477.004 897.2 477.685 895.556C478.366 893.911 479.52 892.506 481 891.517C482.48 890.528 484.22 890 486 890" stroke="#4B3425" stroke-width="2" stroke-linejoin="round" />

  <path d="M489 896C490.105 897.105 491.895 897.105 493 896C494.105 894.895 494.105 893.105 493 892C491.895 890.895 490.105 890.895 489 892C487.895 893.105 487.895 894.895 489 896Z" stroke="#4B3425" stroke-width="2" stroke-linejoin="round" />

</svg>