<svg width="27.41" height="27.42" viewBox="209.29 2929.29 27.41 27.42" fill="none" xmlns="http://www.w3.org/2000/svg">
  <path fill-rule="evenodd" clip-rule="evenodd" d="M224.586 2936L223.293 2934.71L224.707 2933.29L226.568 2935.15C226.845 2935.43 227 2935.81 227 2936.2C227 2937.75 228.255 2939 229.803 2939C230.194 2939 230.57 2939.16 230.846 2939.43L232.707 2941.29L231.293 2942.71L230 2941.41L222.707 2948.71C221.457 2949.96 219.556 2950.16 218.093 2949.32L214.707 2952.71L213.293 2951.29L216.679 2947.91C215.838 2946.44 216.042 2944.54 217.293 2943.29L224.586 2936ZM225.369 2938.05L222.414 2941L225 2943.59L227.954 2940.63C226.788 2940.15 225.855 2939.21 225.369 2938.05ZM223.586 2945L221 2942.41L218.707 2944.71C217.993 2945.42 217.993 2946.58 218.707 2947.29C219.421 2948.01 220.579 2948.01 221.293 2947.29L223.586 2945Z" fill="#4B3425" />

</svg>