<svg width="26.00" height="28.00" viewBox="505.00 2961.00 26.00 28.00" fill="none" xmlns="http://www.w3.org/2000/svg">
  <path d="M527 2969C527 2971.21 525.209 2973 523 2973C521.873 2973 520.854 2972.53 520.127 2971.78L516.863 2973.96C516.952 2974.29 517 2974.64 517 2975C517 2975.46 516.924 2975.9 516.783 2976.3L520.071 2978.28C520.801 2977.49 521.843 2977 523 2977C525.209 2977 527 2978.79 527 2981C527 2983.21 525.209 2985 523 2985C520.791 2985 519 2983.21 519 2981C519 2980.67 519.041 2980.35 519.117 2980.04L515.677 2977.97C514.968 2978.61 514.029 2979 513 2979C510.791 2979 509 2977.21 509 2975C509 2972.79 510.791 2971 513 2971C514.127 2971 515.146 2971.47 515.873 2972.22L519.137 2970.04C519.048 2969.71 519 2969.36 519 2969C519 2966.79 520.791 2965 523 2965C525.209 2965 527 2966.79 527 2969Z" fill="#4B3425" />

</svg>