<svg width="20.00" height="26.00" viewBox="444.00 662.00 20.00 26.00" fill="none" xmlns="http://www.w3.org/2000/svg">
  <rect x="448" y="666" width="12" height="18" rx="4" stroke="#4B3425" stroke-width="2" stroke-linejoin="round" />

  <path d="M457 666C457 666.394 456.922 666.784 456.772 667.148C456.621 667.512 456.4 667.843 456.121 668.121C455.843 668.4 455.512 668.621 455.148 668.772C454.784 668.922 454.394 669 454 669C453.606 669 453.216 668.922 452.852 668.772C452.488 668.621 452.157 668.4 451.879 668.121C451.6 667.843 451.379 667.512 451.228 667.148C451.078 666.784 451 666.394 451 666" stroke="#4B3425" stroke-width="2" stroke-linejoin="round" />

  <circle cx="454" cy="680" r="1" fill="#4B3425" />

</svg>