<svg width="21.00" height="20.06" viewBox="216.00 1812.00 21.00 20.06" fill="none" xmlns="http://www.w3.org/2000/svg">
  <path d="M226 1816C226 1816.39 225.922 1816.78 225.772 1817.15C225.621 1817.51 225.4 1817.84 225.121 1818.12C224.843 1818.4 224.512 1818.62 224.148 1818.77C223.784 1818.92 223.394 1819 223 1819C222.606 1819 222.216 1818.92 221.852 1818.77C221.488 1818.62 221.157 1818.4 220.879 1818.12C220.6 1817.84 220.379 1817.51 220.228 1817.15C220.078 1816.78 220 1816.39 220 1816" stroke="#4B3425" stroke-width="2" stroke-linejoin="round" />

  <path d="M222 1825C222 1825.59 222.176 1826.17 222.506 1826.67C222.835 1827.16 223.304 1827.54 223.852 1827.77C224.4 1828 225.003 1828.06 225.585 1827.94C226.167 1827.83 226.702 1827.54 227.121 1827.12L233 1821" stroke="#9BB068" stroke-width="2" stroke-linejoin="round" />

</svg>