<svg width="21.52" height="19.71" viewBox="755.24 2805.29 21.52 19.71" fill="none" xmlns="http://www.w3.org/2000/svg">
  <path d="M772.761 2809.81C772.363 2811.3 771.484 2812.62 770.261 2813.55C769.039 2814.49 767.541 2815 766 2815C764.459 2815 762.961 2814.49 761.739 2813.55C760.516 2812.62 759.637 2811.3 759.239 2809.81L761.17 2809.29C761.455 2810.36 762.083 2811.3 762.956 2811.97C763.829 2812.64 764.899 2813 766 2813C767.101 2813 768.171 2812.64 769.044 2811.97C769.917 2811.3 770.545 2810.36 770.83 2809.29L772.761 2809.81Z" fill="#4B3425" />

  <path d="M772.761 2815.81C772.363 2817.3 771.484 2818.62 770.261 2819.55C769.039 2820.49 767.541 2821 766 2821C764.459 2821 762.961 2820.49 761.739 2819.55C760.516 2818.62 759.637 2817.3 759.239 2815.81L761.17 2815.29C761.455 2816.36 762.083 2817.3 762.956 2817.97C763.829 2818.64 764.899 2819 766 2819C767.101 2819 768.171 2818.64 769.044 2817.97C769.917 2817.3 770.545 2816.36 770.83 2815.29L772.761 2815.81Z" fill="#4B3425" />

</svg>