<svg width="27.00" height="16.00" viewBox="569.00 1881.00 27.00 16.00" fill="none" xmlns="http://www.w3.org/2000/svg">
  <path d="M585 1890C585 1890.26 585.052 1890.52 585.152 1890.77C585.253 1891.01 585.4 1891.23 585.586 1891.41C585.772 1891.6 585.992 1891.75 586.235 1891.85C586.477 1891.95 586.737 1892 587 1892" stroke="#9BB068" stroke-width="2" stroke-linejoin="round" />

  <path d="M589 1890C589 1890.26 589.052 1890.52 589.152 1890.77C589.253 1891.01 589.4 1891.23 589.586 1891.41C589.772 1891.6 589.992 1891.75 590.235 1891.85C590.477 1891.95 590.737 1892 591 1892" stroke="#9BB068" stroke-width="2" stroke-linejoin="round" />

  <circle cx="577" cy="1889" r="4" stroke="#4B3425" stroke-width="2" stroke-linejoin="round" />

  <path d="M581 1889H592" stroke="#4B3425" stroke-width="2" stroke-linejoin="round" />

  <circle cx="577" cy="1889" r="1" fill="#4B3425" />

</svg>