<svg width="19.00" height="21.00" viewBox="246.00 1654.00 19.00 21.00" fill="none" xmlns="http://www.w3.org/2000/svg">
  <path d="M254 1667C254 1666.47 253.789 1665.96 253.414 1665.59C253.039 1665.21 252.53 1665 252 1665C251.47 1665 250.961 1665.21 250.586 1665.59C250.211 1665.96 250 1666.47 250 1667" stroke="#9BB068" stroke-width="2" stroke-linejoin="round" />

  <path d="M254 1660C254 1659.47 253.789 1658.96 253.414 1658.59C253.039 1658.21 252.53 1658 252 1658C251.47 1658 250.961 1658.21 250.586 1658.59C250.211 1658.96 250 1659.47 250 1660" stroke="#9BB068" stroke-width="2" stroke-linejoin="round" />

  <path d="M261 1671C261 1670.47 260.789 1669.96 260.414 1669.59C260.039 1669.21 259.53 1669 259 1669C258.47 1669 257.961 1669.21 257.586 1669.59C257.211 1669.96 257 1670.47 257 1671" stroke="#9BB068" stroke-width="2" stroke-linejoin="round" />

  <path d="M261 1664C261 1663.47 260.789 1662.96 260.414 1662.59C260.039 1662.21 259.53 1662 259 1662C258.47 1662 257.961 1662.21 257.586 1662.59C257.211 1662.96 257 1663.47 257 1664" stroke="#9BB068" stroke-width="2" stroke-linejoin="round" />

</svg>