<svg width="26.25" height="26.38" viewBox="752.92 1875.81 26.25 26.38" fill="none" xmlns="http://www.w3.org/2000/svg">
  <path d="M759.636 1895.36C760.966 1896.69 762.679 1897.57 764.534 1897.88C766.389 1898.19 768.294 1897.9 769.981 1897.07C771.667 1896.24 773.051 1894.9 773.937 1893.24C774.824 1891.58 775.168 1889.69 774.923 1887.83C774.678 1885.96 773.854 1884.22 772.569 1882.85C771.283 1881.48 769.6 1880.54 767.756 1880.17C765.911 1879.81 763.999 1880.03 762.286 1880.8C760.573 1881.58 759.146 1882.87 758.206 1884.5" stroke="#4B3425" stroke-width="2" stroke-linejoin="round" />

  <path d="M757.536 1880C757.096 1880.76 756.919 1881.65 757.034 1882.52C757.149 1883.4 757.549 1884.21 758.172 1884.83C758.794 1885.45 759.605 1885.85 760.478 1885.97C761.351 1886.08 762.237 1885.9 763 1885.46" stroke="#9BB068" stroke-width="2" stroke-linejoin="round" />

</svg>