<svg width="26.00" height="26.00" viewBox="441.00 1844.00 26.00 26.00" fill="none" xmlns="http://www.w3.org/2000/svg">
  <path d="M463 1857C463 1859.39 462.052 1861.68 460.364 1863.36C458.676 1865.05 456.387 1866 454 1866C451.613 1866 449.324 1865.05 447.636 1863.36C445.948 1861.68 445 1859.39 445 1857" stroke="#9BB068" stroke-width="2" stroke-linejoin="round" />

  <path d="M454 1861L454 1848" stroke="#4B3425" stroke-width="2" stroke-linejoin="round" />

  <path d="M458 1852C458 1851.47 457.897 1850.95 457.696 1850.47C457.494 1849.98 457.2 1849.54 456.828 1849.17C456.457 1848.8 456.016 1848.51 455.531 1848.3C455.045 1848.1 454.525 1848 454 1848C453.475 1848 452.955 1848.1 452.469 1848.3C451.984 1848.51 451.543 1848.8 451.172 1849.17C450.8 1849.54 450.506 1849.98 450.304 1850.47C450.103 1850.95 450 1851.47 450 1852" stroke="#4B3425" stroke-width="2" stroke-linejoin="round" />

</svg>