<svg width="23.00" height="19.00" viewBox="274.00 568.00 23.00 19.00" fill="none" xmlns="http://www.w3.org/2000/svg">
  <path d="M278 583H286" stroke="#4B3425" stroke-width="2" stroke-linejoin="round" />

  <path d="M286 579C286.53 579 287.039 579.211 287.414 579.586C287.789 579.961 288 580.47 288 581C288 581.53 287.789 582.039 287.414 582.414C287.039 582.789 286.53 583 286 583" stroke="#4B3425" stroke-width="2" stroke-linejoin="round" />

  <path d="M278 576H291" stroke="#4B3425" stroke-width="2" stroke-linejoin="round" />

  <path d="M291 572C291.53 572 292.039 572.211 292.414 572.586C292.789 572.961 293 573.47 293 574C293 574.53 292.789 575.039 292.414 575.414C292.039 575.789 291.53 576 291 576" stroke="#4B3425" stroke-width="2" stroke-linejoin="round" />

</svg>