<svg width="12.00" height="12.00" viewBox="147.00 1817.00 12.00 12.00" fill="none" xmlns="http://www.w3.org/2000/svg">
  <path d="M155 1823C155 1822.74 154.948 1822.48 154.848 1822.23C154.747 1821.99 154.6 1821.77 154.414 1821.59C154.228 1821.4 154.008 1821.25 153.765 1821.15C153.523 1821.05 153.263 1821 153 1821C152.737 1821 152.477 1821.05 152.235 1821.15C151.992 1821.25 151.772 1821.4 151.586 1821.59C151.4 1821.77 151.253 1821.99 151.152 1822.23C151.052 1822.48 151 1822.74 151 1823C151 1823.26 151.052 1823.52 151.152 1823.77C151.253 1824.01 151.4 1824.23 151.586 1824.41C151.772 1824.6 151.992 1824.75 152.235 1824.85C152.477 1824.95 152.737 1825 153 1825C153.263 1825 153.523 1824.95 153.765 1824.85C154.008 1824.75 154.228 1824.6 154.414 1824.41C154.6 1824.23 154.747 1824.01 154.848 1823.77C154.948 1823.52 155 1823.26 155 1823L155 1823Z" stroke="#4B3425" stroke-width="2" stroke-linejoin="round" />

</svg>