<svg width="24.00" height="27.10" viewBox="474.00 2994.00 24.00 27.10" fill="none" xmlns="http://www.w3.org/2000/svg">
  <path d="M485 3006C485 3005.45 485.448 3005 486 3005C486.552 3005 487 3005.45 487 3006C487 3006.55 486.552 3007 486 3007C485.448 3007 485 3006.55 485 3006Z" fill="#4B3425" />

  <path fill-rule="evenodd" clip-rule="evenodd" d="M486.707 3016.71L491.636 3011.78C493.152 3010.26 494 3008.19 494 3006.05C494 3001.64 490.428 2998 486 2998C481.572 2998 478 3001.64 478 3006.05C478 3008.19 478.848 3010.26 480.364 3011.78L485.293 3016.71C485.683 3017.1 486.317 3017.1 486.707 3016.71ZM486 3003C484.343 3003 483 3004.34 483 3006C483 3007.66 484.343 3009 486 3009C487.657 3009 489 3007.66 489 3006C489 3004.34 487.657 3003 486 3003Z" fill="#4B3425" />

</svg>