<svg width="20.00" height="10.00" viewBox="213.00 2868.00 20.00 10.00" fill="none" xmlns="http://www.w3.org/2000/svg">
  <path d="M218 2874C218.552 2874 219 2873.55 219 2873C219 2872.45 218.552 2872 218 2872C217.448 2872 217 2872.45 217 2873C217 2873.55 217.448 2874 218 2874Z" fill="#4B3425" />

  <path d="M221 2874C221.552 2874 222 2873.55 222 2873C222 2872.45 221.552 2872 221 2872C220.448 2872 220 2872.45 220 2873C220 2873.55 220.448 2874 221 2874Z" fill="#4B3425" />

  <path d="M229 2873C229 2873.55 228.552 2874 228 2874C227.448 2874 227 2873.55 227 2873C227 2872.45 227.448 2872 228 2872C228.552 2872 229 2872.45 229 2873Z" fill="#4B3425" />

</svg>