<svg width="26.00" height="26.00" viewBox="274.00 662.00 26.00 26.00" fill="none" xmlns="http://www.w3.org/2000/svg">
  <path d="M284 675L284 680" stroke="#4B3425" stroke-width="2" stroke-linejoin="round" />

  <path d="M290 670L290 675" stroke="#4B3425" stroke-width="2" stroke-linejoin="round" />

  <circle cx="287" cy="675" r="9" stroke="#4B3425" stroke-width="2" stroke-linejoin="round" />

  <path d="M292 677C292 676.737 291.948 676.477 291.848 676.235C291.747 675.992 291.6 675.772 291.414 675.586C291.228 675.4 291.008 675.253 290.765 675.152C290.523 675.052 290.263 675 290 675C289.737 675 289.477 675.052 289.235 675.152C288.992 675.253 288.772 675.4 288.586 675.586C288.4 675.772 288.253 675.992 288.152 676.235C288.052 676.477 288 676.737 288 677C288 677.263 288.052 677.523 288.152 677.765C288.253 678.008 288.4 678.228 288.586 678.414C288.772 678.6 288.992 678.747 289.235 678.848C289.477 678.948 289.737 679 290 679C290.263 679 290.523 678.948 290.765 678.848C291.008 678.747 291.228 678.6 291.414 678.414C291.6 678.228 291.747 678.008 291.848 677.765C291.948 677.523 292 677.263 292 677L292 677Z" stroke="#4B3425" stroke-width="2" stroke-linejoin="round" />

  <path d="M286 673C286 672.737 285.948 672.477 285.848 672.235C285.747 671.992 285.6 671.772 285.414 671.586C285.228 671.4 285.008 671.253 284.765 671.152C284.523 671.052 284.263 671 284 671C283.737 671 283.477 671.052 283.235 671.152C282.992 671.253 282.772 671.4 282.586 671.586C282.4 671.772 282.253 671.992 282.152 672.235C282.052 672.477 282 672.737 282 673C282 673.263 282.052 673.523 282.152 673.765C282.253 674.008 282.4 674.228 282.586 674.414C282.772 674.6 282.992 674.747 283.235 674.848C283.477 674.948 283.737 675 284 675C284.263 675 284.523 674.948 284.765 674.848C285.008 674.747 285.228 674.6 285.414 674.414C285.6 674.228 285.747 674.008 285.848 673.765C285.948 673.523 286 673.263 286 673L286 673Z" stroke="#4B3425" stroke-width="2" stroke-linejoin="round" />

</svg>