<svg width="28.00" height="28.00" viewBox="177.00 1811.00 28.00 28.00" fill="none" xmlns="http://www.w3.org/2000/svg">
  <path d="M193 1825C193 1824.74 192.948 1824.48 192.848 1824.23C192.747 1823.99 192.6 1823.77 192.414 1823.59C192.228 1823.4 192.008 1823.25 191.765 1823.15C191.523 1823.05 191.263 1823 191 1823C190.737 1823 190.477 1823.05 190.235 1823.15C189.992 1823.25 189.772 1823.4 189.586 1823.59C189.4 1823.77 189.253 1823.99 189.152 1824.23C189.052 1824.48 189 1824.74 189 1825C189 1825.26 189.052 1825.52 189.152 1825.77C189.253 1826.01 189.4 1826.23 189.586 1826.41C189.772 1826.6 189.992 1826.75 190.235 1826.85C190.477 1826.95 190.737 1827 191 1827C191.263 1827 191.523 1826.95 191.765 1826.85C192.008 1826.75 192.228 1826.6 192.414 1826.41C192.6 1826.23 192.747 1826.01 192.848 1825.77C192.948 1825.52 193 1825.26 193 1825L193 1825Z" stroke="#4B3425" stroke-width="2" stroke-linejoin="round" />

  <path d="M193 1815C193 1815.26 192.948 1815.52 192.848 1815.77C192.747 1816.01 192.6 1816.23 192.414 1816.41C192.228 1816.6 192.008 1816.75 191.765 1816.85C191.523 1816.95 191.263 1817 191 1817C190.737 1817 190.477 1816.95 190.235 1816.85C189.992 1816.75 189.772 1816.6 189.586 1816.41C189.4 1816.23 189.253 1816.01 189.152 1815.77C189.052 1815.52 189 1815.26 189 1815" stroke="#4B3425" stroke-width="2" stroke-linejoin="round" />

  <path d="M193 1835C193 1834.74 192.948 1834.48 192.848 1834.23C192.747 1833.99 192.6 1833.77 192.414 1833.59C192.228 1833.4 192.008 1833.25 191.765 1833.15C191.523 1833.05 191.263 1833 191 1833C190.737 1833 190.477 1833.05 190.235 1833.15C189.992 1833.25 189.772 1833.4 189.586 1833.59C189.4 1833.77 189.253 1833.99 189.152 1834.23C189.052 1834.48 189 1834.74 189 1835" stroke="#4B3425" stroke-width="2" stroke-linejoin="round" />

  <path d="M199.485 1819.34C199.3 1819.53 199.079 1819.68 198.836 1819.78C198.594 1819.88 198.334 1819.93 198.071 1819.93C197.808 1819.93 197.548 1819.88 197.306 1819.78C197.063 1819.68 196.843 1819.53 196.657 1819.34C196.471 1819.16 196.324 1818.94 196.223 1818.69C196.123 1818.45 196.071 1818.19 196.071 1817.93C196.071 1817.67 196.123 1817.41 196.223 1817.16C196.324 1816.92 196.471 1816.7 196.657 1816.51" stroke="#4B3425" stroke-width="2" stroke-linejoin="round" />

  <path d="M185.343 1833.49C185.529 1833.3 185.676 1833.08 185.777 1832.84C185.877 1832.59 185.929 1832.33 185.929 1832.07C185.929 1831.81 185.877 1831.55 185.777 1831.31C185.676 1831.06 185.529 1830.84 185.343 1830.66C185.157 1830.47 184.937 1830.32 184.694 1830.22C184.452 1830.12 184.192 1830.07 183.929 1830.07C183.666 1830.07 183.406 1830.12 183.164 1830.22C182.921 1830.32 182.7 1830.47 182.515 1830.66" stroke="#4B3425" stroke-width="2" stroke-linejoin="round" />

  <path d="M201 1827C200.737 1827 200.477 1826.95 200.235 1826.85C199.992 1826.75 199.772 1826.6 199.586 1826.41C199.4 1826.23 199.253 1826.01 199.152 1825.77C199.052 1825.52 199 1825.26 199 1825C199 1824.74 199.052 1824.48 199.152 1824.23C199.253 1823.99 199.4 1823.77 199.586 1823.59C199.772 1823.4 199.992 1823.25 200.235 1823.15C200.477 1823.05 200.737 1823 201 1823" stroke="#4B3425" stroke-width="2" stroke-linejoin="round" />

  <path d="M181 1827C181.263 1827 181.523 1826.95 181.765 1826.85C182.008 1826.75 182.228 1826.6 182.414 1826.41C182.6 1826.23 182.747 1826.01 182.848 1825.77C182.948 1825.52 183 1825.26 183 1825C183 1824.74 182.948 1824.48 182.848 1824.23C182.747 1823.99 182.6 1823.77 182.414 1823.59C182.228 1823.4 182.008 1823.25 181.765 1823.15C181.523 1823.05 181.263 1823 181 1823" stroke="#4B3425" stroke-width="2" stroke-linejoin="round" />

  <path d="M196.657 1833.49C196.471 1833.3 196.324 1833.08 196.223 1832.84C196.123 1832.59 196.071 1832.33 196.071 1832.07C196.071 1831.81 196.123 1831.55 196.223 1831.31C196.324 1831.06 196.471 1830.84 196.657 1830.66C196.843 1830.47 197.063 1830.32 197.306 1830.22C197.548 1830.12 197.808 1830.07 198.071 1830.07C198.334 1830.07 198.594 1830.12 198.836 1830.22C199.079 1830.32 199.3 1830.47 199.485 1830.66" stroke="#4B3425" stroke-width="2" stroke-linejoin="round" />

  <path d="M182.515 1819.34C182.7 1819.53 182.921 1819.68 183.164 1819.78C183.406 1819.88 183.666 1819.93 183.929 1819.93C184.192 1819.93 184.452 1819.88 184.694 1819.78C184.937 1819.68 185.157 1819.53 185.343 1819.34C185.529 1819.16 185.676 1818.94 185.777 1818.69C185.877 1818.45 185.929 1818.19 185.929 1817.93C185.929 1817.67 185.877 1817.41 185.777 1817.16C185.676 1816.92 185.529 1816.7 185.343 1816.51" stroke="#4B3425" stroke-width="2" stroke-linejoin="round" />

  <path d="M197 1825C197 1824.21 196.845 1823.43 196.543 1822.7C196.242 1821.98 195.8 1821.31 195.243 1820.76C194.685 1820.2 194.024 1819.76 193.296 1819.46C192.568 1819.16 191.788 1819 191 1819C190.212 1819 189.432 1819.16 188.704 1819.46C187.976 1819.76 187.315 1820.2 186.757 1820.76C186.2 1821.31 185.758 1821.98 185.457 1822.7C185.155 1823.43 185 1824.21 185 1825C185 1825.79 185.155 1826.57 185.457 1827.3C185.758 1828.02 186.2 1828.69 186.757 1829.24C187.315 1829.8 187.976 1830.24 188.704 1830.54C189.432 1830.85 190.212 1831 191 1831C191.788 1831 192.568 1830.85 193.296 1830.54C194.024 1830.24 194.685 1829.8 195.243 1829.24C195.8 1828.69 196.242 1828.02 196.543 1827.3C196.845 1826.57 197 1825.79 197 1825L197 1825Z" stroke="#9BB068" stroke-width="2" stroke-linejoin="round" />

</svg>