<svg width="20.00" height="26.00" viewBox="444.00 1748.00 20.00 26.00" fill="none" xmlns="http://www.w3.org/2000/svg">
  <path d="M457 1752C457 1752.39 456.922 1752.78 456.772 1753.15C456.621 1753.51 456.4 1753.84 456.121 1754.12C455.843 1754.4 455.512 1754.62 455.148 1754.77C454.784 1754.92 454.394 1755 454 1755C453.606 1755 453.216 1754.92 452.852 1754.77C452.488 1754.62 452.157 1754.4 451.879 1754.12C451.6 1753.84 451.379 1753.51 451.228 1753.15C451.078 1752.78 451 1752.39 451 1752" stroke="#9BB068" stroke-width="2" stroke-linejoin="round" />

  <rect x="448" y="1752" width="12" height="18" rx="4" stroke="#4B3425" stroke-width="2" stroke-linejoin="round" />

  <circle cx="454" cy="1766" r="1" fill="#4B3425" />

</svg>