<svg width="26.00" height="25.00" viewBox="146.00 1780.00 26.00 25.00" fill="none" xmlns="http://www.w3.org/2000/svg">
  <path d="M166 1789L166 1801" stroke="#4B3425" stroke-width="2" stroke-linejoin="round" />

  <path d="M168 1787C168 1786.74 167.948 1786.48 167.848 1786.23C167.747 1785.99 167.6 1785.77 167.414 1785.59C167.228 1785.4 167.008 1785.25 166.765 1785.15C166.523 1785.05 166.263 1785 166 1785C165.737 1785 165.477 1785.05 165.235 1785.15C164.992 1785.25 164.772 1785.4 164.586 1785.59C164.4 1785.77 164.253 1785.99 164.152 1786.23C164.052 1786.48 164 1786.74 164 1787C164 1787.26 164.052 1787.52 164.152 1787.77C164.253 1788.01 164.4 1788.23 164.586 1788.41C164.772 1788.6 164.992 1788.75 165.235 1788.85C165.477 1788.95 165.737 1789 166 1789C166.263 1789 166.523 1788.95 166.765 1788.85C167.008 1788.75 167.228 1788.6 167.414 1788.41C167.6 1788.23 167.747 1788.01 167.848 1787.77C167.948 1787.52 168 1787.26 168 1787L168 1787Z" stroke="#4B3425" stroke-width="2" stroke-linejoin="round" />

  <path d="M159 1784L159 1791" stroke="#9BB068" stroke-width="2" stroke-linejoin="round" />

  <path d="M159 1794L159 1801" stroke="#9BB068" stroke-width="2" stroke-linejoin="round" />

  <path d="M161 1793C161 1792.74 160.948 1792.48 160.848 1792.23C160.747 1791.99 160.6 1791.77 160.414 1791.59C160.228 1791.4 160.008 1791.25 159.765 1791.15C159.523 1791.05 159.263 1791 159 1791C158.737 1791 158.477 1791.05 158.235 1791.15C157.992 1791.25 157.772 1791.4 157.586 1791.59C157.4 1791.77 157.253 1791.99 157.152 1792.23C157.052 1792.48 157 1792.74 157 1793C157 1793.26 157.052 1793.52 157.152 1793.77C157.253 1794.01 157.4 1794.23 157.586 1794.41C157.772 1794.6 157.992 1794.75 158.235 1794.85C158.477 1794.95 158.737 1795 159 1795C159.263 1795 159.523 1794.95 159.765 1794.85C160.008 1794.75 160.228 1794.6 160.414 1794.41C160.6 1794.23 160.747 1794.01 160.848 1793.77C160.948 1793.52 161 1793.26 161 1793L161 1793Z" stroke="#9BB068" stroke-width="2" stroke-linejoin="round" />

  <path d="M152 1784L152 1797" stroke="#4B3425" stroke-width="2" stroke-linejoin="round" />

  <path d="M154 1799C154 1798.74 153.948 1798.48 153.848 1798.23C153.747 1797.99 153.6 1797.77 153.414 1797.59C153.228 1797.4 153.008 1797.25 152.765 1797.15C152.523 1797.05 152.263 1797 152 1797C151.737 1797 151.477 1797.05 151.235 1797.15C150.992 1797.25 150.772 1797.4 150.586 1797.59C150.4 1797.77 150.253 1797.99 150.152 1798.23C150.052 1798.48 150 1798.74 150 1799C150 1799.26 150.052 1799.52 150.152 1799.77C150.253 1800.01 150.4 1800.23 150.586 1800.41C150.772 1800.6 150.992 1800.75 151.235 1800.85C151.477 1800.95 151.737 1801 152 1801C152.263 1801 152.523 1800.95 152.765 1800.85C153.008 1800.75 153.228 1800.6 153.414 1800.41C153.6 1800.23 153.747 1800.01 153.848 1799.77C153.948 1799.52 154 1799.26 154 1799L154 1799Z" stroke="#4B3425" stroke-width="2" stroke-linejoin="round" />

</svg>