<svg width="28.00" height="28.00" viewBox="752.00 2929.00 28.00 28.00" fill="none" xmlns="http://www.w3.org/2000/svg">
  <path fill-rule="evenodd" clip-rule="evenodd" d="M766 2953C771.523 2953 776 2948.52 776 2943C776 2937.48 771.523 2933 766 2933C760.477 2933 756 2937.48 756 2943C756 2948.52 760.477 2953 766 2953ZM771.796 2941.55C771.454 2942.83 770.7 2943.96 769.653 2944.76C768.605 2945.56 767.321 2946 766 2946C764.679 2946 763.395 2945.56 762.347 2944.76C761.3 2943.96 760.546 2942.83 760.204 2941.55L762.136 2941.04C762.364 2941.89 762.866 2942.64 763.565 2943.17C764.264 2943.71 765.119 2944 766 2944C766.881 2944 767.736 2943.71 768.435 2943.17C769.134 2942.64 769.636 2941.89 769.864 2941.04L771.796 2941.55Z" fill="#4B3425" />

</svg>