<svg width="22.54" height="27.42" viewBox="148.29 3153.29 22.54 27.42" fill="none" xmlns="http://www.w3.org/2000/svg">
  <path d="M163.464 3159.88L162.293 3158.71L163.707 3157.29L164.879 3158.46C166.831 3160.42 166.831 3163.58 164.879 3165.54L158.885 3171.53C158.883 3171.53 158.881 3171.53 158.879 3171.54L153.707 3176.71L152.293 3175.29L157.464 3170.12C157.466 3170.12 157.468 3170.12 157.469 3170.12C158.636 3168.94 158.634 3167.05 157.464 3165.88L156.293 3164.71L157.707 3163.29L158.879 3164.46C159.675 3165.26 160.146 3166.26 160.293 3167.29L160.464 3167.12L160.469 3167.12C161.636 3165.95 161.634 3164.05 160.464 3162.88L159.293 3161.71L160.707 3160.29L161.879 3161.46C162.675 3162.26 163.146 3163.26 163.293 3164.29L163.464 3164.12C164.636 3162.95 164.636 3161.05 163.464 3159.88Z" fill="#4B3425" />

</svg>