<svg width="26.25" height="26.38" viewBox="752.92 789.81 26.25 26.38" fill="none" xmlns="http://www.w3.org/2000/svg">
  <path d="M759.636 809.364C760.966 810.694 762.679 811.573 764.534 811.88C766.389 812.186 768.294 811.904 769.981 811.072C771.667 810.24 773.051 808.901 773.937 807.243C774.824 805.584 775.168 803.69 774.923 801.825C774.678 799.961 773.854 798.22 772.569 796.848C771.283 795.475 769.6 794.54 767.756 794.173C765.911 793.806 763.999 794.026 762.286 794.802C760.573 795.578 759.146 796.871 758.206 798.5" stroke="#4B3425" stroke-width="2" stroke-linejoin="round" />

  <path d="M757.536 794C757.096 794.763 756.919 795.649 757.034 796.522C757.149 797.395 757.549 798.206 758.172 798.828C758.794 799.451 759.605 799.851 760.478 799.966C761.351 800.081 762.237 799.904 763 799.464" stroke="#4B3425" stroke-width="2" stroke-linejoin="round" />

</svg>