<svg width="26.00" height="26.00" viewBox="569.00 726.00 26.00 26.00" fill="none" xmlns="http://www.w3.org/2000/svg">
  <path d="M591 739C591 741.387 590.052 743.676 588.364 745.364C586.676 747.052 584.387 748 582 748C579.613 748 577.324 747.052 575.636 745.364C573.948 743.676 573 741.387 573 739" stroke="#4B3425" stroke-width="2" stroke-linejoin="round" />

  <path d="M582 730L582 743" stroke="#4B3425" stroke-width="2" stroke-linejoin="round" />

  <path d="M586 739C586 739.525 585.897 740.045 585.696 740.531C585.494 741.016 585.2 741.457 584.828 741.828C584.457 742.2 584.016 742.494 583.531 742.696C583.045 742.897 582.525 743 582 743C581.475 743 580.955 742.897 580.469 742.696C579.984 742.494 579.543 742.2 579.172 741.828C578.8 741.457 578.506 741.016 578.304 740.531C578.103 740.045 578 739.525 578 739" stroke="#4B3425" stroke-width="2" stroke-linejoin="round" />

</svg>