<svg width="12.00" height="26.00" viewBox="544.00 3090.00 12.00 26.00" fill="none" xmlns="http://www.w3.org/2000/svg">
  <path d="M552 3096C552 3094.9 551.105 3094 550 3094C548.895 3094 548 3094.9 548 3096C548 3097.11 548.895 3098 550 3098C551.105 3098 552 3097.11 552 3096Z" fill="#4B3425" />

  <path d="M550 3101C551.105 3101 552 3101.9 552 3103C552 3104.11 551.105 3105 550 3105C548.895 3105 548 3104.11 548 3103C548 3101.9 548.895 3101 550 3101Z" fill="#4B3425" />

  <path d="M550 3108C551.105 3108 552 3108.9 552 3110C552 3111.11 551.105 3112 550 3112C548.895 3112 548 3111.11 548 3110C548 3108.9 548.895 3108 550 3108Z" fill="#4B3425" />

</svg>