<svg width="26.00" height="25.00" viewBox="146.00 1973.00 26.00 25.00" fill="none" xmlns="http://www.w3.org/2000/svg">
  <path d="M159 1990L159 1994" stroke="#9BB068" stroke-width="2" stroke-linejoin="round" />

  <path d="M163 1986C163 1987.06 162.579 1988.08 161.828 1988.83C161.078 1989.58 160.061 1990 159 1990C157.939 1990 156.922 1989.58 156.172 1988.83C155.421 1988.08 155 1987.06 155 1986" stroke="#9BB068" stroke-width="2" stroke-linejoin="round" />

  <path d="M150 1994C150 1992.82 150.233 1991.65 150.685 1990.56C151.137 1989.46 151.8 1988.47 152.636 1987.64C153.472 1986.8 154.464 1986.14 155.556 1985.69C156.648 1985.23 157.818 1985 159 1985C160.182 1985 161.352 1985.23 162.444 1985.69C163.536 1986.14 164.528 1986.8 165.364 1987.64C166.2 1988.47 166.863 1989.46 167.315 1990.56C167.767 1991.65 168 1992.82 168 1994" stroke="#4B3425" stroke-width="2" stroke-linejoin="round" />

  <rect x="155" y="1977" width="8" height="8" rx="4" stroke="#4B3425" stroke-width="2" stroke-linejoin="round" />

  <path d="M155 1980H163" stroke="#4B3425" stroke-width="2" stroke-linejoin="round" />

</svg>