<svg width="26.25" height="26.38" viewBox="720.83 1875.81 26.25 26.38" fill="none" xmlns="http://www.w3.org/2000/svg">
  <path d="M740.364 1895.36C739.034 1896.69 737.321 1897.57 735.466 1897.88C733.611 1898.19 731.706 1897.9 730.019 1897.07C728.333 1896.24 726.949 1894.9 726.063 1893.24C725.176 1891.58 724.832 1889.69 725.077 1887.83C725.322 1885.96 726.146 1884.22 727.431 1882.85C728.717 1881.48 730.4 1880.54 732.244 1880.17C734.089 1879.81 736.001 1880.03 737.714 1880.8C739.427 1881.58 740.854 1882.87 741.794 1884.5" stroke="#4B3425" stroke-width="2" stroke-linejoin="round" />

  <path d="M742.464 1880C742.904 1880.76 743.081 1881.65 742.966 1882.52C742.851 1883.4 742.451 1884.21 741.828 1884.83C741.206 1885.45 740.395 1885.85 739.522 1885.97C738.649 1886.08 737.763 1885.9 737 1885.46" stroke="#9BB068" stroke-width="2" stroke-linejoin="round" />

</svg>