<svg width="26.00" height="16.00" viewBox="505.00 3127.00 26.00 16.00" fill="none" xmlns="http://www.w3.org/2000/svg">
  <path d="M516 3133C516 3131.9 516.895 3131 518 3131C519.105 3131 520 3131.9 520 3133C520 3134.11 519.105 3135 518 3135C516.895 3135 516 3134.11 516 3133Z" fill="#4B3425" />

  <path d="M523 3137C523 3135.9 523.895 3135 525 3135C526.105 3135 527 3135.9 527 3137C527 3138.11 526.105 3139 525 3139C523.895 3139 523 3138.11 523 3137Z" fill="#4B3425" />

  <path d="M511 3135C509.895 3135 509 3135.9 509 3137C509 3138.11 509.895 3139 511 3139C512.105 3139 513 3138.11 513 3137C513 3135.9 512.105 3135 511 3135Z" fill="#4B3425" />

</svg>