<svg width="27.32" height="23.93" viewBox="720.34 2835.00 27.32 23.93" fill="none" xmlns="http://www.w3.org/2000/svg">
  <path d="M741.727 2846.93C741.272 2845.23 740.267 2843.73 738.87 2842.65C737.473 2841.58 735.761 2841 734 2841C732.239 2841 730.527 2841.58 729.13 2842.65C727.733 2843.73 726.728 2845.23 726.273 2846.93L724.341 2846.41C724.911 2844.29 726.166 2842.41 727.912 2841.07C729.659 2839.73 731.799 2839 734 2839C736.201 2839 738.341 2839.73 740.088 2841.07C741.834 2842.41 743.09 2844.29 743.659 2846.41L741.727 2846.93Z" fill="#4B3425" />

  <path d="M741.727 2854.93C741.272 2853.23 740.267 2851.73 738.87 2850.65C737.473 2849.58 735.761 2849 734 2849C732.239 2849 730.527 2849.58 729.13 2850.65C727.733 2851.73 726.728 2853.23 726.273 2854.93L724.341 2854.41C724.911 2852.29 726.166 2850.41 727.912 2849.07C729.659 2847.73 731.799 2847 734 2847C736.201 2847 738.341 2847.73 740.088 2849.07C741.834 2850.41 743.09 2852.29 743.659 2854.41L741.727 2854.93Z" fill="#4B3425" />

</svg>