<svg width="26.00" height="26.00" viewBox="274.00 822.00 26.00 26.00" fill="none" xmlns="http://www.w3.org/2000/svg">
  <path d="M290.121 834.879L286.879 838.121C286.316 838.684 286 839.447 286 840.243L286 841.5C286 842.881 284.881 844 283.5 844C282.119 844 281 842.881 281 841.5L281 841L280.5 841C279.119 841 278 839.881 278 838.5C278 837.119 279.119 836 280.5 836L281.757 836C282.553 836 283.316 835.684 283.879 835.121L287.121 831.879C287.684 831.316 288 830.553 288 829.757L288 828.5C288 827.119 289.119 826 290.5 826C291.881 826 293 827.119 293 828.5L293 829L293.5 829C294.881 829 296 830.119 296 831.5C296 832.881 294.881 834 293.5 834L292.243 834C291.447 834 290.684 834.316 290.121 834.879Z" stroke="#4B3425" stroke-width="2" stroke-linejoin="round" />

</svg>