<svg width="25.19" height="22.85" viewBox="178.41 1974.90 25.19 22.85" fill="none" xmlns="http://www.w3.org/2000/svg">
  <path d="M198.106 1981.11L197 1980C195.895 1978.9 194.105 1978.9 193 1980C191.895 1981.1 190.105 1981.1 189 1980C187.895 1978.9 186.105 1978.9 185 1980L183.894 1981.11C182.748 1982.25 182.407 1983.98 183.03 1985.47L185.697 1991.87C186.318 1993.36 188.254 1993.75 189.396 1992.6C190.282 1991.72 191.718 1991.72 192.604 1992.6C193.746 1993.75 195.682 1993.36 196.303 1991.87L198.97 1985.47C199.593 1983.98 199.252 1982.25 198.106 1981.11Z" stroke="#4B3425" stroke-width="2" stroke-linejoin="round" />

  <circle cx="193" cy="1986" r="1" fill="#4B3425" />

  <circle cx="189" cy="1986" r="1" fill="#4B3425" />

</svg>