<svg width="25.66" height="25.66" viewBox="210.17 3154.17 25.66 25.66" fill="none" xmlns="http://www.w3.org/2000/svg">
  <path d="M228 3163C228 3163.55 227.552 3164 227 3164C226.448 3164 226 3163.55 226 3163C226 3162.45 226.448 3162 227 3162C227.552 3162 228 3162.45 228 3163Z" fill="#4B3425" />

  <path d="M219 3172C219.552 3172 220 3171.55 220 3171C220 3170.45 219.552 3170 219 3170C218.448 3170 218 3170.45 218 3171C218 3171.55 218.448 3172 219 3172Z" fill="#4B3425" />

  <path fill-rule="evenodd" clip-rule="evenodd" d="M229.879 3160.46L229.536 3160.12C227.583 3158.17 224.417 3158.17 222.465 3160.12L216.122 3166.46C214.169 3168.42 214.169 3171.58 216.122 3173.54L216.465 3173.88C218.417 3175.83 221.583 3175.83 223.536 3173.88L229.879 3167.54C231.832 3165.58 231.832 3162.42 229.879 3160.46ZM228.122 3161.54L228.465 3161.88C229.636 3163.05 229.636 3164.95 228.465 3166.12L227.49 3167.1C227.449 3167.04 227.403 3166.99 227.354 3166.94L223.061 3162.65C223.011 3162.6 222.959 3162.55 222.904 3162.51L223.879 3161.54C225.051 3160.36 226.95 3160.36 228.122 3161.54ZM218.51 3166.9L217.536 3167.88C216.364 3169.05 216.364 3170.95 217.536 3172.12L217.879 3172.46C219.051 3173.64 220.95 3173.64 222.122 3172.46L223.096 3171.49C223.042 3171.45 222.989 3171.4 222.939 3171.35L218.646 3167.06C218.597 3167.01 218.551 3166.96 218.51 3166.9Z" fill="#4B3425" />

</svg>