<svg width="26.00" height="25.00" viewBox="146.00 694.00 26.00 25.00" fill="none" xmlns="http://www.w3.org/2000/svg">
  <path d="M166 703L166 715" stroke="#4B3425" stroke-width="2" stroke-linejoin="round" />

  <path d="M168 701C168 700.737 167.948 700.477 167.848 700.235C167.747 699.992 167.6 699.772 167.414 699.586C167.228 699.4 167.008 699.253 166.765 699.152C166.523 699.052 166.263 699 166 699C165.737 699 165.477 699.052 165.235 699.152C164.992 699.253 164.772 699.4 164.586 699.586C164.4 699.772 164.253 699.992 164.152 700.235C164.052 700.477 164 700.737 164 701C164 701.263 164.052 701.523 164.152 701.765C164.253 702.008 164.4 702.228 164.586 702.414C164.772 702.6 164.992 702.747 165.235 702.848C165.477 702.948 165.737 703 166 703C166.263 703 166.523 702.948 166.765 702.848C167.008 702.747 167.228 702.6 167.414 702.414C167.6 702.228 167.747 702.008 167.848 701.765C167.948 701.523 168 701.263 168 701L168 701Z" stroke="#4B3425" stroke-width="2" stroke-linejoin="round" />

  <path d="M159 698L159 705" stroke="#4B3425" stroke-width="2" stroke-linejoin="round" />

  <path d="M159 708L159 715" stroke="#4B3425" stroke-width="2" stroke-linejoin="round" />

  <path d="M161 707C161 706.737 160.948 706.477 160.848 706.235C160.747 705.992 160.6 705.772 160.414 705.586C160.228 705.4 160.008 705.253 159.765 705.152C159.523 705.052 159.263 705 159 705C158.737 705 158.477 705.052 158.235 705.152C157.992 705.253 157.772 705.4 157.586 705.586C157.4 705.772 157.253 705.992 157.152 706.235C157.052 706.477 157 706.737 157 707C157 707.263 157.052 707.523 157.152 707.765C157.253 708.008 157.4 708.228 157.586 708.414C157.772 708.6 157.992 708.747 158.235 708.848C158.477 708.948 158.737 709 159 709C159.263 709 159.523 708.948 159.765 708.848C160.008 708.747 160.228 708.6 160.414 708.414C160.6 708.228 160.747 708.008 160.848 707.765C160.948 707.523 161 707.263 161 707L161 707Z" stroke="#4B3425" stroke-width="2" stroke-linejoin="round" />

  <path d="M152 698L152 711" stroke="#4B3425" stroke-width="2" stroke-linejoin="round" />

  <path d="M154 713C154 712.737 153.948 712.477 153.848 712.235C153.747 711.992 153.6 711.772 153.414 711.586C153.228 711.4 153.008 711.253 152.765 711.152C152.523 711.052 152.263 711 152 711C151.737 711 151.477 711.052 151.235 711.152C150.992 711.253 150.772 711.4 150.586 711.586C150.4 711.772 150.253 711.992 150.152 712.235C150.052 712.477 150 712.737 150 713C150 713.263 150.052 713.523 150.152 713.765C150.253 714.008 150.4 714.228 150.586 714.414C150.772 714.6 150.992 714.747 151.235 714.848C151.477 714.948 151.737 715 152 715C152.263 715 152.523 714.948 152.765 714.848C153.008 714.747 153.228 714.6 153.414 714.414C153.6 714.228 153.747 714.008 153.848 713.765C153.948 713.523 154 713.263 154 713L154 713Z" stroke="#4B3425" stroke-width="2" stroke-linejoin="round" />

</svg>