<svg width="20.00" height="27.00" viewBox="181.00 501.00 20.00 27.00" fill="none" xmlns="http://www.w3.org/2000/svg">
  <rect x="186" y="507" width="4" height="8" rx="2" stroke="#4B3425" stroke-width="2" stroke-linejoin="round" />

  <path d="M188 507L188 505" stroke="#4B3425" stroke-width="2" stroke-linejoin="round" />

  <path d="M188 517L188 515" stroke="#4B3425" stroke-width="2" stroke-linejoin="round" />

  <path d="M189 524C189 523.47 189.211 522.961 189.586 522.586C189.961 522.211 190.47 522 191 522C191.53 522 192.039 522.211 192.414 522.586C192.789 522.961 193 523.47 193 524" stroke="#4B3425" stroke-width="2" stroke-linejoin="round" />

  <path d="M193 524C193 523.47 193.211 522.961 193.586 522.586C193.961 522.211 194.47 522 195 522C195.53 522 196.039 522.211 196.414 522.586C196.789 522.961 197 523.47 197 524" stroke="#4B3425" stroke-width="2" stroke-linejoin="round" />

  <path d="M185 524C185 523.47 185.211 522.961 185.586 522.586C185.961 522.211 186.47 522 187 522C187.53 522 188.039 522.211 188.414 522.586C188.789 522.961 189 523.47 189 524" stroke="#4B3425" stroke-width="2" stroke-linejoin="round" />

</svg>