<svg width="20.00" height="22.00" viewBox="277.00 2868.00 20.00 22.00" fill="none" xmlns="http://www.w3.org/2000/svg">
  <path d="M283 2873C283 2873.55 282.552 2874 282 2874C281.448 2874 281 2873.55 281 2873C281 2872.45 281.448 2872 282 2872C282.552 2872 283 2872.45 283 2873Z" fill="#4B3425" />

  <path d="M286 2873C286 2873.55 285.552 2874 285 2874C284.448 2874 284 2873.55 284 2873C284 2872.45 284.448 2872 285 2872C285.552 2872 286 2872.45 286 2873Z" fill="#4B3425" />

  <path d="M292 2874C292.552 2874 293 2873.55 293 2873C293 2872.45 292.552 2872 292 2872C291.448 2872 291 2872.45 291 2873C291 2873.55 291.448 2874 292 2874Z" fill="#4B3425" />

  <path d="M286 2883H283V2881H286V2878H288V2881H291V2883H288V2886H286V2883Z" fill="#4B3425" />

</svg>