<svg width="20.00" height="27.00" viewBox="181.00 1587.00 20.00 27.00" fill="none" xmlns="http://www.w3.org/2000/svg">
  <rect x="186" y="1593" width="4" height="8" rx="2" stroke="#4B3425" stroke-width="2" stroke-linejoin="round" />

  <path d="M188 1593L188 1591" stroke="#4B3425" stroke-width="2" stroke-linejoin="round" />

  <path d="M188 1603L188 1601" stroke="#4B3425" stroke-width="2" stroke-linejoin="round" />

  <path d="M189 1610C189 1609.47 189.211 1608.96 189.586 1608.59C189.961 1608.21 190.47 1608 191 1608C191.53 1608 192.039 1608.21 192.414 1608.59C192.789 1608.96 193 1609.47 193 1610" stroke="#4B3425" stroke-width="2" stroke-linejoin="round" />

  <path d="M193 1610C193 1609.47 193.211 1608.96 193.586 1608.59C193.961 1608.21 194.47 1608 195 1608C195.53 1608 196.039 1608.21 196.414 1608.59C196.789 1608.96 197 1609.47 197 1610" stroke="#4B3425" stroke-width="2" stroke-linejoin="round" />

  <path d="M185 1610C185 1609.47 185.211 1608.96 185.586 1608.59C185.961 1608.21 186.47 1608 187 1608C187.53 1608 188.039 1608.21 188.414 1608.59C188.789 1608.96 189 1609.47 189 1610" stroke="#4B3425" stroke-width="2" stroke-linejoin="round" />

</svg>