<svg width="98.67" height="98.66" viewBox="390.00 2796.00 98.67 98.66" fill="none" xmlns="http://www.w3.org/2000/svg">
  <rect x="394" y="2800" width="64" height="64" rx="32" fill="#E5EAD7" />

  <circle cx="447.333" cy="2853.33" r="37.3333" fill="#4B3425" />

  <circle cx="447.333" cy="2853.33" r="10.6667" fill="#E5EAD7" />

  <circle cx="442" cy="2832" r="5.33333" fill="#E5EAD7" />

  <circle cx="426" cy="2848" r="5.33333" fill="#E5EAD7" />

  <path d="M458 2805.33C458 2806.73 457.724 2808.12 457.188 2809.42C456.652 2810.71 455.866 2811.89 454.876 2812.88C453.885 2813.87 452.71 2814.65 451.415 2815.19C450.121 2815.72 448.734 2816 447.333 2816C445.933 2816 444.546 2815.72 443.251 2815.19C441.957 2814.65 440.781 2813.87 439.791 2812.88C438.8 2811.89 438.015 2810.71 437.479 2809.42C436.943 2808.12 436.667 2806.73 436.667 2805.33L447.333 2805.33H458Z" fill="#9BB068" />

  <path d="M399.333 2864C400.734 2864 402.121 2863.72 403.415 2863.19C404.71 2862.65 405.885 2861.87 406.876 2860.88C407.866 2859.89 408.652 2858.71 409.188 2857.42C409.724 2856.12 410 2854.73 410 2853.33C410 2851.93 409.724 2850.55 409.188 2849.25C408.652 2847.96 407.866 2846.78 406.876 2845.79C405.885 2844.8 404.71 2844.01 403.415 2843.48C402.121 2842.94 400.734 2842.67 399.333 2842.67L399.333 2853.33L399.333 2864Z" fill="#9BB068" />

  <path d="M400.43 2838.57C401.643 2839.27 402.983 2839.73 404.371 2839.91C405.76 2840.09 407.171 2840 408.524 2839.64C409.877 2839.27 411.146 2838.65 412.257 2837.8C413.368 2836.94 414.301 2835.88 415.001 2834.67C415.702 2833.45 416.156 2832.11 416.339 2830.73C416.522 2829.34 416.429 2827.93 416.067 2826.57C415.704 2825.22 415.079 2823.95 414.226 2822.84C413.373 2821.73 412.31 2820.8 411.097 2820.1L405.764 2829.33L400.43 2838.57Z" fill="#9BB068" />

  <path d="M400.43 2838.57C401.643 2839.27 402.983 2839.73 404.371 2839.91C405.76 2840.09 407.171 2840 408.524 2839.64C409.877 2839.27 411.146 2838.65 412.257 2837.8C413.368 2836.94 414.301 2835.88 415.001 2834.67C415.702 2833.45 416.156 2832.11 416.339 2830.73C416.522 2829.34 416.429 2827.93 416.067 2826.57C415.704 2825.22 415.079 2823.95 414.226 2822.84C413.373 2821.73 412.31 2820.8 411.097 2820.1L405.764 2829.33L400.43 2838.57Z" fill="#9BB068" />

  <path d="M414.096 2817.1C414.796 2818.31 415.729 2819.37 416.84 2820.23C417.951 2821.08 419.22 2821.7 420.573 2822.07C421.926 2822.43 423.337 2822.52 424.726 2822.34C426.114 2822.16 427.454 2821.7 428.667 2821C429.88 2820.3 430.943 2819.37 431.796 2818.26C432.648 2817.15 433.274 2815.88 433.636 2814.52C433.999 2813.17 434.092 2811.76 433.909 2810.37C433.726 2808.98 433.271 2807.64 432.571 2806.43L423.333 2811.76L414.096 2817.1Z" fill="#9BB068" />

  <rect x="394" y="2800" width="64" height="64" rx="32" fill="white" />

</svg>