<svg width="72.00" height="72.00" viewBox="466.00 2300.00 72.00 72.00" fill="none" xmlns="http://www.w3.org/2000/svg">
  <rect x="470" y="2304" width="64" height="64" rx="32" fill="#F7F4F2" />

  <path d="M501.5 2335C500.672 2335 500 2335.67 500 2336.5C500 2337.33 500.672 2338 501.5 2338C502.328 2338 503 2337.33 503 2336.5C503 2335.67 502.328 2335 501.5 2335Z" fill="#4B3425" />

  <path d="M508.71 2330.04L506.982 2327.88C506.765 2327.61 506.522 2327.36 506.259 2327.14C506.17 2327.18 506.083 2327.22 506 2327.27C505.696 2327.44 505.443 2327.7 505.268 2328C505.092 2328.3 505 2328.65 505 2329C505 2329.35 505.092 2329.7 505.268 2330C505.443 2330.3 505.696 2330.56 506 2330.73C506.304 2330.91 506.649 2331 507 2331C507.351 2331 507.696 2330.91 508 2330.73C508.292 2330.56 508.536 2330.32 508.71 2330.04Z" fill="#4B3425" />

</svg>