<svg width="72.00" height="72.00" viewBox="86.00 2072.00 72.00 72.00" fill="none" xmlns="http://www.w3.org/2000/svg">
  <rect x="90" y="2076" width="64" height="64" rx="32" fill="#F7F4F2" />

  <path fill-rule="evenodd" clip-rule="evenodd" d="M119.914 2098.06C118.849 2097.92 117.767 2098.03 116.75 2098.37C115.733 2098.72 114.809 2099.29 114.05 2100.05C113.291 2100.81 112.717 2101.73 112.371 2102.75C112.026 2103.77 111.92 2104.85 112.06 2105.91C112.2 2106.98 112.583 2108 113.18 2108.89C113.776 2109.78 114.57 2110.53 115.5 2111.06L116.5 2109.33C115.836 2108.95 115.269 2108.42 114.843 2107.78C114.417 2107.14 114.143 2106.41 114.043 2105.65C113.943 2104.89 114.019 2104.12 114.265 2103.39C114.512 2102.67 114.922 2102.01 115.464 2101.46C116.007 2100.92 116.667 2100.51 117.393 2100.27C118.119 2100.02 118.892 2099.94 119.653 2100.04C120.413 2100.14 121.14 2100.42 121.778 2100.84C122.416 2101.27 122.947 2101.84 123.33 2102.5L125.062 2101.5C124.525 2100.57 123.782 2099.78 122.889 2099.18C121.996 2098.58 120.978 2098.2 119.914 2098.06ZM125 2104C121.134 2104 118 2107.13 118 2111C118 2112.57 118.518 2114.02 119.394 2115.19L129.192 2105.39C128.024 2104.52 126.572 2104 125 2104ZM125 2118C123.428 2118 121.976 2117.48 120.808 2116.61L130.606 2106.81C131.482 2107.98 132 2109.43 132 2111C132 2114.87 128.866 2118 125 2118Z" fill="#4B3425" />

</svg>