<svg width="483.50" height="485.00" viewBox="188.50 187.00 483.50 485.00" fill="none" xmlns="http://www.w3.org/2000/svg">
  <path d="M496 353V350C496 348.343 497.343 347 499 347C500.657 347 502 348.343 502 350V362C502 363.657 500.657 365 499 365C497.343 365 496 363.657 496 362V359C494.343 359 493 357.657 493 356C493 354.343 494.343 353 496 353Z" stroke="#4B3425" stroke-width="2" stroke-linejoin="round" />

  <path d="M508 353V350C508 348.343 506.657 347 505 347C503.343 347 502 348.343 502 350V362C502 363.657 503.343 365 505 365C506.657 365 508 363.657 508 362V359C509.657 359 511 357.657 511 356C511 354.343 509.657 353 508 353Z" stroke="#4B3425" stroke-width="2" stroke-linejoin="round" />

  <rect x="394" y="400" width="64" height="64" rx="32" fill="#F7F4F2" />

  <path d="M435 441H421C418.791 441 417 439.209 417 437L417 423" stroke="#4B3425" stroke-width="2" stroke-linejoin="round" />

  <path d="M426 432.5C426 431.307 425.526 430.162 424.682 429.318C423.838 428.474 422.693 428 421.5 428C420.307 428 419.162 428.474 418.318 429.318C417.474 430.162 417 431.307 417 432.5" stroke="#4B3425" stroke-width="2" stroke-linejoin="round" />

  <path d="M426 432C426 433.061 426.421 434.078 427.172 434.828C427.922 435.579 428.939 436 430 436C431.061 436 432.078 435.579 432.828 434.828C433.579 434.078 434 433.061 434 432" stroke="#4B3425" stroke-width="2" stroke-linejoin="round" />

  <path d="M356 501H344C342.343 501 341 502.343 341 504C341 505.657 342.343 507 344 507H356C357.657 507 359 505.657 359 504C359 502.343 357.657 501 356 501Z" stroke="#4B3425" stroke-width="2" stroke-linejoin="round" />

  <path d="M356 509H344C342.343 509 341 510.343 341 512C341 513.657 342.343 515 344 515H356C357.657 515 359 513.657 359 512C359 510.343 357.657 509 356 509Z" stroke="#4B3425" stroke-width="2" stroke-linejoin="round" />

  <path d="M276 575H272C269.791 575 268 576.791 268 579V589C268 591.209 269.791 593 272 593H276C278.209 593 280 591.209 280 589V579C280 576.791 278.209 575 276 575Z" stroke="#4B3425" stroke-width="2" stroke-linejoin="round" />

  <path d="M194 652H193.5C192.119 652 191 653.119 191 654.5C191 655.881 192.119 657 193.5 657H202.5C203.881 657 205 655.881 205 654.5C205 653.119 203.881 652 202.5 652H202H194Z" stroke="#4B3425" stroke-width="2" stroke-linejoin="round" />

  <path d="M194 660H193.5C192.119 660 191 661.119 191 662.5C191 663.881 192.119 665 193.5 665H202.5C203.881 665 205 663.881 205 662.5C205 661.119 203.881 660 202.5 660H202H194Z" stroke="#4B3425" stroke-width="2" stroke-linejoin="round" />

  <path d="M194 657H192.5C191.672 657 191 657.672 191 658.5C191 659.328 191.672 660 192.5 660H203.5C204.328 660 205 659.328 205 658.5C205 657.672 204.328 657 203.5 657H202H194Z" stroke="#4B3425" stroke-width="2" stroke-linejoin="round" />

  <path d="M194 665H192.5C191.672 665 191 665.672 191 666.5C191 667.328 191.672 668 192.5 668H203.5C204.328 668 205 667.328 205 666.5C205 665.672 204.328 665 203.5 665H202H194Z" stroke="#4B3425" stroke-width="2" stroke-linejoin="round" />

</svg>