<svg width="72.00" height="72.00" viewBox="846.00 2072.00 72.00 72.00" fill="none" xmlns="http://www.w3.org/2000/svg">
  <rect x="850" y="2076" width="64" height="64" rx="32" fill="#F7F4F2" />

  <path d="M878 2102C878 2102.55 877.552 2103 877 2103C876.448 2103 876 2102.55 876 2102C876 2101.45 876.448 2101 877 2101C877.552 2101 878 2101.45 878 2102Z" fill="#4B3425" />

  <path d="M881 2102C881 2102.55 880.552 2103 880 2103C879.448 2103 879 2102.55 879 2102C879 2101.45 879.448 2101 880 2101C880.552 2101 881 2101.45 881 2102Z" fill="#4B3425" />

  <path d="M887 2103C887.552 2103 888 2102.55 888 2102C888 2101.45 887.552 2101 887 2101C886.448 2101 886 2101.45 886 2102C886 2102.55 886.448 2103 887 2103Z" fill="#4B3425" />

  <path d="M881 2112H878V2110H881V2107H883V2110H886V2112H883V2115H881V2112Z" fill="#4B3425" />

</svg>