<svg width="72.00" height="72.00" viewBox="86.00 396.00 72.00 72.00" fill="none" xmlns="http://www.w3.org/2000/svg">
  <rect x="90" y="400" width="64" height="64" rx="32" fill="#F7F4F2" />

  <path d="M122 433C122 432.47 121.789 431.961 121.414 431.586C121.039 431.211 120.53 431 120 431C119.47 431 118.961 431.211 118.586 431.586C118.211 431.961 118 432.47 118 433" stroke="#4B3425" stroke-width="2" stroke-linejoin="round" />

  <path d="M125 441L125 428" stroke="#4B3425" stroke-width="2" stroke-linejoin="round" />

  <path d="M129 428C129 427.47 128.789 426.961 128.414 426.586C128.039 426.211 127.53 426 127 426C126.47 426 125.961 426.211 125.586 426.586C125.211 426.961 125 427.47 125 428" stroke="#4B3425" stroke-width="2" stroke-linejoin="round" />

</svg>