<svg width="72.00" height="72.00" viewBox="694.00 776.00 72.00 72.00" fill="none" xmlns="http://www.w3.org/2000/svg">
  <rect x="698" y="780" width="64" height="64" rx="32" fill="#F7F4F2" />

  <path d="M723.636 818.364C722.377 817.105 721.52 815.502 721.173 813.756C720.826 812.01 721.004 810.2 721.685 808.556C722.366 806.911 723.52 805.506 725 804.517C726.48 803.528 728.22 803 730 803C731.78 803 733.52 803.528 735 804.517C736.48 805.506 737.634 806.911 738.315 808.556C738.996 810.2 739.174 812.01 738.827 813.756C738.48 815.502 737.623 817.105 736.364 818.364" stroke="#4B3425" stroke-width="2" stroke-linejoin="round" />

  <path d="M735 808L731 812" stroke="#4B3425" stroke-width="2" stroke-linejoin="round" />

  <circle cx="730" cy="813" r="2" stroke="#4B3425" stroke-width="2" stroke-linejoin="round" />

</svg>