<svg width="72.00" height="72.00" viewBox="694.00 2376.00 72.00 72.00" fill="none" xmlns="http://www.w3.org/2000/svg">
  <rect x="698" y="2380" width="64" height="64" rx="32" fill="#F7F4F2" />

  <path d="M730 2404C728.418 2404 726.871 2404.47 725.555 2405.35C724.24 2406.23 723.214 2407.48 722.609 2408.94C722.003 2410.4 721.845 2412.01 722.154 2413.56C722.462 2415.11 723.224 2416.54 724.343 2417.66L722.929 2419.07C721.53 2417.67 720.578 2415.89 720.192 2413.95C719.806 2412.01 720.004 2410 720.761 2408.17C721.518 2406.35 722.8 2404.78 724.444 2403.69C726.089 2402.59 728.022 2402 730 2402C731.978 2402 733.911 2402.59 735.556 2403.69C737.2 2404.78 738.482 2406.35 739.239 2408.17C739.996 2410 740.194 2412.01 739.808 2413.95C739.422 2415.89 738.47 2417.67 737.071 2419.07L735.657 2417.66C736.776 2416.54 737.538 2415.11 737.846 2413.56C738.155 2412.01 737.997 2410.4 737.391 2408.94C736.786 2407.48 735.76 2406.23 734.445 2405.35C733.129 2404.47 731.582 2404 730 2404Z" fill="#4B3425" />

  <path d="M731.293 2410.29L734.293 2407.29L735.707 2408.71L732.708 2411.71C732.895 2412.1 733 2412.54 733 2413C733 2414.66 731.657 2416 730 2416C728.343 2416 727 2414.66 727 2413C727 2411.34 728.343 2410 730 2410C730.463 2410 730.902 2410.11 731.293 2410.29Z" fill="#4B3425" />

</svg>