<svg width="72.00" height="73.15" viewBox="86.00 2872.00 72.00 73.15" fill="none" xmlns="http://www.w3.org/2000/svg">
  <rect x="90" y="2876" width="64" height="64" rx="32" fill="#E5EAD7" />

  <path d="M122 2876L136.667 2890.67C144.767 2898.77 144.767 2911.9 136.667 2920C128.566 2928.1 115.434 2928.1 107.333 2920C99.2332 2911.9 99.2332 2898.77 107.333 2890.67L122 2876Z" fill="#4B3425" />

  <path d="M122 2908L131.333 2917.33C136.488 2922.49 136.488 2930.85 131.333 2936C126.179 2941.15 117.821 2941.15 112.667 2936C107.512 2930.85 107.512 2922.49 112.667 2917.33L122 2908Z" fill="#9BB068" />

  <rect x="90" y="2876" width="64" height="64" rx="32" fill="white" />

</svg>