<svg width="72.00" height="72.00" viewBox="86.00 472.00 72.00 72.00" fill="none" xmlns="http://www.w3.org/2000/svg">
  <rect x="90" y="476" width="64" height="64" rx="32" fill="#F7F4F2" />

  <path d="M124.196 502C123.736 501.203 123.099 500.522 122.333 500.011C121.568 499.5 120.696 499.171 119.783 499.051C118.871 498.931 117.943 499.023 117.071 499.318C116.2 499.614 115.408 500.107 114.757 500.757C114.107 501.408 113.614 502.2 113.318 503.071C113.023 503.943 112.931 504.871 113.051 505.783C113.171 506.696 113.5 507.568 114.011 508.333C114.522 509.099 115.203 509.736 116 510.196" stroke="#4B3425" stroke-width="2" stroke-linejoin="round" />

  <path d="M130.196 508C130.59 508.682 130.846 509.436 130.949 510.217C131.052 510.998 130.999 511.792 130.796 512.553C130.592 513.314 130.24 514.027 129.76 514.653C129.28 515.278 128.682 515.802 128 516.196C127.318 516.59 126.564 516.846 125.783 516.949C125.002 517.052 124.208 516.999 123.447 516.796C122.686 516.592 121.973 516.24 121.347 515.76C120.722 515.28 120.198 514.682 119.804 514C119.41 513.318 119.154 512.564 119.051 511.783C118.948 511.002 119.001 510.208 119.204 509.447C119.408 508.686 119.76 507.973 120.24 507.347C120.72 506.722 121.318 506.198 122 505.804C122.682 505.41 123.436 505.154 124.217 505.051C124.998 504.948 125.792 505.001 126.553 505.204C127.314 505.408 128.027 505.76 128.653 506.24C129.278 506.72 129.802 507.318 130.196 508L130.196 508Z" stroke="#4B3425" stroke-width="2" stroke-linejoin="round" />

  <path d="M121 515L129 507" stroke="#4B3425" stroke-width="2" stroke-linejoin="round" />

</svg>