<svg width="72.00" height="104.00" viewBox="770.00 2872.00 72.00 104.00" fill="none" xmlns="http://www.w3.org/2000/svg">
  <rect x="774" y="2876" width="64" height="64" rx="32" fill="#E5EAD7" />

  <rect x="790" y="2876" width="32" height="32" rx="16" fill="#4B3425" />

  <path d="M822 2892C822 2889.9 821.586 2887.82 820.782 2885.88C819.978 2883.94 818.799 2882.17 817.314 2880.69C815.828 2879.2 814.064 2878.02 812.123 2877.22C810.182 2876.41 808.101 2876 806 2876C803.899 2876 801.818 2876.41 799.877 2877.22C797.936 2878.02 796.172 2879.2 794.686 2880.69C793.201 2882.17 792.022 2883.94 791.218 2885.88C790.414 2887.82 790 2889.9 790 2892L806 2892H822Z" fill="#9BB068" />

  <rect x="774" y="2908" width="64" height="64" rx="32" fill="#9BB068" />

  <path fill-rule="evenodd" clip-rule="evenodd" d="M817.121 2909.99L806 2926.67L794.879 2909.99C798.343 2908.7 802.089 2908 806 2908C809.91 2908 813.657 2908.7 817.121 2909.99Z" fill="#E5EAD7" />

  <rect x="774" y="2876" width="64" height="64" rx="32" fill="white" />

</svg>