<svg width="72.00" height="72.00" viewBox="314.00 2528.00 72.00 72.00" fill="none" xmlns="http://www.w3.org/2000/svg">
  <rect x="318" y="2532" width="64" height="64" rx="32" fill="#F7F4F2" />

  <path fill-rule="evenodd" clip-rule="evenodd" d="M340 2564C340 2558.48 344.477 2554 350 2554C355.523 2554 360 2558.48 360 2564C360 2569.52 355.523 2574 350 2574C344.477 2574 340 2569.52 340 2564ZM347.293 2559.29L346.5 2560.09L345.707 2559.29L344.293 2560.71L345.086 2561.5L344.293 2562.29L345.707 2563.71L346.5 2562.91L347.293 2563.71L348.707 2562.29L347.914 2561.5L348.707 2560.71L347.293 2559.29ZM350 2565C348.947 2565 347.912 2565.28 347 2565.8C346.088 2566.33 345.33 2567.09 344.804 2568L346.536 2569C346.887 2568.39 347.392 2567.89 348 2567.54C348.608 2567.18 349.298 2567 350 2567C350.702 2567 351.392 2567.18 352 2567.54C352.608 2567.89 353.113 2568.39 353.464 2569L355.196 2568C354.67 2567.09 353.912 2566.33 353 2565.8C352.088 2565.28 351.053 2565 350 2565ZM351.293 2560.71L352.086 2561.5L351.293 2562.29L352.707 2563.71L353.5 2562.91L354.293 2563.71L355.707 2562.29L354.914 2561.5L355.707 2560.71L354.293 2559.29L353.5 2560.09L352.707 2559.29L351.293 2560.71Z" fill="#4B3425" />

</svg>