<svg width="1512.00" height="72.00" viewBox="188.00 1652.00 1512.00 72.00" fill="none" xmlns="http://www.w3.org/2000/svg">
  <path d="M192 1685V1696" stroke="#4B3425" stroke-width="2" stroke-linejoin="round" />

  <path d="M204 1685V1696" stroke="#4B3425" stroke-width="2" stroke-linejoin="round" />

  <rect x="926" y="1656" width="64" height="64" rx="32" fill="#F7F4F2" />

  <circle cx="958" cy="1688" r="9" stroke="#4B3425" stroke-width="2" />

  <path d="M962.83 1689.29C962.545 1690.36 961.917 1691.3 961.044 1691.97C960.171 1692.64 959.101 1693 958 1693C956.899 1693 955.829 1692.64 954.956 1691.97C954.083 1691.3 953.455 1690.36 953.17 1689.29" stroke="#9BB068" stroke-width="2" />

  <path d="M956 1686.5C956 1686.3 955.961 1686.11 955.886 1685.93C955.81 1685.74 955.7 1685.58 955.561 1685.44C955.421 1685.3 955.256 1685.19 955.074 1685.11C954.892 1685.04 954.697 1685 954.5 1685C954.303 1685 954.108 1685.04 953.926 1685.11C953.744 1685.19 953.579 1685.3 953.439 1685.44C953.3 1685.58 953.19 1685.74 953.114 1685.93C953.039 1686.11 953 1686.3 953 1686.5" stroke="#4B3425" stroke-width="2" />

  <path d="M963 1686.5C963 1686.3 962.961 1686.11 962.886 1685.93C962.81 1685.74 962.7 1685.58 962.561 1685.44C962.421 1685.3 962.256 1685.19 962.074 1685.11C961.892 1685.04 961.697 1685 961.5 1685C961.303 1685 961.108 1685.04 960.926 1685.11C960.744 1685.19 960.579 1685.3 960.439 1685.44C960.3 1685.58 960.19 1685.74 960.114 1685.93C960.039 1686.11 960 1686.3 960 1686.5" stroke="#4B3425" stroke-width="2" />

</svg>