<svg width="72.00" height="72.00" viewBox="466.00 1272.00 72.00 72.00" fill="none" xmlns="http://www.w3.org/2000/svg">
  <rect x="470" y="1276" width="64" height="64" rx="32" fill="#F7F4F2" />

  <path d="M499 1308L499 1313" stroke="#9BB068" stroke-width="2" stroke-linejoin="round" />

  <path d="M505 1303L505 1308" stroke="#9BB068" stroke-width="2" stroke-linejoin="round" />

  <circle cx="502" cy="1308" r="9" stroke="#4B3425" stroke-width="2" stroke-linejoin="round" />

  <path d="M507 1310C507 1309.74 506.948 1309.48 506.848 1309.23C506.747 1308.99 506.6 1308.77 506.414 1308.59C506.228 1308.4 506.008 1308.25 505.765 1308.15C505.523 1308.05 505.263 1308 505 1308C504.737 1308 504.477 1308.05 504.235 1308.15C503.992 1308.25 503.772 1308.4 503.586 1308.59C503.4 1308.77 503.253 1308.99 503.152 1309.23C503.052 1309.48 503 1309.74 503 1310C503 1310.26 503.052 1310.52 503.152 1310.77C503.253 1311.01 503.4 1311.23 503.586 1311.41C503.772 1311.6 503.992 1311.75 504.235 1311.85C504.477 1311.95 504.737 1312 505 1312C505.263 1312 505.523 1311.95 505.765 1311.85C506.008 1311.75 506.228 1311.6 506.414 1311.41C506.6 1311.23 506.747 1311.01 506.848 1310.77C506.948 1310.52 507 1310.26 507 1310L507 1310Z" stroke="#9BB068" stroke-width="2" stroke-linejoin="round" />

  <path d="M501 1306C501 1305.74 500.948 1305.48 500.848 1305.23C500.747 1304.99 500.6 1304.77 500.414 1304.59C500.228 1304.4 500.008 1304.25 499.765 1304.15C499.523 1304.05 499.263 1304 499 1304C498.737 1304 498.477 1304.05 498.235 1304.15C497.992 1304.25 497.772 1304.4 497.586 1304.59C497.4 1304.77 497.253 1304.99 497.152 1305.23C497.052 1305.48 497 1305.74 497 1306C497 1306.26 497.052 1306.52 497.152 1306.77C497.253 1307.01 497.4 1307.23 497.586 1307.41C497.772 1307.6 497.992 1307.75 498.235 1307.85C498.477 1307.95 498.737 1308 499 1308C499.263 1308 499.523 1307.95 499.765 1307.85C500.008 1307.75 500.228 1307.6 500.414 1307.41C500.6 1307.23 500.747 1307.01 500.848 1306.77C500.948 1306.52 501 1306.26 501 1306L501 1306Z" stroke="#9BB068" stroke-width="2" stroke-linejoin="round" />

</svg>