<svg width="1134.00" height="1123.32" viewBox="187.00 185.00 1134.00 1123.32" fill="none" xmlns="http://www.w3.org/2000/svg">
  <path d="M952 508V512C952 514.761 954.239 517 957 517C959.761 517 962 514.761 962 512V509" stroke="#4B3425" stroke-width="2" stroke-linejoin="round" />

  <path d="M961 499C959.343 499 958 500.343 958 502V505C958 507.209 959.791 509 962 509C964.209 509 966 507.209 966 505V502C966 500.343 964.657 499 963 499" stroke="#4B3425" stroke-width="2" stroke-linejoin="round" />

  <path d="M884 583.446V580.5C884 578.567 885.567 577 887.5 577H887.868C889.598 577 891 578.402 891 580.132C891 580.7 890.846 581.257 890.554 581.744L888.744 584.76C888.282 585.529 887.451 586 886.554 586C885.143 586 884 584.857 884 583.446Z" stroke="#4B3425" stroke-width="2" stroke-linejoin="round" />

  <path d="M878.146 588.708L877.683 589.633C877.265 590.471 876.409 591 875.472 591C874.107 591 873 589.893 873 588.528V581C873 578.791 874.791 577 877 577H880C882.209 577 884 578.791 884 581V583.91C884 585.616 882.616 587 880.91 587C879.739 587 878.669 587.661 878.146 588.708Z" stroke="#4B3425" stroke-width="2" stroke-linejoin="round" />

  <path d="M809 653H803C799.686 653 797 655.686 797 659C797 662.314 799.686 665 803 665H809C812.314 665 815 662.314 815 659C815 655.686 812.314 653 809 653Z" stroke="#4B3425" stroke-width="2" stroke-linejoin="round" />

  <rect x="698" y="704" width="64" height="64" rx="32" fill="#F7F4F2" />

  <path d="M724 731.441C724 731.197 724.197 731 724.441 731H735.559C735.803 731 736 731.197 736 731.441V739C736 742.314 733.314 745 730 745C726.686 745 724 742.314 724 739V731.441Z" stroke="#4B3425" stroke-width="2" stroke-linejoin="round" />

  <path d="M736 728H724" stroke="#4B3425" stroke-width="2" stroke-linejoin="round" />

  <path d="M727 738H733" stroke="#4B3425" stroke-width="2" stroke-linejoin="round" />

  <path d="M730 735L730 741" stroke="#4B3425" stroke-width="2" stroke-linejoin="round" />

  <path d="M644 812H646.983C648.769 812 650.338 813.184 650.829 814.901L651.764 818.173C651.904 818.663 652.351 819 652.86 819C653.49 819 654 818.49 654 817.86V806.14C654 805.51 654.51 805 655.14 805C655.649 805 656.096 805.337 656.236 805.827L657.171 809.099C657.662 810.816 659.231 812 661.017 812H664" stroke="#4B3425" stroke-width="2" stroke-linejoin="round" />

  <path d="M584 896V889C584 886.239 581.761 884 579 884C576.239 884 574 886.239 574 889V896" stroke="#4B3425" stroke-width="2" stroke-linejoin="round" />

  <path d="M272 1152H274C276.209 1152 278 1153.79 278 1156V1161" stroke="#9BB068" stroke-width="2" stroke-linejoin="round" />

  <path d="M266 1165H274C274 1163.94 274.421 1162.92 275.172 1162.17C275.922 1161.42 276.939 1161 278 1161C279.061 1161 280.078 1161.42 280.828 1162.17C281.579 1162.92 282 1163.94 282 1165V1166" stroke="#4B3425" stroke-width="2" stroke-linejoin="round" />

  <path d="M358 1156V1158C358 1161.31 355.314 1164 352 1164H348C344.686 1164 342 1161.31 342 1158C342 1154.69 344.686 1152 348 1152" stroke="#4B3425" stroke-width="2" stroke-linejoin="round" />

  <path d="M350 1151C350 1149.34 351.343 1148 353 1148H356C357.657 1148 359 1149.34 359 1151C359 1152.66 357.657 1154 356 1154H352.414C352.149 1154 351.895 1154.11 351.707 1154.29L351.414 1154.59C350.892 1155.11 350 1154.74 350 1154V1151Z" stroke="#9BB068" stroke-width="2" stroke-linejoin="round" />

  <path d="M207 1241H193C190.791 1241 189 1239.21 189 1237L189 1223" stroke="#4B3425" stroke-width="2" stroke-linejoin="round" />

  <path d="M283 1241H269C266.791 1241 265 1239.21 265 1237L265 1223" stroke="#4B3425" stroke-width="2" stroke-linejoin="round" />

  <path d="M205 1304.32V1310C205 1313.87 201.866 1317 198 1317C194.134 1317 191 1313.87 191 1310V1304.32C191 1302.89 191.769 1301.56 193.015 1300.85L196.015 1299.13C197.245 1298.43 198.755 1298.43 199.985 1299.13L202.985 1300.85C204.231 1301.56 205 1302.89 205 1304.32Z" stroke="#4B3425" stroke-width="2" stroke-linejoin="round" />

</svg>