<svg width="72.00" height="72.00" viewBox="542.00 320.00 72.00 72.00" fill="none" xmlns="http://www.w3.org/2000/svg">
  <rect x="546" y="324" width="64" height="64" rx="32" fill="#F7F4F2" />

  <path d="M578 366L578 362" stroke="#4B3425" stroke-width="2" stroke-linejoin="round" />

  <path d="M574 351.004L574 358C574 360.209 575.791 362 578 362C580.209 362 582 360.209 582 358L582 351.004C582 351.002 581.998 351 581.996 351L574.004 351C574.002 351 574 351.002 574 351.004Z" stroke="#4B3425" stroke-width="2" stroke-linejoin="round" />

  <path d="M585 351H571" stroke="#4B3425" stroke-width="2" stroke-linejoin="round" />

  <path d="M578 350C578 349.204 578.316 348.441 578.879 347.879C579.441 347.316 580.204 347 581 347" stroke="#4B3425" stroke-width="2" stroke-linejoin="round" />

  <path d="M578 350C578 349.204 577.684 348.441 577.121 347.879C576.559 347.316 575.796 347 575 347" stroke="#4B3425" stroke-width="2" stroke-linejoin="round" />

  <path d="M574 358C574 357.475 574.103 356.955 574.304 356.469C574.506 355.984 574.8 355.543 575.172 355.172C575.543 354.8 575.984 354.506 576.469 354.304C576.955 354.103 577.475 354 578 354C578.525 354 579.045 354.103 579.531 354.304C580.016 354.506 580.457 354.8 580.828 355.172C581.2 355.543 581.495 355.984 581.696 356.469C581.897 356.955 582 357.475 582 358" stroke="#4B3425" stroke-width="2" stroke-linejoin="round" />

</svg>