<svg width="72.00" height="72.00" viewBox="618.00 1348.00 72.00 72.00" fill="none" xmlns="http://www.w3.org/2000/svg">
  <rect x="622" y="1352" width="64" height="64" rx="32" fill="#F7F4F2" />

  <path d="M651 1374C651 1374.39 651.078 1374.78 651.228 1375.15C651.379 1375.51 651.6 1375.84 651.879 1376.12C652.157 1376.4 652.488 1376.62 652.852 1376.77C653.216 1376.92 653.606 1377 654 1377C654.394 1377 654.784 1376.92 655.148 1376.77C655.512 1376.62 655.843 1376.4 656.121 1376.12C656.4 1375.84 656.621 1375.51 656.772 1375.15C656.922 1374.78 657 1374.39 657 1374" stroke="#9BB068" stroke-width="2" stroke-linejoin="round" />

  <circle cx="654" cy="1385" r="8" stroke="#4B3425" stroke-width="2" stroke-linejoin="round" />

  <path d="M654 1386L658 1382" stroke="#9BB068" stroke-width="2" stroke-linejoin="round" />

</svg>