<svg width="72.00" height="72.00" viewBox="542.00 1120.00 72.00 72.00" fill="none" xmlns="http://www.w3.org/2000/svg">
  <rect x="546" y="1124" width="64" height="64" rx="32" fill="#F7F4F2" />

  <path d="M574 1158C574 1157.47 574.103 1156.95 574.304 1156.47C574.506 1155.98 574.8 1155.54 575.172 1155.17C575.543 1154.8 575.984 1154.51 576.469 1154.3C576.955 1154.1 577.475 1154 578 1154C578.525 1154 579.045 1154.1 579.531 1154.3C580.016 1154.51 580.457 1154.8 580.828 1155.17C581.2 1155.54 581.495 1155.98 581.696 1156.47C581.897 1156.95 582 1157.47 582 1158" stroke="#9BB068" stroke-width="2" stroke-linejoin="round" />

  <path d="M578 1166L578 1162" stroke="#4B3425" stroke-width="2" stroke-linejoin="round" />

  <path d="M574 1151L574 1158C574 1160.21 575.791 1162 578 1162C580.209 1162 582 1160.21 582 1158L582 1151C582 1151 581.998 1151 581.996 1151L574.004 1151C574.002 1151 574 1151 574 1151Z" stroke="#4B3425" stroke-width="2" stroke-linejoin="round" />

  <path d="M585 1151H571" stroke="#4B3425" stroke-width="2" stroke-linejoin="round" />

  <path d="M578 1150C578 1149.2 578.316 1148.44 578.879 1147.88C579.441 1147.32 580.204 1147 581 1147" stroke="#4B3425" stroke-width="2" stroke-linejoin="round" />

  <path d="M578 1150C578 1149.2 577.684 1148.44 577.121 1147.88C576.559 1147.32 575.796 1147 575 1147" stroke="#4B3425" stroke-width="2" stroke-linejoin="round" />

</svg>