<svg width="72.00" height="72.00" viewBox="314.00 1996.00 72.00 72.00" fill="none" xmlns="http://www.w3.org/2000/svg">
  <rect x="318" y="2000" width="64" height="64" rx="32" fill="#F7F4F2" />

  <path fill-rule="evenodd" clip-rule="evenodd" d="M353 2024C351.343 2024 350 2025.34 350 2027C350 2028.66 351.343 2030 353 2030C354.657 2030 356 2028.66 356 2027C356 2025.34 354.657 2024 353 2024ZM352 2027C352 2026.45 352.448 2026 353 2026C353.552 2026 354 2026.45 354 2027C354 2027.55 353.552 2028 353 2028C352.448 2028 352 2027.55 352 2027Z" fill="#4B3425" />

  <path fill-rule="evenodd" clip-rule="evenodd" d="M344 2031C344 2029.34 345.343 2028 347 2028C348.657 2028 350 2029.34 350 2031C350 2032.66 348.657 2034 347 2034C345.343 2034 344 2032.66 344 2031ZM347 2030C346.448 2030 346 2030.45 346 2031C346 2031.55 346.448 2032 347 2032C347.552 2032 348 2031.55 348 2031C348 2030.45 347.552 2030 347 2030Z" fill="#4B3425" />

  <path fill-rule="evenodd" clip-rule="evenodd" d="M353 2032C351.343 2032 350 2033.34 350 2035C350 2036.66 351.343 2038 353 2038C354.657 2038 356 2036.66 356 2035C356 2033.34 354.657 2032 353 2032ZM352 2035C352 2034.45 352.448 2034 353 2034C353.552 2034 354 2034.45 354 2035C354 2035.55 353.552 2036 353 2036C352.448 2036 352 2035.55 352 2035Z" fill="#4B3425" />

</svg>