<svg width="72.00" height="72.00" viewBox="162.00 1348.00 72.00 72.00" fill="none" xmlns="http://www.w3.org/2000/svg">
  <rect x="166" y="1352" width="64" height="64" rx="32" fill="#F7F4F2" />

  <path d="M201 1375C201 1375.39 200.922 1375.78 200.772 1376.15C200.621 1376.51 200.4 1376.84 200.121 1377.12C199.843 1377.4 199.512 1377.62 199.148 1377.77C198.784 1377.92 198.394 1378 198 1378C197.606 1378 197.216 1377.92 196.852 1377.77C196.488 1377.62 196.157 1377.4 195.879 1377.12C195.6 1376.84 195.379 1376.51 195.228 1376.15C195.078 1375.78 195 1375.39 195 1375" stroke="#4B3425" stroke-width="2" stroke-linejoin="round" />

  <path d="M197 1384C197 1384.59 197.176 1385.17 197.506 1385.67C197.835 1386.16 198.304 1386.54 198.852 1386.77C199.4 1387 200.003 1387.06 200.585 1386.94C201.167 1386.83 201.702 1386.54 202.121 1386.12L208 1380" stroke="#9BB068" stroke-width="2" stroke-linejoin="round" />

</svg>