<svg width="72.00" height="72.00" viewBox="846.00 1652.00 72.00 72.00" fill="none" xmlns="http://www.w3.org/2000/svg">
  <rect x="850" y="1656" width="64" height="64" rx="32" fill="#F7F4F2" />

  <path d="M873 1686C875.209 1686 877 1687.79 877 1690" stroke="#4B3425" stroke-width="2" stroke-linejoin="round" />

  <path d="M873 1690H891" stroke="#4B3425" stroke-width="2" stroke-linejoin="round" />

  <path d="M888 1683L880 1683" stroke="#9BB068" stroke-width="2" stroke-linejoin="round" />

  <path d="M873 1698C873 1697.2 873.316 1696.44 873.879 1695.88C874.441 1695.32 875.204 1695 876 1695C876.796 1695 877.559 1695.32 878.121 1695.88C878.684 1696.44 879 1697.2 879 1698" stroke="#4B3425" stroke-width="2" stroke-linejoin="round" />

  <path d="M885 1698C885 1697.2 885.316 1696.44 885.879 1695.88C886.441 1695.32 887.204 1695 888 1695C888.796 1695 889.559 1695.32 890.121 1695.88C890.684 1696.44 891 1697.2 891 1698" stroke="#4B3425" stroke-width="2" stroke-linejoin="round" />

</svg>