<svg width="72.00" height="72.00" viewBox="770.00 2072.00 72.00 72.00" fill="none" xmlns="http://www.w3.org/2000/svg">
  <rect x="774" y="2076" width="64" height="64" rx="32" fill="#F7F4F2" />

  <path d="M802 2102C802 2102.55 801.552 2103 801 2103C800.448 2103 800 2102.55 800 2102C800 2101.45 800.448 2101 801 2101C801.552 2101 802 2101.45 802 2102Z" fill="#4B3425" />

  <path d="M804 2103C804.552 2103 805 2102.55 805 2102C805 2101.45 804.552 2101 804 2101C803.448 2101 803 2101.45 803 2102C803 2102.55 803.448 2103 804 2103Z" fill="#4B3425" />

  <path d="M812 2102C812 2102.55 811.552 2103 811 2103C810.448 2103 810 2102.55 810 2102C810 2101.45 810.448 2101 811 2101C811.552 2101 812 2101.45 812 2102Z" fill="#4B3425" />

</svg>