<svg width="72.00" height="72.00" viewBox="162.00 1996.00 72.00 72.00" fill="none" xmlns="http://www.w3.org/2000/svg">
  <rect x="166" y="2000" width="64" height="64" rx="32" fill="#F7F4F2" />

  <path d="M196 2027C196 2026.73 195.895 2026.48 195.707 2026.29C195.52 2026.11 195.265 2026 195 2026C194.735 2026 194.48 2026.11 194.293 2026.29C194.105 2026.48 194 2026.73 194 2027L192 2027C192 2026.2 192.316 2025.44 192.879 2024.88C193.441 2024.32 194.204 2024 195 2024C195.796 2024 196.559 2024.32 197.121 2024.88C197.684 2025.44 198 2026.2 198 2027H196Z" fill="#4B3425" />

  <path d="M203 2031C203 2030.73 202.895 2030.48 202.707 2030.29C202.52 2030.11 202.265 2030 202 2030C201.735 2030 201.48 2030.11 201.293 2030.29C201.105 2030.48 201 2030.73 201 2031L199 2031C199 2030.2 199.316 2029.44 199.879 2028.88C200.441 2028.32 201.204 2028 202 2028C202.796 2028 203.559 2028.32 204.121 2028.88C204.684 2029.44 205 2030.2 205 2031H203Z" fill="#4B3425" />

</svg>