<svg width="753.00" height="72.00" viewBox="565.00 1272.00 753.00 72.00" fill="none" xmlns="http://www.w3.org/2000/svg">
  <path d="M587 1302C587 1301.74 586.948 1301.48 586.848 1301.23C586.747 1300.99 586.6 1300.77 586.414 1300.59C586.228 1300.4 586.008 1300.25 585.765 1300.15C585.523 1300.05 585.263 1300 585 1300C584.737 1300 584.477 1300.05 584.235 1300.15C583.992 1300.25 583.772 1300.4 583.586 1300.59C583.4 1300.77 583.253 1300.99 583.152 1301.23C583.052 1301.48 583 1301.74 583 1302C583 1302.26 583.052 1302.52 583.152 1302.77C583.253 1303.01 583.4 1303.23 583.586 1303.41C583.772 1303.6 583.992 1303.75 584.235 1303.85C584.477 1303.95 584.737 1304 585 1304C585.263 1304 585.523 1303.95 585.765 1303.85C586.008 1303.75 586.228 1303.6 586.414 1303.41C586.6 1303.23 586.747 1303.01 586.848 1302.77C586.948 1302.52 587 1302.26 587 1302V1302Z" stroke="#4B3425" stroke-width="2" stroke-linejoin="round" />

  <path d="M580 1308C580 1307.74 579.948 1307.48 579.848 1307.23C579.747 1306.99 579.6 1306.77 579.414 1306.59C579.228 1306.4 579.008 1306.25 578.765 1306.15C578.523 1306.05 578.263 1306 578 1306C577.737 1306 577.477 1306.05 577.235 1306.15C576.992 1306.25 576.772 1306.4 576.586 1306.59C576.4 1306.77 576.253 1306.99 576.152 1307.23C576.052 1307.48 576 1307.74 576 1308C576 1308.26 576.052 1308.52 576.152 1308.77C576.253 1309.01 576.4 1309.23 576.586 1309.41C576.772 1309.6 576.992 1309.75 577.235 1309.85C577.477 1309.95 577.737 1310 578 1310C578.263 1310 578.523 1309.95 578.765 1309.85C579.008 1309.75 579.228 1309.6 579.414 1309.41C579.6 1309.23 579.747 1309.01 579.848 1308.77C579.948 1308.52 580 1308.26 580 1308V1308Z" stroke="#9BB068" stroke-width="2" stroke-linejoin="round" />

  <path d="M573 1314C573 1313.74 572.948 1313.48 572.848 1313.23C572.747 1312.99 572.6 1312.77 572.414 1312.59C572.228 1312.4 572.008 1312.25 571.765 1312.15C571.523 1312.05 571.263 1312 571 1312C570.737 1312 570.477 1312.05 570.235 1312.15C569.992 1312.25 569.772 1312.4 569.586 1312.59C569.4 1312.77 569.253 1312.99 569.152 1313.23C569.052 1313.48 569 1313.74 569 1314C569 1314.26 569.052 1314.52 569.152 1314.77C569.253 1315.01 569.4 1315.23 569.586 1315.41C569.772 1315.6 569.992 1315.75 570.235 1315.85C570.477 1315.95 570.737 1316 571 1316C571.263 1316 571.523 1315.95 571.765 1315.85C572.008 1315.75 572.228 1315.6 572.414 1315.41C572.6 1315.23 572.747 1315.01 572.848 1314.77C572.948 1314.52 573 1314.26 573 1314V1314Z" stroke="#4B3425" stroke-width="2" stroke-linejoin="round" />

  <rect x="926" y="1276" width="64" height="64" rx="32" fill="#F7F4F2" />

</svg>