<svg width="1361.00" height="1364.00" viewBox="112.00 109.00 1361.00 1364.00" fill="none" xmlns="http://www.w3.org/2000/svg">
  <path d="M961 653H955C951.686 653 949 655.686 949 659C949 662.314 951.686 665 955 665H961C964.314 665 967 662.314 967 659C967 655.686 964.314 653 961 653Z" stroke="#4B3425" stroke-width="2" stroke-linejoin="round" />

  <path d="M949 659H953.5C954.328 659 955 659.672 955 660.5C955 661.328 955.672 662 956.5 662C957.328 662 958 661.328 958 660.5V659V657.5C958 656.672 958.672 656 959.5 656C960.328 656 961 656.672 961 657.5C961 658.328 961.672 659 962.5 659H967" stroke="#4B3425" stroke-width="2" stroke-linejoin="round" />

  <path d="M878 731.5C878 731.224 878.224 731 878.5 731H885.5C885.776 731 886 731.224 886 731.5V741C886 743.209 884.209 745 882 745C879.791 745 878 743.209 878 741V731.5Z" stroke="#4B3425" stroke-width="2" stroke-linejoin="round" />

  <path d="M876 729C876 727.895 876.895 727 878 727H886C887.105 727 888 727.895 888 729C888 730.105 887.105 731 886 731H878C876.895 731 876 730.105 876 729Z" stroke="#4B3425" stroke-width="2" stroke-linejoin="round" />

  <rect x="774" y="780" width="64" height="64" rx="32" fill="#F7F4F2" />

  <path d="M802 816L798 820" stroke="#4B3425" stroke-width="2" stroke-linejoin="round" />

  <path d="M809 809L805 813" stroke="#4B3425" stroke-width="2" stroke-linejoin="round" />

  <path d="M812.172 811.828L807.828 816.172C806.266 817.734 803.734 817.734 802.172 816.172L801.828 815.828C800.266 814.266 800.266 811.734 801.828 810.172L806.172 805.828C807.734 804.266 810.266 804.266 811.828 805.828L812.172 806.172C813.734 807.734 813.734 810.266 812.172 811.828Z" stroke="#4B3425" stroke-width="2" stroke-linejoin="round" />

  <path d="M740 885V883C740 880.791 738.209 879 736 879H724C721.791 879 720 880.791 720 883V885V885.5C720 886.881 721.119 888 722.5 888C723.881 888 725 886.881 725 885.5V885" stroke="#4B3425" stroke-width="2" stroke-linejoin="round" />

  <path d="M725 884V885.5C725 886.881 726.119 888 727.5 888C728.881 888 730 886.881 730 885.5V884" stroke="#4B3425" stroke-width="2" stroke-linejoin="round" />

  <path d="M424 1163H428C431.314 1163 434 1160.31 434 1157C434 1153.69 431.314 1151 428 1151H424C420.686 1151 418 1153.69 418 1157C418 1160.31 420.686 1163 424 1163Z" stroke="#4B3425" stroke-width="2" stroke-linejoin="round" />

  <path d="M508 1153V1150C508 1148.34 506.657 1147 505 1147C503.343 1147 502 1148.34 502 1150V1162C502 1163.66 503.343 1165 505 1165C506.657 1165 508 1163.66 508 1162V1159C509.657 1159 511 1157.66 511 1156C511 1154.34 509.657 1153 508 1153Z" stroke="#9BB068" stroke-width="2" stroke-linejoin="round" />

  <path d="M496 1153V1150C496 1148.34 497.343 1147 499 1147C500.657 1147 502 1148.34 502 1150V1162C502 1163.66 500.657 1165 499 1165C497.343 1165 496 1163.66 496 1162V1159C494.343 1159 493 1157.66 493 1156C493 1154.34 494.343 1153 496 1153Z" stroke="#4B3425" stroke-width="2" stroke-linejoin="round" />

  <path d="M359 1241H345C342.791 1241 341 1239.21 341 1237L341 1223" stroke="#4B3425" stroke-width="2" stroke-linejoin="round" />

  <path d="M435 1241H421C418.791 1241 417 1239.21 417 1237L417 1223" stroke="#4B3425" stroke-width="2" stroke-linejoin="round" />

  <path d="M274 1299C272.343 1299 271 1300.34 271 1302V1305H268C266.343 1305 265 1306.34 265 1308C265 1309.66 266.343 1311 268 1311H271V1314C271 1315.66 272.343 1317 274 1317" stroke="#4B3425" stroke-width="2" stroke-linejoin="round" />

  <path d="M274 1299C275.657 1299 277 1300.34 277 1302V1305H280C281.657 1305 283 1306.34 283 1308C283 1309.66 281.657 1311 280 1311H277V1314C277 1315.66 275.657 1317 274 1317" stroke="#9BB068" stroke-width="2" stroke-linejoin="round" />

  <path d="M356 1301H344C342.343 1301 341 1302.34 341 1304C341 1305.66 342.343 1307 344 1307H356C357.657 1307 359 1305.66 359 1304C359 1302.34 357.657 1301 356 1301Z" stroke="#4B3425" stroke-width="2" stroke-linejoin="round" />

  <path d="M356 1309H344C342.343 1309 341 1310.34 341 1312C341 1313.66 342.343 1315 344 1315H356C357.657 1315 359 1313.66 359 1312C359 1310.34 357.657 1309 356 1309Z" stroke="#4B3425" stroke-width="2" stroke-linejoin="round" />

  <path d="M204 1388.5V1389C204 1391.21 202.209 1393 200 1393H196C193.791 1393 192 1391.21 192 1389V1379C192 1376.79 193.791 1375 196 1375H200C202.209 1375 204 1376.79 204 1379V1379.5" stroke="#4B3425" stroke-width="2" stroke-linejoin="round" />

  <path d="M276 1375H272C269.791 1375 268 1376.79 268 1379V1389C268 1391.21 269.791 1393 272 1393H276C278.209 1393 280 1391.21 280 1389V1379C280 1376.79 278.209 1375 276 1375Z" stroke="#4B3425" stroke-width="2" stroke-linejoin="round" />

  <path d="M122 1465V1462C122 1459.79 120.209 1458 118 1458H113" stroke="#9BB068" stroke-width="2" stroke-linejoin="round" />

  <path d="M116 1455V1453C116 1451.9 116.895 1451 118 1451C119.105 1451 120 1451.9 120 1453V1454H122C126.418 1454 130 1457.58 130 1462V1465C130 1467.21 128.209 1469 126 1469H124C119.582 1469 116 1465.42 116 1461" stroke="#4B3425" stroke-width="2" stroke-linejoin="round" />

  <path d="M117 1458H122C124.209 1458 126 1459.79 126 1462" stroke="#9BB068" stroke-width="2" stroke-linejoin="round" />

  <path d="M194 1452H193.5C192.119 1452 191 1453.12 191 1454.5C191 1455.88 192.119 1457 193.5 1457H202.5C203.881 1457 205 1455.88 205 1454.5C205 1453.12 203.881 1452 202.5 1452H202H194Z" stroke="#4B3425" stroke-width="2" stroke-linejoin="round" />

  <path d="M194 1460H193.5C192.119 1460 191 1461.12 191 1462.5C191 1463.88 192.119 1465 193.5 1465H202.5C203.881 1465 205 1463.88 205 1462.5C205 1461.12 203.881 1460 202.5 1460H202H194Z" stroke="#4B3425" stroke-width="2" stroke-linejoin="round" />

  <path d="M194 1457H192.5C191.672 1457 191 1457.67 191 1458.5C191 1459.33 191.672 1460 192.5 1460H203.5C204.328 1460 205 1459.33 205 1458.5C205 1457.67 204.328 1457 203.5 1457H202H194Z" stroke="#4B3425" stroke-width="2" stroke-linejoin="round" />

  <path d="M194 1465H192.5C191.672 1465 191 1465.67 191 1466.5C191 1467.33 191.672 1468 192.5 1468H203.5C204.328 1468 205 1467.33 205 1466.5C205 1465.67 204.328 1465 203.5 1465H202H194Z" stroke="#4B3425" stroke-width="2" stroke-linejoin="round" />

</svg>