<svg width="72.00" height="72.00" viewBox="922.00 1920.00 72.00 72.00" fill="none" xmlns="http://www.w3.org/2000/svg">
  <rect x="926" y="1924" width="64" height="64" rx="32" fill="#F7F4F2" />

  <path d="M959.561 1948.15C958.357 1947.91 957.115 1947.96 955.929 1948.27L955.412 1946.34C956.893 1945.94 958.447 1945.89 959.951 1946.19C961.455 1946.49 962.871 1947.13 964.088 1948.07C965.305 1949 966.29 1950.2 966.969 1951.58C967.647 1952.95 968 1954.47 968 1956L966 1956C966 1954.77 965.718 1953.56 965.175 1952.46C964.632 1951.36 963.844 1950.4 962.87 1949.65C961.897 1948.91 960.764 1948.39 959.561 1948.15Z" fill="#4B3425" />

  <path d="M948.761 1952.17C949.604 1950.14 951.094 1948.44 953 1947.34L954 1949.07C952.475 1949.95 951.283 1951.31 950.609 1952.94C949.935 1954.57 949.817 1956.37 950.273 1958.07C950.728 1959.77 951.733 1961.27 953.13 1962.35C954.527 1963.42 956.239 1964 958 1964L958 1966C955.799 1966 953.659 1965.27 951.912 1963.93C950.166 1962.59 948.91 1960.71 948.341 1958.59C947.771 1956.46 947.919 1954.21 948.761 1952.17Z" fill="#4B3425" />

  <path d="M965.727 1958.07C965.364 1959.43 964.65 1960.66 963.657 1961.66C962.664 1962.65 961.427 1963.36 960.071 1963.73L960.588 1965.66C962.284 1965.21 963.83 1964.31 965.071 1963.07C966.312 1961.83 967.205 1960.28 967.659 1958.59L965.727 1958.07Z" fill="#4B3425" />

</svg>