<svg width="72.00" height="72.00" viewBox="466.00 700.00 72.00 72.00" fill="none" xmlns="http://www.w3.org/2000/svg">
  <rect x="470" y="704" width="64" height="64" rx="32" fill="#F7F4F2" />

  <path d="M504 736.5C504 737.881 502.881 739 501.5 739C500.119 739 499 737.881 499 736.5C499 735.119 500.119 734 501.5 734C502.881 734 504 735.119 504 736.5Z" stroke="#4B3425" stroke-width="2" stroke-linejoin="round" />

  <path d="M503 738L506 741" stroke="#4B3425" stroke-width="2" stroke-linejoin="round" />

  <path d="M508.5 731.598C507.928 731.928 507.263 732.061 506.608 731.974C505.954 731.888 505.346 731.588 504.879 731.121C504.412 730.654 504.112 730.046 504.026 729.392C503.939 728.737 504.072 728.072 504.402 727.5" stroke="#4B3425" stroke-width="2" stroke-linejoin="round" />

</svg>