<svg width="72.00" height="72.00" viewBox="694.00 2072.00 72.00 72.00" fill="none" xmlns="http://www.w3.org/2000/svg">
  <rect x="698" y="2076" width="64" height="64" rx="32" fill="#F7F4F2" />

  <path d="M725 2103C725.552 2103 726 2102.55 726 2102C726 2101.45 725.552 2101 725 2101C724.448 2101 724 2101.45 724 2102C724 2102.55 724.448 2103 725 2103Z" fill="#4B3425" />

  <path d="M728 2103C728.552 2103 729 2102.55 729 2102C729 2101.45 728.552 2101 728 2101C727.448 2101 727 2101.45 727 2102C727 2102.55 727.448 2103 728 2103Z" fill="#4B3425" />

  <path d="M736 2102C736 2102.55 735.552 2103 735 2103C734.448 2103 734 2102.55 734 2102C734 2101.45 734.448 2101 735 2101C735.552 2101 736 2101.45 736 2102Z" fill="#4B3425" />

</svg>