<svg width="82.67" height="82.66" viewBox="460.67 2714.67 82.67 82.66" fill="none" xmlns="http://www.w3.org/2000/svg">
  <rect x="470" y="2724" width="64" height="64" rx="32" fill="#E5EAD7" />

  <path fill-rule="evenodd" clip-rule="evenodd" d="M464.667 2758.67L539.333 2758.67L539.333 2753.33L464.667 2753.33L464.667 2758.67Z" fill="#4B3425" />

  <path fill-rule="evenodd" clip-rule="evenodd" d="M464.667 2748L539.333 2748L539.333 2742.67L464.667 2742.67L464.667 2748Z" fill="#4B3425" />

  <path fill-rule="evenodd" clip-rule="evenodd" d="M464.667 2769.33L539.333 2769.33L539.333 2764L464.667 2764L464.667 2769.33Z" fill="#4B3425" />

  <path fill-rule="evenodd" clip-rule="evenodd" d="M504.667 2793.33L504.667 2718.67L499.333 2718.67L499.333 2793.33L504.667 2793.33Z" fill="#4B3425" />

  <path fill-rule="evenodd" clip-rule="evenodd" d="M494 2793.33L494 2718.67L488.667 2718.67L488.667 2793.33L494 2793.33Z" fill="#4B3425" />

  <path fill-rule="evenodd" clip-rule="evenodd" d="M515.333 2793.33L515.333 2718.67L510 2718.67L510 2793.33L515.333 2793.33Z" fill="#4B3425" />

  <rect x="470" y="2724" width="64" height="64" rx="32" fill="white" />

</svg>