<svg width="80.24" height="72.13" viewBox="314.00 2795.87 80.24 72.13" fill="none" xmlns="http://www.w3.org/2000/svg">
  <rect x="318" y="2800" width="64" height="64" rx="32" fill="#E5EAD7" />

  <path d="M341.962 2812.69C339.801 2816.41 338.667 2820.62 338.667 2824.89L331.333 2840H339.333V2850.67H350V2864H379.333V2850.96C379.333 2847.44 381.203 2844.25 383.532 2841.6C385.122 2839.8 386.437 2837.77 387.505 2835.59C389.4 2831.73 390.239 2827.47 389.941 2823.2C389.643 2818.94 388.217 2814.82 385.802 2811.25C383.386 2807.67 380.062 2804.76 376.15 2802.79C372.238 2800.83 367.869 2799.87 363.464 2800.01C359.059 2800.16 354.767 2801.4 351.001 2803.62C347.235 2805.84 344.122 2808.96 341.962 2812.69Z" fill="#9BB068" />

  <rect x="347.333" y="2824" width="5.33333" height="5.33333" rx="2.66667" fill="#4B3425" />

  <rect x="350" y="2850.67" width="29.3333" height="13.3333" fill="#4B3425" />

  <rect x="318" y="2800" width="64" height="64" rx="32" fill="white" />

</svg>