<svg width="72.00" height="72.00" viewBox="86.00 2148.00 72.00 72.00" fill="none" xmlns="http://www.w3.org/2000/svg">
  <rect x="90" y="2152" width="64" height="64" rx="32" fill="#F7F4F2" />

  <path d="M126.95 2179.05C126.671 2178.77 126.45 2178.44 126.299 2178.08C126.149 2177.71 126.071 2177.32 126.071 2176.93C126.071 2176.54 126.149 2176.15 126.299 2175.78C126.45 2175.42 126.671 2175.09 126.95 2174.81L128.364 2176.22C128.271 2176.31 128.197 2176.43 128.147 2176.55C128.097 2176.67 128.071 2176.8 128.071 2176.93C128.071 2177.06 128.097 2177.19 128.147 2177.31C128.197 2177.43 128.271 2177.54 128.364 2177.64C128.457 2177.73 128.567 2177.8 128.688 2177.85C128.81 2177.9 128.94 2177.93 129.071 2177.93C129.202 2177.93 129.332 2177.9 129.454 2177.85C129.575 2177.8 129.685 2177.73 129.778 2177.64L131.192 2179.05C130.914 2179.33 130.583 2179.55 130.219 2179.7C129.855 2179.85 129.465 2179.93 129.071 2179.93C128.677 2179.93 128.287 2179.85 127.923 2179.7C127.559 2179.55 127.228 2179.33 126.95 2179.05Z" fill="#4B3425" />

  <path d="M116.077 2188.3C116.441 2188.45 116.772 2188.67 117.05 2188.95C117.329 2189.23 117.55 2189.56 117.701 2189.92C117.851 2190.29 117.929 2190.68 117.929 2191.07C117.929 2191.47 117.851 2191.86 117.701 2192.22C117.55 2192.58 117.329 2192.91 117.05 2193.19L115.636 2191.78C115.729 2191.69 115.803 2191.58 115.853 2191.45C115.903 2191.33 115.929 2191.2 115.929 2191.07C115.929 2190.94 115.903 2190.81 115.853 2190.69C115.803 2190.57 115.729 2190.46 115.636 2190.36C115.543 2190.27 115.433 2190.2 115.312 2190.15C115.19 2190.1 115.06 2190.07 114.929 2190.07C114.798 2190.07 114.668 2190.1 114.546 2190.15C114.425 2190.2 114.315 2190.27 114.222 2190.36L112.808 2188.95C113.086 2188.67 113.417 2188.45 113.781 2188.3C114.145 2188.15 114.535 2188.07 114.929 2188.07C115.323 2188.07 115.713 2188.15 116.077 2188.3Z" fill="#4B3425" />

  <path d="M126.95 2188.95C127.228 2188.67 127.559 2188.45 127.923 2188.3C128.287 2188.15 128.677 2188.07 129.071 2188.07C129.465 2188.07 129.855 2188.15 130.219 2188.3C130.583 2188.45 130.914 2188.67 131.192 2188.95L129.778 2190.36C129.685 2190.27 129.575 2190.2 129.454 2190.15C129.332 2190.1 129.202 2190.07 129.071 2190.07C128.94 2190.07 128.81 2190.1 128.688 2190.15C128.567 2190.2 128.457 2190.27 128.364 2190.36C128.271 2190.46 128.197 2190.57 128.147 2190.69C128.097 2190.81 128.071 2190.94 128.071 2191.07C128.071 2191.2 128.097 2191.33 128.147 2191.45C128.197 2191.58 128.271 2191.69 128.364 2191.78L126.95 2193.19C126.671 2192.91 126.45 2192.58 126.299 2192.22C126.149 2191.86 126.071 2191.47 126.071 2191.07C126.071 2190.68 126.149 2190.29 126.299 2189.92C126.45 2189.56 126.671 2189.23 126.95 2188.95Z" fill="#4B3425" />

  <path d="M117.701 2178.08C117.55 2178.44 117.329 2178.77 117.05 2179.05C116.772 2179.33 116.441 2179.55 116.077 2179.7C115.713 2179.85 115.323 2179.93 114.929 2179.93C114.535 2179.93 114.145 2179.85 113.781 2179.7C113.417 2179.55 113.086 2179.33 112.808 2179.05L114.222 2177.64C114.315 2177.73 114.425 2177.8 114.546 2177.85C114.668 2177.9 114.798 2177.93 114.929 2177.93C115.06 2177.93 115.19 2177.9 115.312 2177.85C115.433 2177.8 115.543 2177.73 115.636 2177.64C115.729 2177.54 115.803 2177.43 115.853 2177.31C115.903 2177.19 115.929 2177.06 115.929 2176.93C115.929 2176.8 115.903 2176.67 115.853 2176.55C115.803 2176.43 115.729 2176.31 115.636 2176.22L117.05 2174.81C117.329 2175.09 117.55 2175.42 117.701 2175.78C117.851 2176.15 117.929 2176.54 117.929 2176.93C117.929 2177.32 117.851 2177.71 117.701 2178.08Z" fill="#4B3425" />

</svg>