<svg width="72.00" height="72.00" viewBox="922.00 320.00 72.00 72.00" fill="none" xmlns="http://www.w3.org/2000/svg">
  <rect x="926" y="324" width="64" height="64" rx="32" fill="#F7F4F2" />

  <path d="M953.5 348.206C951.784 349.196 950.443 350.725 949.685 352.556C948.927 354.386 948.794 356.416 949.307 358.329C949.819 360.243 950.949 361.934 952.521 363.14C954.093 364.346 956.019 365 958 365" stroke="#4B3425" stroke-width="2" stroke-linejoin="round" />

  <path d="M955.671 347.307C957.004 346.949 958.402 346.904 959.756 347.173C961.11 347.442 962.384 348.019 963.479 348.86C964.574 349.7 965.461 350.781 966.072 352.019C966.682 353.258 967 354.62 967 356" stroke="#4B3425" stroke-width="2" stroke-linejoin="round" />

  <path d="M966.693 358.329C966.284 359.855 965.481 361.247 964.364 362.364C963.247 363.481 961.855 364.284 960.329 364.693" stroke="#4B3425" stroke-width="2" stroke-linejoin="round" />

</svg>