<svg width="72.00" height="72.00" viewBox="238.00 548.00 72.00 72.00" fill="none" xmlns="http://www.w3.org/2000/svg">
  <rect x="242" y="552" width="64" height="64" rx="32" fill="#F7F4F2" />

  <path d="M277 575C277 575.394 276.922 575.784 276.772 576.148C276.621 576.512 276.4 576.843 276.121 577.121C275.843 577.4 275.512 577.621 275.148 577.772C274.784 577.922 274.394 578 274 578C273.606 578 273.216 577.922 272.852 577.772C272.488 577.621 272.157 577.4 271.879 577.121C271.6 576.843 271.379 576.512 271.228 576.148C271.078 575.784 271 575.394 271 575" stroke="#4B3425" stroke-width="2" stroke-linejoin="round" />

  <path d="M271 585H277" stroke="#4B3425" stroke-width="2" stroke-linejoin="round" />

  <path d="M274 582L274 588" stroke="#4B3425" stroke-width="2" stroke-linejoin="round" />

</svg>