<svg width="72.00" height="72.00" viewBox="542.00 2148.00 72.00 72.00" fill="none" xmlns="http://www.w3.org/2000/svg">
  <rect x="546" y="2152" width="64" height="64" rx="32" fill="#F7F4F2" />

  <path fill-rule="evenodd" clip-rule="evenodd" d="M579.586 2177L578.293 2175.71L579.707 2174.29L581.568 2176.15C581.845 2176.43 582 2176.81 582 2177.2C582 2178.75 583.255 2180 584.803 2180C585.194 2180 585.57 2180.16 585.846 2180.43L587.707 2182.29L586.293 2183.71L585 2182.41L577.707 2189.71C576.457 2190.96 574.556 2191.16 573.093 2190.32L569.707 2193.71L568.293 2192.29L571.679 2188.91C570.838 2187.44 571.043 2185.54 572.293 2184.29L579.586 2177ZM580.369 2179.05L577.414 2182L580 2184.59L582.955 2181.63C581.789 2181.14 580.855 2180.21 580.369 2179.05ZM578.586 2186L576 2183.41L573.707 2185.71C572.993 2186.42 572.993 2187.58 573.707 2188.29C574.421 2189.01 575.579 2189.01 576.293 2188.29L578.586 2186Z" fill="#4B3425" />

</svg>