<svg width="72.00" height="72.00" viewBox="86.00 1272.00 72.00 72.00" fill="none" xmlns="http://www.w3.org/2000/svg">
  <rect x="90" y="1276" width="64" height="64" rx="32" fill="#F7F4F2" />

  <path d="M124.196 1302C123.736 1301.2 123.099 1300.52 122.333 1300.01C121.568 1299.5 120.696 1299.17 119.783 1299.05C118.871 1298.93 117.943 1299.02 117.071 1299.32C116.2 1299.61 115.408 1300.11 114.757 1300.76C114.107 1301.41 113.614 1302.2 113.318 1303.07C113.023 1303.94 112.931 1304.87 113.051 1305.78C113.171 1306.7 113.5 1307.57 114.011 1308.33C114.522 1309.1 115.203 1309.74 116 1310.2" stroke="#9BB068" stroke-width="2" stroke-linejoin="round" />

  <path d="M130.196 1308C130.59 1308.68 130.846 1309.44 130.949 1310.22C131.052 1311 130.999 1311.79 130.796 1312.55C130.592 1313.31 130.24 1314.03 129.76 1314.65C129.28 1315.28 128.682 1315.8 128 1316.2C127.318 1316.59 126.564 1316.85 125.783 1316.95C125.002 1317.05 124.208 1317 123.447 1316.8C122.686 1316.59 121.973 1316.24 121.347 1315.76C120.722 1315.28 120.198 1314.68 119.804 1314C119.41 1313.32 119.154 1312.56 119.051 1311.78C118.948 1311 119.001 1310.21 119.204 1309.45C119.408 1308.69 119.76 1307.97 120.24 1307.35C120.72 1306.72 121.318 1306.2 122 1305.8C122.682 1305.41 123.436 1305.15 124.217 1305.05C124.998 1304.95 125.792 1305 126.553 1305.2C127.314 1305.41 128.027 1305.76 128.653 1306.24C129.278 1306.72 129.802 1307.32 130.196 1308L130.196 1308Z" stroke="#4B3425" stroke-width="2" stroke-linejoin="round" />

  <path d="M121 1315L129 1307" stroke="#4B3425" stroke-width="2" stroke-linejoin="round" />

</svg>