<svg width="72.00" height="72.00" viewBox="542.00 1424.00 72.00 72.00" fill="none" xmlns="http://www.w3.org/2000/svg">
  <rect x="546" y="1428" width="64" height="64" rx="32" fill="#F7F4F2" />

  <path d="M576.5 1458.5L578.121 1456.88C578.684 1456.32 579 1455.55 579 1454.76L579 1453.5C579 1452.12 580.119 1451 581.5 1451C582.881 1451 584 1452.12 584 1453.5L584 1454L584.5 1454C585.881 1454 587 1455.12 587 1456.5C587 1457.88 585.881 1459 584.5 1459L583.243 1459C582.447 1459 581.684 1459.32 581.121 1459.88L579.5 1461.5" stroke="#4B3425" stroke-width="2" stroke-linejoin="round" />

  <path d="M576.5 1458.5L574.879 1460.12C574.316 1460.68 573.553 1461 572.757 1461L571.5 1461C570.119 1461 569 1462.12 569 1463.5C569 1464.88 570.119 1466 571.5 1466L572 1466L572 1466.5C572 1467.88 573.119 1469 574.5 1469C575.881 1469 577 1467.88 577 1466.5L577 1465.24C577 1464.45 577.316 1463.68 577.879 1463.12L579.5 1461.5" stroke="#9BB068" stroke-width="2" stroke-linejoin="round" />

</svg>