<svg width="789.00" height="791.00" viewBox="111.00 111.00 789.00 791.00" fill="none" xmlns="http://www.w3.org/2000/svg">
  <path d="M511 438V431C511 429.895 510.105 429 509 429C507.895 429 507 429.895 507 431V438C507 439.105 507.895 440 509 440C510.105 440 511 439.105 511 438Z" stroke="#4B3425" stroke-width="2" stroke-linejoin="round" />

  <path d="M584 423C584 424.591 583.368 426.117 582.243 427.243C582.095 427.39 581.94 427.53 581.779 427.66C580.397 428.782 579 430.219 579 432C579 433.781 580.397 435.218 581.779 436.34C581.94 436.47 582.095 436.61 582.243 436.757C583.368 437.883 584 439.409 584 441H572C572 439.409 572.632 437.883 573.757 436.757C573.905 436.61 574.06 436.47 574.221 436.34C575.603 435.218 577 433.781 577 432C577 430.219 575.603 428.782 574.221 427.66C574.06 427.53 573.905 427.39 573.757 427.243C572.632 426.117 572 424.591 572 423H584Z" stroke="#4B3425" stroke-width="2" stroke-linejoin="round" />

  <rect x="470" y="476" width="64" height="64" rx="32" fill="#F7F4F2" />

  <path d="M499 508L499 513" stroke="#4B3425" stroke-width="2" stroke-linejoin="round" />

  <path d="M505 503L505 508" stroke="#4B3425" stroke-width="2" stroke-linejoin="round" />

  <circle cx="502" cy="508" r="9" stroke="#4B3425" stroke-width="2" stroke-linejoin="round" />

  <path d="M507 510C507 509.737 506.948 509.477 506.848 509.235C506.747 508.992 506.6 508.772 506.414 508.586C506.228 508.4 506.008 508.253 505.765 508.152C505.523 508.052 505.263 508 505 508C504.737 508 504.477 508.052 504.235 508.152C503.992 508.253 503.772 508.4 503.586 508.586C503.4 508.772 503.253 508.992 503.152 509.235C503.052 509.477 503 509.737 503 510C503 510.263 503.052 510.523 503.152 510.765C503.253 511.008 503.4 511.228 503.586 511.414C503.772 511.6 503.992 511.747 504.235 511.848C504.477 511.948 504.737 512 505 512C505.263 512 505.523 511.948 505.765 511.848C506.008 511.747 506.228 511.6 506.414 511.414C506.6 511.228 506.747 511.008 506.848 510.765C506.948 510.523 507 510.263 507 510L507 510Z" stroke="#4B3425" stroke-width="2" stroke-linejoin="round" />

  <path d="M501 506C501 505.737 500.948 505.477 500.848 505.235C500.747 504.992 500.6 504.772 500.414 504.586C500.228 504.4 500.008 504.253 499.765 504.152C499.523 504.052 499.263 504 499 504C498.737 504 498.477 504.052 498.235 504.152C497.992 504.253 497.772 504.4 497.586 504.586C497.4 504.772 497.253 504.992 497.152 505.235C497.052 505.477 497 505.737 497 506C497 506.263 497.052 506.523 497.152 506.765C497.253 507.008 497.4 507.228 497.586 507.414C497.772 507.6 497.992 507.747 498.235 507.848C498.477 507.948 498.737 508 499 508C499.263 508 499.523 507.948 499.765 507.848C500.008 507.747 500.228 507.6 500.414 507.414C500.6 507.228 500.747 507.008 500.848 506.765C500.948 506.523 501 506.263 501 506L501 506Z" stroke="#4B3425" stroke-width="2" stroke-linejoin="round" />

  <path d="M359 661V656C359 653.791 357.209 652 355 652C352.791 652 351 653.791 351 656V660C351 661.657 349.657 663 348 663C346.343 663 345 664.343 345 666C345 667.657 346.343 669 348 669H351C355.418 669 359 665.418 359 661Z" stroke="#4B3425" stroke-width="2" stroke-linejoin="round" />

  <path d="M346 650V652C346 654.209 347.791 656 350 656H351" stroke="#4B3425" stroke-width="2" stroke-linejoin="round" />

  <path d="M268 735V740H276C279.314 740 282 737.314 282 734C282 730.686 279.314 728 276 728H275C271.134 728 268 731.134 268 735Z" stroke="#4B3425" stroke-width="2" stroke-linejoin="round" />

  <path d="M277 734H272C269.791 734 268 735.791 268 738V745" stroke="#4B3425" stroke-width="2" stroke-linejoin="round" />

  <path d="M203.033 822V817.796C203.033 816.496 203.73 815.322 204.528 814.295C204.836 813.898 205.102 813.468 205.32 813.01C205.837 811.925 206.065 810.725 205.984 809.526C205.903 808.327 205.514 807.169 204.855 806.164C204.196 805.158 203.29 804.339 202.223 803.786C201.156 803.233 199.964 802.963 198.763 803.004C197.562 803.045 196.391 803.394 195.364 804.018C194.337 804.643 193.488 805.521 192.899 806.569C192.31 807.616 192 808.798 192 810L190 814H192V817H195V822" stroke="#4B3425" stroke-width="2" stroke-linejoin="round" />

  <path d="M120 879V878C119.448 878 119 878.448 119 879H120ZM124 879H125C125 878.448 124.552 878 124 878V879ZM120 885.341L120.333 886.284C120.733 886.143 121 885.765 121 885.341H120ZM124 885.341H123C123 885.765 123.267 886.143 123.667 886.284L124 885.341ZM120 880H124V878H120V880ZM121 885.341V879H119V885.341H121ZM117 891C117 888.825 118.39 886.971 120.333 886.284L119.667 884.399C116.949 885.359 115 887.951 115 891H117ZM122 896C119.239 896 117 893.761 117 891H115C115 894.866 118.134 898 122 898V896ZM127 891C127 893.761 124.761 896 122 896V898C125.866 898 129 894.866 129 891H127ZM123.667 886.284C125.61 886.971 127 888.825 127 891H129C129 887.951 127.051 885.359 124.333 884.399L123.667 886.284ZM123 879V885.341H125V879H123Z" fill="#4B3425" />

</svg>