<svg width="456.00" height="72.00" viewBox="502.00 472.00 456.00 72.00" fill="none" xmlns="http://www.w3.org/2000/svg">
  <rect x="698" y="476" width="64" height="64" rx="32" fill="#F7F4F2" />

  <circle cx="725" cy="502" r="1" fill="#4B3425" />

  <circle cx="728" cy="502" r="1" fill="#4B3425" />

  <circle cx="735" cy="502" r="1" fill="#4B3425" />

  <path d="M721 505H739" stroke="#4B3425" stroke-width="2" stroke-linejoin="round" />

  <path d="M954 506C954 505.737 953.948 505.477 953.848 505.235C953.747 504.992 953.6 504.772 953.414 504.586C953.228 504.4 953.008 504.253 952.765 504.152C952.523 504.052 952.263 504 952 504C951.737 504 951.477 504.052 951.235 504.152C950.992 504.253 950.772 504.4 950.586 504.586C950.4 504.772 950.253 504.992 950.152 505.235C950.052 505.477 950 505.737 950 506C950 506.263 950.052 506.523 950.152 506.765C950.253 507.008 950.4 507.228 950.586 507.414C950.772 507.6 950.992 507.747 951.235 507.848C951.477 507.948 951.737 508 952 508C952.263 508 952.523 507.948 952.765 507.848C953.008 507.747 953.228 507.6 953.414 507.414C953.6 507.228 953.747 507.008 953.848 506.765C953.948 506.523 954 506.263 954 506V506Z" stroke="#4B3425" stroke-width="2" stroke-linejoin="round" />

</svg>