<svg width="72.00" height="72.00" viewBox="922.00 852.00 72.00 72.00" fill="none" xmlns="http://www.w3.org/2000/svg">
  <rect x="926" y="856" width="64" height="64" rx="32" fill="#F7F4F2" />

  <circle cx="958" cy="888" r="9" stroke="#4B3425" stroke-width="2" />

  <path d="M962.83 889.294C962.545 890.357 961.917 891.297 961.044 891.967C960.171 892.637 959.101 893 958 893C956.899 893 955.829 892.637 954.956 891.967C954.083 891.297 953.455 890.357 953.17 889.294" stroke="#4B3425" stroke-width="2" />

  <path d="M956 886.5C956 886.303 955.961 886.108 955.886 885.926C955.81 885.744 955.7 885.579 955.561 885.439C955.421 885.3 955.256 885.19 955.074 885.114C954.892 885.039 954.697 885 954.5 885C954.303 885 954.108 885.039 953.926 885.114C953.744 885.19 953.579 885.3 953.439 885.439C953.3 885.579 953.19 885.744 953.114 885.926C953.039 886.108 953 886.303 953 886.5" stroke="#4B3425" stroke-width="2" />

  <path d="M963 886.5C963 886.303 962.961 886.108 962.886 885.926C962.81 885.744 962.7 885.579 962.561 885.439C962.421 885.3 962.256 885.19 962.074 885.114C961.892 885.039 961.697 885 961.5 885C961.303 885 961.108 885.039 960.926 885.114C960.744 885.19 960.579 885.3 960.439 885.439C960.3 885.579 960.19 885.744 960.114 885.926C960.039 886.108 960 886.303 960 886.5" stroke="#4B3425" stroke-width="2" />

</svg>