<svg width="973.00" height="72.00" viewBox="194.00 1120.00 973.00 72.00" fill="none" xmlns="http://www.w3.org/2000/svg">
  <path d="M198 1160V1163" stroke="#4B3425" stroke-width="2" stroke-linejoin="round" />

  <rect x="622" y="1124" width="64" height="64" rx="32" fill="#F7F4F2" />

  <path d="M654 1163L654 1166" stroke="#4B3425" stroke-width="2" stroke-linejoin="round" />

  <path d="M651 1163L651 1166" stroke="#4B3425" stroke-width="2" stroke-linejoin="round" />

  <path d="M657 1163L657 1166" stroke="#4B3425" stroke-width="2" stroke-linejoin="round" />

  <path d="M647 1153L644 1153" stroke="#4B3425" stroke-width="2" stroke-linejoin="round" />

  <path d="M647 1159L644 1159" stroke="#4B3425" stroke-width="2" stroke-linejoin="round" />

  <path d="M647 1156L644 1156" stroke="#4B3425" stroke-width="2" stroke-linejoin="round" />

  <path d="M651 1146L651 1149" stroke="#4B3425" stroke-width="2" stroke-linejoin="round" />

  <path d="M657 1146L657 1149" stroke="#4B3425" stroke-width="2" stroke-linejoin="round" />

  <path d="M654 1146L654 1149" stroke="#4B3425" stroke-width="2" stroke-linejoin="round" />

  <path d="M664 1153L661 1153" stroke="#4B3425" stroke-width="2" stroke-linejoin="round" />

  <path d="M664 1159L661 1159" stroke="#4B3425" stroke-width="2" stroke-linejoin="round" />

  <path d="M664 1156L661 1156" stroke="#4B3425" stroke-width="2" stroke-linejoin="round" />

  <rect x="647" y="1149" width="14" height="14" rx="4" stroke="#9BB068" stroke-width="2" stroke-linejoin="round" />

  <circle cx="654" cy="1156" r="2" stroke="#4B3425" stroke-width="2" stroke-linejoin="round" />

</svg>