<svg width="72.00" height="72.00" viewBox="238.00 2872.00 72.00 72.00" fill="none" xmlns="http://www.w3.org/2000/svg">
  <rect x="242" y="2876" width="64" height="64" rx="32" fill="#E5EAD7" />

  <circle cx="274.5" cy="2908" r="28" stroke="#E5EAD7" stroke-width="8" />

  <path fill-rule="evenodd" clip-rule="evenodd" d="M274 2886.67C270.255 2886.67 266.576 2887.65 263.333 2889.52C260.09 2891.4 257.397 2894.09 255.525 2897.33C253.652 2900.58 252.667 2904.26 252.667 2908C252.667 2911.74 253.652 2915.42 255.525 2918.67L246.287 2924C243.479 2919.14 242 2913.62 242 2908C242 2902.38 243.479 2896.86 246.287 2892C249.096 2887.14 253.135 2883.1 258 2880.29C262.865 2877.48 268.383 2876 274 2876C279.617 2876 285.135 2877.48 290 2880.29C294.865 2883.1 298.904 2887.14 301.713 2892C304.521 2896.86 306 2902.38 306 2908C306 2913.62 304.521 2919.14 301.713 2924L292.475 2918.67C294.348 2915.42 295.333 2911.74 295.333 2908C295.333 2904.26 294.348 2900.58 292.475 2897.33C290.603 2894.09 287.91 2891.4 284.667 2889.52C281.424 2887.65 277.745 2886.67 274 2886.67Z" fill="#9BB068" />

  <rect x="242" y="2876" width="64" height="64" rx="32" fill="white" />

</svg>