<svg width="72.00" height="72.00" viewBox="162.00 1500.00 72.00 72.00" fill="none" xmlns="http://www.w3.org/2000/svg">
  <rect x="166" y="1504" width="64" height="64" rx="32" fill="#F7F4F2" />

  <path d="M205.106 1532.11L204 1531C202.895 1529.9 201.105 1529.9 200 1531C198.895 1532.1 197.105 1532.1 196 1531C194.895 1529.9 193.105 1529.9 192 1531L190.894 1532.11C189.748 1533.25 189.407 1534.98 190.03 1536.47L192.697 1542.87C193.318 1544.36 195.254 1544.75 196.396 1543.6C197.282 1542.72 198.718 1542.72 199.604 1543.6C200.746 1544.75 202.682 1544.36 203.303 1542.87L205.97 1536.47C206.593 1534.98 206.252 1533.25 205.106 1532.11Z" stroke="#4B3425" stroke-width="2" stroke-linejoin="round" />

  <circle cx="200" cy="1537" r="1" fill="#4B3425" />

  <circle cx="196" cy="1537" r="1" fill="#4B3425" />

</svg>