<svg width="72.00" height="72.00" viewBox="466.00 1500.00 72.00 72.00" fill="none" xmlns="http://www.w3.org/2000/svg">
  <rect x="470" y="1504" width="64" height="64" rx="32" fill="#F7F4F2" />

  <path d="M504 1536.5C504 1537.88 502.881 1539 501.5 1539C500.119 1539 499 1537.88 499 1536.5C499 1535.12 500.119 1534 501.5 1534C502.881 1534 504 1535.12 504 1536.5Z" stroke="#9BB068" stroke-width="2" stroke-linejoin="round" />

  <path d="M503 1538L506 1541" stroke="#9BB068" stroke-width="2" stroke-linejoin="round" />

  <path d="M508.5 1531.6C507.928 1531.93 507.263 1532.06 506.608 1531.97C505.954 1531.89 505.346 1531.59 504.879 1531.12C504.412 1530.65 504.112 1530.05 504.026 1529.39C503.939 1528.74 504.072 1528.07 504.402 1527.5" stroke="#4B3425" stroke-width="2" stroke-linejoin="round" />

</svg>