<svg width="72.00" height="72.00" viewBox="390.00 2300.00 72.00 72.00" fill="none" xmlns="http://www.w3.org/2000/svg">
  <rect x="394" y="2304" width="64" height="64" rx="32" fill="#F7F4F2" />

  <path d="M432.921 2329.56C432.802 2329.4 432.673 2329.26 432.536 2329.12L430.879 2327.46C430.741 2327.33 430.596 2327.2 430.445 2327.08C430.121 2327.17 429.825 2327.35 429.586 2327.59C429.338 2327.83 429.159 2328.14 429.068 2328.48C428.977 2328.82 428.977 2329.18 429.068 2329.52C429.159 2329.86 429.338 2330.17 429.586 2330.41C429.834 2330.66 430.143 2330.84 430.482 2330.93C430.821 2331.02 431.179 2331.02 431.518 2330.93C431.857 2330.84 432.166 2330.66 432.414 2330.41C432.653 2330.18 432.828 2329.88 432.921 2329.56Z" fill="#4B3425" />

</svg>