<svg width="72.00" height="72.00" viewBox="86.00 1500.00 72.00 72.00" fill="none" xmlns="http://www.w3.org/2000/svg">
  <rect x="90" y="1504" width="64" height="64" rx="32" fill="#F7F4F2" />

  <path d="M122 1541L122 1545" stroke="#9BB068" stroke-width="2" stroke-linejoin="round" />

  <path d="M126 1537C126 1538.06 125.579 1539.08 124.828 1539.83C124.078 1540.58 123.061 1541 122 1541C120.939 1541 119.922 1540.58 119.172 1539.83C118.421 1539.08 118 1538.06 118 1537" stroke="#9BB068" stroke-width="2" stroke-linejoin="round" />

  <path d="M113 1545C113 1543.82 113.233 1542.65 113.685 1541.56C114.137 1540.46 114.8 1539.47 115.636 1538.64C116.472 1537.8 117.464 1537.14 118.556 1536.69C119.648 1536.23 120.818 1536 122 1536C123.182 1536 124.352 1536.23 125.444 1536.69C126.536 1537.14 127.528 1537.8 128.364 1538.64C129.2 1539.47 129.863 1540.46 130.315 1541.56C130.767 1542.65 131 1543.82 131 1545" stroke="#4B3425" stroke-width="2" stroke-linejoin="round" />

  <rect x="118" y="1528" width="8" height="8" rx="4" stroke="#4B3425" stroke-width="2" stroke-linejoin="round" />

  <path d="M118 1531H126" stroke="#4B3425" stroke-width="2" stroke-linejoin="round" />

</svg>