<svg width="72.00" height="72.00" viewBox="86.00 2528.00 72.00 72.00" fill="none" xmlns="http://www.w3.org/2000/svg">
  <rect x="90" y="2532" width="64" height="64" rx="32" fill="#F7F4F2" />

  <path fill-rule="evenodd" clip-rule="evenodd" d="M112 2564C112 2558.48 116.477 2554 122 2554C127.523 2554 132 2558.48 132 2564C132 2569.52 127.523 2574 122 2574C116.477 2574 112 2569.52 112 2564ZM118.5 2563C119.328 2563 120 2562.33 120 2561.5C120 2560.67 119.328 2560 118.5 2560C117.672 2560 117 2560.67 117 2561.5C117 2562.33 117.672 2563 118.5 2563ZM125.5 2563C126.328 2563 127 2562.33 127 2561.5C127 2560.67 126.328 2560 125.5 2560C124.672 2560 124 2560.67 124 2561.5C124 2562.33 124.672 2563 125.5 2563ZM119 2569.2C119.912 2569.72 120.947 2570 122 2570C123.053 2570 124.088 2569.72 125 2569.2C125.912 2568.67 126.67 2567.91 127.196 2567L125.464 2566C125.113 2566.61 124.608 2567.11 124 2567.46C123.392 2567.82 122.702 2568 122 2568C121.298 2568 120.608 2567.82 120 2567.46C119.392 2567.11 118.887 2566.61 118.536 2566L116.804 2567C117.33 2567.91 118.088 2568.67 119 2569.2Z" fill="#4B3425" />

</svg>