<svg width="72.00" height="72.00" viewBox="238.00 2528.00 72.00 72.00" fill="none" xmlns="http://www.w3.org/2000/svg">
  <rect x="242" y="2532" width="64" height="64" rx="32" fill="#F7F4F2" />

  <path fill-rule="evenodd" clip-rule="evenodd" d="M264 2564C264 2558.48 268.477 2554 274 2554C279.523 2554 284 2558.48 284 2564C284 2569.52 279.523 2574 274 2574C268.477 2574 264 2569.52 264 2564ZM270.5 2563C271.328 2563 272 2562.33 272 2561.5C272 2560.67 271.328 2560 270.5 2560C269.672 2560 269 2560.67 269 2561.5C269 2562.33 269.672 2563 270.5 2563ZM279 2561.5C279 2562.33 278.328 2563 277.5 2563C276.672 2563 276 2562.33 276 2561.5C276 2560.67 276.672 2560 277.5 2560C278.328 2560 279 2560.67 279 2561.5ZM274 2565C272.947 2565 271.912 2565.28 271 2565.8C270.088 2566.33 269.33 2567.09 268.804 2568L270.536 2569C270.887 2568.39 271.392 2567.89 272 2567.54C272.608 2567.18 273.298 2567 274 2567C274.702 2567 275.392 2567.18 276 2567.54C276.608 2567.89 277.113 2568.39 277.464 2569L279.196 2568C278.67 2567.09 277.912 2566.33 277 2565.8C276.088 2565.28 275.053 2565 274 2565Z" fill="#4B3425" />

</svg>