<svg width="72.00" height="72.00" viewBox="542.00 2300.00 72.00 72.00" fill="none" xmlns="http://www.w3.org/2000/svg">
  <rect x="546" y="2304" width="64" height="64" rx="32" fill="#F7F4F2" />

  <path d="M582.035 2329.14C581.357 2328.95 580.643 2328.95 579.965 2329.14L579.447 2327.2C580.464 2326.93 581.536 2326.93 582.553 2327.2C583.57 2327.48 584.498 2328.01 585.243 2328.76C585.987 2329.5 586.523 2330.43 586.796 2331.45C587.068 2332.46 587.068 2333.54 586.796 2334.55L584.864 2334.04C585.045 2333.36 585.045 2332.64 584.864 2331.96C584.77 2331.61 584.629 2331.28 584.446 2330.97L579.891 2335.52C580.589 2336.5 581 2337.7 581 2339C581 2342.31 578.314 2345 575 2345C571.686 2345 569 2342.31 569 2339C569 2335.69 571.686 2333 575 2333C576.296 2333 577.496 2333.41 578.477 2334.11L583.032 2329.55C582.721 2329.37 582.386 2329.23 582.035 2329.14Z" fill="#4B3425" />

</svg>