<svg width="72.00" height="72.00" viewBox="466.00 2376.00 72.00 72.00" fill="none" xmlns="http://www.w3.org/2000/svg">
  <rect x="470" y="2380" width="64" height="64" rx="32" fill="#F7F4F2" />

  <path d="M507 2408C507 2408.55 506.552 2409 506 2409C505.448 2409 505 2408.55 505 2408C505 2407.45 505.448 2407 506 2407C506.552 2407 507 2407.45 507 2408Z" fill="#4B3425" />

  <path d="M498 2417C498.552 2417 499 2416.55 499 2416C499 2415.45 498.552 2415 498 2415C497.448 2415 497 2415.45 497 2416C497 2416.55 497.448 2417 498 2417Z" fill="#4B3425" />

  <path fill-rule="evenodd" clip-rule="evenodd" d="M508.879 2405.46L508.536 2405.12C506.583 2403.17 503.417 2403.17 501.465 2405.12L495.122 2411.46C493.169 2413.42 493.169 2416.58 495.122 2418.54L495.465 2418.88C497.417 2420.83 500.583 2420.83 502.536 2418.88L508.879 2412.54C510.832 2410.58 510.832 2407.42 508.879 2405.46ZM507.122 2406.54L507.465 2406.88C508.636 2408.05 508.636 2409.95 507.465 2411.12L506.49 2412.1C506.449 2412.04 506.403 2411.99 506.354 2411.94L502.061 2407.65C502.011 2407.6 501.959 2407.55 501.904 2407.51L502.879 2406.54C504.051 2405.36 505.95 2405.36 507.122 2406.54ZM497.51 2411.9L496.536 2412.88C495.364 2414.05 495.364 2415.95 496.536 2417.12L496.879 2417.46C498.051 2418.64 499.95 2418.64 501.122 2417.46L502.096 2416.49C502.042 2416.45 501.989 2416.4 501.939 2416.35L497.646 2412.06C497.597 2412.01 497.551 2411.96 497.51 2411.9Z" fill="#4B3425" />

</svg>