<svg width="72.00" height="72.00" viewBox="86.00 1348.00 72.00 72.00" fill="none" xmlns="http://www.w3.org/2000/svg">
  <rect x="90" y="1352" width="64" height="64" rx="32" fill="#F7F4F2" />

  <path d="M124 1384C124 1383.74 123.948 1383.48 123.848 1383.23C123.747 1382.99 123.6 1382.77 123.414 1382.59C123.228 1382.4 123.008 1382.25 122.765 1382.15C122.523 1382.05 122.263 1382 122 1382C121.737 1382 121.477 1382.05 121.235 1382.15C120.992 1382.25 120.772 1382.4 120.586 1382.59C120.4 1382.77 120.253 1382.99 120.152 1383.23C120.052 1383.48 120 1383.74 120 1384C120 1384.26 120.052 1384.52 120.152 1384.77C120.253 1385.01 120.4 1385.23 120.586 1385.41C120.772 1385.6 120.992 1385.75 121.235 1385.85C121.477 1385.95 121.737 1386 122 1386C122.263 1386 122.523 1385.95 122.765 1385.85C123.008 1385.75 123.228 1385.6 123.414 1385.41C123.6 1385.23 123.747 1385.01 123.848 1384.77C123.948 1384.52 124 1384.26 124 1384L124 1384Z" stroke="#4B3425" stroke-width="2" stroke-linejoin="round" />

  <path d="M124 1374C124 1374.26 123.948 1374.52 123.848 1374.77C123.747 1375.01 123.6 1375.23 123.414 1375.41C123.228 1375.6 123.008 1375.75 122.765 1375.85C122.523 1375.95 122.263 1376 122 1376C121.737 1376 121.477 1375.95 121.235 1375.85C120.992 1375.75 120.772 1375.6 120.586 1375.41C120.4 1375.23 120.253 1375.01 120.152 1374.77C120.052 1374.52 120 1374.26 120 1374" stroke="#4B3425" stroke-width="2" stroke-linejoin="round" />

  <path d="M124 1394C124 1393.74 123.948 1393.48 123.848 1393.23C123.747 1392.99 123.6 1392.77 123.414 1392.59C123.228 1392.4 123.008 1392.25 122.765 1392.15C122.523 1392.05 122.263 1392 122 1392C121.737 1392 121.477 1392.05 121.235 1392.15C120.992 1392.25 120.772 1392.4 120.586 1392.59C120.4 1392.77 120.253 1392.99 120.152 1393.23C120.052 1393.48 120 1393.74 120 1394" stroke="#4B3425" stroke-width="2" stroke-linejoin="round" />

  <path d="M130.485 1378.34C130.3 1378.53 130.079 1378.68 129.836 1378.78C129.594 1378.88 129.334 1378.93 129.071 1378.93C128.808 1378.93 128.548 1378.88 128.306 1378.78C128.063 1378.68 127.843 1378.53 127.657 1378.34C127.471 1378.16 127.324 1377.94 127.223 1377.69C127.123 1377.45 127.071 1377.19 127.071 1376.93C127.071 1376.67 127.123 1376.41 127.223 1376.16C127.324 1375.92 127.471 1375.7 127.657 1375.51" stroke="#4B3425" stroke-width="2" stroke-linejoin="round" />

  <path d="M116.343 1392.49C116.529 1392.3 116.676 1392.08 116.777 1391.84C116.877 1391.59 116.929 1391.33 116.929 1391.07C116.929 1390.81 116.877 1390.55 116.777 1390.31C116.676 1390.06 116.529 1389.84 116.343 1389.66C116.157 1389.47 115.937 1389.32 115.694 1389.22C115.452 1389.12 115.192 1389.07 114.929 1389.07C114.666 1389.07 114.406 1389.12 114.164 1389.22C113.921 1389.32 113.7 1389.47 113.515 1389.66" stroke="#4B3425" stroke-width="2" stroke-linejoin="round" />

  <path d="M132 1386C131.737 1386 131.477 1385.95 131.235 1385.85C130.992 1385.75 130.772 1385.6 130.586 1385.41C130.4 1385.23 130.253 1385.01 130.152 1384.77C130.052 1384.52 130 1384.26 130 1384C130 1383.74 130.052 1383.48 130.152 1383.23C130.253 1382.99 130.4 1382.77 130.586 1382.59C130.772 1382.4 130.992 1382.25 131.235 1382.15C131.477 1382.05 131.737 1382 132 1382" stroke="#4B3425" stroke-width="2" stroke-linejoin="round" />

  <path d="M112 1386C112.263 1386 112.523 1385.95 112.765 1385.85C113.008 1385.75 113.228 1385.6 113.414 1385.41C113.6 1385.23 113.747 1385.01 113.848 1384.77C113.948 1384.52 114 1384.26 114 1384C114 1383.74 113.948 1383.48 113.848 1383.23C113.747 1382.99 113.6 1382.77 113.414 1382.59C113.228 1382.4 113.008 1382.25 112.765 1382.15C112.523 1382.05 112.263 1382 112 1382" stroke="#4B3425" stroke-width="2" stroke-linejoin="round" />

  <path d="M127.657 1392.49C127.471 1392.3 127.324 1392.08 127.223 1391.84C127.123 1391.59 127.071 1391.33 127.071 1391.07C127.071 1390.81 127.123 1390.55 127.223 1390.31C127.324 1390.06 127.471 1389.84 127.657 1389.66C127.843 1389.47 128.063 1389.32 128.306 1389.22C128.548 1389.12 128.808 1389.07 129.071 1389.07C129.334 1389.07 129.594 1389.12 129.836 1389.22C130.079 1389.32 130.3 1389.47 130.485 1389.66" stroke="#4B3425" stroke-width="2" stroke-linejoin="round" />

  <path d="M113.515 1378.34C113.7 1378.53 113.921 1378.68 114.164 1378.78C114.406 1378.88 114.666 1378.93 114.929 1378.93C115.192 1378.93 115.452 1378.88 115.694 1378.78C115.937 1378.68 116.157 1378.53 116.343 1378.34C116.529 1378.16 116.676 1377.94 116.777 1377.69C116.877 1377.45 116.929 1377.19 116.929 1376.93C116.929 1376.67 116.877 1376.41 116.777 1376.16C116.676 1375.92 116.529 1375.7 116.343 1375.51" stroke="#4B3425" stroke-width="2" stroke-linejoin="round" />

  <path d="M128 1384C128 1383.21 127.845 1382.43 127.543 1381.7C127.242 1380.98 126.8 1380.31 126.243 1379.76C125.685 1379.2 125.024 1378.76 124.296 1378.46C123.568 1378.16 122.788 1378 122 1378C121.212 1378 120.432 1378.16 119.704 1378.46C118.976 1378.76 118.315 1379.2 117.757 1379.76C117.2 1380.31 116.758 1380.98 116.457 1381.7C116.155 1382.43 116 1383.21 116 1384C116 1384.79 116.155 1385.57 116.457 1386.3C116.758 1387.02 117.2 1387.69 117.757 1388.24C118.315 1388.8 118.976 1389.24 119.704 1389.54C120.432 1389.84 121.212 1390 122 1390C122.788 1390 123.568 1389.84 124.296 1389.54C125.024 1389.24 125.685 1388.8 126.243 1388.24C126.8 1387.69 127.242 1387.02 127.543 1386.3C127.845 1385.57 128 1384.79 128 1384L128 1384Z" stroke="#9BB068" stroke-width="2" stroke-linejoin="round" />

</svg>