<svg width="72.00" height="72.00" viewBox="86.00 1196.00 72.00 72.00" fill="none" xmlns="http://www.w3.org/2000/svg">
  <rect x="90" y="1200" width="64" height="64" rx="32" fill="#F7F4F2" />

  <path d="M125 1241L125 1228" stroke="#9BB068" stroke-width="2" stroke-linejoin="round" />

  <path d="M122 1233C122 1232.47 121.789 1231.96 121.414 1231.59C121.039 1231.21 120.53 1231 120 1231C119.47 1231 118.961 1231.21 118.586 1231.59C118.211 1231.96 118 1232.47 118 1233" stroke="#9BB068" stroke-width="2" stroke-linejoin="round" />

  <path d="M129 1228C129 1227.47 128.789 1226.96 128.414 1226.59C128.039 1226.21 127.53 1226 127 1226C126.47 1226 125.961 1226.21 125.586 1226.59C125.211 1226.96 125 1227.47 125 1228" stroke="#9BB068" stroke-width="2" stroke-linejoin="round" />

</svg>