<svg width="72.00" height="72.00" viewBox="922.00 1120.00 72.00 72.00" fill="none" xmlns="http://www.w3.org/2000/svg">
  <rect x="926" y="1124" width="64" height="64" rx="32" fill="#F7F4F2" />

  <path d="M953.5 1148.21C951.784 1149.2 950.443 1150.73 949.685 1152.56C948.927 1154.39 948.794 1156.42 949.307 1158.33C949.819 1160.24 950.949 1161.93 952.521 1163.14C954.093 1164.35 956.019 1165 958 1165" stroke="#4B3425" stroke-width="2" stroke-linejoin="round" />

  <path d="M955.671 1147.31C957.004 1146.95 958.402 1146.9 959.756 1147.17C961.11 1147.44 962.384 1148.02 963.479 1148.86C964.574 1149.7 965.461 1150.78 966.072 1152.02C966.682 1153.26 967 1154.62 967 1156" stroke="#9BB068" stroke-width="2" stroke-linejoin="round" />

  <path d="M966.693 1158.33C966.284 1159.86 965.481 1161.25 964.364 1162.36C963.247 1163.48 961.855 1164.28 960.329 1164.69" stroke="#4B3425" stroke-width="2" stroke-linejoin="round" />

</svg>