<svg width="72.00" height="72.00" viewBox="86.00 548.00 72.00 72.00" fill="none" xmlns="http://www.w3.org/2000/svg">
  <rect x="90" y="552" width="64" height="64" rx="32" fill="#F7F4F2" />

  <path d="M124 584C124 583.737 123.948 583.477 123.848 583.235C123.747 582.992 123.6 582.772 123.414 582.586C123.228 582.4 123.008 582.253 122.765 582.152C122.523 582.052 122.263 582 122 582C121.737 582 121.477 582.052 121.235 582.152C120.992 582.253 120.772 582.4 120.586 582.586C120.4 582.772 120.253 582.992 120.152 583.235C120.052 583.477 120 583.737 120 584C120 584.263 120.052 584.523 120.152 584.765C120.253 585.008 120.4 585.228 120.586 585.414C120.772 585.6 120.992 585.747 121.235 585.848C121.477 585.948 121.737 586 122 586C122.263 586 122.523 585.948 122.765 585.848C123.008 585.747 123.228 585.6 123.414 585.414C123.6 585.228 123.747 585.008 123.848 584.765C123.948 584.523 124 584.263 124 584L124 584Z" stroke="#4B3425" stroke-width="2" stroke-linejoin="round" />

  <path d="M124 574C124 574.263 123.948 574.523 123.848 574.765C123.747 575.008 123.6 575.228 123.414 575.414C123.228 575.6 123.008 575.747 122.765 575.848C122.523 575.948 122.263 576 122 576C121.737 576 121.477 575.948 121.235 575.848C120.992 575.747 120.772 575.6 120.586 575.414C120.4 575.228 120.253 575.008 120.152 574.765C120.052 574.523 120 574.263 120 574" stroke="#4B3425" stroke-width="2" stroke-linejoin="round" />

  <path d="M124 594C124 593.737 123.948 593.477 123.848 593.235C123.747 592.992 123.6 592.772 123.414 592.586C123.228 592.4 123.008 592.253 122.765 592.152C122.523 592.052 122.263 592 122 592C121.737 592 121.477 592.052 121.235 592.152C120.992 592.253 120.772 592.4 120.586 592.586C120.4 592.772 120.253 592.992 120.152 593.235C120.052 593.477 120 593.737 120 594" stroke="#4B3425" stroke-width="2" stroke-linejoin="round" />

  <path d="M130.485 578.343C130.3 578.529 130.079 578.676 129.836 578.777C129.594 578.877 129.334 578.929 129.071 578.929C128.808 578.929 128.548 578.877 128.306 578.777C128.063 578.676 127.843 578.529 127.657 578.343C127.471 578.157 127.324 577.937 127.223 577.694C127.123 577.452 127.071 577.192 127.071 576.929C127.071 576.666 127.123 576.406 127.223 576.164C127.324 575.921 127.471 575.7 127.657 575.515" stroke="#4B3425" stroke-width="2" stroke-linejoin="round" />

  <path d="M116.343 592.485C116.529 592.3 116.676 592.079 116.777 591.836C116.877 591.594 116.929 591.334 116.929 591.071C116.929 590.808 116.877 590.548 116.777 590.306C116.676 590.063 116.529 589.843 116.343 589.657C116.157 589.471 115.937 589.324 115.694 589.223C115.452 589.123 115.192 589.071 114.929 589.071C114.666 589.071 114.406 589.123 114.164 589.223C113.921 589.324 113.7 589.471 113.515 589.657" stroke="#4B3425" stroke-width="2" stroke-linejoin="round" />

  <path d="M132 586C131.737 586 131.477 585.948 131.235 585.848C130.992 585.747 130.772 585.6 130.586 585.414C130.4 585.228 130.253 585.008 130.152 584.765C130.052 584.523 130 584.263 130 584C130 583.737 130.052 583.477 130.152 583.235C130.253 582.992 130.4 582.772 130.586 582.586C130.772 582.4 130.992 582.253 131.235 582.152C131.477 582.052 131.737 582 132 582" stroke="#4B3425" stroke-width="2" stroke-linejoin="round" />

  <path d="M112 586C112.263 586 112.523 585.948 112.765 585.848C113.008 585.747 113.228 585.6 113.414 585.414C113.6 585.228 113.747 585.008 113.848 584.765C113.948 584.523 114 584.263 114 584C114 583.737 113.948 583.477 113.848 583.235C113.747 582.992 113.6 582.772 113.414 582.586C113.228 582.4 113.008 582.253 112.765 582.152C112.523 582.052 112.263 582 112 582" stroke="#4B3425" stroke-width="2" stroke-linejoin="round" />

  <path d="M127.657 592.485C127.471 592.3 127.324 592.079 127.223 591.836C127.123 591.594 127.071 591.334 127.071 591.071C127.071 590.808 127.123 590.548 127.223 590.306C127.324 590.063 127.471 589.843 127.657 589.657C127.843 589.471 128.063 589.324 128.306 589.223C128.548 589.123 128.808 589.071 129.071 589.071C129.334 589.071 129.594 589.123 129.836 589.223C130.079 589.324 130.3 589.471 130.485 589.657" stroke="#4B3425" stroke-width="2" stroke-linejoin="round" />

  <path d="M113.515 578.343C113.7 578.529 113.921 578.676 114.164 578.777C114.406 578.877 114.666 578.929 114.929 578.929C115.192 578.929 115.452 578.877 115.694 578.777C115.937 578.676 116.157 578.529 116.343 578.343C116.529 578.157 116.676 577.937 116.777 577.694C116.877 577.452 116.929 577.192 116.929 576.929C116.929 576.666 116.877 576.406 116.777 576.164C116.676 575.921 116.529 575.7 116.343 575.515" stroke="#4B3425" stroke-width="2" stroke-linejoin="round" />

  <path d="M128 584C128 583.212 127.845 582.432 127.543 581.704C127.242 580.976 126.8 580.315 126.243 579.757C125.685 579.2 125.024 578.758 124.296 578.457C123.568 578.155 122.788 578 122 578C121.212 578 120.432 578.155 119.704 578.457C118.976 578.758 118.315 579.2 117.757 579.757C117.2 580.315 116.758 580.976 116.457 581.704C116.155 582.432 116 583.212 116 584C116 584.788 116.155 585.568 116.457 586.296C116.758 587.024 117.2 587.685 117.757 588.243C118.315 588.8 118.976 589.242 119.704 589.543C120.432 589.845 121.212 590 122 590C122.788 590 123.568 589.845 124.296 589.543C125.024 589.242 125.685 588.8 126.243 588.243C126.8 587.685 127.242 587.024 127.543 586.296C127.845 585.568 128 584.788 128 584L128 584Z" stroke="#4B3425" stroke-width="2" stroke-linejoin="round" />

</svg>