<svg width="72.00" height="72.00" viewBox="314.00 2376.00 72.00 72.00" fill="none" xmlns="http://www.w3.org/2000/svg">
  <rect x="318" y="2380" width="64" height="64" rx="32" fill="#F7F4F2" />

  <path d="M354.464 2404.88L353.293 2403.71L354.707 2402.29L355.879 2403.46C357.831 2405.42 357.831 2408.58 355.879 2410.54L349.885 2416.53C349.883 2416.53 349.881 2416.53 349.879 2416.54L344.707 2421.71L343.293 2420.29L348.464 2415.12C348.466 2415.12 348.468 2415.12 348.469 2415.12C349.636 2413.94 349.634 2412.05 348.464 2410.88L347.293 2409.71L348.707 2408.29L349.879 2409.46C350.674 2410.26 351.146 2411.26 351.293 2412.29L351.464 2412.12L351.469 2412.12C352.636 2410.94 352.634 2409.05 351.464 2407.88L350.293 2406.71L351.707 2405.29L352.879 2406.46C353.674 2407.26 354.146 2408.26 354.293 2409.29L354.464 2409.12C355.636 2407.95 355.636 2406.05 354.464 2404.88Z" fill="#4B3425" />

</svg>