<svg width="81.43" height="80.00" viewBox="456.57 2793.33 81.43 80.00" fill="none" xmlns="http://www.w3.org/2000/svg">
  <path d="M480.571 2817.1C479.87 2818.31 478.938 2819.37 477.827 2820.23C476.715 2821.08 475.447 2821.7 474.094 2822.07C472.741 2822.43 471.33 2822.52 469.941 2822.34C468.552 2822.16 467.213 2821.7 466 2821C464.787 2820.3 463.724 2819.37 462.871 2818.26C462.018 2817.15 461.393 2815.88 461.03 2814.52C460.667 2813.17 460.575 2811.76 460.758 2810.37C460.941 2808.98 461.395 2807.64 462.096 2806.43L471.333 2811.76L480.571 2817.1Z" fill="#9BB068" />

  <rect x="470" y="2800" width="64" height="64" rx="32" fill="#E5EAD7" />

  <path fill-rule="evenodd" clip-rule="evenodd" d="M504.667 2853.33L504.667 2869.33L499.333 2869.33L499.333 2853.33L504.667 2853.33Z" fill="#9BB068" />

  <path fill-rule="evenodd" clip-rule="evenodd" d="M504.667 2797.33L504.667 2826.67L499.333 2826.67L499.333 2797.33L504.667 2797.33Z" fill="#9BB068" />

  <rect x="491.333" y="2824" width="21.3333" height="21.3333" rx="10.6667" fill="#9BB068" />

  <rect x="499.333" y="2832" width="5.33333" height="5.33333" rx="2.66667" fill="#E5EAD7" />

  <rect x="512.667" y="2813.33" width="5.33333" height="5.33333" rx="2.66667" fill="#E5EAD7" />

  <circle cx="515.333" cy="2816" r="8" fill="#4B3425" />

  <circle cx="488.667" cy="2816" r="8" fill="#4B3425" />

  <rect x="470" y="2800" width="64" height="64" rx="32" fill="white" />

</svg>