<svg width="72.00" height="72.00" viewBox="162.00 396.00 72.00 72.00" fill="none" xmlns="http://www.w3.org/2000/svg">
  <rect x="166" y="400" width="64" height="64" rx="32" fill="#F7F4F2" />

  <path d="M197 434C197 433.47 196.789 432.961 196.414 432.586C196.039 432.211 195.53 432 195 432C194.47 432 193.961 432.211 193.586 432.586C193.211 432.961 193 433.47 193 434" stroke="#4B3425" stroke-width="2" stroke-linejoin="round" />

  <path d="M197 427C197 426.47 196.789 425.961 196.414 425.586C196.039 425.211 195.53 425 195 425C194.47 425 193.961 425.211 193.586 425.586C193.211 425.961 193 426.47 193 427" stroke="#4B3425" stroke-width="2" stroke-linejoin="round" />

  <path d="M204 438C204 437.47 203.789 436.961 203.414 436.586C203.039 436.211 202.53 436 202 436C201.47 436 200.961 436.211 200.586 436.586C200.211 436.961 200 437.47 200 438" stroke="#4B3425" stroke-width="2" stroke-linejoin="round" />

  <path d="M204 431C204 430.47 203.789 429.961 203.414 429.586C203.039 429.211 202.53 429 202 429C201.47 429 200.961 429.211 200.586 429.586C200.211 429.961 200 430.47 200 431" stroke="#4B3425" stroke-width="2" stroke-linejoin="round" />

</svg>