<svg width="72.00" height="72.00" viewBox="162.00 700.00 72.00 72.00" fill="none" xmlns="http://www.w3.org/2000/svg">
  <rect x="166" y="704" width="64" height="64" rx="32" fill="#F7F4F2" />

  <path d="M205.106 732.106L204 731C202.895 729.895 201.105 729.895 200 731C198.895 732.105 197.105 732.105 196 731C194.895 729.895 193.105 729.895 192 731L190.894 732.106C189.748 733.252 189.407 734.977 190.03 736.473L192.697 742.873C193.318 744.363 195.254 744.746 196.396 743.604C197.282 742.718 198.718 742.718 199.604 743.604C200.746 744.746 202.682 744.363 203.303 742.873L205.97 736.473C206.593 734.977 206.252 733.252 205.106 732.106Z" stroke="#4B3425" stroke-width="2" stroke-linejoin="round" />

  <circle cx="200" cy="737" r="1" fill="#4B3425" />

  <circle cx="196" cy="737" r="1" fill="#4B3425" />

</svg>