<svg width="72.00" height="72.00" viewBox="238.00 1348.00 72.00 72.00" fill="none" xmlns="http://www.w3.org/2000/svg">
  <rect x="242" y="1352" width="64" height="64" rx="32" fill="#F7F4F2" />

  <path d="M277 1375C277 1375.39 276.922 1375.78 276.772 1376.15C276.621 1376.51 276.4 1376.84 276.121 1377.12C275.843 1377.4 275.512 1377.62 275.148 1377.77C274.784 1377.92 274.394 1378 274 1378C273.606 1378 273.216 1377.92 272.852 1377.77C272.488 1377.62 272.157 1377.4 271.879 1377.12C271.6 1376.84 271.379 1376.51 271.228 1376.15C271.078 1375.78 271 1375.39 271 1375" stroke="#4B3425" stroke-width="2" stroke-linejoin="round" />

  <path d="M271 1385H277" stroke="#9BB068" stroke-width="2" stroke-linejoin="round" />

  <path d="M274 1382L274 1388" stroke="#9BB068" stroke-width="2" stroke-linejoin="round" />

</svg>