<svg width="323.00" height="72.00" viewBox="114.00 396.00 323.00 72.00" fill="none" xmlns="http://www.w3.org/2000/svg">
  <path d="M118 441V433" stroke="#4B3425" stroke-width="2" stroke-linejoin="round" />

  <rect x="242" y="400" width="64" height="64" rx="32" fill="#F7F4F2" />

  <path d="M265 436H273" stroke="#4B3425" stroke-width="2" stroke-linejoin="round" />

  <path d="M273 432C273.53 432 274.039 432.211 274.414 432.586C274.789 432.961 275 433.47 275 434C275 434.53 274.789 435.039 274.414 435.414C274.039 435.789 273.53 436 273 436" stroke="#4B3425" stroke-width="2" stroke-linejoin="round" />

  <path d="M265 429H278" stroke="#4B3425" stroke-width="2" stroke-linejoin="round" />

  <path d="M278 425C278.53 425 279.039 425.211 279.414 425.586C279.789 425.961 280 426.47 280 427C280 427.53 279.789 428.039 279.414 428.414C279.039 428.789 278.53 429 278 429" stroke="#4B3425" stroke-width="2" stroke-linejoin="round" />

</svg>