<svg width="72.00" height="72.00" viewBox="238.00 1196.00 72.00 72.00" fill="none" xmlns="http://www.w3.org/2000/svg">
  <rect x="242" y="1200" width="64" height="64" rx="32" fill="#F7F4F2" />

  <path d="M265 1236H273" stroke="#9BB068" stroke-width="2" stroke-linejoin="round" />

  <path d="M273 1232C273.53 1232 274.039 1232.21 274.414 1232.59C274.789 1232.96 275 1233.47 275 1234C275 1234.53 274.789 1235.04 274.414 1235.41C274.039 1235.79 273.53 1236 273 1236" stroke="#9BB068" stroke-width="2" stroke-linejoin="round" />

  <path d="M265 1229H278" stroke="#9BB068" stroke-width="2" stroke-linejoin="round" />

  <path d="M278 1225C278.53 1225 279.039 1225.21 279.414 1225.59C279.789 1225.96 280 1226.47 280 1227C280 1227.53 279.789 1228.04 279.414 1228.41C279.039 1228.79 278.53 1229 278 1229" stroke="#9BB068" stroke-width="2" stroke-linejoin="round" />

</svg>