<svg width="72.00" height="72.00" viewBox="162.00 548.00 72.00 72.00" fill="none" xmlns="http://www.w3.org/2000/svg">
  <rect x="166" y="552" width="64" height="64" rx="32" fill="#F7F4F2" />

  <path d="M201 575C201 575.394 200.922 575.784 200.772 576.148C200.621 576.512 200.4 576.843 200.121 577.121C199.843 577.4 199.512 577.621 199.148 577.772C198.784 577.922 198.394 578 198 578C197.606 578 197.216 577.922 196.852 577.772C196.488 577.621 196.157 577.4 195.879 577.121C195.6 576.843 195.379 576.512 195.228 576.148C195.078 575.784 195 575.394 195 575" stroke="#4B3425" stroke-width="2" stroke-linejoin="round" />

  <path d="M197 584C197 584.593 197.176 585.173 197.506 585.667C197.835 586.16 198.304 586.545 198.852 586.772C199.4 586.999 200.003 587.058 200.585 586.942C201.167 586.827 201.702 586.541 202.121 586.121L208 580" stroke="#4B3425" stroke-width="2" stroke-linejoin="round" />

</svg>