<svg width="174.00" height="72.00" viewBox="718.00 852.00 174.00 72.00" fill="none" xmlns="http://www.w3.org/2000/svg">
  <path d="M726 897C723.791 897 722 895.209 722 893V888" stroke="#4B3425" stroke-width="2" stroke-linejoin="round" />

  <rect x="774" y="856" width="64" height="64" rx="32" fill="#F7F4F2" />

  <path d="M809 885L803 885" stroke="#4B3425" stroke-width="2" stroke-linejoin="round" />

  <path d="M814.485 888.485C812.235 890.736 809.183 892 806 892C802.817 892 799.765 890.736 797.515 888.485" stroke="#4B3425" stroke-width="2" stroke-linejoin="round" />

  <path d="M801 897C801 895.674 801.527 894.402 802.464 893.464C803.402 892.527 804.674 892 806 892C807.326 892 808.598 892.527 809.536 893.464C810.473 894.402 811 895.674 811 897" stroke="#4B3425" stroke-width="2" stroke-linejoin="round" />

</svg>