<svg width="72.00" height="72.00" viewBox="618.00 548.00 72.00 72.00" fill="none" xmlns="http://www.w3.org/2000/svg">
  <rect x="622" y="552" width="64" height="64" rx="32" fill="#F7F4F2" />

  <path d="M651 574C651 574.394 651.078 574.784 651.228 575.148C651.379 575.512 651.6 575.843 651.879 576.121C652.157 576.4 652.488 576.621 652.852 576.772C653.216 576.922 653.606 577 654 577C654.394 577 654.784 576.922 655.148 576.772C655.512 576.621 655.843 576.4 656.121 576.121C656.4 575.843 656.621 575.512 656.772 575.148C656.922 574.784 657 574.394 657 574" stroke="#4B3425" stroke-width="2" stroke-linejoin="round" />

  <circle cx="654" cy="585" r="8" stroke="#4B3425" stroke-width="2" stroke-linejoin="round" />

  <path d="M654 586L658 582" stroke="#4B3425" stroke-width="2" stroke-linejoin="round" />

</svg>