<svg width="72.00" height="72.00" viewBox="542.00 624.00 72.00 72.00" fill="none" xmlns="http://www.w3.org/2000/svg">
  <rect x="546" y="628" width="64" height="64" rx="32" fill="#F7F4F2" />

  <path d="M581.121 659.879L577.879 663.121C577.316 663.684 577 664.447 577 665.243L577 666.5C577 667.881 575.881 669 574.5 669C573.119 669 572 667.881 572 666.5L572 666L571.5 666C570.119 666 569 664.881 569 663.5C569 662.119 570.119 661 571.5 661L572.757 661C573.553 661 574.316 660.684 574.879 660.121L578.121 656.879C578.684 656.316 579 655.553 579 654.757L579 653.5C579 652.119 580.119 651 581.5 651C582.881 651 584 652.119 584 653.5L584 654L584.5 654C585.881 654 587 655.119 587 656.5C587 657.881 585.881 659 584.5 659L583.243 659C582.447 659 581.684 659.316 581.121 659.879Z" stroke="#4B3425" stroke-width="2" stroke-linejoin="round" />

</svg>