<svg width="72.00" height="72.00" viewBox="618.00 320.00 72.00 72.00" fill="none" xmlns="http://www.w3.org/2000/svg">
  <rect x="622" y="324" width="64" height="64" rx="32" fill="#F7F4F2" />

  <rect x="647" y="349" width="14" height="14" rx="4" stroke="#4B3425" stroke-width="2" stroke-linejoin="round" />

  <path d="M664 353L661 353" stroke="#4B3425" stroke-width="2" stroke-linejoin="round" />

  <path d="M664 359L661 359" stroke="#4B3425" stroke-width="2" stroke-linejoin="round" />

  <path d="M647 353L644 353" stroke="#4B3425" stroke-width="2" stroke-linejoin="round" />

  <path d="M647 359L644 359" stroke="#4B3425" stroke-width="2" stroke-linejoin="round" />

  <path d="M647 356L644 356" stroke="#4B3425" stroke-width="2" stroke-linejoin="round" />

  <path d="M664 356L661 356" stroke="#4B3425" stroke-width="2" stroke-linejoin="round" />

  <path d="M651 346L651 349" stroke="#4B3425" stroke-width="2" stroke-linejoin="round" />

  <path d="M657 346L657 349" stroke="#4B3425" stroke-width="2" stroke-linejoin="round" />

  <path d="M654 363L654 366" stroke="#4B3425" stroke-width="2" stroke-linejoin="round" />

  <path d="M654 346L654 349" stroke="#4B3425" stroke-width="2" stroke-linejoin="round" />

  <path d="M651 363L651 366" stroke="#4B3425" stroke-width="2" stroke-linejoin="round" />

  <path d="M657 363L657 366" stroke="#4B3425" stroke-width="2" stroke-linejoin="round" />

  <circle cx="654" cy="356" r="2" stroke="#4B3425" stroke-width="2" stroke-linejoin="round" />

</svg>