<svg width="72.00" height="72.00" viewBox="694.00 1576.00 72.00 72.00" fill="none" xmlns="http://www.w3.org/2000/svg">
  <rect x="698" y="1580" width="64" height="64" rx="32" fill="#F7F4F2" />

  <path d="M723.636 1618.36C722.377 1617.11 721.52 1615.5 721.173 1613.76C720.826 1612.01 721.004 1610.2 721.685 1608.56C722.366 1606.91 723.52 1605.51 725 1604.52C726.48 1603.53 728.22 1603 730 1603C731.78 1603 733.52 1603.53 735 1604.52C736.48 1605.51 737.634 1606.91 738.315 1608.56C738.996 1610.2 739.174 1612.01 738.827 1613.76C738.48 1615.5 737.623 1617.11 736.364 1618.36" stroke="#4B3425" stroke-width="2" stroke-linejoin="round" />

  <path d="M735 1608L731 1612" stroke="#9BB068" stroke-width="2" stroke-linejoin="round" />

  <circle cx="730" cy="1613" r="2" stroke="#9BB068" stroke-width="2" stroke-linejoin="round" />

</svg>