<svg width="96.50" height="81.42" viewBox="390.00 2862.58 96.50 81.42" fill="none" xmlns="http://www.w3.org/2000/svg">
  <path d="M411.097 2886.57C412.31 2885.87 413.373 2884.94 414.226 2883.83C415.079 2882.72 415.704 2881.45 416.067 2880.09C416.429 2878.74 416.522 2877.33 416.339 2875.94C416.156 2874.55 415.702 2873.21 415.001 2872C414.301 2870.79 413.368 2869.72 412.257 2868.87C411.146 2868.02 409.877 2867.39 408.524 2867.03C407.171 2866.67 405.76 2866.58 404.371 2866.76C402.983 2866.94 401.643 2867.4 400.43 2868.1L405.764 2877.33L411.097 2886.57Z" fill="#9BB068" />

  <rect x="394" y="2876" width="64" height="64" rx="32" fill="#E5EAD7" />

  <rect x="432" y="2876" width="42.5" height="42.5" rx="21.25" fill="#9BB068" />

  <rect x="407" y="2897.5" width="75.5" height="42.5" rx="21.25" fill="#9BB068" />

  <rect x="394" y="2876" width="64" height="64" rx="32" fill="white" />

</svg>