<svg width="72.00" height="72.00" viewBox="162.00 1196.00 72.00 72.00" fill="none" xmlns="http://www.w3.org/2000/svg">
  <rect x="166" y="1200" width="64" height="64" rx="32" fill="#F7F4F2" />

  <path d="M197 1234C197 1233.47 196.789 1232.96 196.414 1232.59C196.039 1232.21 195.53 1232 195 1232C194.47 1232 193.961 1232.21 193.586 1232.59C193.211 1232.96 193 1233.47 193 1234" stroke="#9BB068" stroke-width="2" stroke-linejoin="round" />

  <path d="M197 1227C197 1226.47 196.789 1225.96 196.414 1225.59C196.039 1225.21 195.53 1225 195 1225C194.47 1225 193.961 1225.21 193.586 1225.59C193.211 1225.96 193 1226.47 193 1227" stroke="#9BB068" stroke-width="2" stroke-linejoin="round" />

  <path d="M204 1238C204 1237.47 203.789 1236.96 203.414 1236.59C203.039 1236.21 202.53 1236 202 1236C201.47 1236 200.961 1236.21 200.586 1236.59C200.211 1236.96 200 1237.47 200 1238" stroke="#9BB068" stroke-width="2" stroke-linejoin="round" />

  <path d="M204 1231C204 1230.47 203.789 1229.96 203.414 1229.59C203.039 1229.21 202.53 1229 202 1229C201.47 1229 200.961 1229.21 200.586 1229.59C200.211 1229.96 200 1230.47 200 1231" stroke="#9BB068" stroke-width="2" stroke-linejoin="round" />

</svg>