<svg width="72.00" height="72.00" viewBox="466.00 2072.00 72.00 72.00" fill="none" xmlns="http://www.w3.org/2000/svg">
  <rect x="470" y="2076" width="64" height="64" rx="32" fill="#F7F4F2" />

  <path d="M498.617 2106.92C498.739 2106.97 498.869 2107 499 2107C499.131 2107 499.261 2106.97 499.383 2106.92C499.504 2106.87 499.614 2106.8 499.707 2106.71C499.8 2106.61 499.874 2106.5 499.924 2106.38C499.974 2106.26 500 2106.13 500 2106C500 2105.87 499.974 2105.74 499.924 2105.62C499.874 2105.5 499.8 2105.39 499.707 2105.29C499.614 2105.2 499.504 2105.13 499.383 2105.08C499.261 2105.03 499.131 2105 499 2105C498.869 2105 498.739 2105.03 498.617 2105.08C498.496 2105.13 498.386 2105.2 498.293 2105.29C498.2 2105.39 498.126 2105.5 498.076 2105.62C498.026 2105.74 498 2105.87 498 2106C498 2106.13 498.026 2106.26 498.076 2106.38C498.126 2106.5 498.2 2106.61 498.293 2106.71C498.386 2106.8 498.496 2106.87 498.617 2106.92Z" fill="#4B3425" />

  <path d="M505 2111C504.869 2111 504.739 2110.97 504.617 2110.92C504.496 2110.87 504.386 2110.8 504.293 2110.71C504.2 2110.61 504.126 2110.5 504.076 2110.38C504.026 2110.26 504 2110.13 504 2110C504 2109.87 504.026 2109.74 504.076 2109.62C504.126 2109.5 504.2 2109.39 504.293 2109.29C504.386 2109.2 504.496 2109.13 504.617 2109.08C504.739 2109.03 504.869 2109 505 2109C505.131 2109 505.261 2109.03 505.383 2109.08C505.504 2109.13 505.614 2109.2 505.707 2109.29C505.8 2109.39 505.874 2109.5 505.924 2109.62C505.974 2109.74 506 2109.87 506 2110C506 2110.13 505.974 2110.26 505.924 2110.38C505.874 2110.5 505.8 2110.61 505.707 2110.71C505.614 2110.8 505.504 2110.87 505.383 2110.92C505.261 2110.97 505.131 2111 505 2111Z" fill="#4B3425" />

</svg>