<svg width="1589.00" height="1592.00" viewBox="111.00 110.00 1589.00 1592.00" fill="none" xmlns="http://www.w3.org/2000/svg">
  <path d="M956 803V808.699C956 809.545 955.732 810.368 955.235 811.052L952.62 814.647C950.697 817.291 952.586 821 955.855 821H960.145C963.414 821 965.302 817.291 963.38 814.647L960.765 811.052C960.268 810.368 960 809.545 960 808.699V803" stroke="#4B3425" stroke-width="2" stroke-linejoin="round" />

  <rect x="850" y="856" width="64" height="64" rx="32" fill="#F7F4F2" />

  <path d="M873 886C875.209 886 877 887.791 877 890" stroke="#4B3425" stroke-width="2" stroke-linejoin="round" />

  <path d="M873 882C873 883.418 873 887.09 873 890.001C873 892.21 874.791 894 877 894H887C889.209 894 891 892.209 891 890V887" stroke="#4B3425" stroke-width="2" stroke-linejoin="round" />

  <path d="M873 890H891" stroke="#4B3425" stroke-width="2" stroke-linejoin="round" />

  <path d="M884 879V887" stroke="#4B3425" stroke-width="2" stroke-linejoin="round" />

  <path d="M888 883L880 883" stroke="#4B3425" stroke-width="2" stroke-linejoin="round" />

  <path d="M873 898C873 897.204 873.316 896.441 873.879 895.879C874.441 895.316 875.204 895 876 895C876.796 895 877.559 895.316 878.121 895.879C878.684 896.441 879 897.204 879 898" stroke="#4B3425" stroke-width="2" stroke-linejoin="round" />

  <path d="M885 898C885 897.204 885.316 896.441 885.879 895.879C886.441 895.316 887.204 895 888 895C888.796 895 889.559 895.316 890.121 895.879C890.684 896.441 891 897.204 891 898" stroke="#4B3425" stroke-width="2" stroke-linejoin="round" />

  <path d="M511 1238V1231C511 1229.9 510.105 1229 509 1229C507.895 1229 507 1229.9 507 1231V1238C507 1239.1 507.895 1240 509 1240C510.105 1240 511 1239.1 511 1238Z" stroke="#4B3425" stroke-width="2" stroke-linejoin="round" />

  <path d="M497 1238V1235C497 1233.9 496.105 1233 495 1233C493.895 1233 493 1233.9 493 1235V1238C493 1239.1 493.895 1240 495 1240C496.105 1240 497 1239.1 497 1238Z" stroke="#4B3425" stroke-width="2" stroke-linejoin="round" />

  <path d="M504 1238V1226C504 1224.9 503.105 1224 502 1224C500.895 1224 500 1224.9 500 1226V1238C500 1239.1 500.895 1240 502 1240C503.105 1240 504 1239.1 504 1238Z" stroke="#9BB068" stroke-width="2" stroke-linejoin="round" />

  <path d="M584 1223C584 1224.59 583.368 1226.12 582.243 1227.24C582.095 1227.39 581.94 1227.53 581.779 1227.66C580.397 1228.78 579 1230.22 579 1232C579 1233.78 580.397 1235.22 581.779 1236.34C581.94 1236.47 582.095 1236.61 582.243 1236.76C583.368 1237.88 584 1239.41 584 1241H572C572 1239.41 572.632 1237.88 573.757 1236.76C573.905 1236.61 574.06 1236.47 574.221 1236.34C575.603 1235.22 577 1233.78 577 1232C577 1230.22 575.603 1228.78 574.221 1227.66C574.06 1227.53 573.905 1227.39 573.757 1227.24C572.632 1226.12 572 1224.59 572 1223H584Z" stroke="#4B3425" stroke-width="2" stroke-linejoin="round" />

  <path d="M421.121 1303.9L420.145 1303.68L421.121 1303.9ZM430.879 1303.9L431.855 1303.68L430.879 1303.9ZM431 1305C432.657 1305 434 1306.34 434 1308H436C436 1305.24 433.761 1303 431 1303V1305ZM434 1308C434 1309.66 432.657 1311 431 1311V1313C433.761 1313 436 1310.76 436 1308H434ZM431 1311H421V1313H431V1311ZM421 1311C419.343 1311 418 1309.66 418 1308H416C416 1310.76 418.239 1313 421 1313V1311ZM418 1308C418 1306.34 419.343 1305 421 1305V1303C418.239 1303 416 1305.24 416 1308H418ZM422.097 1304.12C422.497 1302.33 424.094 1301 426 1301V1299C423.138 1299 420.746 1301 420.145 1303.68L422.097 1304.12ZM426 1301C427.906 1301 429.503 1302.33 429.903 1304.12L431.855 1303.68C431.254 1301 428.862 1299 426 1299V1301ZM421 1305C421.54 1305 421.985 1304.62 422.097 1304.12L420.145 1303.68C420.232 1303.3 420.576 1303 421 1303V1305ZM431 1303C431.424 1303 431.768 1303.3 431.855 1303.68L429.903 1304.12C430.015 1304.62 430.46 1305 431 1305V1303Z" fill="#4B3425" />

  <path d="M356 1389C356 1391.21 354.209 1393 352 1393H348C345.791 1393 344 1391.21 344 1389V1379C344 1376.79 345.791 1375 348 1375H352C354.209 1375 356 1376.79 356 1379" stroke="#4B3425" stroke-width="2" stroke-linejoin="round" />

  <path d="M351 1384.5C351 1382.57 352.567 1381 354.5 1381H356C357.657 1381 359 1382.34 359 1384C359 1385.66 357.657 1387 356 1387H353.414C353.149 1387 352.895 1387.11 352.707 1387.29L352.414 1387.59C351.892 1388.11 351 1387.74 351 1387V1384.5Z" stroke="#9BB068" stroke-width="2" stroke-linejoin="round" />

  <path d="M275 1465H279C280.105 1465 281 1465.9 281 1467C281 1468.1 280.105 1469 279 1469C278.37 1469 277.778 1468.7 277.4 1468.2L275 1465Z" stroke="#9BB068" stroke-width="2" stroke-linejoin="round" />

  <path d="M279 1451H269C266.791 1451 265 1452.79 265 1455V1457C265 1459.21 266.791 1461 269 1461H270C270 1463.21 271.791 1465 274 1465H279C281.209 1465 283 1463.21 283 1461V1455C283 1452.79 281.209 1451 279 1451Z" stroke="#4B3425" stroke-width="2" stroke-linejoin="round" />

  <path d="M346 1450V1452C346 1454.21 347.791 1456 350 1456H351" stroke="#9BB068" stroke-width="2" stroke-linejoin="round" />

  <path d="M359 1461V1456C359 1453.79 357.209 1452 355 1452C352.791 1452 351 1453.79 351 1456V1460C351 1461.66 349.657 1463 348 1463C346.343 1463 345 1464.34 345 1466C345 1467.66 346.343 1469 348 1469H351C355.418 1469 359 1465.42 359 1461Z" stroke="#4B3425" stroke-width="2" stroke-linejoin="round" />

  <path d="M198 1532V1531C198 1528.79 199.791 1527 202 1527" stroke="#9BB068" stroke-width="2" stroke-linejoin="round" />

  <path d="M268 1535V1540H276C279.314 1540 282 1537.31 282 1534C282 1530.69 279.314 1528 276 1528H275C271.134 1528 268 1531.13 268 1535Z" stroke="#4B3425" stroke-width="2" stroke-linejoin="round" />

  <path d="M277 1534H272C269.791 1534 268 1535.79 268 1538V1545" stroke="#9BB068" stroke-width="2" stroke-linejoin="round" />

  <path d="M127.033 1622V1617.8C127.033 1616.5 127.73 1615.32 128.528 1614.29C128.836 1613.9 129.102 1613.47 129.32 1613.01C129.837 1611.93 130.065 1610.73 129.984 1609.53C129.903 1608.33 129.514 1607.17 128.855 1606.16C128.196 1605.16 127.29 1604.34 126.223 1603.79C125.156 1603.23 123.964 1602.96 122.763 1603C121.562 1603.04 120.391 1603.39 119.364 1604.02C118.337 1604.64 117.488 1605.52 116.899 1606.57C116.31 1607.62 116 1608.8 116 1610L114 1614H116V1617H119V1622" stroke="#4B3425" stroke-width="2" stroke-linejoin="round" />

  <path d="M203.033 1622V1617.8C203.033 1616.5 203.73 1615.32 204.528 1614.29C204.836 1613.9 205.102 1613.47 205.32 1613.01C205.837 1611.93 206.065 1610.73 205.984 1609.53C205.903 1608.33 205.514 1607.17 204.855 1606.16C204.196 1605.16 203.29 1604.34 202.223 1603.79C201.156 1603.23 199.964 1602.96 198.763 1603C197.562 1603.04 196.391 1603.39 195.364 1604.02C194.337 1604.64 193.488 1605.52 192.899 1606.57C192.31 1607.62 192 1608.8 192 1610L190 1614H192V1617H195V1622" stroke="#4B3425" stroke-width="2" stroke-linejoin="round" />

  <path d="M120 1679V1678C119.448 1678 119 1678.45 119 1679H120ZM124 1679H125C125 1678.45 124.552 1678 124 1678V1679ZM120 1685.34L120.333 1686.28C120.733 1686.14 121 1685.77 121 1685.34H120ZM124 1685.34H123C123 1685.77 123.267 1686.14 123.667 1686.28L124 1685.34ZM120 1680H124V1678H120V1680ZM121 1685.34V1679H119V1685.34H121ZM117 1691C117 1688.82 118.39 1686.97 120.333 1686.28L119.667 1684.4C116.949 1685.36 115 1687.95 115 1691H117ZM122 1696C119.239 1696 117 1693.76 117 1691H115C115 1694.87 118.134 1698 122 1698V1696ZM127 1691C127 1693.76 124.761 1696 122 1696V1698C125.866 1698 129 1694.87 129 1691H127ZM123.667 1686.28C125.61 1686.97 127 1688.82 127 1691H129C129 1687.95 127.051 1685.36 124.333 1684.4L123.667 1686.28ZM123 1679V1685.34H125V1679H123Z" fill="#4B3425" />

</svg>