<svg width="72.00" height="72.00" viewBox="618.00 1388.00 72.00 72.00" fill="none" xmlns="http://www.w3.org/2000/svg">
  <rect x="622" y="1392" width="64" height="64" rx="32" fill="#F7F4F2" />

  <path d="M660.171 1428.76L647.707 1416.29L646.293 1417.71L658.757 1430.17C658.128 1430.59 657.409 1430.86 656.653 1430.96C655.561 1431.1 654.453 1430.88 653.5 1430.33L652.5 1432.06C653.835 1432.83 655.386 1433.14 656.914 1432.94C658.442 1432.74 659.86 1432.04 660.95 1430.95C662.039 1429.86 662.739 1428.44 662.94 1426.91C663.141 1425.39 662.833 1423.83 662.062 1422.5L660.33 1423.5C660.881 1424.45 661.101 1425.56 660.957 1426.65C660.858 1427.41 660.587 1428.13 660.171 1428.76Z" fill="#4B3425" />

</svg>