<svg width="72.00" height="72.00" viewBox="618.00 1236.00 72.00 72.00" fill="none" xmlns="http://www.w3.org/2000/svg">
  <rect x="622" y="1240" width="64" height="64" rx="32" fill="#F7F4F2" />

  <path d="M648.812 1265.24C650.3 1265.64 651.615 1266.52 652.553 1267.74C653.491 1268.96 654 1270.46 654 1272C654 1273.54 653.491 1275.04 652.553 1276.26C651.615 1277.48 650.3 1278.36 648.812 1278.76L648.294 1276.83C649.357 1276.54 650.297 1275.92 650.967 1275.04C651.637 1274.17 652 1273.1 652 1272C652 1270.9 651.637 1269.83 650.967 1268.96C650.297 1268.08 649.357 1267.46 648.294 1267.17L648.812 1265.24Z" fill="#4B3425" />

  <path d="M654.812 1265.24C656.3 1265.64 657.615 1266.52 658.553 1267.74C659.491 1268.96 660 1270.46 660 1272C660 1273.54 659.491 1275.04 658.553 1276.26C657.615 1277.48 656.3 1278.36 654.812 1278.76L654.294 1276.83C655.357 1276.54 656.297 1275.92 656.967 1275.04C657.637 1274.17 658 1273.1 658 1272C658 1270.9 657.637 1269.83 656.967 1268.96C656.297 1268.08 655.357 1267.46 654.294 1267.17L654.812 1265.24Z" fill="#4B3425" />

</svg>