<svg width="72.00" height="72.00" viewBox="542.00 1388.00 72.00 72.00" fill="none" xmlns="http://www.w3.org/2000/svg">
  <rect x="546" y="1392" width="64" height="64" rx="32" fill="#F7F4F2" />

  <path d="M572.829 1428.76L585.293 1416.29L586.707 1417.71L574.243 1430.17C574.872 1430.59 575.591 1430.86 576.347 1430.96C577.439 1431.1 578.547 1430.88 579.5 1430.33L580.5 1432.06C579.166 1432.83 577.614 1433.14 576.086 1432.94C574.559 1432.74 573.14 1432.04 572.05 1430.95C570.961 1429.86 570.261 1428.44 570.06 1426.91C569.859 1425.39 570.167 1423.83 570.938 1422.5L572.67 1423.5C572.12 1424.45 571.899 1425.56 572.043 1426.65C572.142 1427.41 572.413 1428.13 572.829 1428.76Z" fill="#4B3425" />

</svg>