<svg width="72.00" height="72.00" viewBox="542.00 1236.00 72.00 72.00" fill="none" xmlns="http://www.w3.org/2000/svg">
  <rect x="546" y="1240" width="64" height="64" rx="32" fill="#F7F4F2" />

  <path d="M577.188 1265.24C575.7 1265.64 574.385 1266.52 573.447 1267.74C572.508 1268.96 572 1270.46 572 1272C572 1273.54 572.508 1275.04 573.447 1276.26C574.385 1277.48 575.7 1278.36 577.188 1278.76L577.706 1276.83C576.643 1276.54 575.703 1275.92 575.033 1275.04C574.363 1274.17 574 1273.1 574 1272C574 1270.9 574.363 1269.83 575.033 1268.96C575.703 1268.08 576.643 1267.46 577.706 1267.17L577.188 1265.24Z" fill="#4B3425" />

  <path d="M583.188 1265.24C581.7 1265.64 580.385 1266.52 579.447 1267.74C578.508 1268.96 578 1270.46 578 1272C578 1273.54 578.508 1275.04 579.447 1276.26C580.385 1277.48 581.7 1278.36 583.188 1278.76L583.706 1276.83C582.643 1276.54 581.703 1275.92 581.033 1275.04C580.363 1274.17 580 1273.1 580 1272C580 1270.9 580.363 1269.83 581.033 1268.96C581.703 1268.08 582.643 1267.46 583.706 1267.17L583.188 1265.24Z" fill="#4B3425" />

</svg>