<svg width="72.00" height="72.00" viewBox="846.00 1312.00 72.00 72.00" fill="none" xmlns="http://www.w3.org/2000/svg">
  <rect x="850" y="1316" width="64" height="64" rx="32" fill="#F7F4F2" />

  <path fill-rule="evenodd" clip-rule="evenodd" d="M882 1358C887.523 1358 892 1353.52 892 1348C892 1342.48 887.523 1338 882 1338C876.477 1338 872 1342.48 872 1348C872 1353.52 876.477 1358 882 1358ZM883.447 1342.2C882.171 1342.55 881.044 1343.3 880.24 1344.35C879.436 1345.4 879 1346.68 879 1348C879 1349.32 879.436 1350.6 880.24 1351.65C881.044 1352.7 882.171 1353.45 883.447 1353.8L883.965 1351.86C883.114 1351.64 882.363 1351.13 881.827 1350.44C881.291 1349.74 881 1348.88 881 1348C881 1347.12 881.291 1346.26 881.827 1345.56C882.363 1344.87 883.114 1344.36 883.965 1344.14L883.447 1342.2Z" fill="#4B3425" />

</svg>