<svg width="72.00" height="72.00" viewBox="86.00 1388.00 72.00 72.00" fill="none" xmlns="http://www.w3.org/2000/svg">
  <rect x="90" y="1392" width="64" height="64" rx="32" fill="#F7F4F2" />

  <path d="M120.439 1416.15C122.079 1415.83 123.779 1416.02 125.302 1416.71C126.652 1417.32 127.802 1418.3 128.628 1419.52C128.257 1419.76 127.835 1419.92 127.392 1419.97C126.737 1420.06 126.072 1419.93 125.5 1419.6L124.5 1421.33C125.453 1421.88 126.561 1422.1 127.653 1421.96C128.744 1421.81 129.757 1421.31 130.536 1420.54C131.314 1419.76 131.814 1418.74 131.957 1417.65C132.101 1416.56 131.88 1415.45 131.33 1414.5L129.598 1415.5C129.928 1416.07 130.061 1416.74 129.974 1417.39C129.954 1417.54 129.922 1417.7 129.879 1417.84C128.889 1416.58 127.604 1415.56 126.127 1414.89C124.224 1414.03 122.098 1413.78 120.049 1414.19C118 1414.6 116.13 1415.64 114.701 1417.16C113.273 1418.69 112.358 1420.62 112.086 1422.69C111.813 1424.77 112.196 1426.87 113.181 1428.71C114.166 1430.56 115.703 1432.04 117.577 1432.97C119.451 1433.89 121.567 1434.21 123.629 1433.87C125.69 1433.53 127.594 1432.55 129.071 1431.07L127.657 1429.66C126.475 1430.84 124.952 1431.62 123.303 1431.89C121.654 1432.17 119.961 1431.91 118.462 1431.17C116.963 1430.44 115.733 1429.25 114.945 1427.77C114.157 1426.3 113.85 1424.61 114.068 1422.96C114.287 1421.3 115.018 1419.75 116.161 1418.53C117.304 1417.31 118.8 1416.48 120.439 1416.15Z" fill="#4B3425" />

</svg>