<svg width="72.00" height="72.00" viewBox="238.00 1236.00 72.00 72.00" fill="none" xmlns="http://www.w3.org/2000/svg">
  <rect x="242" y="1240" width="64" height="64" rx="32" fill="#F7F4F2" />

  <path fill-rule="evenodd" clip-rule="evenodd" d="M273.653 1267.13C274.725 1265.73 276.229 1264.73 277.93 1264.27L277.412 1262.34C275.286 1262.91 273.407 1264.17 272.067 1265.91C270.727 1267.66 270 1269.8 270 1272C270 1274.2 270.727 1276.34 272.067 1278.09C273.407 1279.83 275.286 1281.09 277.412 1281.66L277.93 1279.73C276.229 1279.27 274.725 1278.27 273.653 1276.87C272.581 1275.47 272 1273.76 272 1272C272 1270.24 272.581 1268.53 273.653 1267.13Z" fill="#4B3425" />

</svg>