<svg width="72.00" height="72.00" viewBox="466.00 1236.00 72.00 72.00" fill="none" xmlns="http://www.w3.org/2000/svg">
  <rect x="470" y="1240" width="64" height="64" rx="32" fill="#F7F4F2" />

  <path d="M508.761 1266.81C508.362 1268.3 507.484 1269.62 506.261 1270.55C505.039 1271.49 503.541 1272 502 1272C500.459 1272 498.961 1271.49 497.738 1270.55C496.516 1269.62 495.637 1268.3 495.238 1266.81L497.17 1266.29C497.455 1267.36 498.083 1268.3 498.956 1268.97C499.829 1269.64 500.899 1270 502 1270C503.1 1270 504.17 1269.64 505.044 1268.97C505.917 1268.3 506.545 1267.36 506.829 1266.29L508.761 1266.81Z" fill="#4B3425" />

  <path d="M508.761 1272.81C508.362 1274.3 507.484 1275.62 506.261 1276.55C505.039 1277.49 503.541 1278 502 1278C500.459 1278 498.961 1277.49 497.738 1276.55C496.516 1275.62 495.637 1274.3 495.238 1272.81L497.17 1272.29C497.455 1273.36 498.083 1274.3 498.956 1274.97C499.829 1275.64 500.899 1276 502 1276C503.1 1276 504.17 1275.64 505.044 1274.97C505.917 1274.3 506.545 1273.36 506.829 1272.29L508.761 1272.81Z" fill="#4B3425" />

</svg>