<svg width="72.00" height="72.00" viewBox="694.00 1236.00 72.00 72.00" fill="none" xmlns="http://www.w3.org/2000/svg">
  <rect x="698" y="1240" width="64" height="64" rx="32" fill="#F7F4F2" />

  <path d="M737.727 1271.93C737.272 1270.23 736.267 1268.73 734.87 1267.65C733.473 1266.58 731.761 1266 730 1266C728.239 1266 726.527 1266.58 725.13 1267.65C723.733 1268.73 722.728 1270.23 722.273 1271.93L720.341 1271.41C720.911 1269.29 722.166 1267.41 723.912 1266.07C725.659 1264.73 727.799 1264 730 1264C732.201 1264 734.341 1264.73 736.088 1266.07C737.834 1267.41 739.09 1269.29 739.659 1271.41L737.727 1271.93Z" fill="#4B3425" />

  <path d="M737.727 1279.93C737.272 1278.23 736.267 1276.73 734.87 1275.65C733.473 1274.58 731.761 1274 730 1274C728.239 1274 726.527 1274.58 725.13 1275.65C723.733 1276.73 722.728 1278.23 722.273 1279.93L720.341 1279.41C720.911 1277.29 722.166 1275.41 723.912 1274.07C725.659 1272.73 727.799 1272 730 1272C732.201 1272 734.341 1272.73 736.088 1274.07C737.834 1275.41 739.09 1277.29 739.659 1279.41L737.727 1279.93Z" fill="#4B3425" />

</svg>