<svg width="72.00" height="72.00" viewBox="770.00 1312.00 72.00 72.00" fill="none" xmlns="http://www.w3.org/2000/svg">
  <rect x="774" y="1316" width="64" height="64" rx="32" fill="#F7F4F2" />

  <path fill-rule="evenodd" clip-rule="evenodd" d="M806 1358C811.523 1358 816 1353.52 816 1348C816 1342.48 811.523 1338 806 1338C800.477 1338 796 1342.48 796 1348C796 1353.52 800.477 1358 806 1358ZM811.796 1346.55C811.454 1347.83 810.7 1348.96 809.653 1349.76C808.605 1350.56 807.321 1351 806 1351C804.679 1351 803.395 1350.56 802.347 1349.76C801.3 1348.96 800.546 1347.83 800.204 1346.55L802.136 1346.04C802.364 1346.89 802.866 1347.64 803.565 1348.17C804.264 1348.71 805.119 1349 806 1349C806.881 1349 807.736 1348.71 808.435 1348.17C809.134 1347.64 809.636 1346.89 809.864 1346.04L811.796 1346.55Z" fill="#4B3425" />

</svg>