<svg width="72.00" height="72.00" viewBox="922.00 1236.00 72.00 72.00" fill="none" xmlns="http://www.w3.org/2000/svg">
  <rect x="926" y="1240" width="64" height="64" rx="32" fill="#F7F4F2" />

  <path d="M950.07 1264.27C951.771 1264.73 953.275 1265.73 954.347 1267.13C955.419 1268.53 956 1270.24 956 1272C956 1273.76 955.419 1275.47 954.347 1276.87C953.275 1278.27 951.771 1279.27 950.07 1279.73L950.588 1281.66C952.714 1281.09 954.593 1279.83 955.933 1278.09C957.273 1276.34 958 1274.2 958 1272C958 1269.8 957.273 1267.66 955.933 1265.91C954.593 1264.17 952.714 1262.91 950.588 1262.34L950.07 1264.27Z" fill="#4B3425" />

  <path d="M958.07 1264.27C959.771 1264.73 961.275 1265.73 962.347 1267.13C963.419 1268.53 964 1270.24 964 1272C964 1273.76 963.419 1275.47 962.347 1276.87C961.275 1278.27 959.771 1279.27 958.07 1279.73L958.588 1281.66C960.714 1281.09 962.593 1279.83 963.933 1278.09C965.273 1276.34 966 1274.2 966 1272C966 1269.8 965.273 1267.66 963.933 1265.91C962.593 1264.17 960.714 1262.91 958.588 1262.34L958.07 1264.27Z" fill="#4B3425" />

</svg>