<svg width="72.00" height="72.00" viewBox="162.00 1312.00 72.00 72.00" fill="none" xmlns="http://www.w3.org/2000/svg">
  <rect x="166" y="1316" width="64" height="64" rx="32" fill="#F7F4F2" />

  <path d="M195.188 1341.24C193.7 1341.64 192.385 1342.52 191.447 1343.74C190.508 1344.96 190 1346.46 190 1348C190 1349.54 190.508 1351.04 191.447 1352.26C192.385 1353.48 193.7 1354.36 195.188 1354.76L195.706 1352.83C194.643 1352.54 193.703 1351.92 193.033 1351.04C192.363 1350.17 192 1349.1 192 1348C192 1346.9 192.363 1345.83 193.033 1344.96C193.703 1344.08 194.643 1343.46 195.706 1343.17L195.188 1341.24Z" fill="#4B3425" />

  <path d="M200.812 1341.24C202.3 1341.64 203.615 1342.52 204.553 1343.74C205.492 1344.96 206 1346.46 206 1348C206 1349.54 205.492 1351.04 204.553 1352.26C203.615 1353.48 202.3 1354.36 200.812 1354.76L200.294 1352.83C201.357 1352.54 202.297 1351.92 202.967 1351.04C203.637 1350.17 204 1349.1 204 1348C204 1346.9 203.637 1345.83 202.967 1344.96C202.297 1344.08 201.357 1343.46 200.294 1343.17L200.812 1341.24Z" fill="#4B3425" />

</svg>