<svg width="72.00" height="72.00" viewBox="238.00 1388.00 72.00 72.00" fill="none" xmlns="http://www.w3.org/2000/svg">
  <rect x="242" y="1392" width="64" height="64" rx="32" fill="#F7F4F2" />

  <path d="M281.598 1421.5C281.928 1422.07 282.061 1422.74 281.974 1423.39C281.931 1423.72 281.834 1424.04 281.689 1424.33C280.594 1423.35 279.338 1422.55 277.975 1421.99C276.398 1421.34 274.707 1421 273 1421C271.293 1421 269.602 1421.34 268.025 1421.99C266.448 1422.64 265.015 1423.6 263.808 1424.81L265.222 1426.22C266.243 1425.2 267.456 1424.39 268.79 1423.84C270.125 1423.28 271.555 1423 273 1423C274.445 1423 275.875 1423.28 277.21 1423.84C278.321 1424.3 279.348 1424.94 280.25 1425.73C279.98 1425.85 279.69 1425.93 279.392 1425.97C278.737 1426.06 278.072 1425.93 277.5 1425.6L276.5 1427.33C277.453 1427.88 278.561 1428.1 279.653 1427.96C280.744 1427.81 281.757 1427.31 282.536 1426.54C283.314 1425.76 283.814 1424.74 283.957 1423.65C284.101 1422.56 283.88 1421.45 283.33 1420.5L281.598 1421.5Z" fill="#4B3425" />

</svg>