<svg width="72.00" height="72.00" viewBox="162.00 1236.00 72.00 72.00" fill="none" xmlns="http://www.w3.org/2000/svg">
  <rect x="166" y="1240" width="64" height="64" rx="32" fill="#F7F4F2" />

  <path fill-rule="evenodd" clip-rule="evenodd" d="M202.87 1272.35C204.267 1271.27 205.272 1269.77 205.727 1268.07L207.659 1268.59C207.089 1270.71 205.834 1272.59 204.088 1273.93C202.341 1275.27 200.201 1276 198 1276C195.799 1276 193.659 1275.27 191.912 1273.93C190.166 1272.59 188.91 1270.71 188.341 1268.59L190.273 1268.07C190.728 1269.77 191.733 1271.27 193.13 1272.35C194.527 1273.42 196.239 1274 198 1274C199.761 1274 201.473 1273.42 202.87 1272.35Z" fill="#4B3425" />

</svg>