<svg width="72.00" height="72.00" viewBox="390.00 1388.00 72.00 72.00" fill="none" xmlns="http://www.w3.org/2000/svg">
  <rect x="394" y="1392" width="64" height="64" rx="32" fill="#F7F4F2" />

  <path d="M424.347 1418.04C425.439 1417.9 426.547 1418.12 427.5 1418.67L428.5 1416.94C427.166 1416.17 425.614 1415.86 424.086 1416.06C422.559 1416.26 421.14 1416.96 420.05 1418.05C418.961 1419.14 418.261 1420.56 418.06 1422.09C417.859 1423.61 418.167 1425.17 418.938 1426.5L420.67 1425.5C420.12 1424.55 419.899 1423.44 420.043 1422.35C420.142 1421.59 420.413 1420.87 420.829 1420.24L433.293 1432.71L434.707 1431.29L422.243 1418.83C422.872 1418.41 423.591 1418.14 424.347 1418.04Z" fill="#4B3425" />

</svg>