<svg width="72.00" height="72.00" viewBox="238.00 1312.00 72.00 72.00" fill="none" xmlns="http://www.w3.org/2000/svg">
  <rect x="242" y="1316" width="64" height="64" rx="32" fill="#F7F4F2" />

  <path d="M281.727 1345.93C281.272 1344.23 280.267 1342.73 278.87 1341.65C277.473 1340.58 275.761 1340 274 1340C272.239 1340 270.527 1340.58 269.13 1341.65C267.733 1342.73 266.728 1344.23 266.273 1345.93L264.341 1345.41C264.911 1343.29 266.166 1341.41 267.912 1340.07C269.659 1338.73 271.799 1338 274 1338C276.201 1338 278.341 1338.73 280.088 1340.07C281.834 1341.41 283.09 1343.29 283.659 1345.41L281.727 1345.93Z" fill="#4B3425" />

  <path d="M281.727 1350.07C281.272 1351.77 280.267 1353.27 278.87 1354.35C277.473 1355.42 275.761 1356 274 1356C272.239 1356 270.527 1355.42 269.13 1354.35C267.733 1353.27 266.728 1351.77 266.273 1350.07L264.341 1350.59C264.911 1352.71 266.166 1354.59 267.912 1355.93C269.659 1357.27 271.799 1358 274 1358C276.201 1358 278.341 1357.27 280.088 1355.93C281.834 1354.59 283.09 1352.71 283.659 1350.59L281.727 1350.07Z" fill="#4B3425" />

</svg>