<svg width="72.00" height="72.00" viewBox="314.00 1236.00 72.00 72.00" fill="none" xmlns="http://www.w3.org/2000/svg">
  <rect x="318" y="1240" width="64" height="64" rx="32" fill="#F7F4F2" />

  <path fill-rule="evenodd" clip-rule="evenodd" d="M350.347 1267.13C349.275 1265.73 347.771 1264.73 346.07 1264.27L346.588 1262.34C348.714 1262.91 350.593 1264.17 351.933 1265.91C353.273 1267.66 354 1269.8 354 1272C354 1274.2 353.273 1276.34 351.933 1278.09C350.593 1279.83 348.714 1281.09 346.588 1281.66L346.07 1279.73C347.771 1279.27 349.275 1278.27 350.347 1276.87C351.419 1275.47 352 1273.76 352 1272C352 1270.24 351.419 1268.53 350.347 1267.13Z" fill="#4B3425" />

</svg>