<svg width="72.00" height="72.00" viewBox="922.00 1160.00 72.00 72.00" fill="none" xmlns="http://www.w3.org/2000/svg">
  <rect x="926" y="1164" width="64" height="64" rx="32" fill="#F7F4F2" />

  <path fill-rule="evenodd" clip-rule="evenodd" d="M960.553 1200.26C959.615 1201.48 958.3 1202.36 956.812 1202.76L956.294 1200.83C957.357 1200.54 958.297 1199.92 958.967 1199.04C959.637 1198.17 960 1197.1 960 1196C960 1194.9 959.637 1193.83 958.967 1192.96C958.297 1192.08 957.357 1191.46 956.294 1191.17L956.812 1189.24C958.3 1189.64 959.615 1190.52 960.553 1191.74C961.492 1192.96 962 1194.46 962 1196C962 1197.54 961.492 1199.04 960.553 1200.26Z" fill="#4B3425" />

</svg>