<svg width="72.00" height="72.00" viewBox="86.00 968.00 72.00 72.00" fill="none" xmlns="http://www.w3.org/2000/svg">
  <rect x="90" y="972" width="64" height="64" rx="32" fill="#F7F4F2" />

  <path d="M128.364 1010.36C127.034 1011.69 125.321 1012.57 123.466 1012.88C121.611 1013.19 119.706 1012.9 118.019 1012.07C116.333 1011.24 114.949 1009.9 114.063 1008.24C113.176 1006.58 112.832 1004.69 113.077 1002.83C113.322 1000.96 114.146 999.22 115.431 997.848C116.717 996.475 118.4 995.54 120.244 995.173C122.089 994.806 124.001 995.026 125.714 995.802C127.427 996.578 128.854 997.872 129.794 999.5" stroke="#4B3425" stroke-width="2" stroke-linejoin="round" />

  <path d="M130.464 995C130.904 995.763 131.081 996.649 130.966 997.522C130.851 998.395 130.451 999.206 129.828 999.829C129.206 1000.45 128.395 1000.85 127.522 1000.97C126.649 1001.08 125.763 1000.9 125 1000.46" stroke="#9BB068" stroke-width="2" stroke-linejoin="round" />

</svg>