<svg width="72.00" height="72.00" viewBox="86.00 1236.00 72.00 72.00" fill="none" xmlns="http://www.w3.org/2000/svg">
  <rect x="90" y="1240" width="64" height="64" rx="32" fill="#F7F4F2" />

  <path fill-rule="evenodd" clip-rule="evenodd" d="M126.87 1270.65C128.267 1271.73 129.272 1273.23 129.727 1274.93L131.659 1274.41C131.089 1272.29 129.834 1270.41 128.088 1269.07C126.341 1267.73 124.201 1267 122 1267C119.799 1267 117.659 1267.73 115.912 1269.07C114.166 1270.41 112.91 1272.29 112.341 1274.41L114.273 1274.93C114.728 1273.23 115.733 1271.73 117.13 1270.65C118.527 1269.58 120.239 1269 122 1269C123.761 1269 125.473 1269.58 126.87 1270.65Z" fill="#4B3425" />

</svg>