<svg width="72.00" height="72.00" viewBox="314.00 1312.00 72.00 72.00" fill="none" xmlns="http://www.w3.org/2000/svg">
  <rect x="318" y="1316" width="64" height="64" rx="32" fill="#F7F4F2" />

  <path d="M347.929 1340.27C346.228 1340.73 344.725 1341.73 343.653 1343.13C342.581 1344.53 342 1346.24 342 1348C342 1349.76 342.581 1351.47 343.653 1352.87C344.725 1354.27 346.228 1355.27 347.929 1355.73L347.412 1357.66C345.285 1357.09 343.407 1355.83 342.066 1354.09C340.726 1352.34 340 1350.2 340 1348C340 1345.8 340.726 1343.66 342.066 1341.91C343.407 1340.17 345.285 1338.91 347.412 1338.34L347.929 1340.27Z" fill="#4B3425" />

  <path d="M352.071 1340.27C353.772 1340.73 355.275 1341.73 356.347 1343.13C357.419 1344.53 358 1346.24 358 1348C358 1349.76 357.419 1351.47 356.347 1352.87C355.275 1354.27 353.772 1355.27 352.071 1355.73L352.588 1357.66C354.715 1357.09 356.593 1355.83 357.934 1354.09C359.274 1352.34 360 1350.2 360 1348C360 1345.8 359.274 1343.66 357.934 1341.91C356.593 1340.17 354.715 1338.91 352.588 1338.34L352.071 1340.27Z" fill="#4B3425" />

</svg>