<svg width="72.00" height="72.00" viewBox="162.00 548.00 72.00 72.00" fill="none" xmlns="http://www.w3.org/2000/svg">
  <rect x="166" y="552" width="64" height="64" rx="32" fill="#F7F4F2" />

  <path d="M191.636 590.364C192.966 591.694 194.679 592.573 196.534 592.88C198.389 593.186 200.294 592.904 201.981 592.072C203.667 591.24 205.051 589.901 205.937 588.243C206.824 586.584 207.168 584.69 206.923 582.825C206.678 580.961 205.854 579.22 204.569 577.848C203.283 576.475 201.6 575.54 199.756 575.173C197.911 574.806 195.999 575.026 194.286 575.802C192.573 576.578 191.146 577.871 190.206 579.5" stroke="#4B3425" stroke-width="2" stroke-linejoin="round" />

  <path d="M189.536 575C189.096 575.763 188.919 576.649 189.034 577.522C189.149 578.395 189.549 579.206 190.172 579.828C190.794 580.451 191.605 580.851 192.478 580.966C193.351 581.081 194.237 580.904 195 580.464" stroke="#4B3425" stroke-width="2" stroke-linejoin="round" />

</svg>