<svg width="72.00" height="72.00" viewBox="922.00 1312.00 72.00 72.00" fill="none" xmlns="http://www.w3.org/2000/svg">
  <rect x="926" y="1316" width="64" height="64" rx="32" fill="#F7F4F2" />

  <path fill-rule="evenodd" clip-rule="evenodd" d="M958 1358C963.523 1358 968 1353.52 968 1348C968 1342.48 963.523 1338 958 1338C952.477 1338 948 1342.48 948 1348C948 1353.52 952.477 1358 958 1358ZM956.553 1342.2C957.829 1342.55 958.956 1343.3 959.76 1344.35C960.564 1345.4 961 1346.68 961 1348C961 1349.32 960.564 1350.6 959.76 1351.65C958.956 1352.7 957.829 1353.45 956.553 1353.8L956.035 1351.86C956.886 1351.64 957.637 1351.13 958.173 1350.44C958.709 1349.74 959 1348.88 959 1348C959 1347.12 958.709 1346.26 958.173 1345.56C957.637 1344.87 956.886 1344.36 956.035 1344.14L956.553 1342.2Z" fill="#4B3425" />

</svg>