<svg width="72.00" height="72.00" viewBox="86.00 548.00 72.00 72.00" fill="none" xmlns="http://www.w3.org/2000/svg">
  <rect x="90" y="552" width="64" height="64" rx="32" fill="#F7F4F2" />

  <path d="M128.364 590.364C127.034 591.694 125.321 592.573 123.466 592.88C121.611 593.186 119.706 592.904 118.019 592.072C116.333 591.24 114.949 589.901 114.063 588.243C113.176 586.584 112.832 584.69 113.077 582.825C113.322 580.961 114.146 579.22 115.431 577.848C116.717 576.475 118.4 575.54 120.244 575.173C122.089 574.806 124.001 575.026 125.714 575.802C127.427 576.578 128.854 577.871 129.794 579.5" stroke="#4B3425" stroke-width="2" stroke-linejoin="round" />

  <path d="M130.464 575C130.904 575.763 131.081 576.649 130.966 577.522C130.851 578.395 130.451 579.206 129.828 579.828C129.206 580.451 128.395 580.851 127.522 580.966C126.649 581.081 125.763 580.904 125 580.464" stroke="#4B3425" stroke-width="2" stroke-linejoin="round" />

</svg>