<svg width="72.00" height="72.00" viewBox="770.00 1160.00 72.00 72.00" fill="none" xmlns="http://www.w3.org/2000/svg">
  <rect x="774" y="1164" width="64" height="64" rx="32" fill="#F7F4F2" />

  <path fill-rule="evenodd" clip-rule="evenodd" d="M810.262 1198.55C811.484 1197.62 812.363 1196.3 812.762 1194.81L810.83 1194.29C810.545 1195.36 809.917 1196.3 809.044 1196.97C808.171 1197.64 807.101 1198 806 1198C804.9 1198 803.83 1197.64 802.956 1196.97C802.083 1196.3 801.455 1195.36 801.171 1194.29L799.239 1194.81C799.638 1196.3 800.516 1197.62 801.739 1198.55C802.961 1199.49 804.459 1200 806 1200C807.541 1200 809.039 1199.49 810.262 1198.55Z" fill="#4B3425" />

</svg>