<svg width="72.00" height="72.00" viewBox="162.00 1388.00 72.00 72.00" fill="none" xmlns="http://www.w3.org/2000/svg">
  <rect x="166" y="1392" width="64" height="64" rx="32" fill="#F7F4F2" />

  <path d="M199.561 1416.15C197.921 1415.83 196.221 1416.02 194.698 1416.71C193.348 1417.32 192.198 1418.3 191.372 1419.52C191.743 1419.76 192.165 1419.92 192.608 1419.97C193.263 1420.06 193.928 1419.93 194.5 1419.6L195.5 1421.33C194.547 1421.88 193.439 1422.1 192.347 1421.96C191.256 1421.81 190.243 1421.31 189.464 1420.54C188.686 1419.76 188.186 1418.74 188.043 1417.65C187.899 1416.56 188.12 1415.45 188.67 1414.5L190.402 1415.5C190.072 1416.07 189.939 1416.74 190.026 1417.39C190.046 1417.54 190.078 1417.7 190.121 1417.84C191.111 1416.58 192.396 1415.56 193.873 1414.89C195.776 1414.03 197.902 1413.78 199.951 1414.19C202 1414.6 203.87 1415.64 205.299 1417.16C206.727 1418.69 207.642 1420.62 207.914 1422.69C208.187 1424.77 207.804 1426.87 206.819 1428.71C205.834 1430.56 204.297 1432.04 202.423 1432.97C200.549 1433.89 198.433 1434.21 196.371 1433.87C194.31 1433.53 192.406 1432.55 190.929 1431.07L192.343 1429.66C193.525 1430.84 195.048 1431.62 196.697 1431.89C198.346 1432.17 200.039 1431.91 201.538 1431.17C203.037 1430.44 204.267 1429.25 205.055 1427.77C205.843 1426.3 206.15 1424.61 205.932 1422.96C205.713 1421.3 204.982 1419.75 203.839 1418.53C202.696 1417.31 201.2 1416.48 199.561 1416.15Z" fill="#4B3425" />

</svg>