<svg width="72.00" height="72.00" viewBox="86.00 1312.00 72.00 72.00" fill="none" xmlns="http://www.w3.org/2000/svg">
  <rect x="90" y="1316" width="64" height="64" rx="32" fill="#F7F4F2" />

  <path d="M128.761 1345.19C128.362 1343.7 127.484 1342.38 126.261 1341.45C125.039 1340.51 123.541 1340 122 1340C120.459 1340 118.961 1340.51 117.738 1341.45C116.516 1342.38 115.637 1343.7 115.238 1345.19L117.17 1345.71C117.455 1344.64 118.083 1343.7 118.956 1343.03C119.829 1342.36 120.899 1342 122 1342C123.1 1342 124.17 1342.36 125.044 1343.03C125.917 1343.7 126.545 1344.64 126.829 1345.71L128.761 1345.19Z" fill="#4B3425" />

  <path d="M128.761 1350.81C128.362 1352.3 127.484 1353.62 126.261 1354.55C125.039 1355.49 123.541 1356 122 1356C120.459 1356 118.961 1355.49 117.738 1354.55C116.516 1353.62 115.637 1352.3 115.238 1350.81L117.17 1350.29C117.455 1351.36 118.083 1352.3 118.956 1352.97C119.829 1353.64 120.899 1354 122 1354C123.1 1354 124.17 1353.64 125.044 1352.97C125.917 1352.3 126.545 1351.36 126.829 1350.29L128.761 1350.81Z" fill="#4B3425" />

</svg>