<svg width="72.00" height="72.00" viewBox="162.00 968.00 72.00 72.00" fill="none" xmlns="http://www.w3.org/2000/svg">
  <rect x="166" y="972" width="64" height="64" rx="32" fill="#F7F4F2" />

  <path d="M191.636 1010.36C192.966 1011.69 194.679 1012.57 196.534 1012.88C198.389 1013.19 200.294 1012.9 201.981 1012.07C203.667 1011.24 205.051 1009.9 205.937 1008.24C206.824 1006.58 207.168 1004.69 206.923 1002.83C206.678 1000.96 205.854 999.22 204.569 997.848C203.283 996.475 201.6 995.54 199.756 995.173C197.911 994.806 195.999 995.026 194.286 995.802C192.573 996.578 191.146 997.872 190.206 999.5" stroke="#4B3425" stroke-width="2" stroke-linejoin="round" />

  <path d="M189.536 995C189.096 995.763 188.919 996.649 189.034 997.522C189.149 998.395 189.549 999.206 190.172 999.829C190.794 1000.45 191.605 1000.85 192.478 1000.97C193.351 1001.08 194.237 1000.9 195 1000.46" stroke="#9BB068" stroke-width="2" stroke-linejoin="round" />

</svg>