<svg width="72.00" height="72.00" viewBox="846.00 1236.00 72.00 72.00" fill="none" xmlns="http://www.w3.org/2000/svg">
  <rect x="850" y="1240" width="64" height="64" rx="32" fill="#F7F4F2" />

  <path d="M881.929 1264.27C880.228 1264.73 878.725 1265.73 877.653 1267.13C876.581 1268.53 876 1270.24 876 1272C876 1273.76 876.581 1275.47 877.653 1276.87C878.725 1278.27 880.228 1279.27 881.929 1279.73L881.412 1281.66C879.285 1281.09 877.407 1279.83 876.066 1278.09C874.726 1276.34 874 1274.2 874 1272C874 1269.8 874.726 1267.66 876.066 1265.91C877.407 1264.17 879.285 1262.91 881.412 1262.34L881.929 1264.27Z" fill="#4B3425" />

  <path d="M889.929 1264.27C888.228 1264.73 886.725 1265.73 885.653 1267.13C884.581 1268.53 884 1270.24 884 1272C884 1273.76 884.581 1275.47 885.653 1276.87C886.725 1278.27 888.228 1279.27 889.929 1279.73L889.412 1281.66C887.285 1281.09 885.407 1279.83 884.066 1278.09C882.726 1276.34 882 1274.2 882 1272C882 1269.8 882.726 1267.66 884.066 1265.91C885.407 1264.17 887.285 1262.91 889.412 1262.34L889.929 1264.27Z" fill="#4B3425" />

</svg>