<svg width="72.00" height="72.00" viewBox="694.00 1160.00 72.00 72.00" fill="none" xmlns="http://www.w3.org/2000/svg">
  <rect x="698" y="1164" width="64" height="64" rx="32" fill="#F7F4F2" />

  <path fill-rule="evenodd" clip-rule="evenodd" d="M734.262 1193.45C735.484 1194.38 736.363 1195.7 736.762 1197.19L734.83 1197.71C734.545 1196.64 733.917 1195.7 733.044 1195.03C732.171 1194.36 731.101 1194 730 1194C728.9 1194 727.83 1194.36 726.956 1195.03C726.083 1195.7 725.455 1196.64 725.171 1197.71L723.239 1197.19C723.638 1195.7 724.516 1194.38 725.739 1193.45C726.961 1192.51 728.459 1192 730 1192C731.541 1192 733.039 1192.51 734.262 1193.45Z" fill="#4B3425" />

</svg>