<svg width="72.00" height="72.00" viewBox="846.00 1160.00 72.00 72.00" fill="none" xmlns="http://www.w3.org/2000/svg">
  <rect x="850" y="1164" width="64" height="64" rx="32" fill="#F7F4F2" />

  <path fill-rule="evenodd" clip-rule="evenodd" d="M879.447 1191.74C880.385 1190.52 881.7 1189.64 883.188 1189.24L883.706 1191.17C882.643 1191.46 881.703 1192.08 881.033 1192.96C880.363 1193.83 880 1194.9 880 1196C880 1197.1 880.363 1198.17 881.033 1199.04C881.703 1199.92 882.643 1200.54 883.706 1200.83L883.188 1202.76C881.7 1202.36 880.385 1201.48 879.447 1200.26C878.508 1199.04 878 1197.54 878 1196C878 1194.46 878.508 1192.96 879.447 1191.74Z" fill="#4B3425" />

</svg>