<svg width="569.66" height="546.93" viewBox="640.00 652.07 569.66 546.93" fill="none" xmlns="http://www.w3.org/2000/svg">
  <rect x="926" y="896" width="64" height="64" rx="32" fill="#F7F4F2" />

  <circle cx="958" cy="928" r="9" stroke="#4B3425" stroke-width="2" stroke-linejoin="round" />

  <path d="M956.294 923.17C957.357 923.455 958.297 924.083 958.967 924.956C959.637 925.83 960 926.899 960 928C960 929.101 959.637 930.171 958.967 931.044C958.297 931.917 957.357 932.545 956.294 932.83" stroke="#9BB068" stroke-width="2" stroke-linejoin="round" />

  <path d="M889 1013V1005C889 1002.79 887.209 1001 885 1001H874" stroke="#4B3425" stroke-width="2" stroke-linejoin="round" />

  <path d="M661.934 1189.91C660.593 1188.17 658.715 1186.91 656.588 1186.34L656.071 1188.27C657.772 1188.73 659.275 1189.73 660.347 1191.13C661.215 1192.26 661.761 1193.6 661.937 1195L644 1195V1197L661.937 1197C661.761 1198.4 661.215 1199.74 660.347 1200.87C659.275 1202.27 657.772 1203.27 656.071 1203.73L656.588 1205.66C658.715 1205.09 660.593 1203.83 661.934 1202.09C663.274 1200.34 664 1198.2 664 1196C664 1193.8 663.274 1191.66 661.934 1189.91Z" fill="#4B3425" />

</svg>