<svg width="72.00" height="72.00" viewBox="314.00 1388.00 72.00 72.00" fill="none" xmlns="http://www.w3.org/2000/svg">
  <rect x="318" y="1392" width="64" height="64" rx="32" fill="#F7F4F2" />

  <path d="M342.402 1421.5C342.072 1422.07 341.939 1422.74 342.026 1423.39C342.069 1423.72 342.166 1424.04 342.311 1424.33C343.406 1423.35 344.662 1422.55 346.025 1421.99C347.602 1421.34 349.293 1421 351 1421C352.707 1421 354.398 1421.34 355.975 1421.99C357.552 1422.64 358.985 1423.6 360.192 1424.81L358.778 1426.22C357.757 1425.2 356.544 1424.39 355.21 1423.84C353.875 1423.28 352.445 1423 351 1423C349.555 1423 348.125 1423.28 346.79 1423.84C345.679 1424.3 344.652 1424.94 343.75 1425.73C344.02 1425.85 344.31 1425.93 344.608 1425.97C345.263 1426.06 345.928 1425.93 346.5 1425.6L347.5 1427.33C346.547 1427.88 345.439 1428.1 344.347 1427.96C343.256 1427.81 342.243 1427.31 341.464 1426.54C340.686 1425.76 340.186 1424.74 340.043 1423.65C339.899 1422.56 340.12 1421.45 340.67 1420.5L342.402 1421.5Z" fill="#4B3425" />

</svg>