<svg width="72.00" height="72.00" viewBox="466.00 1388.00 72.00 72.00" fill="none" xmlns="http://www.w3.org/2000/svg">
  <rect x="470" y="1392" width="64" height="64" rx="32" fill="#F7F4F2" />

  <path d="M504.653 1418.04C503.561 1417.9 502.453 1418.12 501.5 1418.67L500.5 1416.94C501.835 1416.17 503.386 1415.86 504.914 1416.06C506.442 1416.26 507.86 1416.96 508.95 1418.05C510.039 1419.14 510.739 1420.56 510.94 1422.09C511.141 1423.61 510.833 1425.17 510.062 1426.5L508.33 1425.5C508.881 1424.55 509.101 1423.44 508.957 1422.35C508.858 1421.59 508.587 1420.87 508.171 1420.24L495.707 1432.71L494.293 1431.29L506.757 1418.83C506.128 1418.41 505.409 1418.14 504.653 1418.04Z" fill="#4B3425" />

</svg>