<svg width="721.32" height="714.00" viewBox="488.34 497.00 721.32 714.00" fill="none" xmlns="http://www.w3.org/2000/svg">
  <rect x="850" y="820" width="64" height="64" rx="32" fill="#F7F4F2" />

  <path d="M881.671 843.307C879.757 843.82 878.066 844.949 876.86 846.521C875.654 848.093 875 850.019 875 852C875 853.981 875.654 855.907 876.86 857.479C878.066 859.051 879.757 860.181 881.671 860.693" stroke="#9BB068" stroke-width="2" stroke-linejoin="round" />

  <path d="M889.671 843.307C887.757 843.82 886.066 844.949 884.86 846.521C883.654 848.093 883 850.019 883 852C883 853.981 883.654 855.907 884.86 857.479C886.066 859.051 887.757 860.181 889.671 860.693" stroke="#4B3425" stroke-width="2" stroke-linejoin="round" />

  <path d="M737 995V1003C737 1005.21 735.209 1007 733 1007H722" stroke="#4B3425" stroke-width="2" stroke-linejoin="round" />

  <path d="M501 1204.94C499.598 1204.76 498.261 1204.21 497.13 1203.35C495.733 1202.27 494.728 1200.77 494.273 1199.07L492.341 1199.59C492.911 1201.71 494.166 1203.59 495.912 1204.93C497.659 1206.27 499.799 1207 502 1207C504.201 1207 506.341 1206.27 508.088 1204.93C509.834 1203.59 511.09 1201.71 511.659 1199.59L509.727 1199.07C509.272 1200.77 508.267 1202.27 506.87 1203.35C505.739 1204.21 504.402 1204.76 503 1204.94L503 1187H501L501 1204.94Z" fill="#4B3425" />

  <path d="M570.066 1189.91C571.407 1188.17 573.285 1186.91 575.412 1186.34L575.929 1188.27C574.228 1188.73 572.725 1189.73 571.653 1191.13C570.785 1192.26 570.239 1193.6 570.063 1195L588 1195V1197L570.063 1197C570.239 1198.4 570.785 1199.74 571.653 1200.87C572.725 1202.27 574.228 1203.27 575.929 1203.73L575.412 1205.66C573.285 1205.09 571.407 1203.83 570.066 1202.09C568.726 1200.34 568 1198.2 568 1196C568 1193.8 568.726 1191.66 570.066 1189.91Z" fill="#4B3425" />

</svg>