<svg width="72.00" height="72.00" viewBox="770.00 1236.00 72.00 72.00" fill="none" xmlns="http://www.w3.org/2000/svg">
  <rect x="774" y="1240" width="64" height="64" rx="32" fill="#F7F4F2" />

  <path d="M813.727 1264.07C813.272 1265.77 812.267 1267.27 810.87 1268.35C809.473 1269.42 807.761 1270 806 1270C804.239 1270 802.527 1269.42 801.13 1268.35C799.733 1267.27 798.728 1265.77 798.273 1264.07L796.341 1264.59C796.911 1266.71 798.166 1268.59 799.912 1269.93C801.659 1271.27 803.799 1272 806 1272C808.201 1272 810.341 1271.27 812.088 1269.93C813.834 1268.59 815.09 1266.71 815.659 1264.59L813.727 1264.07Z" fill="#4B3425" />

  <path d="M813.727 1272.07C813.272 1273.77 812.267 1275.27 810.87 1276.35C809.473 1277.42 807.761 1278 806 1278C804.239 1278 802.527 1277.42 801.13 1276.35C799.733 1275.27 798.728 1273.77 798.273 1272.07L796.341 1272.59C796.911 1274.71 798.166 1276.59 799.912 1277.93C801.659 1279.27 803.799 1280 806 1280C808.201 1280 810.341 1279.27 812.088 1277.93C813.834 1276.59 815.09 1274.71 815.659 1272.59L813.727 1272.07Z" fill="#4B3425" />

</svg>