<svg width="72.00" height="72.00" viewBox="390.00 1236.00 72.00 72.00" fill="none" xmlns="http://www.w3.org/2000/svg">
  <rect x="394" y="1240" width="64" height="64" rx="32" fill="#F7F4F2" />

  <path d="M432.761 1271.19C432.362 1269.7 431.484 1268.38 430.261 1267.45C429.039 1266.51 427.541 1266 426 1266C424.459 1266 422.961 1266.51 421.738 1267.45C420.516 1268.38 419.637 1269.7 419.238 1271.19L421.17 1271.71C421.455 1270.64 422.083 1269.7 422.956 1269.03C423.829 1268.36 424.899 1268 426 1268C427.1 1268 428.17 1268.36 429.044 1269.03C429.917 1269.7 430.545 1270.64 430.829 1271.71L432.761 1271.19Z" fill="#4B3425" />

  <path d="M432.761 1277.19C432.362 1275.7 431.484 1274.38 430.261 1273.45C429.039 1272.51 427.541 1272 426 1272C424.459 1272 422.961 1272.51 421.738 1273.45C420.516 1274.38 419.637 1275.7 419.238 1277.19L421.17 1277.71C421.455 1276.64 422.083 1275.7 422.956 1275.03C423.829 1274.36 424.899 1274 426 1274C427.1 1274 428.17 1274.36 429.044 1275.03C429.917 1275.7 430.545 1276.64 430.829 1277.71L432.761 1277.19Z" fill="#4B3425" />

</svg>