<svg width="923.38" height="922.32" viewBox="119.76 120.00 923.38 922.32" fill="none" xmlns="http://www.w3.org/2000/svg">
  <path d="M924.77 126.73V129H927.59V131.08H924.77V139H922.69V131.08H921.5V129H922.69V126.73C922.69 126.183 922.823 125.687 923.09 125.24C923.357 124.787 923.713 124.427 924.16 124.16C924.613 123.893 925.117 123.76 925.67 123.76C926.07 123.76 926.46 123.84 926.84 124C927.22 124.16 927.56 124.407 927.86 124.74L926.37 126.21C926.297 126.09 926.193 126 926.06 125.94C925.933 125.873 925.803 125.84 925.67 125.84C925.423 125.84 925.21 125.927 925.03 126.1C924.857 126.273 924.77 126.483 924.77 126.73ZM929.227 139V129H931.307V130.06C931.653 129.647 932.08 129.32 932.587 129.08C933.093 128.84 933.64 128.72 934.227 128.72C934.6 128.72 934.97 128.77 935.337 128.87L934.507 130.97C934.247 130.87 933.987 130.82 933.727 130.82C933.287 130.82 932.883 130.93 932.517 131.15C932.15 131.363 931.857 131.653 931.637 132.02C931.417 132.387 931.307 132.793 931.307 133.24V139H929.227ZM940.223 139.26C939.303 139.26 938.463 139.023 937.703 138.55C936.95 138.077 936.347 137.443 935.893 136.65C935.447 135.85 935.223 134.967 935.223 134C935.223 133.267 935.353 132.583 935.613 131.95C935.873 131.31 936.23 130.75 936.683 130.27C937.143 129.783 937.677 129.403 938.283 129.13C938.89 128.857 939.537 128.72 940.223 128.72C940.99 128.72 941.693 128.88 942.333 129.2C942.973 129.513 943.52 129.95 943.973 130.51C944.427 131.063 944.76 131.703 944.973 132.43C945.187 133.15 945.25 133.917 945.163 134.73H937.453C937.54 135.19 937.707 135.607 937.953 135.98C938.207 136.347 938.527 136.637 938.913 136.85C939.307 137.063 939.743 137.173 940.223 137.18C940.73 137.18 941.19 137.053 941.603 136.8C942.023 136.547 942.367 136.197 942.633 135.75L944.743 136.24C944.343 137.127 943.74 137.853 942.933 138.42C942.127 138.98 941.223 139.26 940.223 139.26ZM937.383 133.14H943.063C942.997 132.66 942.827 132.227 942.553 131.84C942.287 131.447 941.95 131.137 941.543 130.91C941.143 130.677 940.703 130.56 940.223 130.56C939.75 130.56 939.31 130.673 938.903 130.9C938.503 131.127 938.17 131.437 937.903 131.83C937.643 132.217 937.47 132.653 937.383 133.14ZM946.024 135.25V129H948.104V134.74C948.104 135.187 948.214 135.593 948.434 135.96C948.654 136.327 948.948 136.62 949.314 136.84C949.681 137.053 950.084 137.16 950.524 137.16C950.971 137.16 951.374 137.053 951.734 136.84C952.101 136.62 952.391 136.327 952.604 135.96C952.824 135.593 952.934 135.187 952.934 134.74V129H955.014L955.024 139H952.944L952.934 137.92C952.594 138.333 952.171 138.66 951.664 138.9C951.158 139.14 950.614 139.26 950.034 139.26C949.294 139.26 948.621 139.08 948.014 138.72C947.408 138.36 946.924 137.877 946.564 137.27C946.204 136.663 946.024 135.99 946.024 135.25ZM964.483 124H966.563V139H964.483V137.53C964.156 138.05 963.73 138.47 963.203 138.79C962.676 139.103 962.06 139.26 961.353 139.26C960.626 139.26 959.946 139.123 959.313 138.85C958.68 138.577 958.12 138.2 957.633 137.72C957.153 137.233 956.776 136.673 956.503 136.04C956.23 135.407 956.093 134.727 956.093 134C956.093 133.273 956.23 132.593 956.503 131.96C956.776 131.32 957.153 130.76 957.633 130.28C958.12 129.793 958.68 129.413 959.313 129.14C959.946 128.867 960.626 128.73 961.353 128.73C962.06 128.73 962.676 128.89 963.203 129.21C963.73 129.523 964.156 129.937 964.483 130.45V124ZM961.373 137.25C961.96 137.25 962.473 137.107 962.913 136.82C963.353 136.527 963.693 136.133 963.933 135.64C964.18 135.147 964.303 134.6 964.303 134C964.303 133.393 964.18 132.843 963.933 132.35C963.686 131.857 963.343 131.467 962.903 131.18C962.47 130.887 961.96 130.74 961.373 130.74C960.793 130.74 960.263 130.887 959.783 131.18C959.31 131.473 958.93 131.867 958.643 132.36C958.363 132.853 958.223 133.4 958.223 134C958.223 134.607 958.366 135.157 958.653 135.65C958.946 136.137 959.33 136.527 959.803 136.82C960.283 137.107 960.806 137.25 961.373 137.25ZM973.663 139V125H975.743V139H973.663ZM984.635 136.16L986.495 137.17C986.041 137.803 985.465 138.31 984.765 138.69C984.071 139.07 983.318 139.26 982.505 139.26C981.585 139.26 980.745 139.023 979.985 138.55C979.231 138.077 978.628 137.443 978.175 136.65C977.728 135.85 977.505 134.967 977.505 134C977.505 133.267 977.635 132.583 977.895 131.95C978.155 131.31 978.511 130.75 978.965 130.27C979.425 129.783 979.958 129.403 980.565 129.13C981.171 128.857 981.818 128.72 982.505 128.72C983.318 128.72 984.071 128.91 984.765 129.29C985.465 129.67 986.041 130.18 986.495 130.82L984.635 131.83C984.355 131.497 984.028 131.243 983.655 131.07C983.281 130.89 982.898 130.8 982.505 130.8C981.958 130.8 981.461 130.95 981.015 131.25C980.575 131.543 980.225 131.933 979.965 132.42C979.711 132.9 979.585 133.427 979.585 134C979.585 134.567 979.715 135.093 979.975 135.58C980.235 136.06 980.585 136.447 981.025 136.74C981.471 137.033 981.965 137.18 982.505 137.18C982.918 137.18 983.311 137.087 983.685 136.9C984.058 136.713 984.375 136.467 984.635 136.16ZM992.246 139.26C991.326 139.26 990.486 139.023 989.726 138.55C988.973 138.077 988.369 137.443 987.916 136.65C987.469 135.85 987.246 134.967 987.246 134C987.246 133.267 987.376 132.583 987.636 131.95C987.896 131.31 988.253 130.75 988.706 130.27C989.166 129.783 989.699 129.403 990.306 129.13C990.913 128.857 991.559 128.72 992.246 128.72C993.166 128.72 994.003 128.957 994.756 129.43C995.516 129.903 996.119 130.54 996.566 131.34C997.019 132.14 997.246 133.027 997.246 134C997.246 134.727 997.116 135.407 996.856 136.04C996.596 136.673 996.236 137.233 995.776 137.72C995.323 138.2 994.793 138.577 994.186 138.85C993.586 139.123 992.939 139.26 992.246 139.26ZM992.246 137.18C992.799 137.18 993.296 137.033 993.736 136.74C994.176 136.447 994.523 136.06 994.776 135.58C995.036 135.093 995.166 134.567 995.166 134C995.166 133.42 995.033 132.887 994.766 132.4C994.506 131.913 994.156 131.527 993.716 131.24C993.276 130.947 992.786 130.8 992.246 130.8C991.699 130.8 991.203 130.947 990.756 131.24C990.316 131.533 989.966 131.923 989.706 132.41C989.453 132.897 989.326 133.427 989.326 134C989.326 134.593 989.459 135.13 989.726 135.61C989.993 136.09 990.346 136.473 990.786 136.76C991.233 137.04 991.719 137.18 992.246 137.18ZM1007.66 132.73V139H1005.58V133.24C1005.58 132.793 1005.47 132.387 1005.25 132.02C1005.04 131.653 1004.75 131.363 1004.38 131.15C1004.02 130.93 1003.62 130.82 1003.16 130.82C1002.72 130.82 1002.32 130.93 1001.95 131.15C1001.59 131.363 1001.29 131.653 1001.07 132.02C1000.85 132.387 1000.74 132.793 1000.74 133.24V139H998.662V129H1000.74V130.06C1001.09 129.647 1001.52 129.32 1002.02 129.08C1002.53 128.84 1003.08 128.72 1003.66 128.72C1004.4 128.72 1005.08 128.9 1005.68 129.26C1006.29 129.62 1006.77 130.103 1007.12 130.71C1007.48 131.317 1007.66 131.99 1007.66 132.73ZM1019.78 139H1017.11L1013.46 128.98H1015.68L1018.44 136.6L1021.21 128.98H1023.42L1019.78 139ZM1026.28 139V127.08H1024.61L1025.18 125H1028.36V139H1026.28ZM1031.66 139.26C1031.35 139.26 1031.09 139.153 1030.88 138.94C1030.67 138.727 1030.57 138.467 1030.57 138.16C1030.57 137.86 1030.67 137.603 1030.88 137.39C1031.09 137.177 1031.35 137.07 1031.66 137.07C1031.96 137.07 1032.22 137.177 1032.44 137.39C1032.65 137.603 1032.76 137.86 1032.76 138.16C1032.76 138.467 1032.65 138.727 1032.44 138.94C1032.22 139.153 1031.96 139.26 1031.66 139.26ZM1036.24 139V127.08H1034.57L1035.14 125H1038.32V139H1036.24Z" fill="#1F160F" fill-opacity="0.64" />

  <path d="M855.02 167H852.95L849.6 157H851.64L854 164.02L856.34 157H858.44L860.78 164.02L863.13 157H865.17L861.83 167H859.74L857.38 159.93L855.02 167ZM871.422 167H869.352L866.002 157H868.042L870.402 164.02L872.742 157H874.842L877.182 164.02L879.532 157H881.572L878.232 167H876.142L873.782 159.93L871.422 167ZM887.823 167H885.753L882.403 157H884.443L886.803 164.02L889.143 157H891.243L893.583 164.02L895.933 157H897.973L894.633 167H892.543L890.183 159.93L887.823 167ZM899.372 167.26C899.065 167.26 898.805 167.153 898.592 166.94C898.385 166.727 898.282 166.467 898.282 166.16C898.282 165.86 898.385 165.603 898.592 165.39C898.805 165.177 899.065 165.07 899.372 165.07C899.679 165.07 899.939 165.177 900.152 165.39C900.365 165.603 900.472 165.86 900.472 166.16C900.472 166.467 900.365 166.727 900.152 166.94C899.939 167.153 899.679 167.26 899.372 167.26ZM905.681 167.19C905.155 167.157 904.641 167.05 904.141 166.87C903.641 166.69 903.201 166.447 902.821 166.14C902.448 165.827 902.168 165.46 901.981 165.04L903.751 164.28C903.838 164.46 903.988 164.637 904.201 164.81C904.421 164.983 904.678 165.127 904.971 165.24C905.265 165.347 905.571 165.4 905.891 165.4C906.205 165.4 906.495 165.357 906.761 165.27C907.035 165.177 907.258 165.037 907.431 164.85C907.605 164.663 907.691 164.44 907.691 164.18C907.691 163.887 907.591 163.66 907.391 163.5C907.198 163.333 906.955 163.207 906.661 163.12C906.368 163.033 906.075 162.95 905.781 162.87C905.128 162.723 904.528 162.523 903.981 162.27C903.441 162.01 903.011 161.68 902.691 161.28C902.371 160.873 902.211 160.377 902.211 159.79C902.211 159.15 902.385 158.597 902.731 158.13C903.078 157.657 903.531 157.293 904.091 157.04C904.658 156.787 905.261 156.66 905.901 156.66C906.701 156.66 907.435 156.83 908.101 157.17C908.768 157.51 909.278 157.977 909.631 158.57L907.981 159.55C907.881 159.35 907.731 159.17 907.531 159.01C907.331 158.85 907.105 158.723 906.851 158.63C906.598 158.53 906.335 158.473 906.061 158.46C905.721 158.447 905.405 158.487 905.111 158.58C904.825 158.667 904.595 158.807 904.421 159C904.248 159.193 904.161 159.44 904.161 159.74C904.161 160.033 904.265 160.253 904.471 160.4C904.678 160.54 904.938 160.653 905.251 160.74C905.571 160.827 905.898 160.923 906.231 161.03C906.825 161.217 907.381 161.447 907.901 161.72C908.421 161.987 908.841 162.317 909.161 162.71C909.481 163.103 909.635 163.583 909.621 164.15C909.621 164.777 909.431 165.327 909.051 165.8C908.678 166.273 908.191 166.633 907.591 166.88C906.991 167.127 906.355 167.23 905.681 167.19ZM916.414 159.08H914.314L914.304 167H912.224L912.234 159.08H910.644V157H912.234L912.224 153.86H914.304L914.314 157H916.414V159.08ZM918.004 167V157H920.084V158.06C920.431 157.647 920.857 157.32 921.364 157.08C921.871 156.84 922.417 156.72 923.004 156.72C923.377 156.72 923.747 156.77 924.114 156.87L923.284 158.97C923.024 158.87 922.764 158.82 922.504 158.82C922.064 158.82 921.661 158.93 921.294 159.15C920.927 159.363 920.634 159.653 920.414 160.02C920.194 160.387 920.084 160.793 920.084 161.24V167H918.004ZM932.381 157H934.461V167H932.371L932.291 165.55C931.997 166.063 931.601 166.477 931.101 166.79C930.601 167.103 930.011 167.26 929.331 167.26C928.597 167.26 927.907 167.123 927.261 166.85C926.614 166.57 926.044 166.183 925.551 165.69C925.064 165.197 924.684 164.63 924.411 163.99C924.137 163.343 924.001 162.65 924.001 161.91C924.001 161.197 924.134 160.527 924.401 159.9C924.667 159.267 925.037 158.713 925.511 158.24C925.984 157.767 926.531 157.397 927.151 157.13C927.777 156.857 928.447 156.72 929.161 156.72C929.887 156.72 930.527 156.887 931.081 157.22C931.641 157.547 932.104 157.967 932.471 158.48L932.381 157ZM929.281 165.25C929.867 165.25 930.381 165.107 930.821 164.82C931.261 164.527 931.601 164.133 931.841 163.64C932.087 163.147 932.211 162.6 932.211 162C932.211 161.393 932.087 160.843 931.841 160.35C931.594 159.857 931.251 159.467 930.811 159.18C930.377 158.887 929.867 158.74 929.281 158.74C928.701 158.74 928.171 158.887 927.691 159.18C927.211 159.473 926.831 159.867 926.551 160.36C926.271 160.853 926.131 161.4 926.131 162C926.131 162.607 926.274 163.157 926.561 163.65C926.854 164.137 927.237 164.527 927.711 164.82C928.191 165.107 928.714 165.25 929.281 165.25ZM945.256 160.73V167H943.176V161.24C943.176 160.793 943.066 160.387 942.846 160.02C942.633 159.653 942.343 159.363 941.976 159.15C941.616 158.93 941.21 158.82 940.756 158.82C940.316 158.82 939.913 158.93 939.546 159.15C939.18 159.363 938.886 159.653 938.666 160.02C938.446 160.387 938.336 160.793 938.336 161.24V167H936.256V157H938.336V158.06C938.683 157.647 939.11 157.32 939.616 157.08C940.123 156.84 940.67 156.72 941.256 156.72C941.996 156.72 942.67 156.9 943.276 157.26C943.883 157.62 944.363 158.103 944.716 158.71C945.076 159.317 945.256 159.99 945.256 160.73ZM954.467 157H956.547V167.26C956.547 167.947 956.4 168.58 956.107 169.16C955.82 169.74 955.43 170.24 954.937 170.66C954.444 171.087 953.877 171.417 953.237 171.65C952.604 171.883 951.94 172 951.247 172C950.547 172 949.874 171.85 949.227 171.55C948.58 171.257 948.01 170.857 947.517 170.35C947.03 169.843 946.667 169.27 946.427 168.63L948.337 167.77C948.47 168.183 948.684 168.55 948.977 168.87C949.277 169.19 949.624 169.443 950.017 169.63C950.417 169.817 950.827 169.91 951.247 169.91C951.66 169.91 952.057 169.843 952.437 169.71C952.824 169.583 953.167 169.403 953.467 169.17C953.774 168.937 954.017 168.657 954.197 168.33C954.377 168.003 954.467 167.647 954.467 167.26V165.57C954.14 166.077 953.72 166.487 953.207 166.8C952.694 167.107 952.097 167.26 951.417 167.26C950.71 167.26 950.044 167.123 949.417 166.85C948.79 166.577 948.24 166.2 947.767 165.72C947.294 165.233 946.924 164.673 946.657 164.04C946.39 163.407 946.257 162.727 946.257 162C946.257 161.273 946.39 160.593 946.657 159.96C946.924 159.32 947.294 158.76 947.767 158.28C948.24 157.793 948.79 157.413 949.417 157.14C950.044 156.867 950.71 156.73 951.417 156.73C952.097 156.73 952.694 156.887 953.207 157.2C953.72 157.507 954.14 157.917 954.467 158.43V157ZM951.437 165.25C952.017 165.25 952.524 165.103 952.957 164.81C953.39 164.51 953.727 164.113 953.967 163.62C954.207 163.127 954.327 162.587 954.327 162C954.327 161.4 954.204 160.857 953.957 160.37C953.717 159.877 953.38 159.483 952.947 159.19C952.514 158.89 952.01 158.74 951.437 158.74C950.877 158.74 950.364 158.887 949.897 159.18C949.437 159.473 949.07 159.867 948.797 160.36C948.524 160.853 948.387 161.4 948.387 162C948.387 162.6 948.524 163.147 948.797 163.64C949.077 164.133 949.447 164.527 949.907 164.82C950.374 165.107 950.884 165.25 951.437 165.25ZM962.971 167.26C962.051 167.26 961.211 167.023 960.451 166.55C959.698 166.077 959.094 165.443 958.641 164.65C958.194 163.85 957.971 162.967 957.971 162C957.971 161.267 958.101 160.583 958.361 159.95C958.621 159.31 958.978 158.75 959.431 158.27C959.891 157.783 960.424 157.403 961.031 157.13C961.638 156.857 962.284 156.72 962.971 156.72C963.738 156.72 964.441 156.88 965.081 157.2C965.721 157.513 966.268 157.95 966.721 158.51C967.174 159.063 967.508 159.703 967.721 160.43C967.934 161.15 967.998 161.917 967.911 162.73H960.201C960.288 163.19 960.454 163.607 960.701 163.98C960.954 164.347 961.274 164.637 961.661 164.85C962.054 165.063 962.491 165.173 962.971 165.18C963.478 165.18 963.938 165.053 964.351 164.8C964.771 164.547 965.114 164.197 965.381 163.75L967.491 164.24C967.091 165.127 966.488 165.853 965.681 166.42C964.874 166.98 963.971 167.26 962.971 167.26ZM960.131 161.14H965.811C965.744 160.66 965.574 160.227 965.301 159.84C965.034 159.447 964.698 159.137 964.291 158.91C963.891 158.677 963.451 158.56 962.971 158.56C962.498 158.56 962.058 158.673 961.651 158.9C961.251 159.127 960.918 159.437 960.651 159.83C960.391 160.217 960.218 160.653 960.131 161.14ZM978.23 160.73V167H976.15V161.24C976.15 160.793 976.04 160.387 975.82 160.02C975.607 159.653 975.317 159.363 974.95 159.15C974.59 158.93 974.184 158.82 973.73 158.82C973.29 158.82 972.887 158.93 972.52 159.15C972.154 159.363 971.86 159.653 971.64 160.02C971.42 160.387 971.31 160.793 971.31 161.24V167H969.23V152H971.31V158.06C971.657 157.647 972.084 157.32 972.59 157.08C973.097 156.84 973.644 156.72 974.23 156.72C974.97 156.72 975.644 156.9 976.25 157.26C976.857 157.62 977.337 158.103 977.69 158.71C978.05 159.317 978.23 159.99 978.23 160.73ZM984.231 167.26C983.311 167.26 982.471 167.023 981.711 166.55C980.958 166.077 980.355 165.443 979.901 164.65C979.455 163.85 979.231 162.967 979.231 162C979.231 161.267 979.361 160.583 979.621 159.95C979.881 159.31 980.238 158.75 980.691 158.27C981.151 157.783 981.685 157.403 982.291 157.13C982.898 156.857 983.545 156.72 984.231 156.72C984.998 156.72 985.701 156.88 986.341 157.2C986.981 157.513 987.528 157.95 987.981 158.51C988.435 159.063 988.768 159.703 988.981 160.43C989.195 161.15 989.258 161.917 989.171 162.73H981.461C981.548 163.19 981.715 163.607 981.961 163.98C982.215 164.347 982.535 164.637 982.921 164.85C983.315 165.063 983.751 165.173 984.231 165.18C984.738 165.18 985.198 165.053 985.611 164.8C986.031 164.547 986.375 164.197 986.641 163.75L988.751 164.24C988.351 165.127 987.748 165.853 986.941 166.42C986.135 166.98 985.231 167.26 984.231 167.26ZM981.391 161.14H987.071C987.005 160.66 986.835 160.227 986.561 159.84C986.295 159.447 985.958 159.137 985.551 158.91C985.151 158.677 984.711 158.56 984.231 158.56C983.758 158.56 983.318 158.673 982.911 158.9C982.511 159.127 982.178 159.437 981.911 159.83C981.651 160.217 981.478 160.653 981.391 161.14ZM990.491 167V152H992.571V167H990.491ZM994.763 157H996.843V167H994.763V157ZM995.823 155.55C995.503 155.55 995.237 155.447 995.023 155.24C994.81 155.033 994.703 154.773 994.703 154.46C994.703 154.153 994.81 153.897 995.023 153.69C995.237 153.477 995.5 153.37 995.813 153.37C996.12 153.37 996.38 153.477 996.593 153.69C996.807 153.897 996.913 154.153 996.913 154.46C996.913 154.773 996.807 155.033 996.593 155.24C996.387 155.447 996.13 155.55 995.823 155.55ZM998.265 167L1001.92 161.98L998.285 156.98H1000.85L1003.2 160.2L1005.56 156.98H1008.12L1004.49 161.98L1008.15 167H1005.58L1003.2 163.74L1000.83 167H998.265ZM1010.64 167.26C1010.33 167.26 1010.07 167.153 1009.86 166.94C1009.65 166.727 1009.55 166.467 1009.55 166.16C1009.55 165.86 1009.65 165.603 1009.86 165.39C1010.07 165.177 1010.33 165.07 1010.64 165.07C1010.95 165.07 1011.21 165.177 1011.42 165.39C1011.63 165.603 1011.74 165.86 1011.74 166.16C1011.74 166.467 1011.63 166.727 1011.42 166.94C1011.21 167.153 1010.95 167.26 1010.64 167.26ZM1019.15 156.72C1020.12 156.72 1021.01 156.957 1021.8 157.43C1022.6 157.903 1023.24 158.54 1023.71 159.34C1024.18 160.133 1024.42 161.017 1024.42 161.99C1024.42 162.717 1024.28 163.4 1024.01 164.04C1023.74 164.673 1023.36 165.233 1022.87 165.72C1022.39 166.2 1021.83 166.577 1021.19 166.85C1020.56 167.123 1019.88 167.26 1019.15 167.26C1018.45 167.26 1017.84 167.1 1017.31 166.78C1016.79 166.453 1016.36 166.037 1016.03 165.53V167H1013.95V152H1016.03V158.45C1016.36 157.937 1016.79 157.52 1017.31 157.2C1017.84 156.88 1018.45 156.72 1019.15 156.72ZM1019.13 165.24C1019.71 165.24 1020.24 165.093 1020.72 164.8C1021.2 164.507 1021.58 164.113 1021.86 163.62C1022.15 163.127 1022.29 162.583 1022.29 161.99C1022.29 161.383 1022.15 160.833 1021.86 160.34C1021.57 159.847 1021.19 159.457 1020.71 159.17C1020.23 158.877 1019.7 158.73 1019.13 158.73C1018.55 158.73 1018.04 158.877 1017.6 159.17C1017.16 159.463 1016.82 159.857 1016.57 160.35C1016.32 160.843 1016.2 161.39 1016.2 161.99C1016.2 162.59 1016.32 163.137 1016.57 163.63C1016.82 164.123 1017.16 164.517 1017.6 164.81C1018.04 165.097 1018.55 165.24 1019.13 165.24ZM1025.64 157H1027.72V167H1025.64V157ZM1026.7 155.55C1026.38 155.55 1026.12 155.447 1025.9 155.24C1025.69 155.033 1025.58 154.773 1025.58 154.46C1025.58 154.153 1025.69 153.897 1025.9 153.69C1026.12 153.477 1026.38 153.37 1026.69 153.37C1027 153.37 1027.26 153.477 1027.47 153.69C1027.69 153.897 1027.79 154.153 1027.79 154.46C1027.79 154.773 1027.69 155.033 1027.47 155.24C1027.27 155.447 1027.01 155.55 1026.7 155.55ZM1034.14 167.26C1033.22 167.26 1032.38 167.023 1031.62 166.55C1030.87 166.077 1030.26 165.443 1029.81 164.65C1029.36 163.85 1029.14 162.967 1029.14 162C1029.14 161.267 1029.27 160.583 1029.53 159.95C1029.79 159.31 1030.15 158.75 1030.6 158.27C1031.06 157.783 1031.59 157.403 1032.2 157.13C1032.81 156.857 1033.45 156.72 1034.14 156.72C1035.06 156.72 1035.9 156.957 1036.65 157.43C1037.41 157.903 1038.01 158.54 1038.46 159.34C1038.91 160.14 1039.14 161.027 1039.14 162C1039.14 162.727 1039.01 163.407 1038.75 164.04C1038.49 164.673 1038.13 165.233 1037.67 165.72C1037.22 166.2 1036.69 166.577 1036.08 166.85C1035.48 167.123 1034.83 167.26 1034.14 167.26ZM1034.14 165.18C1034.69 165.18 1035.19 165.033 1035.63 164.74C1036.07 164.447 1036.42 164.06 1036.67 163.58C1036.93 163.093 1037.06 162.567 1037.06 162C1037.06 161.42 1036.93 160.887 1036.66 160.4C1036.4 159.913 1036.05 159.527 1035.61 159.24C1035.17 158.947 1034.68 158.8 1034.14 158.8C1033.59 158.8 1033.1 158.947 1032.65 159.24C1032.21 159.533 1031.86 159.923 1031.6 160.41C1031.35 160.897 1031.22 161.427 1031.22 162C1031.22 162.593 1031.35 163.13 1031.62 163.61C1031.89 164.09 1032.24 164.473 1032.68 164.76C1033.13 165.04 1033.61 165.18 1034.14 165.18Z" fill="#926247" />

  <rect x="546" y="552" width="64" height="64" rx="32" fill="#F7F4F2" />

  <path d="M573 590L586 577" stroke="#4B3425" stroke-width="2" stroke-linejoin="round" />

  <path d="M571.804 583C571.143 584.144 570.879 585.474 571.051 586.783C571.224 588.093 571.823 589.309 572.757 590.243C573.691 591.177 574.907 591.776 576.217 591.949C577.526 592.121 578.856 591.857 580 591.196" stroke="#4B3425" stroke-width="2" stroke-linejoin="round" />

</svg>