<svg width="72.00" height="72.00" viewBox="694.00 1312.00 72.00 72.00" fill="none" xmlns="http://www.w3.org/2000/svg">
  <rect x="698" y="1316" width="64" height="64" rx="32" fill="#F7F4F2" />

  <path fill-rule="evenodd" clip-rule="evenodd" d="M730 1358C735.523 1358 740 1353.52 740 1348C740 1342.48 735.523 1338 730 1338C724.477 1338 720 1342.48 720 1348C720 1353.52 724.477 1358 730 1358ZM735.796 1349.45C735.454 1348.17 734.7 1347.04 733.653 1346.24C732.605 1345.44 731.321 1345 730 1345C728.679 1345 727.395 1345.44 726.347 1346.24C725.3 1347.04 724.546 1348.17 724.204 1349.45L726.136 1349.96C726.364 1349.11 726.866 1348.36 727.565 1347.83C728.264 1347.29 729.119 1347 730 1347C730.881 1347 731.736 1347.29 732.435 1347.83C733.134 1348.36 733.636 1349.11 733.864 1349.96L735.796 1349.45Z" fill="#4B3425" />

</svg>